G04*
G04 #@! TF.GenerationSoftware,Altium Limited,Altium Designer,18.0.7 (293)*
G04*
G04 Layer_Color=8388736*
%FSTAX24Y24*%
%MOIN*%
G70*
G01*
G75*
%ADD142C,0.0020*%
D142*
X035093Y026744D02*
Y026922D01*
X03527Y026744D02*
Y026922D01*
X035093Y026744D02*
X03527D01*
X035093Y026922D02*
X03527D01*
X035093Y024146D02*
Y024323D01*
X03527Y024146D02*
Y024323D01*
X035093Y024146D02*
X03527D01*
X035093Y024323D02*
X03527D01*
X033911Y026744D02*
Y026922D01*
X034089Y026744D02*
Y026922D01*
X033911Y026744D02*
X034089D01*
X033911Y026922D02*
X034089D01*
X033911Y024146D02*
Y024323D01*
X034089Y024146D02*
Y024323D01*
X033911Y024146D02*
X034089D01*
X033911Y024323D02*
X034089D01*
X034502Y027178D02*
Y027355D01*
X034679Y027178D02*
Y027355D01*
X034502Y027178D02*
X034679D01*
X034502Y027355D02*
X034679D01*
X034502Y023713D02*
Y02389D01*
X034679Y023713D02*
Y02389D01*
X034502Y023713D02*
X034679D01*
X034502Y02389D02*
X034679D01*
X030447Y024146D02*
Y024323D01*
X030624Y024146D02*
Y024323D01*
X030447Y024146D02*
X030624D01*
X030447Y024323D02*
X030624D01*
X033911Y023713D02*
Y02389D01*
X034089Y023713D02*
Y02389D01*
X033911Y023713D02*
X034089D01*
X033911Y02389D02*
X034089D01*
X030014Y025878D02*
Y026056D01*
X030191Y025878D02*
Y026056D01*
X030014Y025878D02*
X030191D01*
X030014Y026056D02*
X030191D01*
X031746Y025662D02*
Y025839D01*
X031923Y025662D02*
Y025839D01*
X031746Y025662D02*
X031923D01*
X031746Y025839D02*
X031923D01*
X035093Y023713D02*
Y02389D01*
X03527Y023713D02*
Y02389D01*
X035093Y023713D02*
X03527D01*
X035093Y02389D02*
X03527D01*
X033045Y027178D02*
Y027355D01*
X033222Y027178D02*
Y027355D01*
X033045Y027178D02*
X033222D01*
X033045Y027355D02*
X033222D01*
X033478Y027178D02*
Y027355D01*
X033656Y027178D02*
Y027355D01*
X033478Y027178D02*
X033656D01*
X033478Y027355D02*
X033656D01*
X033911Y025445D02*
Y025622D01*
X034089Y025445D02*
Y025622D01*
X033911Y025445D02*
X034089D01*
X033911Y025622D02*
X034089D01*
X033478Y024579D02*
Y024756D01*
X033656Y024579D02*
Y024756D01*
X033478Y024579D02*
X033656D01*
X033478Y024756D02*
X033656D01*
X030014Y024579D02*
Y024756D01*
X030191Y024579D02*
Y024756D01*
X030014Y024579D02*
X030191D01*
X030014Y024756D02*
X030191D01*
X030014Y024146D02*
Y024323D01*
X030191Y024146D02*
Y024323D01*
X030014Y024146D02*
X030191D01*
X030014Y024323D02*
X030191D01*
X032612Y023713D02*
Y02389D01*
X032789Y023713D02*
Y02389D01*
X032612Y023713D02*
X032789D01*
X032612Y02389D02*
X032789D01*
X030014D02*
X030191D01*
X030014Y023713D02*
X030191D01*
Y02389D01*
X030014Y023713D02*
Y02389D01*
Y027355D02*
X030191D01*
X030014Y027178D02*
X030191D01*
Y027355D01*
X030014Y027178D02*
Y027355D01*
X030447Y026922D02*
X030624D01*
X030447Y026744D02*
X030624D01*
Y026922D01*
X030447Y026744D02*
Y026922D01*
X033911Y026489D02*
X034089D01*
X033911Y026311D02*
X034089D01*
Y026489D01*
X033911Y026311D02*
Y026489D01*
X035093Y027355D02*
X03527D01*
X035093Y027178D02*
X03527D01*
Y027355D01*
X035093Y027178D02*
Y027355D01*
X033911D02*
X034089D01*
X033911Y027178D02*
X034089D01*
Y027355D01*
X033911Y027178D02*
Y027355D01*
X032612Y026922D02*
X032789D01*
X032612Y026744D02*
X032789D01*
Y026922D01*
X032612Y026744D02*
Y026922D01*
Y027355D02*
X032789D01*
X032612Y027178D02*
X032789D01*
Y027355D01*
X032612Y027178D02*
Y027355D01*
X032179Y026922D02*
X032356D01*
X032179Y026744D02*
X032356D01*
Y026922D01*
X032179Y026744D02*
Y026922D01*
X033045D02*
X033222D01*
X033045Y026744D02*
X033222D01*
Y026922D01*
X033045Y026744D02*
Y026922D01*
Y024756D02*
X033222D01*
X033045Y024579D02*
X033222D01*
Y024756D01*
X033045Y024579D02*
Y024756D01*
Y026489D02*
X033222D01*
X033045Y026311D02*
X033222D01*
Y026489D01*
X033045Y026311D02*
Y026489D01*
X031746Y024756D02*
X031923D01*
X031746Y024579D02*
X031923D01*
Y024756D01*
X031746Y024579D02*
Y024756D01*
X031313D02*
X03149D01*
X031313Y024579D02*
X03149D01*
Y024756D01*
X031313Y024579D02*
Y024756D01*
X03088Y02389D02*
X031057D01*
X03088Y023713D02*
X031057D01*
Y02389D01*
X03088Y023713D02*
Y02389D01*
X030447D02*
X030624D01*
X030447Y023713D02*
X030624D01*
Y02389D01*
X030447Y023713D02*
Y02389D01*
X031746Y027355D02*
X031923D01*
X031746Y027178D02*
X031923D01*
Y027355D01*
X031746Y027178D02*
Y027355D01*
X031313Y026922D02*
X03149D01*
X031313Y026744D02*
X03149D01*
Y026922D01*
X031313Y026744D02*
Y026922D01*
X031057Y025012D02*
Y025189D01*
X03088Y025012D02*
Y025189D01*
Y025012D02*
X031057D01*
X03088Y025189D02*
X031057D01*
X030447Y025622D02*
X030624D01*
X030447Y025445D02*
X030624D01*
Y025622D01*
X030447Y025445D02*
Y025622D01*
X031923Y026311D02*
Y026489D01*
X031746Y026311D02*
Y026489D01*
Y026311D02*
X031923D01*
X031746Y026489D02*
X031923D01*
X033656Y026744D02*
Y026922D01*
X033478Y026744D02*
Y026922D01*
Y026744D02*
X033656D01*
X033478Y026922D02*
X033656D01*
X030191Y025445D02*
Y025622D01*
X030014Y025445D02*
Y025622D01*
Y025445D02*
X030191D01*
X030014Y025622D02*
X030191D01*
X032789Y024579D02*
Y024756D01*
X032612Y024579D02*
Y024756D01*
Y024579D02*
X032789D01*
X032612Y024756D02*
X032789D01*
X032356Y026311D02*
Y026489D01*
X032179Y026311D02*
Y026489D01*
Y026311D02*
X032356D01*
X032179Y026489D02*
X032356D01*
X032789Y024146D02*
Y024323D01*
X032612Y024146D02*
Y024323D01*
Y024146D02*
X032789D01*
X032612Y024323D02*
X032789D01*
Y026311D02*
Y026489D01*
X032612Y026311D02*
Y026489D01*
Y026311D02*
X032789D01*
X032612Y026489D02*
X032789D01*
X033656Y024146D02*
Y024323D01*
X033478Y024146D02*
Y024323D01*
Y024146D02*
X033656D01*
X033478Y024323D02*
X033656D01*
X033222Y024146D02*
Y024323D01*
X033045Y024146D02*
Y024323D01*
Y024146D02*
X033222D01*
X033045Y024323D02*
X033222D01*
X034089Y024579D02*
Y024756D01*
X033911Y024579D02*
Y024756D01*
Y024579D02*
X034089D01*
X033911Y024756D02*
X034089D01*
X032356Y027178D02*
Y027355D01*
X032179Y027178D02*
Y027355D01*
Y027178D02*
X032356D01*
X032179Y027355D02*
X032356D01*
X030191Y026311D02*
Y026489D01*
X030014Y026311D02*
Y026489D01*
Y026311D02*
X030191D01*
X030014Y026489D02*
X030191D01*
X030624Y027178D02*
Y027355D01*
X030447Y027178D02*
Y027355D01*
Y027178D02*
X030624D01*
X030447Y027355D02*
X030624D01*
X030191Y026744D02*
Y026922D01*
X030014Y026744D02*
Y026922D01*
Y026744D02*
X030191D01*
X030014Y026922D02*
X030191D01*
X030624Y026311D02*
Y026489D01*
X030447Y026311D02*
Y026489D01*
Y026311D02*
X030624D01*
X030447Y026489D02*
X030624D01*
X031057Y027178D02*
Y027355D01*
X03088Y027178D02*
Y027355D01*
Y027178D02*
X031057D01*
X03088Y027355D02*
X031057D01*
X03149Y027178D02*
Y027355D01*
X031313Y027178D02*
Y027355D01*
Y027178D02*
X03149D01*
X031313Y027355D02*
X03149D01*
X033656Y026311D02*
Y026489D01*
X033478Y026311D02*
Y026489D01*
Y026311D02*
X033656D01*
X033478Y026489D02*
X033656D01*
X033222Y023713D02*
Y02389D01*
X033045Y023713D02*
Y02389D01*
Y023713D02*
X033222D01*
X033045Y02389D02*
X033222D01*
X032789Y025229D02*
Y025406D01*
X032612Y025229D02*
Y025406D01*
Y025229D02*
X032789D01*
X032612Y025406D02*
X032789D01*
X031057Y025445D02*
Y025622D01*
X03088Y025445D02*
Y025622D01*
Y025445D02*
X031057D01*
X03088Y025622D02*
X031057D01*
X032356Y024579D02*
Y024756D01*
X032179Y024579D02*
Y024756D01*
Y024579D02*
X032356D01*
X032179Y024756D02*
X032356D01*
Y024146D02*
Y024323D01*
X032179Y024146D02*
Y024323D01*
Y024146D02*
X032356D01*
X032179Y024323D02*
X032356D01*
Y023713D02*
Y02389D01*
X032179Y023713D02*
Y02389D01*
Y023713D02*
X032356D01*
X032179Y02389D02*
X032356D01*
X031923Y023713D02*
Y02389D01*
X031746Y023713D02*
Y02389D01*
Y023713D02*
X031923D01*
X031746Y02389D02*
X031923D01*
Y024146D02*
Y024323D01*
X031746Y024146D02*
Y024323D01*
Y024146D02*
X031923D01*
X031746Y024323D02*
X031923D01*
X03149Y024146D02*
Y024323D01*
X031313Y024146D02*
Y024323D01*
Y024146D02*
X03149D01*
X031313Y024323D02*
X03149D01*
Y023713D02*
Y02389D01*
X031313Y023713D02*
Y02389D01*
Y023713D02*
X03149D01*
X031313Y02389D02*
X03149D01*
X033656Y023713D02*
Y02389D01*
X033478Y023713D02*
Y02389D01*
Y023713D02*
X033656D01*
X033478Y02389D02*
X033656D01*
X031923Y026744D02*
Y026922D01*
X031746Y026744D02*
Y026922D01*
Y026744D02*
X031923D01*
X031746Y026922D02*
X031923D01*
X030191Y025012D02*
Y025189D01*
X030014Y025012D02*
Y025189D01*
Y025012D02*
X030191D01*
X030014Y025189D02*
X030191D01*
X030624Y025012D02*
Y025189D01*
X030447Y025012D02*
Y025189D01*
Y025012D02*
X030624D01*
X030447Y025189D02*
X030624D01*
Y025878D02*
Y026056D01*
X030447Y025878D02*
Y026056D01*
Y025878D02*
X030624D01*
X030447Y026056D02*
X030624D01*
X031057Y025878D02*
Y026056D01*
X03088Y025878D02*
Y026056D01*
Y025878D02*
X031057D01*
X03088Y026056D02*
X031057D01*
X03149Y026311D02*
Y026489D01*
X031313Y026311D02*
Y026489D01*
Y026311D02*
X03149D01*
X031313Y026489D02*
X03149D01*
X031057Y026744D02*
Y026922D01*
X03088Y026744D02*
Y026922D01*
Y026744D02*
X031057D01*
X03088Y026922D02*
X031057D01*
X03088Y024146D02*
X031057D01*
X03088Y024323D02*
X031057D01*
X03088Y024146D02*
Y024323D01*
X031057Y024146D02*
Y024323D01*
X030624Y024579D02*
Y024756D01*
X030447Y024579D02*
Y024756D01*
Y024579D02*
X030624D01*
X030447Y024756D02*
X030624D01*
X031746Y025229D02*
Y025406D01*
X031923Y025229D02*
Y025406D01*
X031746Y025229D02*
X031923D01*
X031746Y025406D02*
X031923D01*
X032179Y025229D02*
Y025406D01*
X032356Y025229D02*
Y025406D01*
X032179Y025229D02*
X032356D01*
X032179Y025406D02*
X032356D01*
X032179Y025662D02*
Y025839D01*
X032356Y025662D02*
Y025839D01*
X032179Y025662D02*
X032356D01*
X032179Y025839D02*
X032356D01*
X032612Y025662D02*
Y025839D01*
X032789Y025662D02*
Y025839D01*
X032612Y025662D02*
X032789D01*
X032612Y025839D02*
X032789D01*
X033478Y025662D02*
Y025839D01*
X033656Y025662D02*
Y025839D01*
X033478Y025662D02*
X033656D01*
X033478Y025839D02*
X033656D01*
X033478Y025229D02*
Y025406D01*
X033656Y025229D02*
Y025406D01*
X033478Y025229D02*
X033656D01*
X033478Y025406D02*
X033656D01*
M02*
