G04*
G04 #@! TF.GenerationSoftware,Altium Limited,Altium Designer,18.0.7 (293)*
G04*
G04 Layer_Color=32768*
%FSTAX24Y24*%
%MOIN*%
G70*
G01*
G75*
%ADD12C,0.0039*%
%ADD18C,0.0060*%
%ADD142C,0.0020*%
G36*
X025165Y016291D02*
Y016635D01*
X025509D01*
Y016755D01*
X026991D01*
Y016635D01*
X027335D01*
Y016291D01*
X027455D01*
Y014809D01*
X027335D01*
Y014465D01*
X026991D01*
Y014345D01*
X025509D01*
Y014465D01*
X025165D01*
Y014809D01*
X025045D01*
Y016291D01*
X025165D01*
D02*
G37*
D12*
X023425Y01887D02*
X026575D01*
Y022137D01*
X023425D02*
X026575D01*
X023425Y01887D02*
Y022137D01*
X0229Y032153D02*
Y032547D01*
X022703Y03235D02*
X023097D01*
X021987Y028833D02*
Y031667D01*
X025413Y028833D02*
Y031667D01*
X021987D02*
X025413D01*
X021987Y028833D02*
X025413D01*
X023503Y03025D02*
X023897D01*
X0237Y030053D02*
Y030447D01*
X031253Y03545D02*
X031647D01*
X03145Y035253D02*
Y035647D01*
X032224Y034219D02*
Y036896D01*
Y034219D02*
X034901D01*
Y036896D01*
X032224D02*
X034901D01*
X030044Y018685D02*
X035556D01*
X030044Y013174D02*
Y018685D01*
Y013174D02*
X035556D01*
Y018685D01*
X012542Y010293D02*
X021558D01*
Y041986D01*
X012542D02*
X021558D01*
X012542Y010293D02*
Y041986D01*
X021615Y033836D02*
X024272D01*
Y040096D01*
X021615D02*
X024272D01*
X021615Y033836D02*
Y040096D01*
X024418Y032739D02*
X027469D01*
Y038408D01*
X024418D02*
X027469D01*
X024418Y032739D02*
Y038408D01*
X023613Y025429D02*
X025187D01*
X023613Y023697D02*
Y025429D01*
Y023697D02*
X025187D01*
Y025429D01*
X025474Y02734D02*
Y028718D01*
X023506Y02734D02*
Y028718D01*
Y02734D02*
X025474D01*
X023506Y028718D02*
X025474D01*
X024293Y028029D02*
X024687D01*
X02449Y027832D02*
Y028225D01*
X0227Y026653D02*
Y027047D01*
X022503Y02685D02*
X022897D01*
X021632Y020892D02*
Y022821D01*
Y020892D02*
X023568D01*
Y022821D01*
X021632D02*
X023568D01*
X028313Y038778D02*
X032628D01*
X028313D02*
Y042663D01*
X032628D01*
Y038778D02*
Y042663D01*
X028116Y0088D02*
Y01323D01*
Y0088D02*
X033109D01*
Y01323D01*
X028116D02*
X033109D01*
X024357Y038778D02*
X028672D01*
X024357D02*
Y042663D01*
X028672D01*
Y038778D02*
Y042663D01*
D18*
X025165Y016291D02*
Y016635D01*
X025045Y016291D02*
X025165D01*
X025045Y014809D02*
Y016291D01*
Y014809D02*
X025165D01*
Y014465D02*
Y014809D01*
Y014465D02*
X025509D01*
Y014345D02*
Y014465D01*
Y014345D02*
X026991D01*
Y014465D01*
X027335D01*
Y014809D01*
X027455D01*
Y016291D01*
X027335D02*
X027455D01*
X027335D02*
Y016635D01*
X026991D02*
X027335D01*
X026991D02*
Y016755D01*
X025509D02*
X026991D01*
X025509Y016635D02*
Y016755D01*
X025165Y016635D02*
X025509D01*
D142*
X023869Y031917D02*
Y032783D01*
X021931D02*
X023869D01*
X021931Y031917D02*
X023869D01*
X021931D02*
Y032783D01*
X0229Y033113D02*
Y033487D01*
X022713Y0333D02*
X023087D01*
X02235Y033005D02*
X02345D01*
X02235Y033595D02*
X02345D01*
Y033005D02*
Y033595D01*
X02235Y033005D02*
Y033595D01*
X0305Y039613D02*
Y039987D01*
X030313Y0398D02*
X030687D01*
X02995Y039505D02*
X03105D01*
X02995Y040095D02*
X03105D01*
Y039505D02*
Y040095D01*
X02995Y039505D02*
Y040095D01*
X03075Y037863D02*
Y038237D01*
X030563Y03805D02*
X030937D01*
X0302Y037755D02*
X0313D01*
X0302Y038345D02*
X0313D01*
Y037755D02*
Y038345D01*
X0302Y037755D02*
Y038345D01*
X03075Y036663D02*
Y037037D01*
X030563Y03685D02*
X030937D01*
X0302Y036555D02*
X0313D01*
X0302Y037145D02*
X0313D01*
Y036555D02*
Y037145D01*
X0302Y036555D02*
Y037145D01*
X03075Y037263D02*
Y037637D01*
X030563Y03745D02*
X030937D01*
X0302Y037745D02*
X0313D01*
X0302Y037155D02*
X0313D01*
X0302D02*
Y037745D01*
X0313Y037155D02*
Y037745D01*
X031017Y036418D02*
X031883D01*
X031017Y034481D02*
Y036418D01*
X031883Y034481D02*
Y036418D01*
X031017Y034481D02*
X031883D01*
X03455Y037263D02*
Y037637D01*
X034363Y03745D02*
X034737D01*
X034Y037745D02*
X0351D01*
X034Y037155D02*
X0351D01*
X034D02*
Y037745D01*
X0351Y037155D02*
Y037745D01*
X03475Y033463D02*
Y033837D01*
X034563Y03365D02*
X034937D01*
X0342Y033945D02*
X0353D01*
X0342Y033355D02*
X0353D01*
X0342D02*
Y033945D01*
X0353Y033355D02*
Y033945D01*
X032435Y033463D02*
Y033837D01*
X032248Y03365D02*
X032622D01*
X031885Y033355D02*
X032985D01*
X031885Y033945D02*
X032985D01*
Y033355D02*
Y033945D01*
X031885Y033355D02*
Y033945D01*
X031263Y0339D02*
X031637D01*
X03145Y033713D02*
Y034087D01*
X031745Y03335D02*
Y03445D01*
X031155Y03335D02*
Y03445D01*
X031745D01*
X031155Y03335D02*
X031745D01*
X01145Y025063D02*
Y025437D01*
X011263Y02525D02*
X011637D01*
X0109Y024955D02*
X012D01*
X0109Y025545D02*
X012D01*
Y024955D02*
Y025545D01*
X0109Y024955D02*
Y025545D01*
X012195Y019505D02*
Y022595D01*
X010805Y019505D02*
X012195D01*
X010805D02*
Y022595D01*
X012195D01*
X010811Y023023D02*
X012189D01*
Y024677D01*
X010811D02*
X012189D01*
X010811Y023023D02*
Y024677D01*
X0265Y039563D02*
Y039937D01*
X026313Y03975D02*
X026687D01*
X02595Y039455D02*
X02705D01*
X02595Y040045D02*
X02705D01*
Y039455D02*
Y040045D01*
X02595Y039455D02*
Y040045D01*
X027693Y035583D02*
X029858D01*
Y038517D01*
X027693D02*
X029858D01*
X027693Y035583D02*
Y038517D01*
Y031559D02*
X030007D01*
Y035241D01*
X027693D02*
X030007D01*
X027693Y031559D02*
Y035241D01*
X026565Y032263D02*
Y032637D01*
X026378Y03245D02*
X026752D01*
X026015Y032155D02*
X027115D01*
X026015Y032745D02*
X027115D01*
Y032155D02*
Y032745D01*
X026015Y032155D02*
Y032745D01*
X026565Y031613D02*
Y031987D01*
X026378Y0318D02*
X026752D01*
X026015Y031505D02*
X027115D01*
X026015Y032095D02*
X027115D01*
Y031505D02*
Y032095D01*
X026015Y031505D02*
Y032095D01*
X02255Y028163D02*
Y028537D01*
X022363Y02835D02*
X022737D01*
X022Y028645D02*
X0231D01*
X022Y028055D02*
X0231D01*
X022D02*
Y028645D01*
X0231Y028055D02*
Y028645D01*
X021732Y026417D02*
Y027283D01*
Y026417D02*
X023668D01*
X021732Y027283D02*
X023668D01*
Y026417D02*
Y027283D01*
X02225Y018963D02*
Y019337D01*
X022063Y01915D02*
X022437D01*
X0217Y019445D02*
X0228D01*
X0217Y018855D02*
X0228D01*
X0217D02*
Y019445D01*
X0228Y018855D02*
Y019445D01*
X02565Y017663D02*
Y018037D01*
X025463Y01785D02*
X025837D01*
X0251Y018145D02*
X0262D01*
X0251Y017555D02*
X0262D01*
X0251D02*
Y018145D01*
X0262Y017555D02*
Y018145D01*
X0263Y018313D02*
Y018687D01*
X026113Y0185D02*
X026487D01*
X02575Y018795D02*
X02685D01*
X02575Y018205D02*
X02685D01*
X02575D02*
Y018795D01*
X02685Y018205D02*
Y018795D01*
X02775Y018313D02*
Y018687D01*
X027563Y0185D02*
X027937D01*
X0272Y018205D02*
X0283D01*
X0272Y018795D02*
X0283D01*
Y018205D02*
Y018795D01*
X0272Y018205D02*
Y018795D01*
X02775Y018863D02*
Y019237D01*
X027563Y01905D02*
X027937D01*
X0272Y018755D02*
X0283D01*
X0272Y019345D02*
X0283D01*
Y018755D02*
Y019345D01*
X0272Y018755D02*
Y019345D01*
X022498Y018217D02*
X024702D01*
X022498Y015283D02*
Y018217D01*
Y015283D02*
X024702D01*
Y018217D01*
X021863Y017435D02*
X022237D01*
X02205Y017248D02*
Y017622D01*
X022345Y016885D02*
Y017985D01*
X021755Y016885D02*
Y017985D01*
X022345D01*
X021755Y016885D02*
X022345D01*
X021616Y013198D02*
X025608D01*
Y009879D02*
Y013198D01*
X021616Y009879D02*
X025608D01*
X021616D02*
Y013198D01*
X029728Y023408D02*
X035516D01*
X029728D02*
Y02766D01*
X032622Y025494D02*
X033016D01*
X032819Y025298D02*
Y025691D01*
X035516Y023408D02*
Y02766D01*
X029728D02*
X035516D01*
M02*
