G04*
G04 #@! TF.GenerationSoftware,Altium Limited,Altium Designer,18.0.7 (293)*
G04*
G04 Layer_Color=0*
%FSTAX24Y24*%
%MOIN*%
G70*
G01*
G75*
%ADD142C,0.0020*%
D142*
X035181Y026715D02*
Y026951D01*
X035063Y026833D02*
X035299D01*
X035093Y026922D02*
X03527D01*
Y026744D02*
Y026922D01*
X035093Y026744D02*
Y026922D01*
Y026744D02*
X03527D01*
X035181Y024117D02*
Y024353D01*
X035063Y024235D02*
X035299D01*
X035093Y024323D02*
X03527D01*
Y024146D02*
Y024323D01*
X035093Y024146D02*
Y024323D01*
Y024146D02*
X03527D01*
X034Y026715D02*
Y026951D01*
X033882Y026833D02*
X034118D01*
X033911Y026922D02*
X034089D01*
Y026744D02*
Y026922D01*
X033911Y026744D02*
Y026922D01*
Y026744D02*
X034089D01*
X034Y024117D02*
Y024353D01*
X033882Y024235D02*
X034118D01*
X033911Y024323D02*
X034089D01*
Y024146D02*
Y024323D01*
X033911Y024146D02*
Y024323D01*
Y024146D02*
X034089D01*
X034591Y027148D02*
Y027384D01*
X034472Y027266D02*
X034709D01*
X034502Y027355D02*
X034679D01*
Y027178D02*
Y027355D01*
X034502Y027178D02*
Y027355D01*
Y027178D02*
X034679D01*
X034591Y023683D02*
Y02392D01*
X034472Y023802D02*
X034709D01*
X034502Y02389D02*
X034679D01*
Y023713D02*
Y02389D01*
X034502Y023713D02*
Y02389D01*
Y023713D02*
X034679D01*
X030535Y024117D02*
Y024353D01*
X030417Y024235D02*
X030654D01*
X030447Y024323D02*
X030624D01*
Y024146D02*
Y024323D01*
X030447Y024146D02*
Y024323D01*
Y024146D02*
X030624D01*
X034Y023683D02*
Y02392D01*
X033882Y023802D02*
X034118D01*
X033911Y02389D02*
X034089D01*
Y023713D02*
Y02389D01*
X033911Y023713D02*
Y02389D01*
Y023713D02*
X034089D01*
X030102Y025849D02*
Y026085D01*
X029984Y025967D02*
X03022D01*
X030014Y026056D02*
X030191D01*
Y025878D02*
Y026056D01*
X030014Y025878D02*
Y026056D01*
Y025878D02*
X030191D01*
X035181Y023683D02*
Y02392D01*
X035063Y023802D02*
X035299D01*
X035093Y02389D02*
X03527D01*
Y023713D02*
Y02389D01*
X035093Y023713D02*
Y02389D01*
Y023713D02*
X03527D01*
X033134Y027148D02*
Y027384D01*
X033016Y027266D02*
X033252D01*
X033045Y027355D02*
X033222D01*
Y027178D02*
Y027355D01*
X033045Y027178D02*
Y027355D01*
Y027178D02*
X033222D01*
X033567Y027148D02*
Y027385D01*
X033449Y027267D02*
X033685D01*
X033478Y027355D02*
X033656D01*
Y027178D02*
Y027355D01*
X033478Y027178D02*
Y027355D01*
Y027178D02*
X033656D01*
X034Y025416D02*
Y025652D01*
X033882Y025534D02*
X034118D01*
X033911Y025622D02*
X034089D01*
Y025445D02*
Y025622D01*
X033911Y025445D02*
Y025622D01*
Y025445D02*
X034089D01*
X033567Y02455D02*
Y024786D01*
X033449Y024668D02*
X033685D01*
X033478Y024756D02*
X033656D01*
Y024579D02*
Y024756D01*
X033478Y024579D02*
Y024756D01*
Y024579D02*
X033656D01*
X030102Y02455D02*
Y024786D01*
X029984Y024668D02*
X03022D01*
X030014Y024756D02*
X030191D01*
Y024579D02*
Y024756D01*
X030014Y024579D02*
Y024756D01*
Y024579D02*
X030191D01*
X030102Y024117D02*
Y024353D01*
X029984Y024235D02*
X03022D01*
X030014Y024323D02*
X030191D01*
Y024146D02*
Y024323D01*
X030014Y024146D02*
Y024323D01*
Y024146D02*
X030191D01*
X032701Y023683D02*
Y02392D01*
X032583Y023802D02*
X032819D01*
X032612Y02389D02*
X032789D01*
Y023713D02*
Y02389D01*
X032612Y023713D02*
Y02389D01*
Y023713D02*
X032789D01*
X030014D02*
X030191D01*
X030014D02*
Y02389D01*
X030191Y023713D02*
Y02389D01*
X030014D02*
X030191D01*
X029984Y023802D02*
X03022D01*
X030102Y023683D02*
Y02392D01*
X030014Y027178D02*
X030191D01*
X030014D02*
Y027355D01*
X030191Y027178D02*
Y027355D01*
X030014D02*
X030191D01*
X029984Y027266D02*
X03022D01*
X030102Y027148D02*
Y027384D01*
X030447Y026744D02*
X030624D01*
X030447D02*
Y026922D01*
X030624Y026744D02*
Y026922D01*
X030447D02*
X030624D01*
X030417Y026833D02*
X030654D01*
X030535Y026715D02*
Y026951D01*
X033911Y026311D02*
X034089D01*
X033911D02*
Y026489D01*
X034089Y026311D02*
Y026489D01*
X033911D02*
X034089D01*
X033882Y0264D02*
X034118D01*
X034Y026282D02*
Y026518D01*
X035093Y027178D02*
X03527D01*
X035093D02*
Y027355D01*
X03527Y027178D02*
Y027355D01*
X035093D02*
X03527D01*
X035063Y027266D02*
X035299D01*
X035181Y027148D02*
Y027384D01*
X033911Y027178D02*
X034089D01*
X033911D02*
Y027355D01*
X034089Y027178D02*
Y027355D01*
X033911D02*
X034089D01*
X033882Y027266D02*
X034118D01*
X034Y027148D02*
Y027384D01*
X032612Y026744D02*
X032789D01*
X032612D02*
Y026922D01*
X032789Y026744D02*
Y026922D01*
X032612D02*
X032789D01*
X032583Y026833D02*
X032819D01*
X032701Y026715D02*
Y026951D01*
X032612Y027178D02*
X032789D01*
X032612D02*
Y027355D01*
X032789Y027178D02*
Y027355D01*
X032612D02*
X032789D01*
X032583Y027266D02*
X032819D01*
X032701Y027148D02*
Y027384D01*
X032179Y026744D02*
X032356D01*
X032179D02*
Y026922D01*
X032356Y026744D02*
Y026922D01*
X032179D02*
X032356D01*
X03215Y026833D02*
X032386D01*
X032268Y026715D02*
Y026951D01*
X033045Y026744D02*
X033222D01*
X033045D02*
Y026922D01*
X033222Y026744D02*
Y026922D01*
X033045D02*
X033222D01*
X033016Y026833D02*
X033252D01*
X033134Y026715D02*
Y026951D01*
X033045Y024579D02*
X033222D01*
X033045D02*
Y024756D01*
X033222Y024579D02*
Y024756D01*
X033045D02*
X033222D01*
X033016Y024668D02*
X033252D01*
X033134Y02455D02*
Y024786D01*
X033045Y026311D02*
X033222D01*
X033045D02*
Y026489D01*
X033222Y026311D02*
Y026489D01*
X033045D02*
X033222D01*
X033016Y0264D02*
X033252D01*
X033134Y026282D02*
Y026518D01*
X031746Y024579D02*
X031923D01*
X031746D02*
Y024756D01*
X031923Y024579D02*
Y024756D01*
X031746D02*
X031923D01*
X031717Y024668D02*
X031953D01*
X031835Y02455D02*
Y024786D01*
X031313Y024579D02*
X03149D01*
X031313D02*
Y024756D01*
X03149Y024579D02*
Y024756D01*
X031313D02*
X03149D01*
X031283Y024668D02*
X03152D01*
X031402Y02455D02*
Y024786D01*
X03088Y023713D02*
X031057D01*
X03088D02*
Y02389D01*
X031057Y023713D02*
Y02389D01*
X03088D02*
X031057D01*
X03085Y023802D02*
X031087D01*
X030969Y023683D02*
Y02392D01*
X030447Y023713D02*
X030624D01*
X030447D02*
Y02389D01*
X030624Y023713D02*
Y02389D01*
X030447D02*
X030624D01*
X030417Y023802D02*
X030654D01*
X030535Y023683D02*
Y02392D01*
X031746Y027178D02*
X031923D01*
X031746D02*
Y027355D01*
X031923Y027178D02*
Y027355D01*
X031746D02*
X031923D01*
X031717Y027266D02*
X031953D01*
X031835Y027148D02*
Y027384D01*
X031313Y026744D02*
X03149D01*
X031313D02*
Y026922D01*
X03149Y026744D02*
Y026922D01*
X031313D02*
X03149D01*
X031283Y026833D02*
X03152D01*
X031402Y026715D02*
Y026951D01*
X03088Y025012D02*
Y025189D01*
X031057D01*
X03088Y025012D02*
X031057D01*
Y025189D01*
X030969Y024983D02*
Y025219D01*
X03085Y025101D02*
X031087D01*
X030447Y025445D02*
X030624D01*
X030447D02*
Y025622D01*
X030624Y025445D02*
Y025622D01*
X030447D02*
X030624D01*
X030417Y025534D02*
X030654D01*
X030535Y025416D02*
Y025652D01*
X031746Y026311D02*
Y026489D01*
X031923D01*
X031746Y026311D02*
X031923D01*
Y026489D01*
X031835Y026282D02*
Y026518D01*
X031717Y0264D02*
X031953D01*
X033478Y026744D02*
Y026922D01*
X033656D01*
X033478Y026744D02*
X033656D01*
Y026922D01*
X033567Y026715D02*
Y026951D01*
X033449Y026833D02*
X033685D01*
X030014Y025445D02*
Y025622D01*
X030191D01*
X030014Y025445D02*
X030191D01*
Y025622D01*
X030102Y025416D02*
Y025652D01*
X029984Y025534D02*
X03022D01*
X032612Y024579D02*
Y024756D01*
X032789D01*
X032612Y024579D02*
X032789D01*
Y024756D01*
X032701Y02455D02*
Y024786D01*
X032583Y024668D02*
X032819D01*
X032179Y026311D02*
Y026489D01*
X032356D01*
X032179Y026311D02*
X032356D01*
Y026489D01*
X032268Y026282D02*
Y026518D01*
X03215Y0264D02*
X032386D01*
X032612Y024146D02*
Y024323D01*
X032789D01*
X032612Y024146D02*
X032789D01*
Y024323D01*
X032701Y024117D02*
Y024353D01*
X032583Y024235D02*
X032819D01*
X032612Y026311D02*
Y026489D01*
X032789D01*
X032612Y026311D02*
X032789D01*
Y026489D01*
X032701Y026282D02*
Y026518D01*
X032583Y0264D02*
X032819D01*
X033478Y024146D02*
Y024323D01*
X033656D01*
X033478Y024146D02*
X033656D01*
Y024323D01*
X033567Y024117D02*
Y024353D01*
X033449Y024235D02*
X033685D01*
X033045Y024146D02*
Y024323D01*
X033222D01*
X033045Y024146D02*
X033222D01*
Y024323D01*
X033134Y024117D02*
Y024353D01*
X033016Y024235D02*
X033252D01*
X033911Y024579D02*
Y024756D01*
X034089D01*
X033911Y024579D02*
X034089D01*
Y024756D01*
X034Y02455D02*
Y024786D01*
X033882Y024668D02*
X034118D01*
X032179Y027178D02*
Y027355D01*
X032356D01*
X032179Y027178D02*
X032356D01*
Y027355D01*
X032268Y027148D02*
Y027384D01*
X03215Y027266D02*
X032386D01*
X030014Y026311D02*
Y026489D01*
X030191D01*
X030014Y026311D02*
X030191D01*
Y026489D01*
X030102Y026282D02*
Y026518D01*
X029984Y0264D02*
X03022D01*
X030447Y027178D02*
Y027355D01*
X030624D01*
X030447Y027178D02*
X030624D01*
Y027355D01*
X030535Y027148D02*
Y027384D01*
X030417Y027266D02*
X030654D01*
X030014Y026744D02*
Y026922D01*
X030191D01*
X030014Y026744D02*
X030191D01*
Y026922D01*
X030102Y026715D02*
Y026951D01*
X029984Y026833D02*
X03022D01*
X030447Y026311D02*
Y026489D01*
X030624D01*
X030447Y026311D02*
X030624D01*
Y026489D01*
X030535Y026282D02*
Y026518D01*
X030417Y0264D02*
X030654D01*
X03088Y027178D02*
Y027355D01*
X031057D01*
X03088Y027178D02*
X031057D01*
Y027355D01*
X030969Y027148D02*
Y027384D01*
X03085Y027266D02*
X031087D01*
X031313Y027178D02*
Y027355D01*
X03149D01*
X031313Y027178D02*
X03149D01*
Y027355D01*
X031402Y027148D02*
Y027384D01*
X031283Y027266D02*
X03152D01*
X033478Y026311D02*
Y026489D01*
X033656D01*
X033478Y026311D02*
X033656D01*
Y026489D01*
X033567Y026282D02*
Y026518D01*
X033449Y0264D02*
X033685D01*
X033045Y023713D02*
Y02389D01*
X033222D01*
X033045Y023713D02*
X033222D01*
Y02389D01*
X033134Y023683D02*
Y02392D01*
X033016Y023802D02*
X033252D01*
X03088Y025445D02*
Y025622D01*
X031057D01*
X03088Y025445D02*
X031057D01*
Y025622D01*
X030969Y025416D02*
Y025652D01*
X03085Y025534D02*
X031087D01*
X032179Y024579D02*
Y024756D01*
X032356D01*
X032179Y024579D02*
X032356D01*
Y024756D01*
X032268Y02455D02*
Y024786D01*
X03215Y024668D02*
X032386D01*
X032179Y024146D02*
Y024323D01*
X032356D01*
X032179Y024146D02*
X032356D01*
Y024323D01*
X032268Y024117D02*
Y024353D01*
X03215Y024235D02*
X032386D01*
X032179Y023713D02*
Y02389D01*
X032356D01*
X032179Y023713D02*
X032356D01*
Y02389D01*
X032268Y023683D02*
Y02392D01*
X03215Y023802D02*
X032386D01*
X031746Y023713D02*
Y02389D01*
X031923D01*
X031746Y023713D02*
X031923D01*
Y02389D01*
X031835Y023683D02*
Y02392D01*
X031717Y023802D02*
X031953D01*
X031746Y024146D02*
Y024323D01*
X031923D01*
X031746Y024146D02*
X031923D01*
Y024323D01*
X031835Y024117D02*
Y024353D01*
X031717Y024235D02*
X031953D01*
X031313Y024146D02*
Y024323D01*
X03149D01*
X031313Y024146D02*
X03149D01*
Y024323D01*
X031402Y024117D02*
Y024353D01*
X031283Y024235D02*
X03152D01*
X031313Y023713D02*
Y02389D01*
X03149D01*
X031313Y023713D02*
X03149D01*
Y02389D01*
X031402Y023683D02*
Y02392D01*
X031283Y023802D02*
X03152D01*
X033478Y023713D02*
Y02389D01*
X033656D01*
X033478Y023713D02*
X033656D01*
Y02389D01*
X033567Y023683D02*
Y02392D01*
X033449Y023802D02*
X033685D01*
X031746Y026744D02*
Y026922D01*
X031923D01*
X031746Y026744D02*
X031923D01*
Y026922D01*
X031835Y026715D02*
Y026951D01*
X031717Y026833D02*
X031953D01*
X030014Y025012D02*
Y025189D01*
X030191D01*
X030014Y025012D02*
X030191D01*
Y025189D01*
X030102Y024983D02*
Y025219D01*
X029984Y025101D02*
X03022D01*
X030447Y025012D02*
Y025189D01*
X030624D01*
X030447Y025012D02*
X030624D01*
Y025189D01*
X030535Y024983D02*
Y025219D01*
X030417Y025101D02*
X030654D01*
X030447Y025878D02*
Y026056D01*
X030624D01*
X030447Y025878D02*
X030624D01*
Y026056D01*
X030535Y025849D02*
Y026085D01*
X030417Y025967D02*
X030654D01*
X03088Y025878D02*
Y026056D01*
X031057D01*
X03088Y025878D02*
X031057D01*
Y026056D01*
X030969Y025849D02*
Y026085D01*
X03085Y025967D02*
X031087D01*
X031313Y026311D02*
Y026489D01*
X03149D01*
X031313Y026311D02*
X03149D01*
Y026489D01*
X031402Y026282D02*
Y026518D01*
X031283Y0264D02*
X03152D01*
X03088Y026744D02*
Y026922D01*
X031057D01*
X03088Y026744D02*
X031057D01*
Y026922D01*
X030969Y026715D02*
Y026951D01*
X03085Y026833D02*
X031087D01*
X03088Y024323D02*
X031057D01*
Y024146D02*
Y024323D01*
X03088Y024146D02*
Y024323D01*
Y024146D02*
X031057D01*
X03085Y024235D02*
X031087D01*
X030969Y024117D02*
Y024353D01*
X030447Y024579D02*
Y024756D01*
X030624D01*
X030447Y024579D02*
X030624D01*
Y024756D01*
X030535Y02455D02*
Y024786D01*
X030417Y024668D02*
X030654D01*
X031835Y025632D02*
Y025868D01*
X031717Y02575D02*
X031953D01*
X031746Y025839D02*
X031923D01*
Y025662D02*
Y025839D01*
X031746Y025662D02*
Y025839D01*
Y025662D02*
X031923D01*
X032612D02*
Y025839D01*
X032789D01*
X032612Y025662D02*
X032789D01*
Y025839D01*
X032701Y025632D02*
Y025868D01*
X032583Y02575D02*
X032819D01*
X031835Y025199D02*
Y025435D01*
X031717Y025317D02*
X031953D01*
X031746Y025406D02*
X031923D01*
Y025229D02*
Y025406D01*
X031746Y025229D02*
Y025406D01*
Y025229D02*
X031923D01*
X032612D02*
Y025406D01*
X032789D01*
X032612Y025229D02*
X032789D01*
Y025406D01*
X032701Y025199D02*
Y025435D01*
X032583Y025317D02*
X032819D01*
X032179Y025662D02*
Y025839D01*
X032356D01*
X032179Y025662D02*
X032356D01*
Y025839D01*
X032268Y025632D02*
Y025868D01*
X03215Y02575D02*
X032386D01*
X032179Y025229D02*
Y025406D01*
X032356D01*
X032179Y025229D02*
X032356D01*
Y025406D01*
X032268Y025199D02*
Y025435D01*
X03215Y025317D02*
X032386D01*
X033478Y025662D02*
Y025839D01*
X033656D01*
X033478Y025662D02*
X033656D01*
Y025839D01*
X033567Y025632D02*
Y025868D01*
X033449Y02575D02*
X033685D01*
X033478Y025229D02*
Y025406D01*
X033656D01*
X033478Y025229D02*
X033656D01*
Y025406D01*
X033567Y025199D02*
Y025435D01*
X033449Y025317D02*
X033685D01*
M02*
