G04*
G04 #@! TF.GenerationSoftware,Altium Limited,Altium Designer,18.0.7 (293)*
G04*
G04 Layer_Color=128*
%FSTAX24Y24*%
%MOIN*%
G70*
G01*
G75*
%ADD146C,0.0020*%
D146*
X032643Y01465D02*
X032957D01*
X0328Y014493D02*
Y014807D01*
X032643Y017209D02*
X032957D01*
X0328Y017052D02*
Y017367D01*
X01642Y037244D02*
X01768D01*
X01705Y036614D02*
Y037874D01*
X01642Y01535D02*
X01768D01*
X01705Y01472D02*
Y01598D01*
X016505Y040647D02*
X017595D01*
X01705Y040102D02*
Y041193D01*
X016505Y011946D02*
X017595D01*
X01705Y011401D02*
Y012492D01*
X022107Y034367D02*
X022619D01*
X022363Y034111D02*
Y034623D01*
X022953Y038934D02*
X023347D01*
X02315Y038737D02*
Y039131D01*
X022953Y03795D02*
X023347D01*
X02315Y037753D02*
Y038147D01*
X022953Y036966D02*
X023347D01*
X02315Y036769D02*
Y037163D01*
X022953Y035982D02*
X023347D01*
X02315Y035785D02*
Y036178D01*
X022953Y034997D02*
X023347D01*
X02315Y0348D02*
Y035194D01*
X02491Y033467D02*
X025422D01*
X025166Y033211D02*
Y033723D01*
X025953Y03705D02*
X026347D01*
X02615Y036853D02*
Y037247D01*
X025953Y036066D02*
X026347D01*
X02615Y035869D02*
Y036263D01*
X025953Y035082D02*
X026347D01*
X02615Y034885D02*
Y035278D01*
X025953Y034097D02*
X026347D01*
X02615Y0339D02*
Y034294D01*
X031161Y04075D02*
X031551D01*
X031356Y040555D02*
Y040945D01*
X029389Y04075D02*
X029779D01*
X029584Y040555D02*
Y040945D01*
X031594Y03977D02*
X032106D01*
X03185Y039514D02*
Y040026D01*
X028834Y03977D02*
X029346D01*
X02909Y039514D02*
Y040026D01*
X022346Y01245D02*
X022602D01*
X022474Y012322D02*
Y012578D01*
X024622Y01245D02*
X024878D01*
X02475Y012322D02*
Y012578D01*
X025195Y012647D02*
X025431D01*
X025313Y012529D02*
Y012765D01*
X021793Y012647D02*
X02203D01*
X021911Y012529D02*
Y012765D01*
X025195Y011001D02*
X025431D01*
X025313Y010883D02*
Y011119D01*
X021793Y011001D02*
X02203D01*
X021911Y010883D02*
Y011119D01*
X025823Y0117D02*
X026177D01*
X026Y011523D02*
Y011877D01*
X026823Y0117D02*
X027177D01*
X027Y011523D02*
Y011877D01*
X027823Y0117D02*
X028177D01*
X028Y011523D02*
Y011877D01*
X031901Y01195D02*
X032553D01*
X032227Y011624D02*
Y012276D01*
X028673Y01195D02*
X029324D01*
X028998Y011624D02*
Y012276D01*
X031243Y01195D02*
X031557D01*
X0314Y011793D02*
Y012107D01*
X030455Y01195D02*
X03077D01*
X030613Y011793D02*
Y012107D01*
X029668Y01195D02*
X029983D01*
X029825Y011793D02*
Y012107D01*
X027205Y04075D02*
X027595D01*
X0274Y040555D02*
Y040945D01*
X025433Y04075D02*
X025823D01*
X025628Y040555D02*
Y040945D01*
X027638Y03977D02*
X02815D01*
X027894Y039514D02*
Y040026D01*
X024878Y03977D02*
X02539D01*
X025134Y039514D02*
Y040026D01*
X033547Y04085D02*
X034767D01*
X034157Y04024D02*
Y04146D01*
X033547Y011433D02*
X034767D01*
X034157Y010823D02*
Y012044D01*
X010823Y011433D02*
X012044D01*
X011433Y010823D02*
Y012044D01*
X010823Y04085D02*
X012044D01*
X011433Y04024D02*
Y04146D01*
X033961Y026462D02*
X034039D01*
X034Y026423D02*
Y026501D01*
X033961Y026091D02*
X034039D01*
X034Y026051D02*
Y02613D01*
X033961Y025719D02*
X034039D01*
X034Y02568D02*
Y025759D01*
X033961Y024977D02*
X034039D01*
X034Y024938D02*
Y025016D01*
X033961Y024606D02*
X034039D01*
X034Y024566D02*
Y024645D01*
X034851Y023802D02*
X03493D01*
X034891Y023762D02*
Y023841D01*
X035142Y024026D02*
X03522D01*
X035181Y023986D02*
Y024065D01*
X035142Y02425D02*
X03522D01*
X035181Y024211D02*
Y024289D01*
X035142Y027058D02*
X03522D01*
X035181Y027019D02*
Y027097D01*
X034851Y027266D02*
X03493D01*
X034891Y027227D02*
Y027306D01*
X03498Y032677D02*
X035098D01*
X035039Y032618D02*
Y032736D01*
X03498Y031102D02*
X035098D01*
X035039Y031043D02*
Y031161D01*
X03498Y029528D02*
X035098D01*
X035039Y029469D02*
Y029587D01*
X03498Y027953D02*
X035098D01*
X035039Y027894D02*
Y028012D01*
X03498Y020079D02*
X035098D01*
X035039Y02002D02*
Y020138D01*
X03498Y018504D02*
X035098D01*
X035039Y018445D02*
Y018563D01*
X03498Y016929D02*
X035098D01*
X035039Y01687D02*
Y016988D01*
X03498Y015354D02*
X035098D01*
X035039Y015295D02*
Y015413D01*
X03498Y01378D02*
X035098D01*
X035039Y01372D02*
Y013839D01*
X034193Y032677D02*
X034311D01*
X034252Y032618D02*
Y032736D01*
X034587Y03189D02*
X034705D01*
X034646Y031831D02*
Y031949D01*
X034193Y031102D02*
X034311D01*
X034252Y031043D02*
Y031161D01*
X034587Y030315D02*
X034705D01*
X034646Y030256D02*
Y030374D01*
X034193Y029528D02*
X034311D01*
X034252Y029469D02*
Y029587D01*
X034587Y02874D02*
X034705D01*
X034646Y028681D02*
Y028799D01*
X034193Y027953D02*
X034311D01*
X034252Y027894D02*
Y028012D01*
X034587Y017717D02*
X034705D01*
X034646Y017657D02*
Y017776D01*
X034587Y016142D02*
X034705D01*
X034646Y016083D02*
Y016201D01*
X034587Y014567D02*
X034705D01*
X034646Y014508D02*
Y014626D01*
X034587Y012992D02*
X034705D01*
X034646Y012933D02*
Y013051D01*
X033406Y020079D02*
X033524D01*
X033465Y02002D02*
Y020138D01*
X033799Y017717D02*
X033917D01*
X033858Y017657D02*
Y017776D01*
X033406Y016929D02*
X033524D01*
X033465Y01687D02*
Y016988D01*
X033406Y015354D02*
X033524D01*
X033465Y015295D02*
Y015413D01*
X033406Y01378D02*
X033524D01*
X033465Y01372D02*
Y013839D01*
X033799Y012992D02*
X033917D01*
X033858Y012933D02*
Y013051D01*
X032618Y032677D02*
X032736D01*
X032677Y032618D02*
Y032736D01*
X033012Y019291D02*
X03313D01*
X033071Y019232D02*
Y01935D01*
X033012Y016142D02*
X03313D01*
X033071Y016083D02*
Y016201D01*
X032618Y015354D02*
X032736D01*
X032677Y015295D02*
Y015413D01*
X032618Y01378D02*
X032736D01*
X032677Y01372D02*
Y013839D01*
X033012Y012992D02*
X03313D01*
X033071Y012933D02*
Y013051D01*
X032618Y01063D02*
X032736D01*
X032677Y010571D02*
Y010689D01*
X031831Y040551D02*
X031949D01*
X03189Y040492D02*
Y04061D01*
X032224Y035039D02*
X032343D01*
X032283Y03498D02*
Y035098D01*
X031831Y034252D02*
X031949D01*
X03189Y034193D02*
Y034311D01*
X031831Y023228D02*
X031949D01*
X03189Y023169D02*
Y023287D01*
X032224Y017717D02*
X032343D01*
X032283Y017657D02*
Y017776D01*
X032224Y016142D02*
X032343D01*
X032283Y016083D02*
Y016201D01*
X032224Y014567D02*
X032343D01*
X032283Y014508D02*
Y014626D01*
X031831Y01378D02*
X031949D01*
X03189Y01372D02*
Y013839D01*
X032224Y012992D02*
X032343D01*
X032283Y012933D02*
Y013051D01*
X031831Y01063D02*
X031949D01*
X03189Y010571D02*
Y010689D01*
X031437Y016142D02*
X031555D01*
X031496Y016083D02*
Y016201D01*
X031043Y01378D02*
X031161D01*
X031102Y01372D02*
Y013839D01*
X031437Y012992D02*
X031555D01*
X031496Y012933D02*
Y013051D01*
X031437Y011417D02*
X031555D01*
X031496Y011358D02*
Y011476D01*
X031043Y01063D02*
X031161D01*
X031102Y010571D02*
Y010689D01*
X03065Y011417D02*
X030768D01*
X030709Y011358D02*
Y011476D01*
X030256Y01063D02*
X030374D01*
X030315Y010571D02*
Y010689D01*
X029862Y038189D02*
X02998D01*
X029921Y03813D02*
Y038248D01*
X029862Y036614D02*
X02998D01*
X029921Y036555D02*
Y036673D01*
X029469Y024803D02*
X029587D01*
X029528Y024744D02*
Y024862D01*
X029862Y011417D02*
X02998D01*
X029921Y011358D02*
Y011476D01*
X029469Y01063D02*
X029587D01*
X029528Y010571D02*
Y010689D01*
X028681Y040551D02*
X028799D01*
X02874Y040492D02*
Y04061D01*
X028681Y034252D02*
X028799D01*
X02874Y034193D02*
Y034311D01*
X028681Y021654D02*
X028799D01*
X02874Y021595D02*
Y021713D01*
X029075Y012992D02*
X029193D01*
X029134Y012933D02*
Y013051D01*
X028681Y01063D02*
X028799D01*
X02874Y010571D02*
Y010689D01*
X027894Y040551D02*
X028012D01*
X027953Y040492D02*
Y04061D01*
X027894Y037402D02*
X028012D01*
X027953Y037343D02*
Y037461D01*
X028287Y036614D02*
X028406D01*
X028346Y036555D02*
Y036673D01*
X027894Y024803D02*
X028012D01*
X027953Y024744D02*
Y024862D01*
X027894Y023228D02*
X028012D01*
X027953Y023169D02*
Y023287D01*
X027894Y021654D02*
X028012D01*
X027953Y021595D02*
Y021713D01*
X028287Y012992D02*
X028406D01*
X028346Y012933D02*
Y013051D01*
X027894Y01063D02*
X028012D01*
X027953Y010571D02*
Y010689D01*
X027106Y035827D02*
X027224D01*
X027165Y035768D02*
Y035886D01*
X0275Y024016D02*
X027618D01*
X027559Y023957D02*
Y024075D01*
X0275Y022441D02*
X027618D01*
X027559Y022382D02*
Y0225D01*
X026713Y041339D02*
X026831D01*
X026772Y04128D02*
Y041398D01*
X026713Y024016D02*
X026831D01*
X026772Y023957D02*
Y024075D01*
X026713Y022441D02*
X026831D01*
X026772Y022382D02*
Y0225D01*
X026713Y020866D02*
X026831D01*
X026772Y020807D02*
Y020925D01*
X026319Y01378D02*
X026437D01*
X026378Y01372D02*
Y013839D01*
X026319Y01063D02*
X026437D01*
X026378Y010571D02*
Y010689D01*
X025925Y041339D02*
X026043D01*
X025984Y04128D02*
Y041398D01*
X025532Y037402D02*
X02565D01*
X025591Y037343D02*
Y037461D01*
X025532Y034252D02*
X02565D01*
X025591Y034193D02*
Y034311D01*
X025532Y024803D02*
X02565D01*
X025591Y024744D02*
Y024862D01*
X025138Y041339D02*
X025256D01*
X025197Y04128D02*
Y041398D01*
X024744Y040551D02*
X024862D01*
X024803Y040492D02*
Y04061D01*
X025138Y038189D02*
X025256D01*
X025197Y03813D02*
Y038248D01*
X024744Y035827D02*
X024862D01*
X024803Y035768D02*
Y035886D01*
X025138Y035039D02*
X025256D01*
X025197Y03498D02*
Y035098D01*
X024744Y034252D02*
X024862D01*
X024803Y034193D02*
Y034311D01*
X024744Y032677D02*
X024862D01*
X024803Y032618D02*
Y032736D01*
X02435Y041339D02*
X024469D01*
X024409Y04128D02*
Y041398D01*
X023957Y040551D02*
X024075D01*
X024016Y040492D02*
Y04061D01*
X02435Y039764D02*
X024469D01*
X024409Y039705D02*
Y039823D01*
X023957Y038976D02*
X024075D01*
X024016Y038917D02*
Y039035D01*
X023957Y037402D02*
X024075D01*
X024016Y037343D02*
Y037461D01*
X02435Y011417D02*
X024469D01*
X024409Y011358D02*
Y011476D01*
X023957Y01063D02*
X024075D01*
X024016Y010571D02*
Y010689D01*
X023563Y036614D02*
X023681D01*
X023622Y036555D02*
Y036673D01*
X023169Y023228D02*
X023287D01*
X023228Y023169D02*
Y023287D01*
X023169Y01063D02*
X023287D01*
X023228Y010571D02*
Y010689D01*
X022382Y038976D02*
X0225D01*
X022441Y038917D02*
Y039035D01*
X022382Y037402D02*
X0225D01*
X022441Y037343D02*
Y037461D01*
X022382Y035827D02*
X0225D01*
X022441Y035768D02*
Y035886D01*
X022776Y011417D02*
X022894D01*
X022835Y011358D02*
Y011476D01*
X022382Y01063D02*
X0225D01*
X022441Y010571D02*
Y010689D01*
X021595Y040551D02*
X021713D01*
X021654Y040492D02*
Y04061D01*
X021988Y039764D02*
X022106D01*
X022047Y039705D02*
Y039823D01*
X021595Y038976D02*
X021713D01*
X021654Y038917D02*
Y039035D01*
X021595Y037402D02*
X021713D01*
X021654Y037343D02*
Y037461D01*
X021988Y036614D02*
X022106D01*
X022047Y036555D02*
Y036673D01*
X021595Y035827D02*
X021713D01*
X021654Y035768D02*
Y035886D01*
X021988Y035039D02*
X022106D01*
X022047Y03498D02*
Y035098D01*
X021595Y034252D02*
X021713D01*
X021654Y034193D02*
Y034311D01*
X021988Y033465D02*
X022106D01*
X022047Y033406D02*
Y033524D01*
X021595Y027953D02*
X021713D01*
X021654Y027894D02*
Y028012D01*
X021595Y021654D02*
X021713D01*
X021654Y021595D02*
Y021713D01*
X021595Y01378D02*
X021713D01*
X021654Y01372D02*
Y013839D01*
X021201Y041339D02*
X021319D01*
X02126Y04128D02*
Y041398D01*
X020807Y040551D02*
X020925D01*
X020866Y040492D02*
Y04061D01*
X021201Y039764D02*
X021319D01*
X02126Y039705D02*
Y039823D01*
X020807Y038976D02*
X020925D01*
X020866Y038917D02*
Y039035D01*
X020807Y037402D02*
X020925D01*
X020866Y037343D02*
Y037461D01*
X021201Y036614D02*
X021319D01*
X02126Y036555D02*
Y036673D01*
X020807Y035827D02*
X020925D01*
X020866Y035768D02*
Y035886D01*
X021201Y035039D02*
X021319D01*
X02126Y03498D02*
Y035098D01*
X020807Y034252D02*
X020925D01*
X020866Y034193D02*
Y034311D01*
X020807Y032677D02*
X020925D01*
X020866Y032618D02*
Y032736D01*
X020807Y031102D02*
X020925D01*
X020866Y031043D02*
Y031161D01*
X021201Y02874D02*
X021319D01*
X02126Y028681D02*
Y028799D01*
X020807Y027953D02*
X020925D01*
X020866Y027894D02*
Y028012D01*
X021201Y027165D02*
X021319D01*
X02126Y027106D02*
Y027224D01*
X020807Y026378D02*
X020925D01*
X020866Y026319D02*
Y026437D01*
X021201Y025591D02*
X021319D01*
X02126Y025532D02*
Y02565D01*
X020807Y024803D02*
X020925D01*
X020866Y024744D02*
Y024862D01*
X021201Y024016D02*
X021319D01*
X02126Y023957D02*
Y024075D01*
X020807Y023228D02*
X020925D01*
X020866Y023169D02*
Y023287D01*
X020807Y021654D02*
X020925D01*
X020866Y021595D02*
Y021713D01*
X021201Y020866D02*
X021319D01*
X02126Y020807D02*
Y020925D01*
X020807Y020079D02*
X020925D01*
X020866Y02002D02*
Y020138D01*
X021201Y019291D02*
X021319D01*
X02126Y019232D02*
Y01935D01*
X020807Y018504D02*
X020925D01*
X020866Y018445D02*
Y018563D01*
X021201Y017717D02*
X021319D01*
X02126Y017657D02*
Y017776D01*
X021201Y016142D02*
X021319D01*
X02126Y016083D02*
Y016201D01*
X020807Y015354D02*
X020925D01*
X020866Y015295D02*
Y015413D01*
X021201Y014567D02*
X021319D01*
X02126Y014508D02*
Y014626D01*
X020807Y01378D02*
X020925D01*
X020866Y01372D02*
Y013839D01*
X021201Y012992D02*
X021319D01*
X02126Y012933D02*
Y013051D01*
X020807Y012205D02*
X020925D01*
X020866Y012146D02*
Y012264D01*
X021201Y011417D02*
X021319D01*
X02126Y011358D02*
Y011476D01*
X020807Y01063D02*
X020925D01*
X020866Y010571D02*
Y010689D01*
X020413Y041339D02*
X020532D01*
X020472Y04128D02*
Y041398D01*
X02002Y040551D02*
X020138D01*
X020079Y040492D02*
Y04061D01*
X020413Y039764D02*
X020532D01*
X020472Y039705D02*
Y039823D01*
X02002Y038976D02*
X020138D01*
X020079Y038917D02*
Y039035D01*
X020413Y02874D02*
X020532D01*
X020472Y028681D02*
Y028799D01*
X02002Y027953D02*
X020138D01*
X020079Y027894D02*
Y028012D01*
X020413Y027165D02*
X020532D01*
X020472Y027106D02*
Y027224D01*
X02002Y026378D02*
X020138D01*
X020079Y026319D02*
Y026437D01*
X020413Y025591D02*
X020532D01*
X020472Y025532D02*
Y02565D01*
X02002Y024803D02*
X020138D01*
X020079Y024744D02*
Y024862D01*
X020413Y024016D02*
X020532D01*
X020472Y023957D02*
Y024075D01*
X02002Y023228D02*
X020138D01*
X020079Y023169D02*
Y023287D01*
X02002Y021654D02*
X020138D01*
X020079Y021595D02*
Y021713D01*
X020413Y020866D02*
X020532D01*
X020472Y020807D02*
Y020925D01*
X02002Y020079D02*
X020138D01*
X020079Y02002D02*
Y020138D01*
X020413Y019291D02*
X020532D01*
X020472Y019232D02*
Y01935D01*
X02002Y018504D02*
X020138D01*
X020079Y018445D02*
Y018563D01*
X020413Y017717D02*
X020532D01*
X020472Y017657D02*
Y017776D01*
X020413Y016142D02*
X020532D01*
X020472Y016083D02*
Y016201D01*
X02002Y015354D02*
X020138D01*
X020079Y015295D02*
Y015413D01*
X020413Y014567D02*
X020532D01*
X020472Y014508D02*
Y014626D01*
X02002Y01378D02*
X020138D01*
X020079Y01372D02*
Y013839D01*
X020413Y012992D02*
X020532D01*
X020472Y012933D02*
Y013051D01*
X02002Y012205D02*
X020138D01*
X020079Y012146D02*
Y012264D01*
X020413Y011417D02*
X020532D01*
X020472Y011358D02*
Y011476D01*
X02002Y01063D02*
X020138D01*
X020079Y010571D02*
Y010689D01*
X019626Y041339D02*
X019744D01*
X019685Y04128D02*
Y041398D01*
X019232Y040551D02*
X01935D01*
X019291Y040492D02*
Y04061D01*
X019626Y039764D02*
X019744D01*
X019685Y039705D02*
Y039823D01*
X019626Y038189D02*
X019744D01*
X019685Y03813D02*
Y038248D01*
X019626Y036614D02*
X019744D01*
X019685Y036555D02*
Y036673D01*
X019626Y035039D02*
X019744D01*
X019685Y03498D02*
Y035098D01*
X019626Y033465D02*
X019744D01*
X019685Y033406D02*
Y033524D01*
X019626Y03189D02*
X019744D01*
X019685Y031831D02*
Y031949D01*
X019626Y030315D02*
X019744D01*
X019685Y030256D02*
Y030374D01*
X019626Y02874D02*
X019744D01*
X019685Y028681D02*
Y028799D01*
X019626Y027165D02*
X019744D01*
X019685Y027106D02*
Y027224D01*
X019626Y025591D02*
X019744D01*
X019685Y025532D02*
Y02565D01*
X019626Y024016D02*
X019744D01*
X019685Y023957D02*
Y024075D01*
X019626Y020866D02*
X019744D01*
X019685Y020807D02*
Y020925D01*
X019626Y019291D02*
X019744D01*
X019685Y019232D02*
Y01935D01*
X019626Y017717D02*
X019744D01*
X019685Y017657D02*
Y017776D01*
X019626Y016142D02*
X019744D01*
X019685Y016083D02*
Y016201D01*
X019232Y015354D02*
X01935D01*
X019291Y015295D02*
Y015413D01*
X019626Y014567D02*
X019744D01*
X019685Y014508D02*
Y014626D01*
X019626Y012992D02*
X019744D01*
X019685Y012933D02*
Y013051D01*
X019232Y012205D02*
X01935D01*
X019291Y012146D02*
Y012264D01*
X019626Y011417D02*
X019744D01*
X019685Y011358D02*
Y011476D01*
X019232Y01063D02*
X01935D01*
X019291Y010571D02*
Y010689D01*
X018839Y041339D02*
X018957D01*
X018898Y04128D02*
Y041398D01*
X018445Y038976D02*
X018563D01*
X018504Y038917D02*
Y039035D01*
X018445Y037402D02*
X018563D01*
X018504Y037343D02*
Y037461D01*
X018445Y035827D02*
X018563D01*
X018504Y035768D02*
Y035886D01*
X018445Y034252D02*
X018563D01*
X018504Y034193D02*
Y034311D01*
X018445Y032677D02*
X018563D01*
X018504Y032618D02*
Y032736D01*
X018445Y031102D02*
X018563D01*
X018504Y031043D02*
Y031161D01*
X018445Y029528D02*
X018563D01*
X018504Y029469D02*
Y029587D01*
X018445Y027953D02*
X018563D01*
X018504Y027894D02*
Y028012D01*
X018445Y024803D02*
X018563D01*
X018504Y024744D02*
Y024862D01*
X018445Y023228D02*
X018563D01*
X018504Y023169D02*
Y023287D01*
X018445Y021654D02*
X018563D01*
X018504Y021595D02*
Y021713D01*
X018445Y020079D02*
X018563D01*
X018504Y02002D02*
Y020138D01*
X018445Y018504D02*
X018563D01*
X018504Y018445D02*
Y018563D01*
X018839Y016142D02*
X018957D01*
X018898Y016083D02*
Y016201D01*
X018445Y015354D02*
X018563D01*
X018504Y015295D02*
Y015413D01*
X018445Y01378D02*
X018563D01*
X018504Y01372D02*
Y013839D01*
X018839Y012992D02*
X018957D01*
X018898Y012933D02*
Y013051D01*
X018445Y012205D02*
X018563D01*
X018504Y012146D02*
Y012264D01*
X018839Y011417D02*
X018957D01*
X018898Y011358D02*
Y011476D01*
X018445Y01063D02*
X018563D01*
X018504Y010571D02*
Y010689D01*
X018051Y041339D02*
X018169D01*
X01811Y04128D02*
Y041398D01*
X018051Y039764D02*
X018169D01*
X01811Y039705D02*
Y039823D01*
X017657Y038976D02*
X017776D01*
X017717Y038917D02*
Y039035D01*
X018051Y038189D02*
X018169D01*
X01811Y03813D02*
Y038248D01*
X018051Y036614D02*
X018169D01*
X01811Y036555D02*
Y036673D01*
X017657Y035827D02*
X017776D01*
X017717Y035768D02*
Y035886D01*
X018051Y035039D02*
X018169D01*
X01811Y03498D02*
Y035098D01*
X017657Y034252D02*
X017776D01*
X017717Y034193D02*
Y034311D01*
X018051Y033465D02*
X018169D01*
X01811Y033406D02*
Y033524D01*
X017657Y032677D02*
X017776D01*
X017717Y032618D02*
Y032736D01*
X018051Y03189D02*
X018169D01*
X01811Y031831D02*
Y031949D01*
X017657Y031102D02*
X017776D01*
X017717Y031043D02*
Y031161D01*
X018051Y030315D02*
X018169D01*
X01811Y030256D02*
Y030374D01*
X017657Y029528D02*
X017776D01*
X017717Y029469D02*
Y029587D01*
X018051Y02874D02*
X018169D01*
X01811Y028681D02*
Y028799D01*
X017657Y027953D02*
X017776D01*
X017717Y027894D02*
Y028012D01*
X018051Y027165D02*
X018169D01*
X01811Y027106D02*
Y027224D01*
X018051Y025591D02*
X018169D01*
X01811Y025532D02*
Y02565D01*
X017657Y024803D02*
X017776D01*
X017717Y024744D02*
Y024862D01*
X018051Y024016D02*
X018169D01*
X01811Y023957D02*
Y024075D01*
X017657Y023228D02*
X017776D01*
X017717Y023169D02*
Y023287D01*
X018051Y022441D02*
X018169D01*
X01811Y022382D02*
Y0225D01*
X017657Y021654D02*
X017776D01*
X017717Y021595D02*
Y021713D01*
X018051Y020866D02*
X018169D01*
X01811Y020807D02*
Y020925D01*
X017657Y020079D02*
X017776D01*
X017717Y02002D02*
Y020138D01*
X018051Y019291D02*
X018169D01*
X01811Y019232D02*
Y01935D01*
X017657Y018504D02*
X017776D01*
X017717Y018445D02*
Y018563D01*
X018051Y017717D02*
X018169D01*
X01811Y017657D02*
Y017776D01*
X018051Y016142D02*
X018169D01*
X01811Y016083D02*
Y016201D01*
X018051Y014567D02*
X018169D01*
X01811Y014508D02*
Y014626D01*
X017657Y01378D02*
X017776D01*
X017717Y01372D02*
Y013839D01*
X018051Y012992D02*
X018169D01*
X01811Y012933D02*
Y013051D01*
X018051Y011417D02*
X018169D01*
X01811Y011358D02*
Y011476D01*
X017657Y01063D02*
X017776D01*
X017717Y010571D02*
Y010689D01*
X01687Y038976D02*
X016988D01*
X016929Y038917D02*
Y039035D01*
X017264Y038189D02*
X017382D01*
X017323Y03813D02*
Y038248D01*
X01687Y035827D02*
X016988D01*
X016929Y035768D02*
Y035886D01*
X017264Y035039D02*
X017382D01*
X017323Y03498D02*
Y035098D01*
X01687Y034252D02*
X016988D01*
X016929Y034193D02*
Y034311D01*
X017264Y033465D02*
X017382D01*
X017323Y033406D02*
Y033524D01*
X01687Y032677D02*
X016988D01*
X016929Y032618D02*
Y032736D01*
X017264Y03189D02*
X017382D01*
X017323Y031831D02*
Y031949D01*
X01687Y031102D02*
X016988D01*
X016929Y031043D02*
Y031161D01*
X017264Y030315D02*
X017382D01*
X017323Y030256D02*
Y030374D01*
X01687Y029528D02*
X016988D01*
X016929Y029469D02*
Y029587D01*
X017264Y02874D02*
X017382D01*
X017323Y028681D02*
Y028799D01*
X01687Y027953D02*
X016988D01*
X016929Y027894D02*
Y028012D01*
X017264Y027165D02*
X017382D01*
X017323Y027106D02*
Y027224D01*
X017264Y025591D02*
X017382D01*
X017323Y025532D02*
Y02565D01*
X01687Y024803D02*
X016988D01*
X016929Y024744D02*
Y024862D01*
X017264Y024016D02*
X017382D01*
X017323Y023957D02*
Y024075D01*
X01687Y023228D02*
X016988D01*
X016929Y023169D02*
Y023287D01*
X017264Y022441D02*
X017382D01*
X017323Y022382D02*
Y0225D01*
X01687Y021654D02*
X016988D01*
X016929Y021595D02*
Y021713D01*
X017264Y020866D02*
X017382D01*
X017323Y020807D02*
Y020925D01*
X01687Y020079D02*
X016988D01*
X016929Y02002D02*
Y020138D01*
X017264Y019291D02*
X017382D01*
X017323Y019232D02*
Y01935D01*
X01687Y018504D02*
X016988D01*
X016929Y018445D02*
Y018563D01*
X017264Y017717D02*
X017382D01*
X017323Y017657D02*
Y017776D01*
X01687Y01378D02*
X016988D01*
X016929Y01372D02*
Y013839D01*
X017264Y012992D02*
X017382D01*
X017323Y012933D02*
Y013051D01*
X01687Y01063D02*
X016988D01*
X016929Y010571D02*
Y010689D01*
X016083Y038976D02*
X016201D01*
X016142Y038917D02*
Y039035D01*
X016476Y038189D02*
X016595D01*
X016535Y03813D02*
Y038248D01*
X016083Y037402D02*
X016201D01*
X016142Y037343D02*
Y037461D01*
X016083Y035827D02*
X016201D01*
X016142Y035768D02*
Y035886D01*
X016476Y035039D02*
X016595D01*
X016535Y03498D02*
Y035098D01*
X016083Y034252D02*
X016201D01*
X016142Y034193D02*
Y034311D01*
X016476Y033465D02*
X016595D01*
X016535Y033406D02*
Y033524D01*
X016083Y032677D02*
X016201D01*
X016142Y032618D02*
Y032736D01*
X016476Y03189D02*
X016595D01*
X016535Y031831D02*
Y031949D01*
X016083Y031102D02*
X016201D01*
X016142Y031043D02*
Y031161D01*
X016476Y030315D02*
X016595D01*
X016535Y030256D02*
Y030374D01*
X016083Y029528D02*
X016201D01*
X016142Y029469D02*
Y029587D01*
X016476Y02874D02*
X016595D01*
X016535Y028681D02*
Y028799D01*
X016083Y027953D02*
X016201D01*
X016142Y027894D02*
Y028012D01*
X016476Y027165D02*
X016595D01*
X016535Y027106D02*
Y027224D01*
X016476Y025591D02*
X016595D01*
X016535Y025532D02*
Y02565D01*
X016083Y024803D02*
X016201D01*
X016142Y024744D02*
Y024862D01*
X016476Y024016D02*
X016595D01*
X016535Y023957D02*
Y024075D01*
X016083Y023228D02*
X016201D01*
X016142Y023169D02*
Y023287D01*
X016476Y022441D02*
X016595D01*
X016535Y022382D02*
Y0225D01*
X016083Y021654D02*
X016201D01*
X016142Y021595D02*
Y021713D01*
X016476Y020866D02*
X016595D01*
X016535Y020807D02*
Y020925D01*
X016083Y020079D02*
X016201D01*
X016142Y02002D02*
Y020138D01*
X016476Y019291D02*
X016595D01*
X016535Y019232D02*
Y01935D01*
X016083Y018504D02*
X016201D01*
X016142Y018445D02*
Y018563D01*
X016476Y017717D02*
X016595D01*
X016535Y017657D02*
Y017776D01*
X016476Y016142D02*
X016595D01*
X016535Y016083D02*
Y016201D01*
X016083Y015354D02*
X016201D01*
X016142Y015295D02*
Y015413D01*
X016476Y014567D02*
X016595D01*
X016535Y014508D02*
Y014626D01*
X016083Y01378D02*
X016201D01*
X016142Y01372D02*
Y013839D01*
X016083Y01063D02*
X016201D01*
X016142Y010571D02*
Y010689D01*
X015689Y041339D02*
X015807D01*
X015748Y04128D02*
Y041398D01*
X015295Y040551D02*
X015413D01*
X015354Y040492D02*
Y04061D01*
X015689Y039764D02*
X015807D01*
X015748Y039705D02*
Y039823D01*
X015295Y038976D02*
X015413D01*
X015354Y038917D02*
Y039035D01*
X015689Y038189D02*
X015807D01*
X015748Y03813D02*
Y038248D01*
X015295Y037402D02*
X015413D01*
X015354Y037343D02*
Y037461D01*
X015689Y036614D02*
X015807D01*
X015748Y036555D02*
Y036673D01*
X015295Y035827D02*
X015413D01*
X015354Y035768D02*
Y035886D01*
X015689Y035039D02*
X015807D01*
X015748Y03498D02*
Y035098D01*
X015295Y034252D02*
X015413D01*
X015354Y034193D02*
Y034311D01*
X015689Y033465D02*
X015807D01*
X015748Y033406D02*
Y033524D01*
X015295Y032677D02*
X015413D01*
X015354Y032618D02*
Y032736D01*
X015689Y03189D02*
X015807D01*
X015748Y031831D02*
Y031949D01*
X015295Y031102D02*
X015413D01*
X015354Y031043D02*
Y031161D01*
X015689Y030315D02*
X015807D01*
X015748Y030256D02*
Y030374D01*
X015295Y029528D02*
X015413D01*
X015354Y029469D02*
Y029587D01*
X015689Y02874D02*
X015807D01*
X015748Y028681D02*
Y028799D01*
X015295Y027953D02*
X015413D01*
X015354Y027894D02*
Y028012D01*
X015689Y027165D02*
X015807D01*
X015748Y027106D02*
Y027224D01*
X015689Y025591D02*
X015807D01*
X015748Y025532D02*
Y02565D01*
X015295Y024803D02*
X015413D01*
X015354Y024744D02*
Y024862D01*
X015689Y024016D02*
X015807D01*
X015748Y023957D02*
Y024075D01*
X015295Y023228D02*
X015413D01*
X015354Y023169D02*
Y023287D01*
X015689Y022441D02*
X015807D01*
X015748Y022382D02*
Y0225D01*
X015295Y021654D02*
X015413D01*
X015354Y021595D02*
Y021713D01*
X015689Y020866D02*
X015807D01*
X015748Y020807D02*
Y020925D01*
X015295Y020079D02*
X015413D01*
X015354Y02002D02*
Y020138D01*
X015689Y019291D02*
X015807D01*
X015748Y019232D02*
Y01935D01*
X015295Y018504D02*
X015413D01*
X015354Y018445D02*
Y018563D01*
X015689Y017717D02*
X015807D01*
X015748Y017657D02*
Y017776D01*
X015295Y015354D02*
X015413D01*
X015354Y015295D02*
Y015413D01*
X015689Y014567D02*
X015807D01*
X015748Y014508D02*
Y014626D01*
X015295Y01378D02*
X015413D01*
X015354Y01372D02*
Y013839D01*
X015295Y012205D02*
X015413D01*
X015354Y012146D02*
Y012264D01*
X015689Y011417D02*
X015807D01*
X015748Y011358D02*
Y011476D01*
X015295Y01063D02*
X015413D01*
X015354Y010571D02*
Y010689D01*
X014902Y041339D02*
X01502D01*
X014961Y04128D02*
Y041398D01*
X014508Y040551D02*
X014626D01*
X014567Y040492D02*
Y04061D01*
X014902Y039764D02*
X01502D01*
X014961Y039705D02*
Y039823D01*
X014508Y038976D02*
X014626D01*
X014567Y038917D02*
Y039035D01*
X014902Y038189D02*
X01502D01*
X014961Y03813D02*
Y038248D01*
X014508Y037402D02*
X014626D01*
X014567Y037343D02*
Y037461D01*
X014902Y036614D02*
X01502D01*
X014961Y036555D02*
Y036673D01*
X014508Y035827D02*
X014626D01*
X014567Y035768D02*
Y035886D01*
X014902Y035039D02*
X01502D01*
X014961Y03498D02*
Y035098D01*
X014508Y034252D02*
X014626D01*
X014567Y034193D02*
Y034311D01*
X014902Y033465D02*
X01502D01*
X014961Y033406D02*
Y033524D01*
X014508Y032677D02*
X014626D01*
X014567Y032618D02*
Y032736D01*
X014902Y03189D02*
X01502D01*
X014961Y031831D02*
Y031949D01*
X014508Y031102D02*
X014626D01*
X014567Y031043D02*
Y031161D01*
X014902Y030315D02*
X01502D01*
X014961Y030256D02*
Y030374D01*
X014508Y029528D02*
X014626D01*
X014567Y029469D02*
Y029587D01*
X014902Y02874D02*
X01502D01*
X014961Y028681D02*
Y028799D01*
X014508Y027953D02*
X014626D01*
X014567Y027894D02*
Y028012D01*
X014902Y027165D02*
X01502D01*
X014961Y027106D02*
Y027224D01*
X014902Y025591D02*
X01502D01*
X014961Y025532D02*
Y02565D01*
X014508Y024803D02*
X014626D01*
X014567Y024744D02*
Y024862D01*
X014902Y024016D02*
X01502D01*
X014961Y023957D02*
Y024075D01*
X014508Y023228D02*
X014626D01*
X014567Y023169D02*
Y023287D01*
X014902Y022441D02*
X01502D01*
X014961Y022382D02*
Y0225D01*
X014508Y021654D02*
X014626D01*
X014567Y021595D02*
Y021713D01*
X014902Y020866D02*
X01502D01*
X014961Y020807D02*
Y020925D01*
X014902Y019291D02*
X01502D01*
X014961Y019232D02*
Y01935D01*
X014902Y017717D02*
X01502D01*
X014961Y017657D02*
Y017776D01*
X014902Y014567D02*
X01502D01*
X014961Y014508D02*
Y014626D01*
X014508Y01378D02*
X014626D01*
X014567Y01372D02*
Y013839D01*
X014508Y012205D02*
X014626D01*
X014567Y012146D02*
Y012264D01*
X014902Y011417D02*
X01502D01*
X014961Y011358D02*
Y011476D01*
X014508Y01063D02*
X014626D01*
X014567Y010571D02*
Y010689D01*
X014114Y041339D02*
X014232D01*
X014173Y04128D02*
Y041398D01*
X01372Y040551D02*
X013839D01*
X01378Y040492D02*
Y04061D01*
X014114Y039764D02*
X014232D01*
X014173Y039705D02*
Y039823D01*
X01372Y038976D02*
X013839D01*
X01378Y038917D02*
Y039035D01*
X014114Y038189D02*
X014232D01*
X014173Y03813D02*
Y038248D01*
X01372Y037402D02*
X013839D01*
X01378Y037343D02*
Y037461D01*
X014114Y036614D02*
X014232D01*
X014173Y036555D02*
Y036673D01*
X01372Y035827D02*
X013839D01*
X01378Y035768D02*
Y035886D01*
X014114Y035039D02*
X014232D01*
X014173Y03498D02*
Y035098D01*
X01372Y034252D02*
X013839D01*
X01378Y034193D02*
Y034311D01*
X014114Y033465D02*
X014232D01*
X014173Y033406D02*
Y033524D01*
X01372Y032677D02*
X013839D01*
X01378Y032618D02*
Y032736D01*
X014114Y03189D02*
X014232D01*
X014173Y031831D02*
Y031949D01*
X01372Y031102D02*
X013839D01*
X01378Y031043D02*
Y031161D01*
X014114Y030315D02*
X014232D01*
X014173Y030256D02*
Y030374D01*
X01372Y029528D02*
X013839D01*
X01378Y029469D02*
Y029587D01*
X014114Y02874D02*
X014232D01*
X014173Y028681D02*
Y028799D01*
X01372Y027953D02*
X013839D01*
X01378Y027894D02*
Y028012D01*
X014114Y027165D02*
X014232D01*
X014173Y027106D02*
Y027224D01*
X014114Y025591D02*
X014232D01*
X014173Y025532D02*
Y02565D01*
X01372Y024803D02*
X013839D01*
X01378Y024744D02*
Y024862D01*
X014114Y024016D02*
X014232D01*
X014173Y023957D02*
Y024075D01*
X01372Y023228D02*
X013839D01*
X01378Y023169D02*
Y023287D01*
X014114Y022441D02*
X014232D01*
X014173Y022382D02*
Y0225D01*
X01372Y020079D02*
X013839D01*
X01378Y02002D02*
Y020138D01*
X014114Y016142D02*
X014232D01*
X014173Y016083D02*
Y016201D01*
X01372Y01378D02*
X013839D01*
X01378Y01372D02*
Y013839D01*
X01372Y012205D02*
X013839D01*
X01378Y012146D02*
Y012264D01*
X014114Y011417D02*
X014232D01*
X014173Y011358D02*
Y011476D01*
X01372Y01063D02*
X013839D01*
X01378Y010571D02*
Y010689D01*
X013327Y041339D02*
X013445D01*
X013386Y04128D02*
Y041398D01*
X012933Y040551D02*
X013051D01*
X012992Y040492D02*
Y04061D01*
X013327Y039764D02*
X013445D01*
X013386Y039705D02*
Y039823D01*
X012933Y038976D02*
X013051D01*
X012992Y038917D02*
Y039035D01*
X013327Y038189D02*
X013445D01*
X013386Y03813D02*
Y038248D01*
X012933Y037402D02*
X013051D01*
X012992Y037343D02*
Y037461D01*
X013327Y036614D02*
X013445D01*
X013386Y036555D02*
Y036673D01*
X012933Y035827D02*
X013051D01*
X012992Y035768D02*
Y035886D01*
X013327Y035039D02*
X013445D01*
X013386Y03498D02*
Y035098D01*
X012933Y034252D02*
X013051D01*
X012992Y034193D02*
Y034311D01*
X013327Y033465D02*
X013445D01*
X013386Y033406D02*
Y033524D01*
X012933Y032677D02*
X013051D01*
X012992Y032618D02*
Y032736D01*
X013327Y03189D02*
X013445D01*
X013386Y031831D02*
Y031949D01*
X012933Y031102D02*
X013051D01*
X012992Y031043D02*
Y031161D01*
X013327Y030315D02*
X013445D01*
X013386Y030256D02*
Y030374D01*
X012933Y029528D02*
X013051D01*
X012992Y029469D02*
Y029587D01*
X013327Y02874D02*
X013445D01*
X013386Y028681D02*
Y028799D01*
X012933Y027953D02*
X013051D01*
X012992Y027894D02*
Y028012D01*
X013327Y027165D02*
X013445D01*
X013386Y027106D02*
Y027224D01*
X013327Y025591D02*
X013445D01*
X013386Y025532D02*
Y02565D01*
X012933Y024803D02*
X013051D01*
X012992Y024744D02*
Y024862D01*
X013327Y024016D02*
X013445D01*
X013386Y023957D02*
Y024075D01*
X012933Y023228D02*
X013051D01*
X012992Y023169D02*
Y023287D01*
X013327Y022441D02*
X013445D01*
X013386Y022382D02*
Y0225D01*
X012933Y020079D02*
X013051D01*
X012992Y02002D02*
Y020138D01*
X013327Y019291D02*
X013445D01*
X013386Y019232D02*
Y01935D01*
X012933Y018504D02*
X013051D01*
X012992Y018445D02*
Y018563D01*
X013327Y017717D02*
X013445D01*
X013386Y017657D02*
Y017776D01*
X012933Y015354D02*
X013051D01*
X012992Y015295D02*
Y015413D01*
X012933Y01378D02*
X013051D01*
X012992Y01372D02*
Y013839D01*
X012933Y012205D02*
X013051D01*
X012992Y012146D02*
Y012264D01*
X013327Y011417D02*
X013445D01*
X013386Y011358D02*
Y011476D01*
X012933Y01063D02*
X013051D01*
X012992Y010571D02*
Y010689D01*
X012539Y039764D02*
X012657D01*
X012598Y039705D02*
Y039823D01*
X012146Y038976D02*
X012264D01*
X012205Y038917D02*
Y039035D01*
X012539Y038189D02*
X012657D01*
X012598Y03813D02*
Y038248D01*
X012146Y037402D02*
X012264D01*
X012205Y037343D02*
Y037461D01*
X012539Y036614D02*
X012657D01*
X012598Y036555D02*
Y036673D01*
X012146Y035827D02*
X012264D01*
X012205Y035768D02*
Y035886D01*
X012539Y035039D02*
X012657D01*
X012598Y03498D02*
Y035098D01*
X012146Y034252D02*
X012264D01*
X012205Y034193D02*
Y034311D01*
X012539Y033465D02*
X012657D01*
X012598Y033406D02*
Y033524D01*
X012146Y032677D02*
X012264D01*
X012205Y032618D02*
Y032736D01*
X012539Y03189D02*
X012657D01*
X012598Y031831D02*
Y031949D01*
X012146Y031102D02*
X012264D01*
X012205Y031043D02*
Y031161D01*
X012539Y030315D02*
X012657D01*
X012598Y030256D02*
Y030374D01*
X012146Y029528D02*
X012264D01*
X012205Y029469D02*
Y029587D01*
X012539Y02874D02*
X012657D01*
X012598Y028681D02*
Y028799D01*
X012146Y027953D02*
X012264D01*
X012205Y027894D02*
Y028012D01*
X012539Y027165D02*
X012657D01*
X012598Y027106D02*
Y027224D01*
X012539Y025591D02*
X012657D01*
X012598Y025532D02*
Y02565D01*
X012146Y024803D02*
X012264D01*
X012205Y024744D02*
Y024862D01*
X012146Y020079D02*
X012264D01*
X012205Y02002D02*
Y020138D01*
X012146Y018504D02*
X012264D01*
X012205Y018445D02*
Y018563D01*
X012146Y01378D02*
X012264D01*
X012205Y01372D02*
Y013839D01*
X011358Y038976D02*
X011476D01*
X011417Y038917D02*
Y039035D01*
X011752Y038189D02*
X01187D01*
X011811Y03813D02*
Y038248D01*
X011358Y037402D02*
X011476D01*
X011417Y037343D02*
Y037461D01*
X011752Y036614D02*
X01187D01*
X011811Y036555D02*
Y036673D01*
X011358Y035827D02*
X011476D01*
X011417Y035768D02*
Y035886D01*
X011752Y035039D02*
X01187D01*
X011811Y03498D02*
Y035098D01*
X011358Y034252D02*
X011476D01*
X011417Y034193D02*
Y034311D01*
X011752Y033465D02*
X01187D01*
X011811Y033406D02*
Y033524D01*
X011358Y032677D02*
X011476D01*
X011417Y032618D02*
Y032736D01*
X011752Y03189D02*
X01187D01*
X011811Y031831D02*
Y031949D01*
X011358Y031102D02*
X011476D01*
X011417Y031043D02*
Y031161D01*
X011752Y030315D02*
X01187D01*
X011811Y030256D02*
Y030374D01*
X011358Y029528D02*
X011476D01*
X011417Y029469D02*
Y029587D01*
X011752Y02874D02*
X01187D01*
X011811Y028681D02*
Y028799D01*
X011358Y027953D02*
X011476D01*
X011417Y027894D02*
Y028012D01*
X011752Y027165D02*
X01187D01*
X011811Y027106D02*
Y027224D01*
X011358Y018504D02*
X011476D01*
X011417Y018445D02*
Y018563D01*
X011752Y016142D02*
X01187D01*
X011811Y016083D02*
Y016201D01*
X010571Y038976D02*
X010689D01*
X01063Y038917D02*
Y039035D01*
X010965Y038189D02*
X011083D01*
X011024Y03813D02*
Y038248D01*
X010571Y037402D02*
X010689D01*
X01063Y037343D02*
Y037461D01*
X010965Y036614D02*
X011083D01*
X011024Y036555D02*
Y036673D01*
X010571Y035827D02*
X010689D01*
X01063Y035768D02*
Y035886D01*
X010965Y035039D02*
X011083D01*
X011024Y03498D02*
Y035098D01*
X010571Y034252D02*
X010689D01*
X01063Y034193D02*
Y034311D01*
X010965Y033465D02*
X011083D01*
X011024Y033406D02*
Y033524D01*
X010571Y032677D02*
X010689D01*
X01063Y032618D02*
Y032736D01*
X010965Y03189D02*
X011083D01*
X011024Y031831D02*
Y031949D01*
X010571Y031102D02*
X010689D01*
X01063Y031043D02*
Y031161D01*
X010965Y030315D02*
X011083D01*
X011024Y030256D02*
Y030374D01*
X010571Y029528D02*
X010689D01*
X01063Y029469D02*
Y029587D01*
X010965Y02874D02*
X011083D01*
X011024Y028681D02*
Y028799D01*
X010571Y027953D02*
X010689D01*
X01063Y027894D02*
Y028012D01*
X010965Y027165D02*
X011083D01*
X011024Y027106D02*
Y027224D01*
X010571Y026378D02*
X010689D01*
X01063Y026319D02*
Y026437D01*
X010571Y024803D02*
X010689D01*
X01063Y024744D02*
Y024862D01*
X031311Y0223D02*
X031389D01*
X03135Y022261D02*
Y022339D01*
X030811Y02175D02*
X030889D01*
X03085Y021711D02*
Y021789D01*
X033711Y0226D02*
X033789D01*
X03375Y022561D02*
Y022639D01*
X035142Y02685D02*
X03522D01*
X035181Y026811D02*
Y026889D01*
X034561Y027266D02*
X034639D01*
X0346Y027227D02*
Y027306D01*
X034561Y023802D02*
X034639D01*
X0346Y023762D02*
Y023841D01*
X033961Y025348D02*
X034039D01*
X034Y025309D02*
Y025388D01*
X033961Y024235D02*
X034039D01*
X034Y024195D02*
Y024274D01*
X033961Y026833D02*
X034039D01*
X034Y026794D02*
Y026872D01*
X035142Y027266D02*
X03522D01*
X035181Y027227D02*
Y027306D01*
X035142Y023802D02*
X03522D01*
X035181Y023762D02*
Y023841D01*
X033761Y03825D02*
X033839D01*
X0338Y038211D02*
Y038289D01*
X034311Y03435D02*
X034389D01*
X03435Y034311D02*
Y034389D01*
X026061Y02925D02*
X026139D01*
X0261Y029211D02*
Y029289D01*
X026461Y02985D02*
X026539D01*
X0265Y029811D02*
Y029889D01*
X026461Y03325D02*
X026539D01*
X0265Y033211D02*
Y033289D01*
X031561Y02815D02*
X031639D01*
X0316Y028111D02*
Y028189D01*
X031161Y02855D02*
X031239D01*
X0312Y028511D02*
Y028589D01*
X031261Y02905D02*
X031339D01*
X0313Y029011D02*
Y029089D01*
X030911Y02935D02*
X030989D01*
X03095Y029311D02*
Y029389D01*
X032461Y03D02*
X032539D01*
X0325Y029961D02*
Y030039D01*
X032111Y02955D02*
X032189D01*
X03215Y029511D02*
Y029589D01*
X027461Y0374D02*
X027539D01*
X0275Y037361D02*
Y037439D01*
X028561Y03735D02*
X028639D01*
X0286Y037311D02*
Y037389D01*
X026211Y02295D02*
X026289D01*
X02625Y022911D02*
Y022989D01*
X026211Y02515D02*
X026289D01*
X02625Y025111D02*
Y025189D01*
X027111Y0256D02*
X027189D01*
X02715Y025561D02*
Y025639D01*
X027011Y0245D02*
X027089D01*
X02705Y024461D02*
Y024539D01*
X027161Y02255D02*
X027239D01*
X0272Y022511D02*
Y022589D01*
X025761Y02655D02*
X025839D01*
X0258Y026511D02*
Y026589D01*
X025711Y026D02*
X025789D01*
X02575Y025961D02*
Y026039D01*
X025711Y02705D02*
X025789D01*
X02575Y027011D02*
Y027089D01*
X032511Y02005D02*
X032589D01*
X03255Y020011D02*
Y020089D01*
X028611Y02235D02*
X028689D01*
X02865Y022311D02*
Y022389D01*
X031411Y0229D02*
X031489D01*
X03145Y022861D02*
Y022939D01*
X029261Y0201D02*
X029339D01*
X0293Y020061D02*
Y020139D01*
X030861Y0299D02*
X030939D01*
X0309Y029861D02*
Y029939D01*
X031211Y03055D02*
X031289D01*
X03125Y030511D02*
Y030589D01*
X029561Y02975D02*
X029639D01*
X0296Y029711D02*
Y029789D01*
X029486Y037375D02*
X029565D01*
X029525Y037336D02*
Y037415D01*
X034161Y0388D02*
X034239D01*
X0342Y038761D02*
Y038839D01*
X033526Y037035D02*
X033604D01*
X033565Y036996D02*
Y037074D01*
X031711Y03685D02*
X031789D01*
X03175Y036811D02*
Y036889D01*
X030111Y0362D02*
X030189D01*
X03015Y036161D02*
Y036239D01*
X029061Y03135D02*
X029139D01*
X0291Y031311D02*
Y031389D01*
X030961Y02065D02*
X031039D01*
X031Y020611D02*
Y020689D01*
X030761Y01685D02*
X030839D01*
X0308Y016811D02*
Y016889D01*
X029911Y01865D02*
X029989D01*
X02995Y018611D02*
Y018689D01*
X030261Y0151D02*
X030339D01*
X0303Y015061D02*
Y015139D01*
X028761Y02595D02*
X028839D01*
X0288Y025911D02*
Y025989D01*
X029261Y02555D02*
X029339D01*
X0293Y025511D02*
Y025589D01*
X023382Y02585D02*
X023618D01*
X0235Y025732D02*
Y025968D01*
X020332Y0235D02*
X020568D01*
X02045Y023382D02*
Y023618D01*
X024061Y02365D02*
X024139D01*
X0241Y023611D02*
Y023689D01*
X023232Y0228D02*
X023468D01*
X02335Y022682D02*
Y022918D01*
X025511Y01845D02*
X025589D01*
X02555Y018411D02*
Y018489D01*
X023561Y01675D02*
X023639D01*
X0236Y016711D02*
Y016789D01*
X024261Y01195D02*
X024339D01*
X0243Y011911D02*
Y011989D01*
X022681Y01187D02*
X02276D01*
X02272Y011831D02*
Y01191D01*
X023836Y013975D02*
X023914D01*
X023875Y013936D02*
Y014014D01*
X026211Y01705D02*
X026289D01*
X02625Y017011D02*
Y017089D01*
X023278Y012117D02*
X023356D01*
X023317Y012078D02*
Y012156D01*
X023868Y012157D02*
X023947D01*
X023907Y012118D02*
Y012197D01*
X023811Y01525D02*
X023889D01*
X02385Y015211D02*
Y015289D01*
X025661Y0173D02*
X025739D01*
X0257Y017261D02*
Y017339D01*
X022311Y01855D02*
X022389D01*
X02235Y018511D02*
Y018589D01*
X020332Y02035D02*
X020568D01*
X02045Y020232D02*
Y020468D01*
X024111Y01835D02*
X024189D01*
X02415Y018311D02*
Y018389D01*
X027196Y013285D02*
X027274D01*
X027235Y013246D02*
Y013324D01*
X026661Y0133D02*
X026739D01*
X0267Y013261D02*
Y013339D01*
X023311Y01525D02*
X023389D01*
X02335Y015211D02*
Y015289D01*
X023311Y014D02*
X023389D01*
X02335Y013961D02*
Y014039D01*
X023811Y02445D02*
X023889D01*
X02385Y024411D02*
Y024489D01*
X013312Y0188D02*
X013588D01*
X01345Y018662D02*
Y018938D01*
X012461Y01415D02*
X012539D01*
X0125Y014111D02*
Y014189D01*
X012461Y01805D02*
X012539D01*
X0125Y018011D02*
Y018089D01*
X012611Y02385D02*
X012689D01*
X01265Y023811D02*
Y023889D01*
X012611Y0199D02*
X012689D01*
X01265Y019861D02*
Y019939D01*
X018753Y0142D02*
X019147D01*
X01895Y014003D02*
Y014397D01*
X029101Y0139D02*
X029179D01*
X02914Y013861D02*
Y013939D01*
M02*
