G04*
G04 #@! TF.GenerationSoftware,Altium Limited,Altium Designer,18.0.7 (293)*
G04*
G04 Layer_Physical_Order=1*
G04 Layer_Color=255*
%FSTAX24Y24*%
%MOIN*%
G70*
G01*
G75*
%ADD11C,0.0079*%
%ADD17C,0.0059*%
%ADD24R,0.0433X0.0550*%
%ADD25R,0.2362X0.0787*%
%ADD26R,0.0709X0.0484*%
%ADD27R,0.0354X0.0394*%
%ADD28R,0.0945X0.0394*%
%ADD29R,0.0945X0.1299*%
%ADD30R,0.0354X0.0236*%
%ADD31R,0.0484X0.0709*%
G04:AMPARAMS|DCode=32|XSize=40mil|YSize=40mil|CornerRadius=10mil|HoleSize=0mil|Usage=FLASHONLY|Rotation=270.000|XOffset=0mil|YOffset=0mil|HoleType=Round|Shape=RoundedRectangle|*
%AMROUNDEDRECTD32*
21,1,0.0400,0.0200,0,0,270.0*
21,1,0.0200,0.0400,0,0,270.0*
1,1,0.0200,-0.0100,-0.0100*
1,1,0.0200,-0.0100,0.0100*
1,1,0.0200,0.0100,0.0100*
1,1,0.0200,0.0100,-0.0100*
%
%ADD32ROUNDEDRECTD32*%
%ADD33R,0.0236X0.0354*%
%ADD34R,0.1063X0.1024*%
%ADD35R,0.0138X0.0335*%
%ADD36R,0.0315X0.0138*%
%ADD37R,0.0394X0.0354*%
%ADD38R,0.0374X0.0354*%
%ADD39R,0.0354X0.0374*%
%ADD40R,0.0177X0.0581*%
%ADD41R,0.0256X0.0472*%
%ADD42R,0.0256X0.0600*%
%ADD43R,0.0500X0.0550*%
%ADD44R,0.0256X0.0650*%
%ADD45R,0.0098X0.0177*%
%ADD46R,0.0138X0.0453*%
%ADD47R,0.0079X0.0571*%
%ADD48R,0.0591X0.0354*%
%ADD49R,0.0315X0.0354*%
%ADD50R,0.0354X0.0472*%
%ADD51R,0.0354X0.0472*%
%ADD53R,0.0380X0.0100*%
%ADD54R,0.0100X0.0380*%
G04:AMPARAMS|DCode=55|XSize=40mil|YSize=40mil|CornerRadius=10mil|HoleSize=0mil|Usage=FLASHONLY|Rotation=0.000|XOffset=0mil|YOffset=0mil|HoleType=Round|Shape=RoundedRectangle|*
%AMROUNDEDRECTD55*
21,1,0.0400,0.0200,0,0,0.0*
21,1,0.0200,0.0400,0,0,0.0*
1,1,0.0200,0.0100,-0.0100*
1,1,0.0200,-0.0100,-0.0100*
1,1,0.0200,-0.0100,0.0100*
1,1,0.0200,0.0100,0.0100*
%
%ADD55ROUNDEDRECTD55*%
%ADD56R,0.1339X0.0989*%
%ADD57R,0.0276X0.0600*%
%ADD58R,0.0118X0.0453*%
%ADD59R,0.0236X0.0453*%
%ADD60R,0.0236X0.0236*%
%ADD89R,0.1320X0.1320*%
%ADD110C,0.0236*%
%ADD111C,0.0118*%
%ADD112C,0.0276*%
%ADD113C,0.0472*%
%ADD114C,0.0157*%
%ADD115C,0.0138*%
%ADD116C,0.0512*%
%ADD117C,0.0630*%
%ADD118C,0.1636*%
%ADD119C,0.0256*%
%ADD120C,0.0591*%
%ADD121C,0.0606*%
%ADD122C,0.0768*%
%ADD123O,0.0394X0.0827*%
G04:AMPARAMS|DCode=124|XSize=70.9mil|YSize=39.4mil|CornerRadius=9.8mil|HoleSize=0mil|Usage=FLASHONLY|Rotation=90.000|XOffset=0mil|YOffset=0mil|HoleType=Round|Shape=RoundedRectangle|*
%AMROUNDEDRECTD124*
21,1,0.0709,0.0197,0,0,90.0*
21,1,0.0512,0.0394,0,0,90.0*
1,1,0.0197,0.0098,0.0256*
1,1,0.0197,0.0098,-0.0256*
1,1,0.0197,-0.0098,-0.0256*
1,1,0.0197,-0.0098,0.0256*
%
%ADD124ROUNDEDRECTD124*%
%ADD125O,0.0630X0.0866*%
%ADD126O,0.0394X0.0787*%
%ADD127C,0.0978*%
%ADD128P,0.2131X8X292.5*%
%ADD129P,0.2131X8X202.5*%
%ADD130C,0.0197*%
%ADD131C,0.0276*%
%ADD132C,0.0236*%
%ADD133C,0.0394*%
%ADD134C,0.0433*%
G36*
X035451Y02763D02*
X035378Y02763D01*
Y027484D01*
X035231D01*
Y027266D01*
X035131D01*
Y027484D01*
X034963D01*
Y027484D01*
X034941Y027469D01*
Y027266D01*
X034841D01*
Y027463D01*
X034809Y027484D01*
Y027484D01*
X034641D01*
Y027266D01*
X034591D01*
Y027216D01*
X034372D01*
Y02719D01*
X034331Y027148D01*
X034197Y027148D01*
Y027463D01*
X033823D01*
X033764Y027463D01*
X033744Y027463D01*
X033684D01*
Y027724D01*
X033695Y02775D01*
Y031383D01*
X033657Y031473D01*
X03184Y03329D01*
X031779Y033316D01*
X03175Y033328D01*
X03175Y033328D01*
X031726Y033329D01*
Y033841D01*
X031375D01*
X031333Y033883D01*
X031355Y033938D01*
X0314D01*
Y034215D01*
X03145D01*
Y034265D01*
X031747D01*
Y03448D01*
X031792D01*
Y034884D01*
X03145D01*
Y034934D01*
X0314D01*
Y035389D01*
X031178D01*
Y035533D01*
X031771D01*
Y036399D01*
X031178D01*
Y036574D01*
X031321D01*
Y036722D01*
X03159D01*
X031599Y036699D01*
X03175Y036637D01*
X031901Y036699D01*
X031963Y03685D01*
X031901Y037001D01*
X03175Y037063D01*
X031599Y037001D01*
X03159Y036978D01*
X031321D01*
Y037126D01*
X031321D01*
Y037174D01*
X031321D01*
Y037322D01*
X031453D01*
Y037194D01*
X031847D01*
Y037645D01*
X031875Y037697D01*
X031902Y037697D01*
X032168D01*
Y037194D01*
X032237D01*
Y036535D01*
X032274Y036445D01*
X032474Y036245D01*
X032474Y036245D01*
X032488Y036237D01*
X032488Y036237D01*
X032488Y036237D01*
X032518Y036219D01*
Y0361D01*
X032775D01*
Y036001D01*
X032539D01*
Y036D01*
X032518D01*
Y035881D01*
X032539D01*
Y035706D01*
Y035312D01*
Y034918D01*
X032923D01*
Y034534D01*
X033139D01*
Y034428D01*
X03285D01*
X03276Y03439D01*
X03266Y03429D01*
X032622Y0342D01*
Y033926D01*
X032494D01*
Y033374D01*
X033002D01*
X033006Y033374D01*
X033006Y033374D01*
X033053Y033394D01*
X033053Y033394D01*
X033447D01*
Y033902D01*
X033476Y033929D01*
X033487Y033928D01*
X033533Y033905D01*
Y033189D01*
X033571Y033099D01*
X03366Y03301D01*
X03375Y032972D01*
X0343D01*
X03439Y03301D01*
X034525Y033145D01*
X034563Y033235D01*
Y033374D01*
X034691D01*
Y033926D01*
X034183D01*
Y033927D01*
X034015D01*
Y03365D01*
X033915D01*
Y033927D01*
X033789D01*
Y034513D01*
X033808D01*
Y034534D01*
X033809D01*
Y03478D01*
X033907D01*
Y034534D01*
X033908D01*
Y034513D01*
X034027D01*
Y034534D01*
X034156D01*
X034189Y034475D01*
X034137Y03435D01*
X034199Y034199D01*
X03435Y034137D01*
X034501Y034199D01*
X034563Y03435D01*
X034501Y034501D01*
X034478Y03451D01*
Y0347D01*
X03444Y03479D01*
X034372Y034859D01*
X034387Y034913D01*
X03439Y034918D01*
X034586D01*
Y034938D01*
X034686D01*
X034776Y034975D01*
X03489Y03509D01*
X034928Y03518D01*
Y03645D01*
X03489Y03654D01*
X034678Y036753D01*
Y037153D01*
X034815D01*
Y03745D01*
Y037747D01*
X034678D01*
Y03775D01*
X03464Y03784D01*
X03454Y03794D01*
X03445Y037978D01*
X03375D01*
X03366Y03794D01*
X033475Y037755D01*
X033454Y037706D01*
X033368D01*
Y037194D01*
X033368Y037194D01*
X033368D01*
X033393Y037135D01*
X033352Y037035D01*
X033414Y036884D01*
X033565Y036822D01*
X033716Y036884D01*
X033778Y037035D01*
X033737Y037135D01*
X033762Y037194D01*
X033762D01*
X033762Y037194D01*
Y037681D01*
X033803Y037722D01*
X033979D01*
Y037174D01*
X034024D01*
X034047Y03712D01*
X033767Y03684D01*
X03373Y03675D01*
Y036581D01*
X033395D01*
Y036733D01*
X033358Y036823D01*
X033029Y037152D01*
X033047Y037194D01*
X033047D01*
Y037706D01*
X032978D01*
Y03785D01*
X03294Y03794D01*
X03289Y03799D01*
X0328Y038028D01*
X032796D01*
X032763Y038077D01*
X032793Y03815D01*
Y03835D01*
X032737Y038487D01*
X032628Y038532D01*
Y0389D01*
X03259Y03899D01*
X03254Y03904D01*
X03245Y039078D01*
X031206D01*
Y039137D01*
X033072D01*
Y038532D01*
X032963Y038487D01*
X032907Y03835D01*
Y03815D01*
X032963Y038013D01*
X0331Y037957D01*
X0333D01*
X033437Y038013D01*
X033482Y038122D01*
X03364D01*
X033649Y038099D01*
X0338Y038037D01*
X033951Y038099D01*
X034013Y03825D01*
X033951Y038401D01*
X0338Y038463D01*
X033649Y038401D01*
X03364Y038378D01*
X033482D01*
X033437Y038487D01*
X033328Y038532D01*
Y0392D01*
X03329Y03929D01*
X033225Y039355D01*
X033135Y039393D01*
X032258D01*
X032219Y039452D01*
X032351Y03977D01*
X032204Y040124D01*
X03185Y04027D01*
X031496Y040124D01*
X031349Y03977D01*
X031481Y039452D01*
X031442Y039393D01*
X031206D01*
Y039462D01*
X031078D01*
Y039665D01*
X031071Y039682D01*
Y040076D01*
X030943D01*
Y040569D01*
X030951Y040575D01*
X031025Y04055D01*
X031064Y040458D01*
X031356Y040337D01*
X031648Y040458D01*
X031769Y04075D01*
X031648Y041042D01*
X031356Y041163D01*
X031064Y041042D01*
X030996Y040878D01*
X0309D01*
X03081Y04084D01*
X030725Y040755D01*
X030687Y040665D01*
Y040076D01*
X030559D01*
Y039524D01*
X030822D01*
Y039462D01*
X030694D01*
Y039447D01*
X030313D01*
Y039524D01*
X030441D01*
Y040076D01*
X030313D01*
Y040615D01*
X030275Y040705D01*
X03014Y04084D01*
X03005Y040878D01*
X029945D01*
X029877Y041042D01*
X029584Y041163D01*
X029292Y041042D01*
X029171Y04075D01*
X029292Y040458D01*
X029584Y040337D01*
X029877Y040458D01*
X029941Y040614D01*
X029999Y04062D01*
X030057Y040562D01*
Y040076D01*
X029929D01*
Y039524D01*
X030057D01*
Y039315D01*
X030095Y039225D01*
X03016Y03916D01*
X030194Y039145D01*
Y039078D01*
X02915D01*
X02906Y03904D01*
X028935Y038916D01*
X028897Y038825D01*
Y038497D01*
X028819D01*
Y037739D01*
X028897D01*
Y037528D01*
X028847Y037478D01*
X02876D01*
X028751Y037501D01*
X0286Y037563D01*
X028449Y037501D01*
X028387Y03735D01*
X028449Y037199D01*
X0286Y037137D01*
X028751Y037199D01*
X02876Y037222D01*
X0289D01*
X02899Y03726D01*
X029116Y037385D01*
X029153Y037475D01*
Y037739D01*
X029232D01*
Y038497D01*
X029153D01*
Y038772D01*
X029203Y038822D01*
X029389D01*
X029423Y038763D01*
X029397Y0387D01*
Y038497D01*
X029319D01*
Y037739D01*
X029397D01*
Y037535D01*
X029375Y037526D01*
X029312Y037375D01*
X029375Y037225D01*
X029525Y037162D01*
X029676Y037225D01*
X029738Y037375D01*
X029676Y037526D01*
X029653Y037535D01*
Y037739D01*
X029732D01*
Y038497D01*
X029653D01*
Y038647D01*
X029664Y038658D01*
X030173D01*
Y038585D01*
X03045D01*
Y038485D01*
X030173D01*
Y038347D01*
X030158D01*
Y0381D01*
X030435D01*
X030712D01*
Y038264D01*
X030727Y038317D01*
X03075Y038325D01*
X030809Y038286D01*
Y037774D01*
X030809D01*
Y037726D01*
X030809D01*
Y037174D01*
X030809D01*
Y037126D01*
X030809D01*
Y036574D01*
X030922D01*
Y035128D01*
X030856D01*
Y035197D01*
X030728D01*
Y035303D01*
X030856D01*
Y035697D01*
X030344D01*
Y035628D01*
X029753D01*
Y035932D01*
X029525D01*
X029297D01*
Y035628D01*
X029232D01*
Y036361D01*
X028819D01*
Y035628D01*
X028732D01*
Y036361D01*
X028319D01*
Y035628D01*
X028232D01*
Y036361D01*
X027819D01*
Y035628D01*
X027008D01*
Y03799D01*
X027819D01*
Y037739D01*
X028232D01*
Y038497D01*
X027819D01*
Y038246D01*
X027008D01*
Y038338D01*
X027056D01*
Y038732D01*
X026928D01*
Y03885D01*
X02689Y03894D01*
X02684Y03899D01*
X026831Y038994D01*
X026843Y039053D01*
X027056D01*
Y03908D01*
X027115Y039104D01*
X02736Y03886D01*
X02745Y038822D01*
X028118D01*
X028163Y038713D01*
X0283Y038657D01*
X0285D01*
X028637Y038713D01*
X028693Y03885D01*
Y03905D01*
X028637Y039187D01*
X0285Y039243D01*
X0283D01*
X028163Y039187D01*
X028118Y039078D01*
X027503D01*
X02724Y03934D01*
X02715Y039378D01*
X027056D01*
Y039447D01*
X027071Y039474D01*
X027071D01*
Y040026D01*
X026943D01*
Y040562D01*
X026985Y040604D01*
X027051Y040595D01*
X027108Y040458D01*
X0274Y040337D01*
X027692Y040458D01*
X027813Y04075D01*
X027692Y041042D01*
X0274Y041163D01*
X027108Y041042D01*
X02704Y040878D01*
X02695D01*
X02686Y04084D01*
X026725Y040705D01*
X026687Y040615D01*
Y040026D01*
X026559D01*
Y039474D01*
X026544Y039447D01*
X026544D01*
X026544Y03907D01*
X0265Y039045D01*
X026456Y03907D01*
Y039447D01*
X026456D01*
X026441Y039474D01*
Y040026D01*
X026313D01*
Y040615D01*
X026275Y040705D01*
X02614Y04084D01*
X02605Y040878D01*
X025989D01*
X025921Y041042D01*
X025628Y041163D01*
X025336Y041042D01*
X025215Y04075D01*
X025336Y040458D01*
X025628Y040337D01*
X025921Y040458D01*
X025958Y040547D01*
X026021Y040562D01*
X026057Y040531D01*
Y040026D01*
X025929D01*
Y039474D01*
X025929D01*
X025944Y039447D01*
X025944Y039053D01*
X025896Y039028D01*
X024653D01*
X02364Y04004D01*
X02355Y040078D01*
X022803D01*
X022728Y040153D01*
Y040344D01*
X022797D01*
X022797Y040856D01*
X022848Y040875D01*
X02285D01*
Y0412D01*
X0225D01*
X02215D01*
Y040875D01*
X022352D01*
X022403Y040856D01*
X022403Y040816D01*
Y040344D01*
X022472D01*
Y0401D01*
X02251Y04001D01*
X02266Y03986D01*
X02275Y039822D01*
X023497D01*
X02451Y03881D01*
X0246Y038772D01*
X025872D01*
X025923Y038753D01*
X025923Y038713D01*
Y038585D01*
X0262D01*
X026477D01*
Y038714D01*
X026485Y038717D01*
X026544Y038679D01*
Y038338D01*
X026752D01*
Y0381D01*
Y0355D01*
Y0348D01*
Y033366D01*
X026693Y033354D01*
X026667Y033417D01*
X02655Y033465D01*
Y03325D01*
Y033035D01*
X026667Y033083D01*
X026693Y033146D01*
X026752Y033134D01*
Y032726D01*
X026624D01*
Y032174D01*
X026667D01*
Y032076D01*
X026624D01*
Y031524D01*
X026667D01*
Y031263D01*
X026088D01*
X025451Y031901D01*
X0253Y031963D01*
X0253Y031963D01*
X025214D01*
X02519Y032022D01*
X025243Y03215D01*
Y03235D01*
X025187Y032487D01*
X02505Y032543D01*
X02485D01*
X024713Y032487D01*
X024657Y03235D01*
Y03215D01*
X024709Y032022D01*
X024686Y031963D01*
X023629D01*
Y032029D01*
X023849D01*
Y032671D01*
X023657D01*
X023629Y03272D01*
X023566Y032871D01*
X023566Y032871D01*
X023471Y032966D01*
X023471Y033024D01*
X023471D01*
Y033576D01*
X023428D01*
Y033735D01*
X023428Y033735D01*
X023366Y033886D01*
X023251Y034001D01*
X0231Y034063D01*
X0231Y034063D01*
X022648D01*
X022623Y034122D01*
X022725Y034367D01*
X022619Y034623D01*
X022363Y03473D01*
X022106Y034623D01*
X022Y034367D01*
X022102Y034122D01*
X022077Y034063D01*
X0217D01*
X0217Y034063D01*
X021549Y034001D01*
X021549Y034001D01*
X021349Y033801D01*
X021287Y03365D01*
X021287Y03365D01*
Y03045D01*
X021287Y03045D01*
X021349Y030299D01*
X021549Y030099D01*
X021549Y030099D01*
X0217Y030037D01*
X0217Y030037D01*
X022007D01*
Y029974D01*
X023109D01*
Y030526D01*
X022007D01*
Y030463D01*
X021788D01*
X021713Y030538D01*
Y033562D01*
X021788Y033637D01*
X022265D01*
X022308Y033597D01*
X022308Y033578D01*
Y03335D01*
X022585D01*
X022862D01*
Y033578D01*
X022862Y033597D01*
X022905Y033637D01*
X023002D01*
Y033576D01*
X022959D01*
Y033024D01*
X023002D01*
Y032921D01*
X023002Y032921D01*
X023064Y03277D01*
X023109Y032725D01*
X023086Y032671D01*
X022983D01*
Y032029D01*
X023203D01*
Y031834D01*
X023203Y031834D01*
X023265Y031684D01*
X023349Y031599D01*
X023349Y031599D01*
X0235Y031537D01*
X0235Y031537D01*
X025D01*
X025Y031537D01*
X025Y031537D01*
X025212D01*
X025849Y030899D01*
X025849Y030899D01*
X025972Y030848D01*
Y029803D01*
X025147Y028978D01*
X0246D01*
X02451Y02894D01*
X02426Y02869D01*
X024222Y0286D01*
Y028564D01*
X023505D01*
Y028436D01*
X023408D01*
X023318Y028398D01*
X02326Y02834D01*
X023222Y02825D01*
Y0275D01*
X02326Y02741D01*
X02341Y02726D01*
X02343Y027251D01*
X023418Y027192D01*
X023266D01*
Y0269D01*
X02367D01*
Y027163D01*
X02367Y027192D01*
X023717Y027222D01*
X023747D01*
X023822Y027147D01*
Y02615D01*
X02386Y02606D01*
X02396Y02596D01*
X02405Y025922D01*
X024338D01*
Y025794D01*
X024732D01*
Y026412D01*
X02474D01*
X02483Y02645D01*
X02494Y02656D01*
X024978Y02665D01*
Y027206D01*
X024994Y027217D01*
X025053Y027185D01*
Y026794D01*
Y026294D01*
Y025794D01*
X025447D01*
Y025872D01*
X02559D01*
X025599Y025849D01*
X02575Y025787D01*
X025901Y025849D01*
X025963Y026D01*
X025901Y026151D01*
X02575Y026213D01*
X025599Y026151D01*
X02559Y026128D01*
X025447D01*
Y026422D01*
X02564D01*
X025649Y026399D01*
X0258Y026337D01*
X025951Y026399D01*
X026013Y02655D01*
X025951Y026701D01*
X0258Y026763D01*
X025649Y026701D01*
X02564Y026678D01*
X025447D01*
Y026922D01*
X02559D01*
X025599Y026899D01*
X02575Y026837D01*
X025901Y026899D01*
X025963Y02705D01*
X025901Y027201D01*
X02575Y027263D01*
X025599Y027201D01*
X02559Y027178D01*
X025447D01*
Y027306D01*
X02512D01*
X025102Y027338D01*
X025093Y027365D01*
X025128Y02745D01*
Y027494D01*
X025474D01*
Y028006D01*
X025474D01*
Y028051D01*
X025474D01*
Y028563D01*
X024726D01*
Y028435D01*
X024707D01*
X024617Y028397D01*
X024537Y028318D01*
X024478Y028342D01*
Y028547D01*
X024653Y028722D01*
X0252D01*
X02529Y02876D01*
X025853Y029322D01*
X025903Y029289D01*
X025887Y02925D01*
X025949Y029099D01*
X0261Y029037D01*
X026122Y029022D01*
Y02531D01*
X026099Y025301D01*
X026037Y02515D01*
X026099Y024999D01*
X02625Y024937D01*
X026401Y024999D01*
X026463Y02515D01*
X026401Y025301D01*
X026378Y02531D01*
Y025508D01*
X026437Y025532D01*
X026922Y025047D01*
Y02466D01*
X026899Y024651D01*
X026837Y0245D01*
X026899Y024349D01*
X02705Y024287D01*
X027201Y024349D01*
X027263Y0245D01*
X027201Y024651D01*
X027178Y02466D01*
Y0251D01*
X02714Y02519D01*
X026628Y025703D01*
Y02646D01*
X026687Y026472D01*
X026729Y026369D01*
X026849Y026249D01*
X026849Y026249D01*
X027Y026187D01*
X027Y026187D01*
X027722D01*
Y025853D01*
X027597Y025728D01*
X02731D01*
X027301Y025751D01*
X02715Y025813D01*
X026999Y025751D01*
X026937Y0256D01*
X026999Y025449D01*
X02715Y025387D01*
X027301Y025449D01*
X02731Y025472D01*
X02765D01*
X02774Y02551D01*
X02794Y02571D01*
X027978Y0258D01*
Y026187D01*
X028703D01*
X028715Y026128D01*
X028649Y026101D01*
X028587Y02595D01*
X028649Y025799D01*
X0288Y025737D01*
X028951Y025799D01*
X028967Y025839D01*
X029864D01*
X029906Y025797D01*
X029906Y025731D01*
X029906Y025721D01*
X029882Y025662D01*
X029467D01*
X029451Y025701D01*
X0293Y025763D01*
X029149Y025701D01*
X029087Y02555D01*
X029149Y025399D01*
X0293Y025337D01*
X029451Y025399D01*
X029453Y025406D01*
X029864D01*
X029906Y025364D01*
X029906Y025298D01*
X029906Y025278D01*
Y024924D01*
X029906Y024865D01*
X029906Y024845D01*
Y024491D01*
X029906Y024431D01*
X029906Y024412D01*
Y02407D01*
X029884Y02402D01*
X029884Y023988D01*
Y023852D01*
X030102D01*
Y023802D01*
X030152D01*
Y023583D01*
X03032D01*
Y023583D01*
X030339Y023605D01*
X030418D01*
Y023426D01*
X030408Y0234D01*
Y022803D01*
X030082Y022478D01*
X02881D01*
X028801Y022501D01*
X02865Y022563D01*
X028499Y022501D01*
X028437Y02235D01*
X028499Y022199D01*
X02865Y022137D01*
X028801Y022199D01*
X02881Y022222D01*
X030135D01*
X030226Y02226D01*
X030568Y022601D01*
X030622Y022579D01*
Y0224D01*
X03066Y02231D01*
X03076Y02221D01*
X03085Y022172D01*
X03119D01*
X031199Y022149D01*
X03135Y022087D01*
X031501Y022149D01*
X031563Y0223D01*
X031501Y022451D01*
X03135Y022513D01*
X031199Y022451D01*
X03119Y022428D01*
X030903D01*
X030878Y022453D01*
Y022808D01*
X030937Y022832D01*
X03096Y02281D01*
X03105Y022772D01*
X03129D01*
X031299Y022749D01*
X03145Y022687D01*
X031601Y022749D01*
X031663Y0229D01*
X031601Y023051D01*
X03145Y023113D01*
X031299Y023051D01*
X03129Y023028D01*
X031103D01*
X031096Y023034D01*
Y0234D01*
X031086Y023426D01*
Y023563D01*
X031127Y023605D01*
X031205Y023605D01*
X031224Y023605D01*
X031579D01*
X031638Y023605D01*
X031657Y023605D01*
X032012D01*
X032071Y023605D01*
X032091Y023605D01*
X032377D01*
Y023476D01*
X032366Y02345D01*
Y022053D01*
X032191Y021878D01*
X03101D01*
X031001Y021901D01*
X03085Y021963D01*
X030699Y021901D01*
X030637Y02175D01*
X030699Y021599D01*
X03085Y021537D01*
X031001Y021599D01*
X03101Y021622D01*
X032244D01*
X032334Y02166D01*
X032584Y02191D01*
X032622Y022D01*
Y02345D01*
X032611Y023476D01*
Y023605D01*
X03281D01*
Y023326D01*
X032799Y0233D01*
Y021653D01*
X032624Y021478D01*
X027903D01*
X027328Y022053D01*
Y02239D01*
X027351Y022399D01*
X027413Y02255D01*
X027351Y022701D01*
X0272Y022763D01*
X027049Y022701D01*
X026987Y02255D01*
X027049Y022399D01*
X027072Y02239D01*
Y022D01*
X02711Y02191D01*
X02776Y02126D01*
X02785Y021222D01*
X032677D01*
X032768Y02126D01*
X033018Y02151D01*
X033055Y0216D01*
Y0233D01*
X033044Y023326D01*
Y023605D01*
X033233D01*
Y023476D01*
X033222Y02345D01*
Y021503D01*
X032847Y021128D01*
X027753D01*
X026378Y022503D01*
Y02279D01*
X026401Y022799D01*
X026463Y02295D01*
X026401Y023101D01*
X02625Y023163D01*
X026099Y023101D01*
X026037Y02295D01*
X026099Y022799D01*
X026122Y02279D01*
Y02245D01*
X02616Y02236D01*
X02761Y02091D01*
X0277Y020872D01*
X030813D01*
X030837Y020813D01*
X030823Y020799D01*
X0275D01*
X0275Y020799D01*
X027395Y020755D01*
X026445Y019806D01*
X02626D01*
Y02013D01*
X02374D01*
Y019763D01*
X023547D01*
X023537Y019787D01*
X023513Y019797D01*
Y01992D01*
X023513Y01992D01*
X023451Y020071D01*
X023434Y020088D01*
X023406Y020135D01*
X023406D01*
X023406Y020135D01*
Y020765D01*
X023363D01*
Y02086D01*
X023301Y021011D01*
X023265Y021025D01*
X023251Y021061D01*
X023187Y021124D01*
Y021207D01*
X02321D01*
Y021709D01*
X023438Y021937D01*
X02465D01*
X02465Y021937D01*
X024801Y021999D01*
X024994Y022193D01*
X024994Y022193D01*
X025057Y022344D01*
Y022446D01*
X025139D01*
Y023154D01*
X025063D01*
Y02355D01*
X02501Y023679D01*
Y0237D01*
X024963Y023813D01*
X024855Y023921D01*
Y024179D01*
X024841Y024213D01*
X02488Y024272D01*
X025197D01*
X025272Y024197D01*
Y021822D01*
X02374D01*
Y020878D01*
X02626D01*
Y021822D01*
X025528D01*
Y02425D01*
X02549Y02434D01*
X02534Y02449D01*
X02525Y024528D01*
X024785D01*
Y024759D01*
X024617D01*
Y024809D01*
X024567D01*
Y025135D01*
X024448D01*
Y025114D01*
X024331D01*
Y025114D01*
X024036D01*
Y025024D01*
X023977Y02499D01*
X0239Y025022D01*
X023559D01*
X023559Y025022D01*
X023408Y02496D01*
X023408Y02496D01*
X023249Y024801D01*
X023219Y024728D01*
X02316Y02474D01*
Y024916D01*
Y025241D01*
X022527D01*
Y024916D01*
Y0246D01*
X022844D01*
Y0245D01*
X022527D01*
Y024222D01*
X022527Y024175D01*
X022473Y024163D01*
X022397D01*
X022352Y024196D01*
Y024904D01*
X022352D01*
Y024937D01*
X022352D01*
Y025645D01*
X022352D01*
Y025678D01*
X022352D01*
Y026385D01*
X022269D01*
Y026529D01*
X022617D01*
Y027171D01*
X022413D01*
Y027453D01*
X022437Y027463D01*
X022493Y0276D01*
Y0278D01*
X022448Y02791D01*
Y028074D01*
X022491D01*
Y028626D01*
X022491Y028626D01*
X022491D01*
X022525Y028669D01*
X022651Y028794D01*
X022713Y028945D01*
X022713Y028945D01*
Y029069D01*
X023109D01*
Y02962D01*
X022007D01*
Y029558D01*
X020544D01*
X020513Y029588D01*
Y037562D01*
X020688Y037737D01*
X022833D01*
X022864Y037664D01*
X02315Y037545D01*
X023436Y037664D01*
X023555Y03795D01*
X023436Y038236D01*
X02315Y038355D01*
X022864Y038236D01*
X022833Y038163D01*
X0206D01*
X0206Y038163D01*
X020449Y038101D01*
X020449Y038101D01*
X020149Y037801D01*
X020087Y03765D01*
X020087Y03765D01*
Y0295D01*
X020087Y0295D01*
X020149Y029349D01*
X020305Y029194D01*
X020305Y029194D01*
X020456Y029131D01*
X022007D01*
Y029069D01*
X022239D01*
X022264Y02901D01*
X022084Y028831D01*
X022022Y02868D01*
X021999Y028626D01*
X021979D01*
Y028074D01*
X022022D01*
Y027961D01*
X021963Y027937D01*
X021907Y0278D01*
Y0276D01*
X021963Y027463D01*
X021987Y027453D01*
Y027171D01*
X021751D01*
Y026529D01*
X021843D01*
Y026385D01*
X021761D01*
Y025678D01*
X021761D01*
Y025645D01*
X021761D01*
Y024937D01*
X021761D01*
Y024904D01*
X021761D01*
Y024196D01*
X021843D01*
Y024056D01*
X021843Y024056D01*
X021906Y023906D01*
X021996Y023815D01*
X021974Y023756D01*
X021788D01*
Y023277D01*
X021767D01*
Y02305D01*
X021985D01*
X022203D01*
Y023277D01*
X022182D01*
Y023372D01*
X02225D01*
X02234Y02341D01*
X02239Y02346D01*
X022428Y02355D01*
Y023737D01*
X022503D01*
Y023244D01*
Y022744D01*
X022897D01*
Y023244D01*
Y023372D01*
X02365D01*
X02374Y02341D01*
X02384Y02351D01*
X023861Y023559D01*
X023925D01*
X023949Y023499D01*
X0241Y023437D01*
X024251Y023499D01*
X024272Y023551D01*
X024292Y02356D01*
X024392Y02366D01*
X024429Y02375D01*
Y023991D01*
X024535D01*
Y023855D01*
X024582Y023742D01*
X024677Y023647D01*
X024637Y02355D01*
Y023154D01*
X024548D01*
Y022446D01*
X024548D01*
X024551Y022387D01*
X024533Y022363D01*
X02335D01*
X02335Y022363D01*
X023199Y022301D01*
X022895Y021997D01*
X022836Y022021D01*
Y022506D01*
X022364D01*
Y022484D01*
X022094D01*
X022091Y022491D01*
X02185Y022591D01*
X019391D01*
Y0264D01*
Y04005D01*
X019291Y040291D01*
X018694Y040888D01*
X018453Y040988D01*
X017879D01*
X017736Y041334D01*
X01705Y041618D01*
X016364Y041334D01*
X016079Y040647D01*
X016364Y039961D01*
X01705Y039677D01*
X017736Y039961D01*
X017879Y040306D01*
X018312D01*
X018709Y039909D01*
Y026741D01*
X0124D01*
X012159Y026641D01*
X012156Y026634D01*
X01145D01*
X011284Y026566D01*
X011269Y026528D01*
X0112D01*
X01111Y02649D01*
X01101Y02639D01*
X010972Y0263D01*
Y026106D01*
X010903D01*
Y025594D01*
X011297D01*
Y026106D01*
X011228D01*
Y026216D01*
X011284Y026234D01*
X01145Y026166D01*
X012156D01*
X012159Y026159D01*
X0124Y026059D01*
X018709D01*
Y02225D01*
Y017461D01*
X01607D01*
X01607Y017461D01*
X015829Y017361D01*
X013459Y014991D01*
X01305D01*
X012809Y014891D01*
X012806Y014884D01*
X0123D01*
X012189Y014838D01*
X01213Y014878D01*
Y015358D01*
X012047D01*
Y015856D01*
X011653D01*
Y015358D01*
X011618D01*
Y014837D01*
X011618Y014826D01*
X011593Y014778D01*
X011407D01*
X011382Y014826D01*
Y015358D01*
X011332D01*
Y015856D01*
X011263D01*
Y016292D01*
X011756D01*
Y016323D01*
X012006D01*
X012009Y016317D01*
X01225Y016217D01*
X013658D01*
X013899Y016317D01*
X014591Y017009D01*
X014591Y017009D01*
X014691Y01725D01*
Y0207D01*
X014591Y020941D01*
X014091Y021441D01*
X01385Y021541D01*
X01225D01*
X012171Y021508D01*
X012138Y021557D01*
X01249Y02191D01*
X012528Y022D01*
Y02325D01*
X01249Y02334D01*
X012383Y023448D01*
X012292Y023486D01*
X012081D01*
Y023673D01*
X012104Y023722D01*
X01249D01*
X012499Y023699D01*
X01265Y023637D01*
X012801Y023699D01*
X012863Y02385D01*
X012801Y024001D01*
X01265Y024063D01*
X012499Y024001D01*
X01249Y023978D01*
X012104D01*
X012081Y024027D01*
Y024657D01*
X011755D01*
X011732Y024712D01*
X011855Y024835D01*
X011893Y024925D01*
Y024974D01*
X012021D01*
Y025526D01*
X011943D01*
Y025594D01*
X012012D01*
Y026106D01*
X011618D01*
Y025594D01*
X011687D01*
Y025526D01*
X011509D01*
Y024974D01*
X011556D01*
X011579Y02492D01*
X01141Y02475D01*
X011372Y02466D01*
Y024657D01*
X011254D01*
Y024974D01*
X011391D01*
Y025526D01*
X010879D01*
Y024974D01*
X010998D01*
Y024657D01*
X010919D01*
Y024576D01*
X010792D01*
X010626Y024508D01*
X010334Y024216D01*
X010266Y02405D01*
Y023794D01*
X010259Y023791D01*
X010198Y023645D01*
X010139Y023657D01*
Y042144D01*
X035451D01*
Y02763D01*
D02*
G37*
G36*
X034422Y0367D02*
X03446Y03661D01*
X034672Y036397D01*
Y035255D01*
X034645Y035233D01*
X034586Y035261D01*
Y035509D01*
Y035881D01*
X034607D01*
Y036D01*
X034586D01*
Y036001D01*
X03435D01*
Y03605D01*
X0343D01*
Y036219D01*
X034202D01*
Y036581D01*
X033986D01*
Y036697D01*
X034325Y037037D01*
X034363Y037127D01*
Y037174D01*
X034422D01*
Y0367D01*
D02*
G37*
G36*
X028537Y035318D02*
X02851Y03529D01*
X028481Y035221D01*
X028393D01*
Y034414D01*
X028807D01*
Y035172D01*
X028893D01*
Y034414D01*
X028972D01*
Y034003D01*
X02826Y03329D01*
X028222Y0332D01*
Y032386D01*
X027893D01*
Y031579D01*
X027972D01*
Y02915D01*
X02801Y02906D01*
X02821Y02886D01*
X0283Y028822D01*
X030064D01*
X030154Y02886D01*
X030604Y02931D01*
X030642Y0294D01*
Y029855D01*
X030701Y029867D01*
X030749Y029749D01*
X0309Y029687D01*
X030923Y029696D01*
X031022Y029597D01*
X030989Y029547D01*
X03095Y029563D01*
X030799Y029501D01*
X030737Y02935D01*
X030799Y029199D01*
X030822Y02919D01*
Y029053D01*
X03066Y02889D01*
X030622Y0288D01*
Y0277D01*
X030633Y027674D01*
Y027463D01*
X030371D01*
X03032Y027484D01*
X03032Y027484D01*
X03032Y027484D01*
X030152D01*
Y027266D01*
X030102D01*
Y027216D01*
X029884D01*
Y027048D01*
X029884D01*
X029906Y02703D01*
Y026636D01*
X029906D01*
Y026632D01*
X029848Y026593D01*
X0298Y026613D01*
X027093D01*
Y031524D01*
X027136D01*
Y032076D01*
X027093D01*
Y032174D01*
X027136D01*
Y032726D01*
X027008D01*
Y034689D01*
X027893D01*
Y034414D01*
X028307D01*
Y035221D01*
X027893D01*
Y034945D01*
X027008D01*
Y035372D01*
X028514D01*
X028537Y035318D01*
D02*
G37*
G36*
X030313Y032663D02*
X030389Y032632D01*
Y032568D01*
X030313Y032537D01*
X030268Y032428D01*
X03025D01*
X03016Y03239D01*
X03001Y03224D01*
X029972Y03215D01*
Y029603D01*
X029797Y029428D01*
X028603D01*
X028478Y029553D01*
Y031579D01*
X028807D01*
Y032386D01*
X028728D01*
Y032697D01*
X028803Y032772D01*
X030268D01*
X030313Y032663D01*
D02*
G37*
G36*
X033732Y026203D02*
X033782Y026182D01*
X033807Y026144D01*
X033806Y026141D01*
X034D01*
Y026041D01*
X033806D01*
X033848Y025939D01*
X033858Y025935D01*
Y025876D01*
X033848Y025871D01*
X033823Y02581D01*
X033764Y025822D01*
Y025947D01*
X03337D01*
Y025573D01*
X03337Y025514D01*
X03337Y025494D01*
Y02512D01*
X033764D01*
Y025246D01*
X033823Y025257D01*
X033848Y025196D01*
X033858Y025192D01*
Y025133D01*
X033848Y025129D01*
X033806Y025027D01*
X034D01*
Y024927D01*
X033806D01*
X033807Y024924D01*
X033782Y024886D01*
X033732Y024865D01*
X03337D01*
Y024865D01*
X033331D01*
Y024865D01*
X032937D01*
Y024865D01*
X032898D01*
Y024865D01*
X032524D01*
X032504Y024865D01*
Y024865D01*
X032465D01*
Y024865D01*
X032091D01*
X032031Y024865D01*
X032012Y024865D01*
X031657D01*
X031598Y024865D01*
X031579Y024865D01*
X031208D01*
X031186Y024885D01*
X031165Y024907D01*
Y025278D01*
X031165Y025337D01*
X031165Y025357D01*
Y025711D01*
X031165Y02577D01*
X031165Y02579D01*
Y02616D01*
X031186Y026183D01*
X031208Y026203D01*
X031579D01*
X031638Y026203D01*
X031657Y026203D01*
X032012D01*
X032071Y026203D01*
X032091Y026203D01*
X032445D01*
X032504Y026203D01*
X032524Y026203D01*
X032878D01*
X032937Y026203D01*
X032957Y026203D01*
X033311D01*
X03337Y026203D01*
X03339Y026203D01*
X033732D01*
D02*
G37*
G36*
X031184Y026616D02*
X031205Y026593D01*
X031205Y026577D01*
Y026207D01*
X031184Y026184D01*
X031162Y026164D01*
X030791D01*
X030775Y026164D01*
X030753Y026184D01*
X030732Y026207D01*
X030732Y026223D01*
Y026593D01*
X030747Y026609D01*
X030754Y026615D01*
X030759Y026622D01*
X030775Y026636D01*
X031162D01*
X031184Y026616D01*
D02*
G37*
G36*
Y024883D02*
X031205Y024861D01*
Y024491D01*
X031205Y024474D01*
X031184Y024452D01*
X031162Y024431D01*
X031146Y024431D01*
X030775D01*
X030759Y024446D01*
X030754Y024453D01*
X030732Y024503D01*
Y024845D01*
X030732Y024861D01*
X030753Y024883D01*
X030775Y024904D01*
X030791Y024904D01*
X031162D01*
X031184Y024883D01*
D02*
G37*
G36*
X034372Y02392D02*
Y023852D01*
X034591D01*
Y023802D01*
X034641D01*
Y023583D01*
X034809D01*
Y023583D01*
X034841Y023605D01*
Y023802D01*
X034941D01*
Y023598D01*
X034963Y023583D01*
Y023583D01*
X035131D01*
Y023802D01*
X035231D01*
Y023583D01*
X035336D01*
X035378Y023542D01*
X035378Y023477D01*
X035409Y023477D01*
X035451Y023435D01*
Y010139D01*
X010139D01*
Y013743D01*
X010198Y013755D01*
X010259Y013609D01*
X010859Y013009D01*
X0111Y012909D01*
X015559D01*
X016209Y012259D01*
X016079Y011946D01*
X016364Y01126D01*
X01705Y010976D01*
X017736Y01126D01*
X018021Y011946D01*
X017736Y012633D01*
X01705Y012917D01*
X016672Y01276D01*
X015941Y013491D01*
X0157Y013591D01*
X011241D01*
X010841Y013991D01*
Y014779D01*
X01087Y014826D01*
X010998D01*
Y014724D01*
X011036Y014634D01*
X01111Y01456D01*
X0112Y014522D01*
X012119D01*
X012134Y014484D01*
X0123Y014416D01*
X012473D01*
X012484Y014357D01*
X012462Y014347D01*
X012349Y014301D01*
X01234Y014278D01*
X011756D01*
Y014374D01*
X011244D01*
Y013842D01*
X011756D01*
Y014022D01*
X01234D01*
X012349Y013999D01*
X0125Y013937D01*
X012651Y013999D01*
X012713Y01415D01*
X012651Y014301D01*
X012538Y014347D01*
X012516Y014357D01*
X012527Y014416D01*
X012806D01*
X012809Y014409D01*
X01305Y014309D01*
X0136D01*
X013841Y014409D01*
X016211Y016779D01*
X0214D01*
X021641Y016879D01*
X021644Y016886D01*
X021766D01*
Y016438D01*
X021763Y016437D01*
X021707Y0163D01*
Y0161D01*
X021763Y015963D01*
X0219Y015907D01*
X021962D01*
X022352Y015517D01*
X022518Y015448D01*
X022633D01*
Y015303D01*
X023067D01*
Y0156D01*
X023074Y015607D01*
X023133Y01558D01*
Y015303D01*
X023133D01*
X023137Y01525D01*
X023138Y015246D01*
X023171Y015167D01*
X023138Y015118D01*
X023073D01*
Y01495D01*
X02335D01*
Y01485D01*
X023073D01*
Y014763D01*
X0228D01*
X0228Y014763D01*
X022649Y014701D01*
X022649Y014701D01*
X022517Y014568D01*
X022454Y014417D01*
X0224Y014413D01*
X022247D01*
X022237Y014437D01*
X0221Y014493D01*
X0219D01*
X021763Y014437D01*
X021707Y0143D01*
Y0141D01*
X021763Y013963D01*
X0219Y013907D01*
X0221D01*
X022237Y013963D01*
X022247Y013987D01*
X022454D01*
Y01355D01*
Y0132D01*
X022402D01*
Y012873D01*
X022302D01*
Y0132D01*
X022134D01*
Y013146D01*
X022085Y013113D01*
X021961Y013164D01*
Y012647D01*
Y01213D01*
X022139Y012203D01*
X022214Y012385D01*
X022278D01*
X022316Y012292D01*
X022474Y012226D01*
X022633Y012292D01*
X022698Y01245D01*
X02267Y012519D01*
X022702Y012568D01*
X022958D01*
X022978Y012509D01*
X02263Y012161D01*
X022593Y01207D01*
Y012031D01*
X02257Y012021D01*
X022507Y01187D01*
X02257Y01172D01*
X02272Y011657D01*
X022871Y01172D01*
X022934Y01187D01*
X022871Y012021D01*
X022868Y012037D01*
X023105Y012274D01*
X023155Y012241D01*
X023104Y012117D01*
X023166Y011966D01*
X023317Y011904D01*
X023468Y011966D01*
X02353Y012117D01*
X02349Y012213D01*
X02353Y012272D01*
X02365D01*
X023684Y012286D01*
X023729Y012241D01*
X023694Y012157D01*
X023757Y012007D01*
X023907Y011944D01*
X024044Y012001D01*
X024093Y011964D01*
X024087Y01195D01*
X024149Y011799D01*
X0243Y011737D01*
X024451Y011799D01*
X024513Y01195D01*
X024451Y012101D01*
X024429Y01211D01*
Y012165D01*
X024482Y012187D01*
X024572Y012097D01*
Y01055D01*
X02461Y01046D01*
X02481Y01026D01*
X0249Y010222D01*
X02685D01*
X02694Y01026D01*
X02709Y01041D01*
X027128Y0105D01*
Y011258D01*
X027211Y011292D01*
X027298Y011503D01*
Y011897D01*
X027211Y012108D01*
X027Y012195D01*
X026789Y012108D01*
X026702Y011897D01*
Y011503D01*
X026789Y011292D01*
X026872Y011258D01*
Y010553D01*
X026797Y010478D01*
X025439D01*
X025427Y010537D01*
X025563Y010593D01*
X025626Y010745D01*
Y010951D01*
X025313D01*
X025D01*
Y010745D01*
X025063Y010593D01*
X025199Y010537D01*
X025187Y010478D01*
X024953D01*
X024828Y010603D01*
Y01215D01*
X024812Y012188D01*
X024843Y012265D01*
X024908Y012292D01*
X024947Y012385D01*
X025011D01*
X025086Y012203D01*
X025263Y01213D01*
Y012647D01*
Y013164D01*
X025139Y013113D01*
X02509Y013146D01*
Y0132D01*
X024922D01*
Y012873D01*
X024822D01*
Y0132D01*
X02477D01*
Y013393D01*
X02477Y013393D01*
X024708Y013544D01*
X024708Y013544D01*
X024551Y013701D01*
X0244Y013763D01*
X0244Y013763D01*
X024029D01*
X024017Y013821D01*
X024026Y013824D01*
X024083Y013962D01*
X024131Y013988D01*
X024187Y014003D01*
X024656D01*
Y014072D01*
X02475D01*
X02484Y01411D01*
X0249Y01417D01*
X024938Y01426D01*
Y015657D01*
X025012Y015731D01*
X025066Y015708D01*
Y015224D01*
Y014831D01*
X025511D01*
Y014811D01*
X025531D01*
Y014366D01*
X026969D01*
Y014811D01*
X026989D01*
Y014831D01*
X027372D01*
Y01425D01*
X02741Y01416D01*
X02761Y01396D01*
X0277Y013922D01*
X0283D01*
X02839Y01396D01*
X02849Y01406D01*
X028528Y01415D01*
Y01572D01*
X029024D01*
Y016232D01*
X029024Y016232D01*
X029024D01*
X029075Y016253D01*
X02909Y01626D01*
X029176Y016345D01*
X02923Y016322D01*
Y015842D01*
X029268Y015751D01*
X02936Y01566D01*
X02945Y015622D01*
X030597D01*
X030772Y015447D01*
Y014703D01*
X030697Y014628D01*
X029782D01*
X029737Y014737D01*
X029661Y014768D01*
Y014832D01*
X029737Y014863D01*
X029782Y014972D01*
X03014D01*
X030149Y014949D01*
X0303Y014887D01*
X030451Y014949D01*
X030513Y0151D01*
X030451Y015251D01*
X0303Y015313D01*
X030149Y015251D01*
X03014Y015228D01*
X029782D01*
X029737Y015337D01*
X0296Y015393D01*
X0294D01*
X029263Y015337D01*
X029238Y015276D01*
X029168Y015262D01*
X02914Y01529D01*
X02905Y015328D01*
X028997D01*
Y015456D01*
X028603D01*
Y014965D01*
X028603Y014906D01*
X028603Y014885D01*
Y014394D01*
X028997D01*
Y014501D01*
X029056Y014513D01*
X02916Y01441D01*
X029211Y014388D01*
X029263Y014263D01*
X029339Y014232D01*
Y014168D01*
X029263Y014137D01*
X029237Y014073D01*
X02914Y014113D01*
X028989Y014051D01*
X028927Y0139D01*
X028989Y013749D01*
X02914Y013687D01*
X029237Y013727D01*
X029263Y013663D01*
X0294Y013607D01*
X0296D01*
X029737Y013663D01*
X029782Y013772D01*
X030447D01*
X030485Y013734D01*
Y012259D01*
X030356Y012206D01*
X03025Y01195D01*
X030356Y011694D01*
X030613Y011588D01*
X030869Y011694D01*
X030963Y011921D01*
X031027D01*
X031128Y011678D01*
X03135Y011585D01*
Y01195D01*
Y012315D01*
X031128Y012222D01*
X031027Y011979D01*
X030963D01*
X030869Y012206D01*
X03074Y012259D01*
Y013787D01*
X030703Y013878D01*
X03059Y01399D01*
X0305Y014028D01*
X029782D01*
X029737Y014137D01*
X029661Y014168D01*
Y014232D01*
X029737Y014263D01*
X029782Y014372D01*
X03075D01*
X03084Y01441D01*
X03099Y01456D01*
X031028Y01465D01*
Y0155D01*
X03099Y01559D01*
X03074Y01584D01*
X03065Y015878D01*
X029503D01*
X029486Y015895D01*
Y016094D01*
X030008D01*
Y016222D01*
X03117D01*
X03126Y01626D01*
X03159Y01659D01*
X031628Y01668D01*
Y019797D01*
X031753Y019922D01*
X03239D01*
X032399Y019899D01*
X03255Y019837D01*
X032701Y019899D01*
X032763Y02005D01*
X032701Y020201D01*
X03255Y020263D01*
X032399Y020201D01*
X03239Y020178D01*
X0317D01*
X03161Y02014D01*
X03141Y01994D01*
X031372Y01985D01*
Y016733D01*
X031117Y016478D01*
X030008D01*
Y016606D01*
X029486D01*
Y017494D01*
X029958D01*
Y018006D01*
X029486D01*
Y018405D01*
X029603Y018522D01*
X02979D01*
X029799Y018499D01*
X02995Y018437D01*
X030101Y018499D01*
X030163Y01865D01*
X030101Y018801D01*
X02995Y018863D01*
X029799Y018801D01*
X02979Y018778D01*
X02955D01*
X02946Y01874D01*
X029268Y018549D01*
X02923Y018458D01*
Y018192D01*
X029176Y018169D01*
X02913Y018214D01*
X02904Y018252D01*
X028974D01*
Y01838D01*
X028442D01*
Y017868D01*
X028974D01*
X029022Y017843D01*
Y017657D01*
X028974Y017632D01*
X028442D01*
Y017504D01*
X028356D01*
Y017671D01*
X028368Y0177D01*
X028356Y017729D01*
Y017897D01*
X027844D01*
Y017504D01*
X027757D01*
X027704Y017554D01*
Y01775D01*
X027437D01*
Y017425D01*
X027517D01*
X02754Y01737D01*
X02746Y01729D01*
X027422Y0172D01*
Y016269D01*
X026989D01*
Y016289D01*
X026969D01*
Y016734D01*
X026597D01*
Y016755D01*
X026497D01*
Y016465D01*
X026397D01*
Y016755D01*
X026378D01*
Y01689D01*
X026401Y016899D01*
X026463Y01705D01*
X026401Y017201D01*
X02625Y017263D01*
X026099Y017201D01*
X026075Y017141D01*
X026017Y01713D01*
X025894Y017253D01*
X025913Y0173D01*
X025851Y017451D01*
X025746Y017494D01*
X025758Y017553D01*
X025915D01*
Y0178D01*
X025688D01*
Y017568D01*
X025688Y017553D01*
X025671Y017501D01*
X025549Y017451D01*
X025522Y017385D01*
X025463Y017396D01*
Y017574D01*
X025591D01*
Y018126D01*
X025079D01*
Y017574D01*
X025207D01*
Y017065D01*
X025245Y016975D01*
X025355Y016864D01*
X025446Y016826D01*
X025682D01*
X025715Y016793D01*
X025698Y016734D01*
X025531D01*
Y016593D01*
X025013D01*
Y018562D01*
X025125D01*
X025125Y018562D01*
X025276Y018624D01*
X025388Y018737D01*
X025518D01*
X02553Y018678D01*
X025383Y018617D01*
X025335Y0185D01*
X02555D01*
Y01845D01*
X0256D01*
Y018235D01*
X025659Y018259D01*
X025708Y018226D01*
Y018206D01*
X025708Y018203D01*
X025701Y018147D01*
X025688D01*
Y0179D01*
X025965D01*
X026242D01*
Y018144D01*
X026242Y018147D01*
X026249Y018203D01*
X026262D01*
Y01845D01*
X025985D01*
Y01855D01*
X026262D01*
Y018797D01*
X026311Y018822D01*
X026329D01*
X026359Y018776D01*
Y018224D01*
X026487D01*
Y018154D01*
X026305D01*
Y017446D01*
X026895D01*
Y018154D01*
X026743D01*
Y018224D01*
X026871D01*
Y018776D01*
X026743D01*
Y018785D01*
X026705Y018875D01*
X02654Y01904D01*
X02645Y019078D01*
X02621D01*
X026201Y019101D01*
X02614Y019126D01*
X026152Y019185D01*
X02626D01*
Y019508D01*
X026507D01*
X026507Y019508D01*
X026613Y019552D01*
X027562Y020501D01*
X030849D01*
X030849Y020499D01*
X031Y020437D01*
X031151Y020499D01*
X031213Y02065D01*
X031151Y020801D01*
X031121Y020813D01*
X031132Y020872D01*
X0329D01*
X03299Y02091D01*
X03344Y02136D01*
X033478Y02145D01*
Y02345D01*
X033467Y023476D01*
Y023605D01*
X033744D01*
X033803Y023605D01*
X033823Y023605D01*
X034197D01*
Y023878D01*
X034239Y02392D01*
X034372Y02392D01*
D02*
G37*
G36*
X022364Y021994D02*
X022809D01*
X022834Y021935D01*
X022823Y021925D01*
X022761Y021774D01*
X022761Y021774D01*
Y021719D01*
X022738D01*
Y021207D01*
X022761D01*
Y021036D01*
X022761Y021036D01*
X022823Y020885D01*
X022887Y020821D01*
X022894Y020765D01*
X022894D01*
Y020135D01*
X022937D01*
Y02007D01*
X022937Y02007D01*
X022999Y019919D01*
X023067Y019851D01*
X023063Y019787D01*
X023007Y01965D01*
Y01945D01*
X023022Y019412D01*
X022989Y019363D01*
X022821D01*
Y019426D01*
X022813D01*
Y019716D01*
Y02045D01*
Y020712D01*
X022813Y020712D01*
X022751Y020863D01*
X022751Y020863D01*
X022465Y021149D01*
X022462Y021207D01*
X022462D01*
Y021719D01*
X02199D01*
Y021207D01*
X022013D01*
Y021086D01*
X022013Y021086D01*
X022075Y020935D01*
X022187Y020824D01*
X022162Y020765D01*
X021694D01*
Y020135D01*
X022206D01*
Y020237D01*
X022387D01*
Y019716D01*
Y019426D01*
X022309D01*
Y018874D01*
X022821D01*
Y018937D01*
X022962D01*
X022987Y018912D01*
Y018538D01*
X022851Y018403D01*
X022797Y018425D01*
Y018806D01*
X022403D01*
Y018794D01*
X022354Y018761D01*
X02235Y018763D01*
X022199Y018701D01*
X022162Y018611D01*
X022103Y018623D01*
X022103Y018827D01*
X022152Y018853D01*
X022212D01*
Y0191D01*
X021935D01*
X021658D01*
Y018882D01*
X021658Y018853D01*
X021667Y018798D01*
Y0186D01*
X021885D01*
Y01855D01*
X021935D01*
Y018273D01*
X022103D01*
Y018477D01*
X022162Y018489D01*
X022199Y018399D01*
X02235Y018337D01*
X022354Y018339D01*
X022403Y018306D01*
Y018294D01*
X02265D01*
X022678Y01824D01*
X022654Y018197D01*
X022633D01*
Y017439D01*
X023062D01*
X023112Y017418D01*
X023112Y017418D01*
X023112Y017418D01*
X0233D01*
Y017818D01*
X0234D01*
Y017418D01*
X023588D01*
Y017418D01*
X023633Y017439D01*
X024067D01*
X024112Y017418D01*
Y017418D01*
X0243D01*
Y017818D01*
X0244D01*
Y017418D01*
X024587D01*
Y016388D01*
X024424Y016226D01*
X02437Y016248D01*
Y0167D01*
X02365D01*
Y016155D01*
X024277D01*
X024299Y016101D01*
X02426Y016061D01*
X024133D01*
Y015303D01*
X024137D01*
Y015118D01*
X024062D01*
X024029Y015167D01*
X024062Y015246D01*
X024063Y01525D01*
X024067Y015303D01*
X024067D01*
Y016061D01*
X023633D01*
Y015303D01*
X023633D01*
X023637Y01525D01*
X023638Y015246D01*
X023671Y015167D01*
X023638Y015118D01*
X023562D01*
X023529Y015167D01*
X023562Y015246D01*
X023563Y01525D01*
X023567Y015303D01*
X023567D01*
Y016061D01*
X023133D01*
Y015784D01*
X023074Y015758D01*
X023067Y015765D01*
Y016061D01*
X022633D01*
Y015982D01*
X022574Y015957D01*
X022293Y016238D01*
Y0163D01*
X022237Y016437D01*
X022234Y016438D01*
Y016864D01*
X022326D01*
Y017376D01*
X021774D01*
Y017354D01*
X021644D01*
X021641Y017361D01*
X0214Y017461D01*
X019391D01*
Y021909D01*
X02185D01*
X022091Y022009D01*
X022094Y022016D01*
X022364D01*
Y021994D01*
D02*
G37*
G36*
X011288Y021069D02*
X011026Y020807D01*
X010988Y020716D01*
Y020262D01*
X010949D01*
Y019524D01*
X011372D01*
Y019398D01*
X011332Y019356D01*
X010938D01*
Y018844D01*
X011332D01*
Y018972D01*
X0114D01*
X01149Y01901D01*
X01159Y01911D01*
X011594Y019119D01*
X011653Y019107D01*
Y018844D01*
X012047D01*
Y018972D01*
X0124D01*
X01249Y01901D01*
X01274Y01926D01*
X012778Y01935D01*
Y01974D01*
X012801Y019749D01*
X012863Y0199D01*
X012801Y020051D01*
X01265Y020113D01*
X012499Y020051D01*
X012437Y0199D01*
X012499Y019749D01*
X012522Y01974D01*
Y019403D01*
X012347Y019228D01*
X012047D01*
Y019356D01*
X011653Y019356D01*
X011628Y019404D01*
Y019524D01*
X012051D01*
Y020262D01*
X011734D01*
Y020353D01*
X011818Y020437D01*
X011825Y020434D01*
X012066Y020534D01*
X012391Y020859D01*
X013709D01*
X014009Y020559D01*
Y017391D01*
X013517Y016899D01*
X01225D01*
X012009Y016799D01*
X012006Y016792D01*
X011756D01*
Y016824D01*
X011244D01*
Y01668D01*
X011167Y016648D01*
X011045Y016526D01*
X011007Y016435D01*
Y015856D01*
X010938D01*
Y015358D01*
X01087D01*
X010841Y015405D01*
Y017199D01*
X010849Y017255D01*
X0109Y017255D01*
X011076D01*
Y017542D01*
X011126D01*
Y017592D01*
X011403D01*
Y017829D01*
X011353D01*
Y01795D01*
X011135D01*
X010917D01*
Y017871D01*
X010904Y017858D01*
X010842Y017879D01*
X010841Y017885D01*
Y021009D01*
X0109D01*
X011141Y021109D01*
X011144Y021116D01*
X01125D01*
X011255Y021118D01*
X011288Y021069D01*
D02*
G37*
%LPC*%
G36*
X02285Y041625D02*
X02255D01*
Y0413D01*
X02285D01*
Y041625D01*
D02*
G37*
G36*
X02245D02*
X02215D01*
Y0413D01*
X02245D01*
Y041625D01*
D02*
G37*
G36*
X023729Y041604D02*
X023071D01*
Y040896D01*
X023076D01*
X023118Y040856D01*
Y040344D01*
X023512D01*
Y040856D01*
X023554Y040896D01*
X023729D01*
Y041604D01*
D02*
G37*
G36*
X034689Y041913D02*
X033626D01*
X033094Y041382D01*
Y040318D01*
X033626Y039787D01*
X034689D01*
X03522Y040318D01*
Y041382D01*
X034689Y041913D01*
D02*
G37*
G36*
X011965D02*
X010902D01*
X01037Y041382D01*
Y040318D01*
X010902Y039787D01*
X011965D01*
X012496Y040318D01*
Y041382D01*
X011965Y041913D01*
D02*
G37*
G36*
X02909Y04027D02*
X028736Y040124D01*
X028589Y03977D01*
X028736Y039416D01*
X02909Y039269D01*
X029444Y039416D01*
X029591Y03977D01*
X029444Y040124D01*
X02909Y04027D01*
D02*
G37*
G36*
X027894D02*
X02754Y040124D01*
X027393Y03977D01*
X02754Y039416D01*
X027894Y039269D01*
X028248Y039416D01*
X028395Y03977D01*
X028248Y040124D01*
X027894Y04027D01*
D02*
G37*
G36*
X025134D02*
X02478Y040124D01*
X024634Y03977D01*
X02478Y039416D01*
X025134Y039269D01*
X025488Y039416D01*
X025635Y03977D01*
X025488Y040124D01*
X025134Y04027D01*
D02*
G37*
G36*
X0232Y039341D02*
Y038984D01*
X023557D01*
X023453Y039237D01*
X0232Y039341D01*
D02*
G37*
G36*
X0231D02*
X022847Y039237D01*
X022743Y038984D01*
X0231D01*
Y039341D01*
D02*
G37*
G36*
X03425Y039015D02*
Y03885D01*
X034415D01*
X034367Y038967D01*
X03425Y039015D01*
D02*
G37*
G36*
X03415D02*
X034033Y038967D01*
X033985Y03885D01*
X03415D01*
Y039015D01*
D02*
G37*
G36*
X034415Y03875D02*
X03425D01*
Y038585D01*
X034367Y038633D01*
X034415Y03875D01*
D02*
G37*
G36*
X03415D02*
X033985D01*
X034033Y038633D01*
X03415Y038585D01*
Y03875D01*
D02*
G37*
G36*
X023557Y038884D02*
X0232D01*
Y038527D01*
X023453Y038632D01*
X023557Y038884D01*
D02*
G37*
G36*
X0231D02*
X022743D01*
X022847Y038632D01*
X0231Y038527D01*
Y038884D01*
D02*
G37*
G36*
X026477Y038485D02*
X02625D01*
Y038317D01*
X026477D01*
Y038485D01*
D02*
G37*
G36*
X02615D02*
X025923D01*
Y038317D01*
X02615D01*
Y038485D01*
D02*
G37*
G36*
X028732Y038497D02*
X028319D01*
Y037739D01*
X028732D01*
Y038497D01*
D02*
G37*
G36*
X035142Y037747D02*
X034915D01*
Y0375D01*
X035142D01*
Y037747D01*
D02*
G37*
G36*
X030712Y038D02*
X030435D01*
X030158D01*
Y037806D01*
X030158Y037753D01*
X030158Y037694D01*
Y0375D01*
X030435D01*
X030712D01*
Y037694D01*
X030712Y037747D01*
X030712Y037806D01*
Y038D01*
D02*
G37*
G36*
X02755Y037615D02*
Y03745D01*
X027715D01*
X027667Y037567D01*
X02755Y037615D01*
D02*
G37*
G36*
X02745D02*
X027333Y037567D01*
X027285Y03745D01*
X02745D01*
Y037615D01*
D02*
G37*
G36*
X027715Y03735D02*
X02755D01*
Y037185D01*
X027667Y037233D01*
X027715Y03735D01*
D02*
G37*
G36*
X02745D02*
X027285D01*
X027333Y037233D01*
X02745Y037185D01*
Y03735D01*
D02*
G37*
G36*
X035142Y0374D02*
X034915D01*
Y037153D01*
X035142D01*
Y0374D01*
D02*
G37*
G36*
X0262Y037457D02*
Y0371D01*
X026557D01*
X026453Y037353D01*
X0262Y037457D01*
D02*
G37*
G36*
X0261D02*
X025847Y037353D01*
X025743Y0371D01*
X0261D01*
Y037457D01*
D02*
G37*
G36*
X030712Y0374D02*
X030435D01*
X030158D01*
Y037206D01*
X030158Y037153D01*
X030158Y037094D01*
Y0369D01*
X030435D01*
X030712D01*
Y037094D01*
X030712Y037147D01*
X030712Y037206D01*
Y0374D01*
D02*
G37*
G36*
X026557Y037D02*
X0262D01*
Y036643D01*
X026453Y036747D01*
X026557Y037D01*
D02*
G37*
G36*
X0261D02*
X025743D01*
X025847Y036747D01*
X0261Y036643D01*
Y037D01*
D02*
G37*
G36*
X02315Y037371D02*
X022864Y037252D01*
X022745Y036966D01*
X022864Y036679D01*
X02315Y036561D01*
X023436Y036679D01*
X023555Y036966D01*
X023436Y037252D01*
X02315Y037371D01*
D02*
G37*
G36*
X030712Y0368D02*
X030485D01*
Y036553D01*
X030712D01*
Y0368D01*
D02*
G37*
G36*
X030385D02*
X030158D01*
Y036553D01*
X030385D01*
Y0368D01*
D02*
G37*
G36*
X01705Y038011D02*
X016508Y037786D01*
X016283Y037244D01*
X016508Y036701D01*
X01705Y036477D01*
X017592Y036701D01*
X017817Y037244D01*
X017592Y037786D01*
X01705Y038011D01*
D02*
G37*
G36*
X029753Y036382D02*
X029575D01*
Y036032D01*
X029753D01*
Y036382D01*
D02*
G37*
G36*
X029475D02*
X029297D01*
Y036032D01*
X029475D01*
Y036382D01*
D02*
G37*
G36*
X03015Y036413D02*
X029999Y036351D01*
X029937Y0362D01*
X029999Y036049D01*
X03015Y035987D01*
X030285Y036043D01*
X030344Y036018D01*
Y036018D01*
X030856D01*
Y036412D01*
X030344D01*
Y036384D01*
X030285Y036357D01*
X03015Y036413D01*
D02*
G37*
G36*
X02615Y036471D02*
X025864Y036352D01*
X025745Y036066D01*
X025864Y035779D01*
X02615Y035661D01*
X026436Y035779D01*
X026555Y036066D01*
X026436Y036352D01*
X02615Y036471D01*
D02*
G37*
G36*
X02315Y036386D02*
X022864Y036268D01*
X022745Y035982D01*
X022864Y035695D01*
X02315Y035577D01*
X023436Y035695D01*
X023555Y035982D01*
X023436Y036268D01*
X02315Y036386D01*
D02*
G37*
G36*
X031792Y035389D02*
X0315D01*
Y034984D01*
X031792D01*
Y035389D01*
D02*
G37*
G36*
X02615Y035486D02*
X025864Y035368D01*
X025745Y035082D01*
X025864Y034795D01*
X02615Y034677D01*
X026436Y034795D01*
X026555Y035082D01*
X026436Y035368D01*
X02615Y035486D01*
D02*
G37*
G36*
X02315Y035402D02*
X022864Y035284D01*
X022745Y034997D01*
X022864Y034711D01*
X02315Y034592D01*
X023436Y034711D01*
X023555Y034997D01*
X023436Y035284D01*
X02315Y035402D01*
D02*
G37*
G36*
X031747Y034165D02*
X0315D01*
Y033938D01*
X031747D01*
Y034165D01*
D02*
G37*
G36*
X032397Y033947D02*
X03217D01*
Y0337D01*
X032397D01*
Y033947D01*
D02*
G37*
G36*
X035342D02*
X035115D01*
Y0337D01*
X035342D01*
Y033947D01*
D02*
G37*
G36*
X035015D02*
X034788D01*
Y0337D01*
X035015D01*
Y033947D01*
D02*
G37*
G36*
X03207D02*
X031843D01*
Y0337D01*
X03207D01*
Y033947D01*
D02*
G37*
G36*
X02615Y034502D02*
X025864Y034383D01*
X025745Y034097D01*
X025864Y033811D01*
X02615Y033692D01*
X026436Y033811D01*
X026555Y034097D01*
X026436Y034383D01*
X02615Y034502D01*
D02*
G37*
G36*
X035065Y03365D02*
D01*
D01*
D01*
D02*
G37*
G36*
X035342Y0336D02*
X035115D01*
Y033353D01*
X035342D01*
Y0336D01*
D02*
G37*
G36*
X035015D02*
X034788D01*
Y033353D01*
X035015D01*
Y0336D01*
D02*
G37*
G36*
X032397D02*
X03217D01*
Y033353D01*
X032397D01*
Y0336D01*
D02*
G37*
G36*
X03207D02*
X031843D01*
Y033353D01*
X03207D01*
Y0336D01*
D02*
G37*
G36*
X02645Y033465D02*
X026333Y033417D01*
X026285Y0333D01*
X02645D01*
Y033465D01*
D02*
G37*
G36*
X025166Y03383D02*
X02491Y033723D01*
X024804Y033467D01*
X02491Y033211D01*
X025166Y033105D01*
X025422Y033211D01*
X025528Y033467D01*
X025422Y033723D01*
X025166Y03383D01*
D02*
G37*
G36*
X02645Y0332D02*
X026285D01*
X026333Y033083D01*
X02645Y033035D01*
Y0332D01*
D02*
G37*
G36*
X022862Y03325D02*
X022635D01*
Y033003D01*
X022862D01*
Y03325D01*
D02*
G37*
G36*
X022535D02*
X022308D01*
Y033003D01*
X022535D01*
Y03325D01*
D02*
G37*
G36*
X026527Y032747D02*
X0263D01*
Y0325D01*
X026527D01*
Y032747D01*
D02*
G37*
G36*
X0262D02*
X025973D01*
Y0325D01*
X0262D01*
Y032747D01*
D02*
G37*
G36*
X022839Y032692D02*
X022434D01*
Y0324D01*
X022839D01*
Y032692D01*
D02*
G37*
G36*
X022334D02*
X02193D01*
Y0324D01*
X022334D01*
Y032692D01*
D02*
G37*
G36*
X022839Y0323D02*
X022434D01*
Y032008D01*
X022839D01*
Y0323D01*
D02*
G37*
G36*
X022334D02*
X02193D01*
Y032008D01*
X022334D01*
Y0323D01*
D02*
G37*
G36*
X026527Y0324D02*
X02625D01*
X025973D01*
Y032156D01*
X025973Y032153D01*
Y032097D01*
X025973Y032094D01*
Y03185D01*
X02625D01*
X026527D01*
Y032094D01*
X026527Y032097D01*
Y032153D01*
X026527Y032156D01*
Y0324D01*
D02*
G37*
G36*
Y03175D02*
X0263D01*
Y031503D01*
X026527D01*
Y03175D01*
D02*
G37*
G36*
X0262D02*
X025973D01*
Y031503D01*
X0262D01*
Y03175D01*
D02*
G37*
G36*
X023131Y031452D02*
X022608D01*
Y031206D01*
X023131D01*
Y031452D01*
D02*
G37*
G36*
X022508D02*
X021986D01*
Y031206D01*
X022508D01*
Y031452D01*
D02*
G37*
G36*
X023131Y031106D02*
X022608D01*
Y030859D01*
X023131D01*
Y031106D01*
D02*
G37*
G36*
X022508D02*
X021986D01*
Y030859D01*
X022508D01*
Y031106D01*
D02*
G37*
G36*
X025393Y030978D02*
X024291D01*
Y029522D01*
X025393D01*
Y030978D01*
D02*
G37*
G36*
X023142Y028647D02*
X022915D01*
Y0284D01*
X023142D01*
Y028647D01*
D02*
G37*
G36*
X022815D02*
X022588D01*
Y0284D01*
X022815D01*
Y028647D01*
D02*
G37*
G36*
X023142Y0283D02*
X022915D01*
Y028053D01*
X023142D01*
Y0283D01*
D02*
G37*
G36*
X022815D02*
X022588D01*
Y028053D01*
X022815D01*
Y0283D01*
D02*
G37*
G36*
X034541Y027484D02*
X034372D01*
Y027316D01*
X034541D01*
Y027484D01*
D02*
G37*
G36*
X023166Y027192D02*
X022761D01*
Y0269D01*
X023166D01*
Y027192D01*
D02*
G37*
G36*
X02367Y0268D02*
X023266D01*
Y026508D01*
X02367D01*
Y0268D01*
D02*
G37*
G36*
X023166D02*
X022761D01*
Y026508D01*
X023166D01*
Y0268D01*
D02*
G37*
G36*
X02316Y026406D02*
X022894D01*
Y026081D01*
X02316D01*
Y026406D01*
D02*
G37*
G36*
X022794D02*
X022527D01*
Y026081D01*
X022794D01*
Y026406D01*
D02*
G37*
G36*
X02345Y026151D02*
X023273Y026077D01*
X023219Y025948D01*
X02316Y02596D01*
Y025981D01*
X022527D01*
Y025656D01*
Y025341D01*
X02316D01*
Y02574D01*
X023219Y025752D01*
X023273Y025623D01*
X02345Y025549D01*
Y02585D01*
Y026151D01*
D02*
G37*
G36*
X02355D02*
Y0259D01*
X023801D01*
X023727Y026077D01*
X02355Y026151D01*
D02*
G37*
G36*
X023801Y0258D02*
X02355D01*
Y025549D01*
X023727Y025623D01*
X023801Y0258D01*
D02*
G37*
G36*
X024785Y025135D02*
X024667D01*
Y024859D01*
X024785D01*
Y025135D01*
D02*
G37*
G36*
X030052Y023752D02*
X029884D01*
Y023583D01*
X030052D01*
Y023752D01*
D02*
G37*
G36*
X0205Y023801D02*
Y02355D01*
X020751D01*
X020677Y023727D01*
X0205Y023801D01*
D02*
G37*
G36*
X0204D02*
X020223Y023727D01*
X020149Y02355D01*
X0204D01*
Y023801D01*
D02*
G37*
G36*
X020751Y02345D02*
X0205D01*
Y023199D01*
X020677Y023273D01*
X020751Y02345D01*
D02*
G37*
G36*
X0204D02*
X020149D01*
X020223Y023273D01*
X0204Y023199D01*
Y02345D01*
D02*
G37*
G36*
X0234Y023101D02*
Y02285D01*
X023651D01*
X023577Y023027D01*
X0234Y023101D01*
D02*
G37*
G36*
X0233D02*
X023123Y023027D01*
X023049Y02285D01*
X0233D01*
Y023101D01*
D02*
G37*
G36*
X024373Y023175D02*
X024106D01*
Y02285D01*
X024373D01*
Y023175D01*
D02*
G37*
G36*
X024006D02*
X02374D01*
Y02285D01*
X024006D01*
Y023175D01*
D02*
G37*
G36*
X022203Y02295D02*
X022035D01*
Y022723D01*
X022203D01*
Y02295D01*
D02*
G37*
G36*
X021935D02*
X021767D01*
Y022723D01*
X021935D01*
Y02295D01*
D02*
G37*
G36*
X023651Y02275D02*
X0234D01*
Y022499D01*
X023577Y022573D01*
X023651Y02275D01*
D02*
G37*
G36*
X0233D02*
X023049D01*
X023123Y022573D01*
X0233Y022499D01*
Y02275D01*
D02*
G37*
G36*
X024373Y02275D02*
X024106D01*
Y022425D01*
X024373D01*
Y02275D01*
D02*
G37*
G36*
X024006D02*
X02374D01*
Y022425D01*
X024006D01*
Y02275D01*
D02*
G37*
G36*
X034607Y036219D02*
X0344D01*
Y0361D01*
X034607D01*
Y036219D01*
D02*
G37*
G36*
X030052Y027484D02*
X029884D01*
Y027316D01*
X030052D01*
Y027484D01*
D02*
G37*
G36*
X029828Y032407D02*
X02965D01*
Y032033D01*
X029828D01*
Y032407D01*
D02*
G37*
G36*
X02955D02*
X029372D01*
Y032033D01*
X02955D01*
Y032407D01*
D02*
G37*
G36*
X029828Y031933D02*
X02965D01*
Y031558D01*
X029828D01*
Y031933D01*
D02*
G37*
G36*
X02955D02*
X029372D01*
Y031558D01*
X02955D01*
Y031933D01*
D02*
G37*
G36*
X029307Y032386D02*
X028893D01*
Y031579D01*
X028972D01*
Y03151D01*
X028949Y031501D01*
X028887Y03135D01*
X028949Y031199D01*
X0291Y031137D01*
X029251Y031199D01*
X029313Y03135D01*
X029251Y031501D01*
X029228Y03151D01*
Y031579D01*
X029307D01*
Y032386D01*
D02*
G37*
G36*
X02965Y029965D02*
Y0298D01*
X029815D01*
X029767Y029917D01*
X02965Y029965D01*
D02*
G37*
G36*
X02955D02*
X029433Y029917D01*
X029385Y0298D01*
X02955D01*
Y029965D01*
D02*
G37*
G36*
X029815Y0297D02*
X02965D01*
Y029535D01*
X029767Y029583D01*
X029815Y0297D01*
D02*
G37*
G36*
X02955D02*
X029385D01*
X029433Y029583D01*
X02955Y029535D01*
Y0297D01*
D02*
G37*
G36*
X031785Y025969D02*
X031617D01*
Y0258D01*
X031785D01*
Y025969D01*
D02*
G37*
G36*
X032486Y025969D02*
X032454Y025969D01*
X032318D01*
Y02575D01*
X032218D01*
Y025969D01*
X031885D01*
Y02575D01*
X031835D01*
Y0257D01*
X031617D01*
Y025532D01*
Y025367D01*
X031835D01*
Y025317D01*
X031885D01*
Y025099D01*
X032218D01*
Y025317D01*
X032318D01*
Y025099D01*
X032454D01*
X032486Y025099D01*
X032536Y02512D01*
X032898D01*
Y025494D01*
X032898Y025554D01*
X032898Y025573D01*
Y025947D01*
X032536D01*
X032486Y025969D01*
D02*
G37*
G36*
X031785Y025267D02*
X031617D01*
Y025099D01*
X031785D01*
Y025267D01*
D02*
G37*
G36*
X034541Y023752D02*
X034372D01*
Y023583D01*
X034541D01*
Y023752D01*
D02*
G37*
G36*
X0293Y020313D02*
X029149Y020251D01*
X02914Y020228D01*
X0282D01*
X02811Y02019D01*
X027975Y020055D01*
X027937Y019965D01*
Y019326D01*
X027809D01*
Y018774D01*
Y018224D01*
X028321D01*
Y018774D01*
Y019326D01*
X028193D01*
Y019912D01*
X028253Y019972D01*
X02914D01*
X029149Y019949D01*
X0293Y019887D01*
X029451Y019949D01*
X029513Y0201D01*
X029451Y020251D01*
X0293Y020313D01*
D02*
G37*
G36*
X02755Y020066D02*
X0275D01*
Y0198D01*
X027766D01*
Y01985D01*
X027703Y020003D01*
X02755Y020066D01*
D02*
G37*
G36*
X0274D02*
X02735D01*
X027197Y020003D01*
X027134Y01985D01*
Y0198D01*
X0274D01*
Y020066D01*
D02*
G37*
G36*
X033879Y019801D02*
X033642D01*
Y019574D01*
X033879D01*
Y019801D01*
D02*
G37*
G36*
X033542D02*
X033305D01*
Y019574D01*
X033542D01*
Y019801D01*
D02*
G37*
G36*
X027766Y0197D02*
X0275D01*
Y019434D01*
X02755D01*
X027703Y019497D01*
X027766Y01965D01*
Y0197D01*
D02*
G37*
G36*
X0274D02*
X027134D01*
Y01965D01*
X027197Y019497D01*
X02735Y019434D01*
X0274D01*
Y0197D01*
D02*
G37*
G36*
X033879Y019474D02*
X033642D01*
Y019247D01*
X033879D01*
Y019474D01*
D02*
G37*
G36*
X033542D02*
X033305D01*
Y019247D01*
X033542D01*
Y019474D01*
D02*
G37*
G36*
X027712Y019347D02*
X027485D01*
Y0191D01*
X027712D01*
Y019347D01*
D02*
G37*
G36*
X027385D02*
X027158D01*
Y0191D01*
X027385D01*
Y019347D01*
D02*
G37*
G36*
X03375Y022813D02*
X033599Y022751D01*
X033537Y0226D01*
X033599Y022449D01*
X033622Y02244D01*
Y02075D01*
X03366Y02066D01*
X034122Y020197D01*
Y019697D01*
X033994D01*
Y019303D01*
X034506D01*
Y019372D01*
X034671D01*
X034703Y019313D01*
X034657Y0192D01*
Y019D01*
X034713Y018863D01*
X03485Y018807D01*
X03505D01*
X035187Y018863D01*
X035243Y019D01*
Y0192D01*
X035187Y019337D01*
X035078Y019382D01*
Y01945D01*
X03504Y01954D01*
X03499Y01959D01*
X0349Y019628D01*
X034506D01*
Y019697D01*
X034378D01*
Y02025D01*
X03434Y02034D01*
X033878Y020803D01*
Y02244D01*
X033901Y022449D01*
X033963Y0226D01*
X033901Y022751D01*
X03375Y022813D01*
D02*
G37*
G36*
X033858Y019032D02*
X033326D01*
Y01852D01*
X033858D01*
Y018657D01*
X033994D01*
Y018588D01*
X034506D01*
Y018982D01*
X033994D01*
Y018913D01*
X033858D01*
Y019032D01*
D02*
G37*
G36*
X027712Y019D02*
X027435D01*
X027158D01*
Y018753D01*
Y01855D01*
X027435D01*
X027712D01*
Y018753D01*
Y019D01*
D02*
G37*
G36*
X0255Y0184D02*
X025335D01*
X025383Y018283D01*
X0255Y018235D01*
Y0184D01*
D02*
G37*
G36*
X027712Y01845D02*
X027435D01*
X027158D01*
Y018234D01*
X027158Y018203D01*
X02711Y018175D01*
X027071D01*
Y01785D01*
X027387D01*
X027704D01*
Y018148D01*
X027712Y018203D01*
X027712Y018231D01*
Y01845D01*
D02*
G37*
G36*
X026242Y0178D02*
X026015D01*
Y017553D01*
X026242D01*
Y0178D01*
D02*
G37*
G36*
X027337Y01775D02*
X027071D01*
Y017425D01*
X027337D01*
Y01775D01*
D02*
G37*
G36*
X0328Y017571D02*
X032544Y017465D01*
X032438Y017209D01*
X032544Y016953D01*
X0328Y016847D01*
X033056Y016953D01*
X033162Y017209D01*
X033056Y017465D01*
X0328Y017571D01*
D02*
G37*
G36*
X031056Y019465D02*
X030544D01*
Y018835D01*
X030651D01*
Y017001D01*
X030649Y017001D01*
X030587Y01685D01*
X030649Y016699D01*
X0308Y016637D01*
X030951Y016699D01*
X031013Y01685D01*
X030951Y017001D01*
X030949Y017001D01*
Y018835D01*
X031056D01*
Y019465D01*
D02*
G37*
G36*
X0221Y015366D02*
X02205D01*
Y0151D01*
X022316D01*
Y01515D01*
X022253Y015303D01*
X0221Y015366D01*
D02*
G37*
G36*
X02195D02*
X0219D01*
X021747Y015303D01*
X021684Y01515D01*
Y0151D01*
X02195D01*
Y015366D01*
D02*
G37*
G36*
X032256Y019465D02*
X031744D01*
Y018835D01*
X032256D01*
Y019022D01*
X032342D01*
Y018894D01*
X03248D01*
Y01846D01*
X032517Y01837D01*
X033672Y017215D01*
Y014853D01*
X033597Y014778D01*
X033109D01*
X033056Y014906D01*
X0328Y015012D01*
X032544Y014906D01*
X032438Y01465D01*
X032544Y014394D01*
X0328Y014288D01*
X033056Y014394D01*
X033109Y014522D01*
X03365D01*
X03374Y01456D01*
X03389Y01471D01*
X033928Y0148D01*
Y017268D01*
X03389Y017358D01*
X032736Y018513D01*
Y018894D01*
X032874D01*
Y019406D01*
X032342D01*
Y019278D01*
X032256D01*
Y019465D01*
D02*
G37*
G36*
X022316Y015D02*
X02205D01*
Y014734D01*
X0221D01*
X022253Y014797D01*
X022316Y01495D01*
Y015D01*
D02*
G37*
G36*
X02195D02*
X021684D01*
Y01495D01*
X021747Y014797D01*
X0219Y014734D01*
X02195D01*
Y015D01*
D02*
G37*
G36*
X01705Y016117D02*
X016508Y015892D01*
X016283Y01535D01*
X016508Y014808D01*
X01705Y014583D01*
X017592Y014808D01*
X017817Y01535D01*
X017592Y015892D01*
X01705Y016117D01*
D02*
G37*
G36*
X019Y014607D02*
Y01425D01*
X019357D01*
X019253Y014503D01*
X019Y014607D01*
D02*
G37*
G36*
X0189D02*
X018647Y014503D01*
X018543Y01425D01*
X0189D01*
Y014607D01*
D02*
G37*
G36*
X019357Y01415D02*
X019D01*
Y013793D01*
X019253Y013897D01*
X019357Y01415D01*
D02*
G37*
G36*
X0189D02*
X018543D01*
X018647Y013897D01*
X0189Y013793D01*
Y01415D01*
D02*
G37*
G36*
X025363Y013164D02*
Y012697D01*
X025634D01*
Y012863D01*
X02554Y013091D01*
X025363Y013164D01*
D02*
G37*
G36*
X021861D02*
X021684Y013091D01*
X02159Y012863D01*
Y012697D01*
X021861D01*
Y013164D01*
D02*
G37*
G36*
X0267Y013513D02*
X026549Y013451D01*
X026487Y0133D01*
X026549Y013149D01*
X026572Y01314D01*
Y013056D01*
X026503D01*
Y012544D01*
X026897D01*
Y013056D01*
X026828D01*
Y01314D01*
X026851Y013149D01*
X026913Y0133D01*
X026851Y013451D01*
X0267Y013513D01*
D02*
G37*
G36*
X027235Y013498D02*
X027084Y013436D01*
X027022Y013285D01*
X027084Y013134D01*
X027107Y013125D01*
Y013056D01*
X027038D01*
Y012544D01*
X027432D01*
Y013056D01*
X027363D01*
Y013125D01*
X027386Y013134D01*
X027448Y013285D01*
X027386Y013436D01*
X027235Y013498D01*
D02*
G37*
G36*
X032227Y012564D02*
X031792Y012384D01*
X031725Y012222D01*
X031672Y012222D01*
X03145Y012315D01*
Y01195D01*
Y011585D01*
X031672Y011678D01*
X031725D01*
X031792Y011516D01*
X032227Y011336D01*
X032661Y011516D01*
X032841Y01195D01*
X032661Y012384D01*
X032227Y012564D01*
D02*
G37*
G36*
X025634Y012597D02*
X025363D01*
Y01213D01*
X02554Y012203D01*
X025634Y01243D01*
Y012597D01*
D02*
G37*
G36*
X021861D02*
X02159D01*
Y01243D01*
X021684Y012203D01*
X021861Y01213D01*
Y012597D01*
D02*
G37*
G36*
X028147Y013056D02*
X027753D01*
Y012544D01*
X027822D01*
Y012171D01*
X027699Y012119D01*
X027574Y011818D01*
Y011582D01*
X027699Y011281D01*
X028Y011156D01*
X028301Y011281D01*
X028426Y011582D01*
Y011694D01*
X028485Y011706D01*
X028564Y011516D01*
X028998Y011336D01*
X029433Y011516D01*
X029508Y011698D01*
X029557D01*
X02957Y011693D01*
X029825Y011588D01*
X030081Y011694D01*
X030187Y01195D01*
X030081Y012206D01*
X029825Y012312D01*
X02957Y012207D01*
X029557Y012202D01*
X029508D01*
X029433Y012384D01*
X028998Y012564D01*
X028564Y012384D01*
X02841Y012012D01*
X028346D01*
X028301Y012119D01*
X028078Y012212D01*
Y012544D01*
X028147D01*
Y013056D01*
D02*
G37*
G36*
X026182Y013056D02*
X025788D01*
Y012544D01*
X025857D01*
Y012185D01*
X025699Y012119D01*
X025574Y011818D01*
Y011582D01*
X025699Y011281D01*
X026Y011156D01*
X026301Y011281D01*
X026426Y011582D01*
Y011818D01*
X026301Y012119D01*
X026113Y012197D01*
Y012544D01*
X026182D01*
Y013056D01*
D02*
G37*
G36*
X025411Y011472D02*
X025363D01*
Y011051D01*
X025626D01*
Y011257D01*
X025563Y011409D01*
X025411Y011472D01*
D02*
G37*
G36*
X02201D02*
X021961D01*
Y011051D01*
X022225D01*
Y011257D01*
X022162Y011409D01*
X02201Y011472D01*
D02*
G37*
G36*
X025263D02*
X025215D01*
X025063Y011409D01*
X025Y011257D01*
Y011051D01*
X025263D01*
Y011472D01*
D02*
G37*
G36*
X021861D02*
X021813D01*
X021661Y011409D01*
X021598Y011257D01*
Y011051D01*
X021861D01*
Y011472D01*
D02*
G37*
G36*
X022225Y010951D02*
X021961D01*
Y010531D01*
X02201D01*
X022162Y010593D01*
X022225Y010745D01*
Y010951D01*
D02*
G37*
G36*
X021861D02*
X021598D01*
Y010745D01*
X021661Y010593D01*
X021813Y010531D01*
X021861D01*
Y010951D01*
D02*
G37*
G36*
X034689Y012496D02*
X033626D01*
X033094Y011965D01*
Y010902D01*
X033626Y01037D01*
X034689D01*
X03522Y010902D01*
Y011965D01*
X034689Y012496D01*
D02*
G37*
G36*
X011965D02*
X010902D01*
X01037Y011965D01*
Y010902D01*
X010902Y01037D01*
X011965D01*
X012496Y010902D01*
Y011965D01*
X011965Y012496D01*
D02*
G37*
G36*
X0205Y020651D02*
Y0204D01*
X020751D01*
X020677Y020577D01*
X0205Y020651D01*
D02*
G37*
G36*
X0204D02*
X020223Y020577D01*
X020149Y0204D01*
X0204D01*
Y020651D01*
D02*
G37*
G36*
X020751Y0203D02*
X0205D01*
Y020049D01*
X020677Y020123D01*
X020751Y0203D01*
D02*
G37*
G36*
X0204D02*
X020149D01*
X020223Y020123D01*
X0204Y020049D01*
Y0203D01*
D02*
G37*
G36*
X022103Y019994D02*
X021935D01*
Y019766D01*
X022103D01*
Y019994D01*
D02*
G37*
G36*
X021835D02*
X021667D01*
Y019766D01*
X021835D01*
Y019994D01*
D02*
G37*
G36*
X022103Y019666D02*
X021885D01*
X021667D01*
Y019447D01*
X021658D01*
Y0192D01*
X021935D01*
X022212D01*
Y019447D01*
X022103D01*
Y019666D01*
D02*
G37*
G36*
X021835Y0185D02*
X021667D01*
Y018273D01*
X021835D01*
Y0185D01*
D02*
G37*
G36*
X022347Y018027D02*
X0221D01*
Y0178D01*
X022347D01*
Y018027D01*
D02*
G37*
G36*
X022D02*
X021753D01*
Y0178D01*
X022D01*
Y018027D01*
D02*
G37*
G36*
X022347Y0177D02*
X0221D01*
Y017473D01*
X022347D01*
Y0177D01*
D02*
G37*
G36*
X022D02*
X021753D01*
Y017473D01*
X022D01*
Y0177D01*
D02*
G37*
G36*
X02437Y017345D02*
X02365D01*
Y0168D01*
X02437D01*
Y017345D01*
D02*
G37*
G36*
X02355D02*
X02283D01*
Y0168D01*
X02355D01*
Y017345D01*
D02*
G37*
G36*
Y0167D02*
X02283D01*
Y016155D01*
X02355D01*
Y0167D01*
D02*
G37*
G36*
X0135Y019122D02*
Y01885D01*
X013772D01*
X013692Y019042D01*
X0135Y019122D01*
D02*
G37*
G36*
X0134D02*
X013208Y019042D01*
X013128Y01885D01*
X0134D01*
Y019122D01*
D02*
G37*
G36*
X013772Y01875D02*
X0135D01*
Y018478D01*
X013692Y018558D01*
X013772Y01875D01*
D02*
G37*
G36*
X0134D02*
X013128D01*
X013208Y018558D01*
X0134Y018478D01*
Y01875D01*
D02*
G37*
G36*
X0125Y018263D02*
X012349Y018201D01*
X01234Y018178D01*
X012047D01*
Y018256D01*
X011653D01*
Y017808D01*
X011618D01*
Y017276D01*
X01213D01*
Y017808D01*
X012047D01*
Y017922D01*
X01234D01*
X012349Y017899D01*
X0125Y017837D01*
X012651Y017899D01*
X012713Y01805D01*
X012651Y018201D01*
X0125Y018263D01*
D02*
G37*
G36*
X011353Y018277D02*
X011185D01*
Y01805D01*
X011353D01*
Y018277D01*
D02*
G37*
G36*
X011085D02*
X010917D01*
Y01805D01*
X011085D01*
Y018277D01*
D02*
G37*
G36*
X011403Y017492D02*
X011176D01*
Y017255D01*
X011403D01*
Y017492D01*
D02*
G37*
%LPD*%
D11*
X035065Y027281D02*
Y03265D01*
X0348Y03518D02*
Y03645D01*
X034686Y035066D02*
X0348Y03518D01*
X03455Y0367D02*
X0348Y03645D01*
X03105Y0229D02*
X03145D01*
X030968Y022982D02*
X03105Y0229D01*
X030968Y022982D02*
Y0234D01*
X03085Y0223D02*
X03135D01*
X03075Y0224D02*
X03085Y0223D01*
X03075Y0224D02*
Y0234D01*
X032494Y022D02*
Y02345D01*
X032244Y02175D02*
X032494Y022D01*
X03085Y02175D02*
X032244D01*
X03375Y02075D02*
X03425Y02025D01*
X03375Y02075D02*
Y0226D01*
X03495Y0191D02*
Y01945D01*
X0349Y0195D02*
X03495Y01945D01*
X03425Y0195D02*
X0349D01*
X03425D02*
Y02025D01*
X033567Y02775D02*
Y031383D01*
X03175Y0332D02*
X033567Y031383D01*
X03115Y0332D02*
X03175D01*
X032927Y0277D02*
Y030323D01*
X03155Y0317D02*
X032927Y030323D01*
X03055Y0317D02*
X03155D01*
X033134Y0277D02*
Y030716D01*
X03155Y0323D02*
X033134Y030716D01*
X03055Y0323D02*
X03155D01*
X03335Y02775D02*
Y03105D01*
X0315Y0329D02*
X03335Y03105D01*
X03055Y0329D02*
X0315D01*
X03485Y0369D02*
Y037465D01*
X03308Y03604D02*
X03434D01*
X033858Y03478D02*
Y035558D01*
X035065Y03265D02*
Y03365D01*
X03045Y036865D02*
Y038535D01*
X027435Y017435D02*
Y0185D01*
X032845Y03265D02*
X035065D01*
X03212Y033375D02*
X032845Y03265D01*
X03505Y027266D02*
X035065Y027281D01*
X0332Y03825D02*
X0338D01*
X03435Y03435D02*
Y0347D01*
X03427Y03478D02*
X03435Y0347D01*
X034055Y03478D02*
X03427D01*
X0261Y02925D02*
X02625Y0291D01*
X0265Y02565D02*
X02705Y0251D01*
X0265Y02565D02*
Y02985D01*
X02625Y02515D02*
Y0291D01*
X02705Y0245D02*
Y0251D01*
X0261Y02975D02*
Y03105D01*
X0252Y02885D02*
X0261Y02975D01*
X02355Y03995D02*
X0246Y0389D01*
X02275Y03995D02*
X02355D01*
X0246Y0389D02*
X02675D01*
X0276Y03685D02*
X0295D01*
X0275Y03695D02*
X0276Y03685D01*
X0275Y03695D02*
Y0374D01*
X02625Y03245D02*
Y0332D01*
X0263Y03325D02*
X0265D01*
X0258Y038535D02*
X0262D01*
X02785Y0258D02*
Y0264D01*
X02765Y0256D02*
X02785Y0258D01*
X02715Y0256D02*
X02765D01*
X0238Y02735D02*
X02395Y0272D01*
Y02615D02*
Y0272D01*
Y02615D02*
X02405Y02605D01*
X0235Y02735D02*
X0238D01*
X02335Y0275D02*
X0235Y02735D01*
X02335Y0275D02*
Y02825D01*
X033464Y034114D02*
Y03478D01*
X03325Y0339D02*
X033464Y034114D01*
X03325Y03365D02*
Y0339D01*
X03285Y0343D02*
X0332D01*
X03275Y0342D02*
X03285Y0343D01*
X03275Y03365D02*
Y0342D01*
X0332Y0343D02*
X033267Y034367D01*
X033858Y03445D02*
Y03478D01*
X03395Y033665D02*
Y034358D01*
Y033665D02*
X033965Y03365D01*
X033858Y03445D02*
X03395Y034358D01*
X029025Y037475D02*
Y038118D01*
X0286Y03735D02*
X0289D01*
X029025Y037475D01*
X02625Y0318D02*
Y03245D01*
Y0332D02*
X0263Y03325D01*
X02745Y03895D02*
X0284D01*
X02715Y03925D02*
X02745Y03895D01*
X0268Y03925D02*
X02715D01*
X0332Y03825D02*
Y0392D01*
X033135Y039265D02*
X0332Y0392D01*
X03095Y039265D02*
X033135D01*
X0325Y03825D02*
Y0389D01*
X03245Y03895D02*
X0325Y0389D01*
X02915Y03895D02*
X03245D01*
X03285Y03745D02*
Y03785D01*
X0328Y0379D02*
X03285Y03785D01*
X0326Y0379D02*
X0328D01*
X032365Y03745D02*
Y037735D01*
X032275Y037825D02*
X032365Y037735D01*
X031875Y037825D02*
X032275D01*
X0318Y0379D02*
X031875Y037825D01*
X0318Y0379D02*
Y03825D01*
X0325Y038D02*
X0326Y0379D01*
X0297Y0335D02*
X03055D01*
X0296Y0336D02*
X0297Y0335D01*
X0296Y0336D02*
Y034817D01*
X03055Y0335D02*
X03085D01*
X03115Y0332D01*
X030064Y02895D02*
X030514Y0294D01*
X0283Y02895D02*
X030064D01*
X0281Y02915D02*
X0283Y02895D01*
X030514Y0294D02*
Y031664D01*
X0301Y02955D02*
Y03215D01*
X02985Y0293D02*
X0301Y02955D01*
X02855Y0293D02*
X02985D01*
X02835Y0295D02*
Y0332D01*
Y0295D02*
X02855Y0293D01*
X0281Y02915D02*
Y031983D01*
X03075Y0277D02*
Y0288D01*
X03095Y029D01*
Y02935D01*
X03125Y029968D02*
Y03055D01*
X0313Y02905D02*
X031836Y028514D01*
X032494Y0278D02*
Y029206D01*
X03215Y02955D02*
X032494Y029206D01*
X032701Y027949D02*
Y029799D01*
X0325Y03D02*
X032701Y029799D01*
X033601Y018785D02*
X03425D01*
X033592Y018776D02*
X033601Y018785D01*
X032677Y02135D02*
X032927Y0216D01*
X02785Y02135D02*
X032677D01*
X0272Y022D02*
X02785Y02135D01*
X0272Y022D02*
Y02255D01*
X03335Y02145D02*
Y02345D01*
X02625Y02245D02*
X0277Y021D01*
X02625Y02245D02*
Y02295D01*
X0329Y021D02*
X03335Y02145D01*
X0277Y021D02*
X0329D01*
X032927Y0216D02*
Y0233D01*
X0338Y0148D02*
Y017268D01*
X03365Y01465D02*
X0338Y0148D01*
X0328Y01465D02*
X03365D01*
X032608Y01846D02*
X0338Y017268D01*
X0328Y01465D02*
X03285Y0147D01*
X0284Y01575D02*
Y01585D01*
Y01415D02*
Y01575D01*
X0281Y015785D02*
X028135Y01575D01*
X0284D01*
X028526Y015976D02*
X028758D01*
X0284Y01585D02*
X028526Y015976D01*
X0283Y01405D02*
X0284Y01415D01*
X0275Y01425D02*
Y015274D01*
X0277Y01405D02*
X0283D01*
X0275Y01425D02*
X0277Y01405D01*
X0247Y01055D02*
X0249Y01035D01*
X027Y0105D02*
Y0117D01*
X02685Y01035D02*
X027Y0105D01*
X0249Y01035D02*
X02685D01*
X025044Y015944D02*
X025335D01*
X02481Y01571D02*
X025044Y015944D01*
X02481Y01426D02*
Y01571D01*
X0112Y01465D02*
X0123D01*
X0112Y0264D02*
X01145D01*
X0124Y022D02*
Y02325D01*
X012292Y023358D02*
X0124Y02325D01*
X011874Y023358D02*
X012292D01*
X011116Y020716D02*
X0124Y022D01*
X011116Y019893D02*
Y020716D01*
X0316Y02815D02*
X031628Y028122D01*
X031195Y028545D02*
X0312Y02855D01*
X02525Y02655D02*
X0258D01*
X0253Y026D02*
X02575D01*
X02525Y02705D02*
X02575D01*
X0317Y02005D02*
X03255D01*
X0315Y01985D02*
X0317Y02005D01*
X0315Y01668D02*
Y01985D01*
X0246Y02885D02*
X0252D01*
X030135Y02235D02*
X030535Y02275D01*
X02865Y02235D02*
X030135D01*
X0282Y0201D02*
X0293D01*
X028065Y019965D02*
X0282Y0201D01*
X028065Y01905D02*
Y019965D01*
X02525Y02605D02*
X0253Y026D01*
X0309Y0299D02*
X03205Y02875D01*
Y0278D02*
Y02875D01*
X030514Y031664D02*
X03055Y0317D01*
X03125Y029968D02*
X032268Y02895D01*
Y0278D02*
Y02895D01*
X031836Y027852D02*
Y028514D01*
X031835Y02785D02*
X031836Y027852D01*
X0296Y02975D02*
Y031983D01*
X029525Y037375D02*
Y038118D01*
X0318Y03825D02*
Y03865D01*
X031664Y038786D02*
X0318Y03865D01*
X029025Y038825D02*
X02915Y03895D01*
X0325Y038D02*
Y03825D01*
X029611Y038786D02*
X031664D01*
X0295Y03685D02*
X030435D01*
X029525Y035982D02*
Y036825D01*
X0295Y03685D02*
X029525Y036825D01*
X0342Y0388D02*
X0347D01*
X03485Y03865D01*
Y037465D02*
Y03865D01*
Y037465D02*
X034865Y03745D01*
X033565Y037035D02*
Y03745D01*
X031065Y03685D02*
X03175D01*
X030165Y036215D02*
X0306D01*
X03015Y0362D02*
X030165Y036215D01*
X0291Y03135D02*
Y031983D01*
X03455Y0367D02*
Y03775D01*
X03445Y03785D02*
X03455Y03775D01*
X03375Y03785D02*
X03445D01*
X033565Y037665D02*
X03375Y03785D01*
X033565Y03745D02*
Y037665D01*
X03308Y03604D02*
X033563Y035558D01*
X032775Y03605D02*
X0329D01*
X03291Y03604D02*
X03308D01*
X0329Y03605D02*
X03291Y03604D01*
X03434D02*
X03435Y03605D01*
X033858Y036335D02*
Y03675D01*
X034235Y037127D01*
Y03745D01*
X035065Y03365D02*
Y036685D01*
X03485Y0369D02*
X035065Y036685D01*
X033661Y033189D02*
Y03478D01*
Y033189D02*
X03375Y0331D01*
X0343D01*
X034435Y033235D01*
Y03365D01*
X0321Y03495D02*
Y03595D01*
Y03367D02*
Y03495D01*
X03145Y034934D02*
X032084D01*
X0321Y03495D01*
X033267Y034367D02*
Y03478D01*
X0321Y03367D02*
X03212Y03365D01*
X0322Y03605D02*
X032775D01*
X0321Y03595D02*
X0322Y03605D01*
X0287Y0353D02*
X0299D01*
X0286Y0352D02*
X0287Y0353D01*
X0286Y034817D02*
Y0352D01*
X03Y0344D02*
Y0352D01*
X0299Y0353D02*
X03Y0352D01*
X02688Y0355D02*
Y0381D01*
Y0348D02*
Y0355D01*
X02688Y0355D01*
X0306D01*
X02875Y0329D02*
X03055D01*
X0286Y031983D02*
Y03275D01*
X02875Y0329D01*
X0291Y03395D02*
Y034817D01*
X02835Y0332D02*
X0291Y03395D01*
X03025Y0323D02*
X03055D01*
X0301Y03215D02*
X03025Y0323D01*
X030115Y034285D02*
X0306D01*
X03Y0344D02*
X030115Y034285D01*
X03105Y035D02*
Y036835D01*
Y033985D02*
Y035D01*
X03105Y035D02*
X03105Y035D01*
X0306Y035D02*
X03105D01*
X03105Y036835D02*
X031065Y03685D01*
X03105Y033985D02*
X03145Y033585D01*
X031195Y02775D02*
Y028545D01*
X031628Y0278D02*
Y028122D01*
X030535Y02275D02*
Y0234D01*
X030613Y01195D02*
Y013787D01*
X0305Y0139D02*
X030613Y013787D01*
X0295Y0139D02*
X0305D01*
X02904Y018124D02*
X02915Y018014D01*
Y0165D02*
Y018014D01*
X029Y01635D02*
X02915Y0165D01*
X029358Y01775D02*
Y018458D01*
Y015842D02*
Y01775D01*
X029692D01*
X02955Y01865D02*
X02995D01*
X029358Y018458D02*
X02955Y01865D01*
X0295Y0151D02*
X0303D01*
X02945Y01575D02*
X03065D01*
X03075Y0145D02*
X0309Y01465D01*
Y0155D01*
X03065Y01575D02*
X0309Y0155D01*
X029358Y015842D02*
X02945Y01575D01*
X028817Y025967D02*
X030102D01*
X0288Y02595D02*
X028817Y025967D01*
X02915Y0151D02*
X0295D01*
X02905Y0152D02*
X02915Y0151D01*
X0288Y0152D02*
X02905D01*
X0288Y01465D02*
X0291D01*
X02925Y0145D01*
X0295D01*
X03075D01*
X028497Y016985D02*
X028758Y016724D01*
X0281Y016985D02*
X028497D01*
X02827Y01635D02*
X029D01*
X029316Y025534D02*
X030102D01*
X0293Y02555D02*
X029316Y025534D01*
X03117Y01635D02*
X0315Y01668D01*
X029025Y038118D02*
Y038825D01*
X029525Y038118D02*
Y0387D01*
X029611Y038786D01*
X033267Y036335D02*
Y036733D01*
X03285Y03715D02*
X033267Y036733D01*
X03285Y03715D02*
Y03745D01*
X032365Y036535D02*
Y03745D01*
Y036535D02*
X032565Y036335D01*
X03307D01*
X0268Y038535D02*
Y03885D01*
X02675Y0389D02*
X0268Y03885D01*
X030815Y0398D02*
X03095Y039665D01*
Y039265D02*
Y039665D01*
X03025Y03925D02*
X03045D01*
X030185Y039315D02*
X03025Y03925D01*
X030185Y039315D02*
Y0398D01*
X0309Y04075D02*
X031356D01*
X030815Y040665D02*
X0309Y04075D01*
X030815Y0398D02*
Y040665D01*
X030185Y0398D02*
Y040615D01*
X03005Y04075D02*
X030185Y040615D01*
X029584Y04075D02*
X03005D01*
X02695D02*
X0274D01*
X026815Y040615D02*
X02695Y04075D01*
X026815Y03975D02*
Y040615D01*
X026185Y03975D02*
Y040615D01*
X02605Y04075D02*
X026185Y040615D01*
X025628Y04075D02*
X02605D01*
X026185Y039265D02*
Y03975D01*
Y039265D02*
X0262Y03925D01*
X026815Y039265D02*
Y03975D01*
X0268Y03925D02*
X026815Y039265D01*
X0268Y038535D02*
X02688Y038455D01*
Y0381D02*
Y038455D01*
X030435Y03685D02*
X03045Y036865D01*
X022016Y038934D02*
X02315D01*
X02185Y0391D02*
X022016Y038934D01*
X02185Y0391D02*
Y0411D01*
X022Y04125D02*
X0225D01*
X02185Y0411D02*
X022Y04125D01*
X0226Y0401D02*
X02275Y03995D01*
X0226Y0401D02*
Y0406D01*
X02688Y0381D02*
X026898Y038118D01*
X028025D01*
X02688Y0348D02*
X026897Y034817D01*
X0281D01*
X02688Y03245D02*
Y0348D01*
X031416Y036D02*
X03145Y035966D01*
X031065Y036D02*
X031416D01*
X02435Y0286D02*
X0246Y02885D01*
X02435Y0278D02*
Y0286D01*
X0243Y02775D02*
X02435Y0278D01*
X02388Y02775D02*
X0243D01*
X024535Y02654D02*
X02474D01*
X02485Y02665D01*
Y0273D01*
X025Y02745D01*
Y02765D01*
X0251Y02775D01*
X0242Y02705D02*
X024535D01*
X02415Y0271D02*
X0242Y02705D01*
X02415Y0271D02*
Y02735D01*
X02425Y02745D01*
X02445D01*
X0246Y0276D01*
Y0282D01*
X024707Y028307D01*
X0251D01*
X02405Y02605D02*
X024535D01*
X023408Y028308D02*
X02388D01*
X02335Y02825D02*
X023408Y028308D01*
X0223Y02355D02*
Y02395D01*
X02225Y0235D02*
X0223Y02355D01*
X021985Y0235D02*
X02225D01*
X0227Y0235D02*
X02365D01*
X02375Y0236D01*
Y02405D01*
X023879Y024179D01*
X024105D01*
X024498Y023448D02*
Y024179D01*
X0244Y02335D02*
X024498Y023448D01*
X02415Y02335D02*
X0244D01*
X024056Y023256D02*
X02415Y02335D01*
X024056Y0228D02*
Y023256D01*
X024302Y02375D02*
Y024179D01*
X0241Y02365D02*
X024202D01*
X024302Y02375D01*
X0281Y015785D02*
X028115Y0158D01*
X0278Y01465D02*
X028085D01*
X0277Y01475D02*
X0278Y01465D01*
X0277Y01475D02*
Y01535D01*
X028085Y0152D02*
Y0153D01*
X02805D02*
X028085D01*
X027603Y015747D02*
X02805Y0153D01*
X02812Y0165D02*
X02827Y01635D01*
X0281Y0165D02*
X02812D01*
X028564Y017376D02*
X028708D01*
X027726D02*
X028564D01*
X02755Y0172D02*
X027726Y017376D01*
X0281Y0174D02*
Y0177D01*
X02755Y0162D02*
Y0172D01*
X027491Y016141D02*
X02755Y0162D01*
X027165Y016141D02*
X027491D01*
X025935Y01845D02*
X025985Y0185D01*
X02555Y01845D02*
X025935D01*
X0236Y01675D02*
Y01695D01*
Y01675D02*
X0239D01*
X0232D02*
X0236D01*
X02335Y01705D02*
X0235D01*
X0236Y01695D01*
X02795Y01175D02*
Y0128D01*
Y01175D02*
X028Y0117D01*
X025985Y011715D02*
Y0128D01*
Y011715D02*
X026Y0117D01*
X0247Y01055D02*
Y01215D01*
X024504Y012346D02*
X0247Y01215D01*
X024504Y012346D02*
Y01282D01*
X024557Y012873D01*
X026802Y017002D02*
Y0173D01*
X0267Y0169D02*
X026802Y017002D01*
X02655Y0169D02*
X0267D01*
X026447Y016797D02*
X02655Y0169D01*
X026802Y0173D02*
X0273D01*
X02615D02*
X026802D01*
X026447Y016465D02*
Y016797D01*
X028065Y0185D02*
Y01905D01*
X0227Y023D02*
Y0235D01*
X0275Y01555D02*
X0277Y01535D01*
X027421Y015353D02*
X0275Y015274D01*
X027165Y01555D02*
X0275D01*
X027165Y015747D02*
X027603D01*
X0243Y012872D02*
X024301Y012873D01*
X0243Y01195D02*
Y012872D01*
X02272Y01207D02*
X02312Y01247D01*
X02272Y01187D02*
Y01207D01*
X023875Y013975D02*
Y014185D01*
X0236Y013264D02*
X0238D01*
X023907Y012873D02*
Y013156D01*
X0238Y013264D02*
X023907Y013156D01*
X023514Y013178D02*
X0236Y013264D01*
X023514Y012873D02*
Y013178D01*
X02625Y016465D02*
Y01705D01*
X023711Y012461D02*
Y012873D01*
X02365Y0124D02*
X023711Y012461D01*
X023317Y0124D02*
X02365D01*
X023317D02*
Y012873D01*
Y012117D02*
Y0124D01*
X02312Y01247D02*
Y012873D01*
X023907Y012157D02*
Y012873D01*
X025965Y017485D02*
X02615Y0173D01*
X02385Y01525D02*
Y015682D01*
X024815Y016465D02*
X02535D01*
X025335Y016141D02*
Y01645D01*
X02535Y016465D01*
X0248Y01645D02*
X024815Y016465D01*
X0257Y017266D02*
X026053Y016913D01*
X0257Y017266D02*
Y0173D01*
X026053Y016465D02*
Y016913D01*
X025446Y016954D02*
X025746D01*
X025335Y017065D02*
X025446Y016954D01*
X025335Y017065D02*
Y01785D01*
X025856Y016465D02*
Y016844D01*
X025746Y016954D02*
X025856Y016844D01*
X02605Y01895D02*
X02645D01*
X026615Y018785D01*
Y0185D02*
Y018785D01*
X0273Y0173D02*
X027435Y017435D01*
X025965Y017485D02*
Y01785D01*
X025985Y01787D01*
Y0185D01*
X027435D02*
Y01905D01*
X0266Y0178D02*
X026615Y017815D01*
Y0185D01*
X02535Y016465D02*
X025659D01*
X02235Y01855D02*
X0226D01*
X02395Y01835D02*
X02415D01*
X02385Y01825D02*
X02395Y01835D01*
X02385Y017818D02*
Y01825D01*
X027235Y0128D02*
Y013285D01*
X0267Y0128D02*
Y0133D01*
X02335Y01525D02*
Y015682D01*
X0231Y02091D02*
X02315Y02086D01*
X02335Y014D02*
Y014185D01*
X02335Y014185D01*
X02475Y0142D02*
X02481Y01426D01*
X0244Y0142D02*
X02475D01*
X0254Y02135D02*
Y02425D01*
X02445Y0244D02*
X02525D01*
X0244Y02445D02*
X02445Y0244D01*
X0244Y02445D02*
Y02475D01*
X02525Y0244D02*
X0254Y02425D01*
X024183Y0245D02*
Y024809D01*
X02385Y02445D02*
X024133D01*
X024183Y0245D01*
X025Y02135D02*
X0254D01*
X0124Y0191D02*
X01265Y01935D01*
X01185Y0191D02*
X0124D01*
X01265Y01935D02*
Y0199D01*
X011135Y0191D02*
X0114D01*
X0115Y0192D01*
X01185Y01805D02*
X0125D01*
X01185Y017566D02*
Y018D01*
X0115Y014108D02*
X011542Y01415D01*
X0125D01*
X011126Y024342D02*
Y025241D01*
X011135Y02525D01*
X011815Y0253D02*
Y02585D01*
X011765Y02525D02*
X011815Y0253D01*
X0115Y023358D02*
Y02375D01*
X0116Y02385D01*
X01265D01*
X0115Y0192D02*
Y019893D01*
X01185Y017566D02*
X011874Y017542D01*
X011126Y014724D02*
X0112Y01465D01*
X01185Y015116D02*
Y0156D01*
Y015116D02*
X011874Y015092D01*
X011135Y016435D02*
X011258Y016558D01*
X011135Y0156D02*
Y016435D01*
X011258Y016558D02*
X0115D01*
X011126Y014724D02*
Y015092D01*
X0111Y0263D02*
X0112Y0264D01*
X0111Y02585D02*
Y0263D01*
X011126Y022217D02*
Y023358D01*
X011116Y022207D02*
X011126Y022217D01*
X021911Y01264D02*
Y012647D01*
X03435Y035066D02*
X034686D01*
X023875Y014185D02*
X02388D01*
X032608Y01846D02*
Y01915D01*
X029742Y01635D02*
X03117D01*
X02914Y0139D02*
X0295D01*
X03212Y033375D02*
Y03365D01*
X03145Y034215D02*
Y034934D01*
X027165Y015353D02*
X027421D01*
X03095Y038355D02*
Y03855D01*
Y038355D02*
X031065Y03824D01*
Y03805D02*
Y03824D01*
X033563Y035558D02*
X033858D01*
X024535Y02604D02*
Y02605D01*
Y02654D02*
Y02655D01*
X02486Y02775D02*
X0251D01*
X028708Y018124D02*
X02904D01*
X0281Y0177D02*
X02824D01*
X011765Y024925D02*
Y02525D01*
X0115Y02466D02*
X011765Y024925D01*
X0115Y024342D02*
Y02466D01*
X032Y01915D02*
X032608D01*
X0234Y040965D02*
Y04125D01*
X023315Y04088D02*
X0234Y040965D01*
X023315Y0406D02*
Y04088D01*
X031065Y03745D02*
Y03805D01*
Y03685D02*
Y03745D01*
X03165D01*
X0306Y035D02*
Y0355D01*
D17*
X032546Y024441D02*
X033341D01*
X032494Y024389D02*
X032546Y024441D01*
X032494Y02345D02*
Y024389D01*
X031195Y02704D02*
Y02775D01*
X031628Y02704D02*
Y0278D01*
X03205Y027051D02*
Y0278D01*
X03075Y027052D02*
Y0277D01*
X032494Y02704D02*
Y0278D01*
X032927Y0233D02*
Y024027D01*
X03075Y0234D02*
Y024016D01*
X030968Y0234D02*
Y023802D01*
X03075Y024016D02*
X030968Y024235D01*
X03335Y02345D02*
Y024018D01*
X031835Y027266D02*
Y02785D01*
X032268Y027266D02*
Y0278D01*
X033567Y027266D02*
Y02775D01*
X03335Y02705D02*
Y02775D01*
X033134Y027266D02*
Y0277D01*
X032927Y02704D02*
Y0277D01*
X030535Y0234D02*
Y023802D01*
X03395Y02505D02*
X034Y0251D01*
X033341Y024441D02*
X033567Y024668D01*
X032927Y024027D02*
X033134Y024234D01*
Y024235D01*
X03335Y024018D02*
X033567Y024235D01*
X03335Y02705D02*
X033567Y026833D01*
X032927Y02704D02*
X033134Y026833D01*
X032494Y02704D02*
X032701Y026833D01*
Y027266D02*
Y027949D01*
X031628Y02704D02*
X031835Y026833D01*
X03075Y027052D02*
X030968Y026833D01*
X03205Y027051D02*
X032268Y026833D01*
X031195Y02704D02*
X031402Y026833D01*
D24*
X024056Y0228D02*
D03*
X024844D02*
D03*
X022844Y026031D02*
D03*
X022056D02*
D03*
X022844Y025291D02*
D03*
X022056D02*
D03*
X022844Y02455D02*
D03*
X022056D02*
D03*
X0266Y0178D02*
D03*
X027387D02*
D03*
D25*
X025Y02135D02*
D03*
Y019657D02*
D03*
D26*
X022384Y03235D02*
D03*
X023416D02*
D03*
X023216Y02685D02*
D03*
X022184D02*
D03*
D27*
X023215Y0333D02*
D03*
X022585D02*
D03*
X030815Y0398D02*
D03*
X030185D02*
D03*
X031065Y03805D02*
D03*
X030435D02*
D03*
X031065Y03685D02*
D03*
X030435D02*
D03*
Y03745D02*
D03*
X031065D02*
D03*
X034235D02*
D03*
X034865D02*
D03*
X034435Y03365D02*
D03*
X035065D02*
D03*
X03275D02*
D03*
X03212D02*
D03*
X011765Y02525D02*
D03*
X011135D02*
D03*
X026815Y03975D02*
D03*
X026185D02*
D03*
X02688Y03245D02*
D03*
X02625D02*
D03*
X02688Y0318D02*
D03*
X02625D02*
D03*
X022235Y02835D02*
D03*
X022865D02*
D03*
X021935Y01915D02*
D03*
X022565D02*
D03*
X025335Y01785D02*
D03*
X025965D02*
D03*
X025985Y0185D02*
D03*
X026615D02*
D03*
X028065D02*
D03*
X027435D02*
D03*
X028065Y01905D02*
D03*
X027435D02*
D03*
D28*
X022558Y031156D02*
D03*
Y03025D02*
D03*
Y029344D02*
D03*
D29*
X024842Y03025D02*
D03*
D30*
X03045Y038535D02*
D03*
X03045Y03925D02*
D03*
X03095Y03855D02*
D03*
X03095Y039265D02*
D03*
X0306Y036215D02*
D03*
X0306Y0355D02*
D03*
X0306Y034285D02*
D03*
X0306Y035D02*
D03*
X03425Y018785D02*
D03*
X03425Y0195D02*
D03*
X0262Y038535D02*
D03*
X0262Y03925D02*
D03*
X0268Y038535D02*
D03*
X0268Y03925D02*
D03*
X0244Y014915D02*
D03*
X0244Y0142D02*
D03*
X023875Y014185D02*
D03*
X023875Y0149D02*
D03*
X02335Y014185D02*
D03*
X02335Y0149D02*
D03*
X0281Y016985D02*
D03*
X0281Y0177D02*
D03*
X0281Y015785D02*
D03*
X0281Y0165D02*
D03*
D31*
X03145Y034934D02*
D03*
Y035966D02*
D03*
D32*
X0332Y03825D02*
D03*
X0325D02*
D03*
X0318D02*
D03*
X03055Y0335D02*
D03*
Y0323D02*
D03*
Y0317D02*
D03*
Y0329D02*
D03*
X0284Y03895D02*
D03*
X02495Y03225D02*
D03*
X0222Y0277D02*
D03*
X0233Y01955D02*
D03*
X0295Y0139D02*
D03*
X022Y01505D02*
D03*
Y0142D02*
D03*
X02745Y01975D02*
D03*
D33*
X032365Y03745D02*
D03*
X03165Y03745D02*
D03*
X03285D02*
D03*
X033565Y03745D02*
D03*
X033965Y03365D02*
D03*
X03325Y03365D02*
D03*
X011135Y0156D02*
D03*
X01185Y0156D02*
D03*
X011135Y018D02*
D03*
X01185Y018D02*
D03*
X011135Y0191D02*
D03*
X01185Y0191D02*
D03*
X011815Y02585D02*
D03*
X0111Y02585D02*
D03*
X023315Y0406D02*
D03*
X0226Y0406D02*
D03*
X024535Y02655D02*
D03*
X02525Y02655D02*
D03*
X024535Y02605D02*
D03*
X02525Y02605D02*
D03*
X024535Y02705D02*
D03*
X02525Y02705D02*
D03*
X021985Y0235D02*
D03*
X0227Y0235D02*
D03*
X021985Y023D02*
D03*
X0227Y023D02*
D03*
X021885Y019716D02*
D03*
X0226Y019716D02*
D03*
X021885Y01855D02*
D03*
X0226Y01855D02*
D03*
X028085Y01465D02*
D03*
X0288Y01465D02*
D03*
X028085Y0152D02*
D03*
X0288Y0152D02*
D03*
X027235Y0128D02*
D03*
X02795Y0128D02*
D03*
X0267D02*
D03*
X025985Y0128D02*
D03*
D34*
X033563Y035558D02*
D03*
D35*
X03307Y036335D02*
D03*
X033267D02*
D03*
X033464D02*
D03*
X033661D02*
D03*
X033858D02*
D03*
X034055D02*
D03*
Y03478D02*
D03*
X033858D02*
D03*
X033661D02*
D03*
X033464D02*
D03*
X033267D02*
D03*
X03307D02*
D03*
D36*
X03435Y03605D02*
D03*
Y035853D02*
D03*
Y035656D02*
D03*
Y035459D02*
D03*
Y035263D02*
D03*
Y035066D02*
D03*
X032775D02*
D03*
Y035263D02*
D03*
Y035459D02*
D03*
Y035656D02*
D03*
Y035853D02*
D03*
Y03605D02*
D03*
D37*
X03145Y034215D02*
D03*
Y033585D02*
D03*
X02205Y01775D02*
D03*
Y01712D02*
D03*
D38*
X033592Y019524D02*
D03*
X032608Y01915D02*
D03*
X033592Y018776D02*
D03*
X028708Y017376D02*
D03*
X029692Y01775D02*
D03*
X028708Y018124D02*
D03*
X028758Y015976D02*
D03*
X029742Y01635D02*
D03*
X028758Y016724D02*
D03*
D39*
X011126Y015092D02*
D03*
X0115Y014108D02*
D03*
X011874Y015092D02*
D03*
Y017542D02*
D03*
X0115Y016558D02*
D03*
X011126Y017542D02*
D03*
D40*
X011884Y022207D02*
D03*
X011628D02*
D03*
X011372D02*
D03*
X011116D02*
D03*
Y019893D02*
D03*
X011372D02*
D03*
X011628D02*
D03*
X011884D02*
D03*
D41*
X011126Y024342D02*
D03*
X0115D02*
D03*
X011874D02*
D03*
Y023358D02*
D03*
X0115D02*
D03*
X011126D02*
D03*
D42*
X028025Y038118D02*
D03*
X028525D02*
D03*
X029025D02*
D03*
X029525D02*
D03*
Y035982D02*
D03*
X029025D02*
D03*
X028525D02*
D03*
X028025D02*
D03*
D43*
X0225Y04125D02*
D03*
X0234D02*
D03*
D44*
X0281Y034817D02*
D03*
X0286D02*
D03*
X0291D02*
D03*
X0296D02*
D03*
Y031983D02*
D03*
X0291D02*
D03*
X0286D02*
D03*
X0281D02*
D03*
D45*
X024695Y024179D02*
D03*
X024498D02*
D03*
X024302D02*
D03*
X024105D02*
D03*
D46*
X024183Y024809D02*
D03*
X024617D02*
D03*
D47*
X0244Y02475D02*
D03*
D48*
X0251Y02775D02*
D03*
Y028307D02*
D03*
X02388Y02775D02*
D03*
Y028308D02*
D03*
D49*
X0226Y02225D02*
D03*
X022974Y021463D02*
D03*
X022226D02*
D03*
D50*
X02315Y02045D02*
D03*
X0308Y01915D02*
D03*
D51*
X02195Y02045D02*
D03*
X032Y01915D02*
D03*
D53*
X027165Y016141D02*
D03*
Y015944D02*
D03*
Y015747D02*
D03*
Y01555D02*
D03*
Y015353D02*
D03*
Y015156D02*
D03*
Y014959D02*
D03*
X025335D02*
D03*
Y015156D02*
D03*
Y015353D02*
D03*
Y01555D02*
D03*
Y015747D02*
D03*
Y015944D02*
D03*
Y016141D02*
D03*
D54*
X026841Y014635D02*
D03*
X026644D02*
D03*
X026447D02*
D03*
X02625D02*
D03*
X026053D02*
D03*
X025856D02*
D03*
X025659D02*
D03*
Y016465D02*
D03*
X025856D02*
D03*
X026053D02*
D03*
X02625D02*
D03*
X026447D02*
D03*
X026644D02*
D03*
X026841D02*
D03*
D55*
X0295Y0151D02*
D03*
Y0145D02*
D03*
X022Y0162D02*
D03*
X03495Y0191D02*
D03*
D56*
X0236Y01675D02*
D03*
D57*
X02435Y015682D02*
D03*
X02385D02*
D03*
X02335D02*
D03*
X02285D02*
D03*
Y017818D02*
D03*
X02335D02*
D03*
X02385D02*
D03*
X02435D02*
D03*
D58*
X022923Y012873D02*
D03*
X02312D02*
D03*
X023317D02*
D03*
X024301D02*
D03*
X024104D02*
D03*
X023907D02*
D03*
X023514D02*
D03*
X023711D02*
D03*
D59*
X024557D02*
D03*
X022667D02*
D03*
X024872D02*
D03*
X022352D02*
D03*
D60*
X032268Y025317D02*
D03*
X031835D02*
D03*
X032701D02*
D03*
X033567D02*
D03*
X032268Y02575D02*
D03*
X030102Y023802D02*
D03*
X030535D02*
D03*
X030968D02*
D03*
X031402D02*
D03*
X031835D02*
D03*
X032268D02*
D03*
X032701D02*
D03*
X033134D02*
D03*
X033567D02*
D03*
X034D02*
D03*
X034591D02*
D03*
X035181D02*
D03*
X030102Y024235D02*
D03*
X030535D02*
D03*
X030968D02*
D03*
X031402D02*
D03*
X031835D02*
D03*
X032268D02*
D03*
X032701D02*
D03*
X033134D02*
D03*
X033567D02*
D03*
X034D02*
D03*
X035181D02*
D03*
X030102Y024668D02*
D03*
X030535D02*
D03*
X031402D02*
D03*
X031835D02*
D03*
X032268D02*
D03*
X032701D02*
D03*
X033134D02*
D03*
X033567D02*
D03*
X034D02*
D03*
X030102Y025101D02*
D03*
X030535D02*
D03*
X030968D02*
D03*
X030102Y025534D02*
D03*
X030535D02*
D03*
X030968D02*
D03*
X031835Y02575D02*
D03*
X032701D02*
D03*
X034Y025534D02*
D03*
X030102Y025967D02*
D03*
X030535D02*
D03*
X030968D02*
D03*
X030102Y0264D02*
D03*
X030535D02*
D03*
X031402D02*
D03*
X031835D02*
D03*
X032268D02*
D03*
X032701D02*
D03*
X033134D02*
D03*
X033567D02*
D03*
X034D02*
D03*
X030102Y026833D02*
D03*
X030535D02*
D03*
X030968D02*
D03*
X031402D02*
D03*
X031835D02*
D03*
X032268D02*
D03*
X032701D02*
D03*
X033134D02*
D03*
X033567D02*
D03*
X034D02*
D03*
X035181D02*
D03*
X030102Y027266D02*
D03*
X030535D02*
D03*
X030968D02*
D03*
X031402D02*
D03*
X031835D02*
D03*
X032268D02*
D03*
X032701D02*
D03*
X033134D02*
D03*
X033567D02*
D03*
X034D02*
D03*
X034591D02*
D03*
X035181D02*
D03*
X033567Y02575D02*
D03*
D89*
X02625Y01555D02*
D03*
D110*
X034Y024235D02*
Y024668D01*
Y0251D01*
Y025534D01*
Y0264D02*
Y026833D01*
Y025534D02*
Y0264D01*
X034591Y027266D02*
X03465D01*
X034591Y023802D02*
X035181D01*
Y024235D01*
X03465Y027266D02*
X03505D01*
X035181D01*
Y026833D02*
Y027266D01*
X021885Y01915D02*
Y019716D01*
Y01855D02*
Y01915D01*
X0261Y03105D02*
X02675D01*
X026D02*
X0261D01*
X02785Y0264D02*
X0298D01*
X027D02*
X02785D01*
X02688Y02652D02*
X027Y0264D01*
X02688Y02652D02*
Y0318D01*
X0226Y0192D02*
X02265Y01915D01*
X0206Y01775D02*
X02205D01*
X02045Y0179D02*
X0206Y01775D01*
X02045Y0179D02*
Y0191D01*
X024576Y025274D02*
X025376D01*
X022861D02*
X024576D01*
X022844Y025291D02*
X022861Y025274D01*
X025376D02*
X026848Y023802D01*
X030102D01*
X024576Y025274D02*
X024636Y025214D01*
X0235Y0253D02*
Y02585D01*
X022865Y027685D02*
X02305Y0275D01*
Y027016D02*
Y0275D01*
Y027016D02*
X023216Y02685D01*
X02315Y026784D02*
X023216Y02685D01*
X02315Y026338D02*
Y026784D01*
X022844Y026031D02*
X02315Y026338D01*
X025Y03175D02*
X0253D01*
X0235D02*
X025D01*
X02495Y0318D02*
X025Y03175D01*
X02495Y0318D02*
Y03225D01*
X02688Y0318D02*
Y03245D01*
X0253Y03175D02*
X026Y03105D01*
X023416Y031834D02*
X0235Y03175D01*
X023416Y031834D02*
Y03235D01*
X020456Y029344D02*
X022558D01*
X0203Y0295D02*
X020456Y029344D01*
X0203Y0295D02*
Y03765D01*
X0206Y03795D02*
X02315D01*
X0203Y03765D02*
X0206Y03795D01*
X022865Y027685D02*
Y02835D01*
X024636Y0251D02*
Y025214D01*
X0223Y02395D02*
X02325D01*
X022056Y024056D02*
X022163Y02395D01*
X0223D01*
X02325D02*
X0234Y0241D01*
X022056Y024056D02*
Y02455D01*
X023559Y024809D02*
X0239D01*
X0234Y02465D02*
X023559Y024809D01*
X0234Y0241D02*
Y02465D01*
X022384Y03133D02*
Y03235D01*
Y03133D02*
X022558Y031156D01*
X022585Y032921D02*
Y0333D01*
X022384Y03272D02*
X022585Y032921D01*
X022384Y03235D02*
Y03272D01*
X023416Y03235D02*
Y03272D01*
X023215Y032921D02*
X023416Y03272D01*
X023215Y032921D02*
Y0333D01*
X0217Y03385D02*
X0231D01*
X0215Y03365D02*
X0217Y03385D01*
X0215Y03045D02*
Y03365D01*
X0217Y03025D02*
X022558D01*
X023215Y0333D02*
Y033735D01*
X0231Y03385D02*
X023215Y033735D01*
X0215Y03045D02*
X0217Y03025D01*
X022865Y02835D02*
X02365Y029135D01*
Y03095D01*
X0225Y029286D02*
X022558Y029344D01*
X0225Y028945D02*
Y029286D01*
X022235Y02868D02*
X0225Y028945D01*
X023444Y031156D02*
X02365Y03095D01*
X022558Y031156D02*
X023444D01*
X022844Y02455D02*
Y025291D01*
X024844Y022344D02*
Y0228D01*
X02465Y02215D02*
X024844Y022344D01*
X02335Y02215D02*
X02465D01*
X022974Y021774D02*
X02335Y02215D01*
X022974Y021463D02*
Y021774D01*
X024056Y0228D02*
X024056Y0228D01*
X02335Y0228D02*
X024056D01*
X02485Y022806D02*
Y02355D01*
X024844Y0228D02*
X02485Y022806D01*
X022235Y02835D02*
Y02868D01*
X022184Y02685D02*
X0222Y026866D01*
Y0277D01*
X022235Y027751D02*
Y02835D01*
X02335Y01705D02*
Y017818D01*
X0227Y01675D02*
X0232D01*
X0239D02*
X0242D01*
X02335Y0149D02*
X023875D01*
X022Y01505D02*
X0226D01*
X02275Y0149D01*
X02335D01*
X022667Y0142D02*
Y014417D01*
Y01355D02*
Y0142D01*
X022D02*
X022667D01*
X02485Y018775D02*
X025125D01*
X0232D02*
X02485D01*
X0248Y018725D02*
X02485Y018775D01*
X0248Y01645D02*
Y018725D01*
X025125Y018775D02*
X0253Y01895D01*
X02435Y01585D02*
X0248Y0163D01*
Y01645D01*
X0253Y01895D02*
X02605D01*
X02045Y0191D02*
Y02035D01*
X021885Y01915D02*
X021935D01*
X0205D02*
X021885D01*
X02045Y0191D02*
X0205Y01915D01*
X0232Y01845D02*
Y018775D01*
X02285Y0181D02*
X0232Y01845D01*
X02285Y01795D02*
Y0181D01*
X0232Y018775D02*
Y019D01*
X02305Y01915D02*
X0232Y019D01*
X02265Y01915D02*
X02305D01*
X0226Y019716D02*
Y02045D01*
Y0192D02*
Y019716D01*
Y02045D02*
Y020712D01*
X02195Y02045D02*
X0226D01*
X022226Y021086D02*
X0226Y020712D01*
X022226Y021086D02*
Y021463D01*
X0228Y01455D02*
X02425D01*
X0225Y01695D02*
Y0176D01*
Y01695D02*
X0227Y01675D01*
X02235Y01775D02*
X0225Y0176D01*
X02205Y01775D02*
X02235D01*
X0242Y01675D02*
X02435Y0169D01*
Y017818D01*
Y015682D02*
Y01585D01*
X022844Y025291D02*
Y026031D01*
X022056D02*
Y026722D01*
Y025291D02*
Y026031D01*
Y02455D02*
Y025291D01*
Y026722D02*
X022184Y02685D01*
X0233Y01955D02*
X024893D01*
X025Y019657D01*
X0233Y01955D02*
Y01992D01*
X02315Y02007D02*
X0233Y01992D01*
X02315Y02007D02*
Y02045D01*
Y02086D01*
X022974Y021036D02*
X0231Y02091D01*
X022974Y021036D02*
Y021463D01*
X02435Y014965D02*
X0244Y014915D01*
X02435Y014965D02*
Y015682D01*
X0244Y0147D02*
Y014915D01*
X02425Y01455D02*
X0244Y0147D01*
X022667Y01355D02*
X0244D01*
X022667Y012873D02*
Y01355D01*
Y014417D02*
X0228Y01455D01*
X02215Y0134D02*
X022352Y013198D01*
X0214Y0134D02*
X02215D01*
X022352Y012873D02*
Y013198D01*
X0244Y01355D02*
X024557Y013393D01*
Y012873D02*
Y013393D01*
X025Y01345D02*
X0252D01*
X024872Y013322D02*
X025Y01345D01*
X024872Y012873D02*
Y013322D01*
X025313Y012647D02*
Y013337D01*
X0252Y01345D02*
X025313Y013337D01*
D111*
X0314Y01195D02*
Y01315D01*
X0348Y018188D02*
X035026D01*
X033412D02*
X0348D01*
X0314Y01315D02*
X03175Y0135D01*
X03455D01*
X0348Y01375D01*
Y018188D01*
X030102Y027266D02*
X031618Y02575D01*
X03535Y018512D02*
Y0231D01*
X035181Y023269D02*
X03535Y0231D01*
X035181Y023269D02*
Y023802D01*
X0298Y0264D02*
X030102D01*
X035026Y018188D02*
X03535Y018512D01*
X0331Y0185D02*
X033412Y018188D01*
X0331Y0185D02*
Y0194D01*
X033224Y019524D01*
X033592D01*
X0275Y02065D02*
X031D01*
X026507Y019657D02*
X0275Y02065D01*
X025Y019657D02*
X026507D01*
X0308Y01685D02*
Y01915D01*
X027435Y019735D02*
X02745Y01975D01*
X027435Y01905D02*
Y019735D01*
X031618Y02575D02*
X031835D01*
X030102Y023802D02*
X030102D01*
X030535Y024235D01*
X031351Y02505D02*
X03395D01*
X031835Y025317D02*
Y02575D01*
Y025065D02*
Y025317D01*
X032268D02*
Y02575D01*
Y025068D02*
Y025317D01*
X030535Y024235D02*
X031351Y02505D01*
X030102Y0264D02*
Y026833D01*
Y0264D02*
X030535D01*
D112*
X011126Y017542D02*
Y018376D01*
X022Y0162D02*
X022518Y015682D01*
X02285D01*
X0254Y0329D02*
X02585Y03245D01*
X0248Y0329D02*
X0254D01*
X0245Y0332D02*
X0248Y0329D01*
X02585Y03245D02*
X02625D01*
X0245Y03705D02*
X02615D01*
X0245D02*
Y038535D01*
Y0332D02*
Y03705D01*
Y038535D02*
X0258D01*
X024165D02*
X0245D01*
X023766Y038934D02*
X024165Y038535D01*
X02315Y038934D02*
X023766D01*
X02115Y01505D02*
X022D01*
X021Y0134D02*
Y0149D01*
Y01205D02*
Y0134D01*
Y0149D02*
X02115Y01505D01*
X02185Y02225D02*
X0226D01*
X0214Y01712D02*
X02205D01*
X0123Y01465D02*
X01305D01*
X0115Y019893D02*
Y02045D01*
X01145Y0264D02*
X0124D01*
X0115Y016558D02*
X01225D01*
X0115Y02045D02*
X011825Y020775D01*
X0109Y02135D02*
X01125D01*
X0105Y02355D02*
Y02405D01*
X021911Y011821D02*
Y01264D01*
Y011001D02*
Y011821D01*
X021229D02*
X021911D01*
X021Y01205D02*
X021229Y011821D01*
X025313Y011001D02*
Y012647D01*
X0132Y01855D02*
X01345Y0188D01*
X0113Y01855D02*
X0132D01*
X011126Y018376D02*
X0113Y01855D01*
X0115Y0216D02*
Y022207D01*
X01125Y02135D02*
X0115Y0216D01*
X010792Y024342D02*
X011126D01*
X0105Y02405D02*
X010792Y024342D01*
X022Y01707D02*
X02205Y01712D01*
X022Y0162D02*
Y01707D01*
D113*
X01905Y02225D02*
X02185D01*
X0136Y01465D02*
X01607Y01712D01*
X01305Y01465D02*
X0136D01*
X01607Y01712D02*
X01905D01*
X01435Y01725D02*
Y0207D01*
X013658Y016558D02*
X01435Y01725D01*
X01225Y016558D02*
X013658D01*
X01905Y01712D02*
Y02225D01*
X01385Y0212D02*
X01435Y0207D01*
X01225Y0212D02*
X01385D01*
X011825Y020775D02*
X01225Y0212D01*
X0105Y01385D02*
Y02135D01*
Y02355D01*
Y02135D02*
X0109D01*
X01975Y0134D02*
X021D01*
X0214D01*
X01895Y0142D02*
X01975Y0134D01*
X01905Y01712D02*
X0214D01*
X0111Y01325D02*
X0157D01*
X0105Y01385D02*
X0111Y01325D01*
X017004Y011946D02*
X01705D01*
X0157Y01325D02*
X017004Y011946D01*
X01905Y0264D02*
Y04005D01*
Y02225D02*
Y0264D01*
X0124D02*
X01905D01*
X018453Y040647D02*
X01905Y04005D01*
X01705Y040647D02*
X018453D01*
D114*
X0206Y023D02*
X021985D01*
X02045Y02315D02*
X0206Y023D01*
X02045Y02315D02*
Y0235D01*
X024617Y024809D02*
Y0251D01*
X0239Y024809D02*
X024183D01*
D115*
X02485Y02355D02*
Y0237D01*
X024695Y023855D02*
X02485Y0237D01*
X024695Y023855D02*
Y024179D01*
D116*
X0328Y01465D02*
D03*
Y017209D02*
D03*
X0314Y01195D02*
D03*
X030613D02*
D03*
X029825D02*
D03*
D117*
X01705Y037244D02*
D03*
Y01535D02*
D03*
D118*
Y040647D02*
D03*
Y011946D02*
D03*
D119*
X022363Y034367D02*
D03*
X025166Y033467D02*
D03*
X022474Y01245D02*
D03*
X02475D02*
D03*
D120*
X02315Y038934D02*
D03*
Y03795D02*
D03*
Y036966D02*
D03*
Y035982D02*
D03*
Y034997D02*
D03*
X02615Y03705D02*
D03*
Y036066D02*
D03*
Y035082D02*
D03*
Y034097D02*
D03*
X01895Y0142D02*
D03*
D121*
X031356Y04075D02*
D03*
X029584D02*
D03*
X0274D02*
D03*
X025628D02*
D03*
D122*
X03185Y03977D02*
D03*
X02909D02*
D03*
X027894D02*
D03*
X025134D02*
D03*
D123*
X025313Y012647D02*
D03*
X021911D02*
D03*
D124*
X025313Y011001D02*
D03*
X021911D02*
D03*
D125*
X026Y0117D02*
D03*
X028D02*
D03*
D126*
X027D02*
D03*
D127*
X032227Y01195D02*
D03*
X028998D02*
D03*
D128*
X034157Y04085D02*
D03*
X011433Y011433D02*
D03*
D129*
X034157D02*
D03*
X011433Y04085D02*
D03*
D130*
X034Y026462D02*
D03*
Y026091D02*
D03*
Y025719D02*
D03*
Y024977D02*
D03*
Y024606D02*
D03*
X034891Y023802D02*
D03*
X035181Y024026D02*
D03*
Y02425D02*
D03*
Y027058D02*
D03*
X034891Y027266D02*
D03*
X035181Y02685D02*
D03*
X0346Y027266D02*
D03*
Y023802D02*
D03*
X034Y025348D02*
D03*
Y024235D02*
D03*
Y026833D02*
D03*
X035181Y027266D02*
D03*
Y023802D02*
D03*
D131*
X035039Y032677D02*
D03*
Y031102D02*
D03*
Y029528D02*
D03*
Y027953D02*
D03*
Y020079D02*
D03*
Y018504D02*
D03*
Y016929D02*
D03*
Y015354D02*
D03*
Y01378D02*
D03*
X034252Y032677D02*
D03*
X034646Y03189D02*
D03*
X034252Y031102D02*
D03*
X034646Y030315D02*
D03*
X034252Y029528D02*
D03*
X034646Y02874D02*
D03*
X034252Y027953D02*
D03*
X034646Y017717D02*
D03*
Y016142D02*
D03*
Y014567D02*
D03*
Y012992D02*
D03*
X033465Y020079D02*
D03*
X033858Y017717D02*
D03*
X033465Y016929D02*
D03*
Y015354D02*
D03*
Y01378D02*
D03*
X033858Y012992D02*
D03*
X032677Y032677D02*
D03*
X033071Y019291D02*
D03*
Y016142D02*
D03*
X032677Y015354D02*
D03*
Y01378D02*
D03*
X033071Y012992D02*
D03*
X032677Y01063D02*
D03*
X03189Y040551D02*
D03*
X032283Y035039D02*
D03*
X03189Y034252D02*
D03*
Y023228D02*
D03*
X032283Y017717D02*
D03*
Y016142D02*
D03*
Y014567D02*
D03*
X03189Y01378D02*
D03*
X032283Y012992D02*
D03*
X03189Y01063D02*
D03*
X031496Y016142D02*
D03*
X031102Y01378D02*
D03*
X031496Y012992D02*
D03*
Y011417D02*
D03*
X031102Y01063D02*
D03*
X030709Y011417D02*
D03*
X030315Y01063D02*
D03*
X029921Y038189D02*
D03*
Y036614D02*
D03*
X029528Y024803D02*
D03*
X029921Y011417D02*
D03*
X029528Y01063D02*
D03*
X02874Y040551D02*
D03*
Y034252D02*
D03*
Y021654D02*
D03*
X029134Y012992D02*
D03*
X02874Y01063D02*
D03*
X027953Y040551D02*
D03*
Y037402D02*
D03*
X028346Y036614D02*
D03*
X027953Y024803D02*
D03*
Y023228D02*
D03*
Y021654D02*
D03*
X028346Y012992D02*
D03*
X027953Y01063D02*
D03*
X027165Y035827D02*
D03*
X027559Y024016D02*
D03*
Y022441D02*
D03*
X026772Y041339D02*
D03*
Y024016D02*
D03*
Y022441D02*
D03*
Y020866D02*
D03*
X026378Y01378D02*
D03*
Y01063D02*
D03*
X025984Y041339D02*
D03*
X025591Y037402D02*
D03*
Y034252D02*
D03*
Y024803D02*
D03*
X025197Y041339D02*
D03*
X024803Y040551D02*
D03*
X025197Y038189D02*
D03*
X024803Y035827D02*
D03*
X025197Y035039D02*
D03*
X024803Y034252D02*
D03*
Y032677D02*
D03*
X024409Y041339D02*
D03*
X024016Y040551D02*
D03*
X024409Y039764D02*
D03*
X024016Y038976D02*
D03*
Y037402D02*
D03*
X024409Y011417D02*
D03*
X024016Y01063D02*
D03*
X023622Y036614D02*
D03*
X023228Y023228D02*
D03*
Y01063D02*
D03*
X022441Y038976D02*
D03*
Y037402D02*
D03*
Y035827D02*
D03*
X022835Y011417D02*
D03*
X022441Y01063D02*
D03*
X021654Y040551D02*
D03*
X022047Y039764D02*
D03*
X021654Y038976D02*
D03*
Y037402D02*
D03*
X022047Y036614D02*
D03*
X021654Y035827D02*
D03*
X022047Y035039D02*
D03*
X021654Y034252D02*
D03*
X022047Y033465D02*
D03*
X021654Y027953D02*
D03*
Y021654D02*
D03*
Y01378D02*
D03*
X02126Y041339D02*
D03*
X020866Y040551D02*
D03*
X02126Y039764D02*
D03*
X020866Y038976D02*
D03*
Y037402D02*
D03*
X02126Y036614D02*
D03*
X020866Y035827D02*
D03*
X02126Y035039D02*
D03*
X020866Y034252D02*
D03*
Y032677D02*
D03*
Y031102D02*
D03*
X02126Y02874D02*
D03*
X020866Y027953D02*
D03*
X02126Y027165D02*
D03*
X020866Y026378D02*
D03*
X02126Y025591D02*
D03*
X020866Y024803D02*
D03*
X02126Y024016D02*
D03*
X020866Y023228D02*
D03*
Y021654D02*
D03*
X02126Y020866D02*
D03*
X020866Y020079D02*
D03*
X02126Y019291D02*
D03*
X020866Y018504D02*
D03*
X02126Y017717D02*
D03*
Y016142D02*
D03*
X020866Y015354D02*
D03*
X02126Y014567D02*
D03*
X020866Y01378D02*
D03*
X02126Y012992D02*
D03*
X020866Y012205D02*
D03*
X02126Y011417D02*
D03*
X020866Y01063D02*
D03*
X020472Y041339D02*
D03*
X020079Y040551D02*
D03*
X020472Y039764D02*
D03*
X020079Y038976D02*
D03*
X020472Y02874D02*
D03*
X020079Y027953D02*
D03*
X020472Y027165D02*
D03*
X020079Y026378D02*
D03*
X020472Y025591D02*
D03*
X020079Y024803D02*
D03*
X020472Y024016D02*
D03*
X020079Y023228D02*
D03*
Y021654D02*
D03*
X020472Y020866D02*
D03*
X020079Y020079D02*
D03*
X020472Y019291D02*
D03*
X020079Y018504D02*
D03*
X020472Y017717D02*
D03*
Y016142D02*
D03*
X020079Y015354D02*
D03*
X020472Y014567D02*
D03*
X020079Y01378D02*
D03*
X020472Y012992D02*
D03*
X020079Y012205D02*
D03*
X020472Y011417D02*
D03*
X020079Y01063D02*
D03*
X019685Y041339D02*
D03*
X019291Y040551D02*
D03*
X019685Y039764D02*
D03*
Y038189D02*
D03*
Y036614D02*
D03*
Y035039D02*
D03*
Y033465D02*
D03*
Y03189D02*
D03*
Y030315D02*
D03*
Y02874D02*
D03*
Y027165D02*
D03*
Y025591D02*
D03*
Y024016D02*
D03*
Y020866D02*
D03*
Y019291D02*
D03*
Y017717D02*
D03*
Y016142D02*
D03*
X019291Y015354D02*
D03*
X019685Y014567D02*
D03*
Y012992D02*
D03*
X019291Y012205D02*
D03*
X019685Y011417D02*
D03*
X019291Y01063D02*
D03*
X018898Y041339D02*
D03*
X018504Y038976D02*
D03*
Y037402D02*
D03*
Y035827D02*
D03*
Y034252D02*
D03*
Y032677D02*
D03*
Y031102D02*
D03*
Y029528D02*
D03*
Y027953D02*
D03*
Y024803D02*
D03*
Y023228D02*
D03*
Y021654D02*
D03*
Y020079D02*
D03*
Y018504D02*
D03*
X018898Y016142D02*
D03*
X018504Y015354D02*
D03*
Y01378D02*
D03*
X018898Y012992D02*
D03*
X018504Y012205D02*
D03*
X018898Y011417D02*
D03*
X018504Y01063D02*
D03*
X01811Y041339D02*
D03*
Y039764D02*
D03*
X017717Y038976D02*
D03*
X01811Y038189D02*
D03*
Y036614D02*
D03*
X017717Y035827D02*
D03*
X01811Y035039D02*
D03*
X017717Y034252D02*
D03*
X01811Y033465D02*
D03*
X017717Y032677D02*
D03*
X01811Y03189D02*
D03*
X017717Y031102D02*
D03*
X01811Y030315D02*
D03*
X017717Y029528D02*
D03*
X01811Y02874D02*
D03*
X017717Y027953D02*
D03*
X01811Y027165D02*
D03*
Y025591D02*
D03*
X017717Y024803D02*
D03*
X01811Y024016D02*
D03*
X017717Y023228D02*
D03*
X01811Y022441D02*
D03*
X017717Y021654D02*
D03*
X01811Y020866D02*
D03*
X017717Y020079D02*
D03*
X01811Y019291D02*
D03*
X017717Y018504D02*
D03*
X01811Y017717D02*
D03*
Y016142D02*
D03*
Y014567D02*
D03*
X017717Y01378D02*
D03*
X01811Y012992D02*
D03*
Y011417D02*
D03*
X017717Y01063D02*
D03*
X016929Y038976D02*
D03*
X017323Y038189D02*
D03*
X016929Y035827D02*
D03*
X017323Y035039D02*
D03*
X016929Y034252D02*
D03*
X017323Y033465D02*
D03*
X016929Y032677D02*
D03*
X017323Y03189D02*
D03*
X016929Y031102D02*
D03*
X017323Y030315D02*
D03*
X016929Y029528D02*
D03*
X017323Y02874D02*
D03*
X016929Y027953D02*
D03*
X017323Y027165D02*
D03*
Y025591D02*
D03*
X016929Y024803D02*
D03*
X017323Y024016D02*
D03*
X016929Y023228D02*
D03*
X017323Y022441D02*
D03*
X016929Y021654D02*
D03*
X017323Y020866D02*
D03*
X016929Y020079D02*
D03*
X017323Y019291D02*
D03*
X016929Y018504D02*
D03*
X017323Y017717D02*
D03*
X016929Y01378D02*
D03*
X017323Y012992D02*
D03*
X016929Y01063D02*
D03*
X016142Y038976D02*
D03*
X016535Y038189D02*
D03*
X016142Y037402D02*
D03*
Y035827D02*
D03*
X016535Y035039D02*
D03*
X016142Y034252D02*
D03*
X016535Y033465D02*
D03*
X016142Y032677D02*
D03*
X016535Y03189D02*
D03*
X016142Y031102D02*
D03*
X016535Y030315D02*
D03*
X016142Y029528D02*
D03*
X016535Y02874D02*
D03*
X016142Y027953D02*
D03*
X016535Y027165D02*
D03*
Y025591D02*
D03*
X016142Y024803D02*
D03*
X016535Y024016D02*
D03*
X016142Y023228D02*
D03*
X016535Y022441D02*
D03*
X016142Y021654D02*
D03*
X016535Y020866D02*
D03*
X016142Y020079D02*
D03*
X016535Y019291D02*
D03*
X016142Y018504D02*
D03*
X016535Y017717D02*
D03*
Y016142D02*
D03*
X016142Y015354D02*
D03*
X016535Y014567D02*
D03*
X016142Y01378D02*
D03*
Y01063D02*
D03*
X015748Y041339D02*
D03*
X015354Y040551D02*
D03*
X015748Y039764D02*
D03*
X015354Y038976D02*
D03*
X015748Y038189D02*
D03*
X015354Y037402D02*
D03*
X015748Y036614D02*
D03*
X015354Y035827D02*
D03*
X015748Y035039D02*
D03*
X015354Y034252D02*
D03*
X015748Y033465D02*
D03*
X015354Y032677D02*
D03*
X015748Y03189D02*
D03*
X015354Y031102D02*
D03*
X015748Y030315D02*
D03*
X015354Y029528D02*
D03*
X015748Y02874D02*
D03*
X015354Y027953D02*
D03*
X015748Y027165D02*
D03*
Y025591D02*
D03*
X015354Y024803D02*
D03*
X015748Y024016D02*
D03*
X015354Y023228D02*
D03*
X015748Y022441D02*
D03*
X015354Y021654D02*
D03*
X015748Y020866D02*
D03*
X015354Y020079D02*
D03*
X015748Y019291D02*
D03*
X015354Y018504D02*
D03*
X015748Y017717D02*
D03*
X015354Y015354D02*
D03*
X015748Y014567D02*
D03*
X015354Y01378D02*
D03*
Y012205D02*
D03*
X015748Y011417D02*
D03*
X015354Y01063D02*
D03*
X014961Y041339D02*
D03*
X014567Y040551D02*
D03*
X014961Y039764D02*
D03*
X014567Y038976D02*
D03*
X014961Y038189D02*
D03*
X014567Y037402D02*
D03*
X014961Y036614D02*
D03*
X014567Y035827D02*
D03*
X014961Y035039D02*
D03*
X014567Y034252D02*
D03*
X014961Y033465D02*
D03*
X014567Y032677D02*
D03*
X014961Y03189D02*
D03*
X014567Y031102D02*
D03*
X014961Y030315D02*
D03*
X014567Y029528D02*
D03*
X014961Y02874D02*
D03*
X014567Y027953D02*
D03*
X014961Y027165D02*
D03*
Y025591D02*
D03*
X014567Y024803D02*
D03*
X014961Y024016D02*
D03*
X014567Y023228D02*
D03*
X014961Y022441D02*
D03*
X014567Y021654D02*
D03*
X014961Y020866D02*
D03*
Y019291D02*
D03*
Y017717D02*
D03*
Y014567D02*
D03*
X014567Y01378D02*
D03*
Y012205D02*
D03*
X014961Y011417D02*
D03*
X014567Y01063D02*
D03*
X014173Y041339D02*
D03*
X01378Y040551D02*
D03*
X014173Y039764D02*
D03*
X01378Y038976D02*
D03*
X014173Y038189D02*
D03*
X01378Y037402D02*
D03*
X014173Y036614D02*
D03*
X01378Y035827D02*
D03*
X014173Y035039D02*
D03*
X01378Y034252D02*
D03*
X014173Y033465D02*
D03*
X01378Y032677D02*
D03*
X014173Y03189D02*
D03*
X01378Y031102D02*
D03*
X014173Y030315D02*
D03*
X01378Y029528D02*
D03*
X014173Y02874D02*
D03*
X01378Y027953D02*
D03*
X014173Y027165D02*
D03*
Y025591D02*
D03*
X01378Y024803D02*
D03*
X014173Y024016D02*
D03*
X01378Y023228D02*
D03*
X014173Y022441D02*
D03*
X01378Y020079D02*
D03*
X014173Y016142D02*
D03*
X01378Y01378D02*
D03*
Y012205D02*
D03*
X014173Y011417D02*
D03*
X01378Y01063D02*
D03*
X013386Y041339D02*
D03*
X012992Y040551D02*
D03*
X013386Y039764D02*
D03*
X012992Y038976D02*
D03*
X013386Y038189D02*
D03*
X012992Y037402D02*
D03*
X013386Y036614D02*
D03*
X012992Y035827D02*
D03*
X013386Y035039D02*
D03*
X012992Y034252D02*
D03*
X013386Y033465D02*
D03*
X012992Y032677D02*
D03*
X013386Y03189D02*
D03*
X012992Y031102D02*
D03*
X013386Y030315D02*
D03*
X012992Y029528D02*
D03*
X013386Y02874D02*
D03*
X012992Y027953D02*
D03*
X013386Y027165D02*
D03*
Y025591D02*
D03*
X012992Y024803D02*
D03*
X013386Y024016D02*
D03*
X012992Y023228D02*
D03*
X013386Y022441D02*
D03*
X012992Y020079D02*
D03*
X013386Y019291D02*
D03*
X012992Y018504D02*
D03*
X013386Y017717D02*
D03*
X012992Y015354D02*
D03*
Y01378D02*
D03*
Y012205D02*
D03*
X013386Y011417D02*
D03*
X012992Y01063D02*
D03*
X012598Y039764D02*
D03*
X012205Y038976D02*
D03*
X012598Y038189D02*
D03*
X012205Y037402D02*
D03*
X012598Y036614D02*
D03*
X012205Y035827D02*
D03*
X012598Y035039D02*
D03*
X012205Y034252D02*
D03*
X012598Y033465D02*
D03*
X012205Y032677D02*
D03*
X012598Y03189D02*
D03*
X012205Y031102D02*
D03*
X012598Y030315D02*
D03*
X012205Y029528D02*
D03*
X012598Y02874D02*
D03*
X012205Y027953D02*
D03*
X012598Y027165D02*
D03*
Y025591D02*
D03*
X012205Y024803D02*
D03*
Y020079D02*
D03*
Y018504D02*
D03*
Y01378D02*
D03*
X011417Y038976D02*
D03*
X011811Y038189D02*
D03*
X011417Y037402D02*
D03*
X011811Y036614D02*
D03*
X011417Y035827D02*
D03*
X011811Y035039D02*
D03*
X011417Y034252D02*
D03*
X011811Y033465D02*
D03*
X011417Y032677D02*
D03*
X011811Y03189D02*
D03*
X011417Y031102D02*
D03*
X011811Y030315D02*
D03*
X011417Y029528D02*
D03*
X011811Y02874D02*
D03*
X011417Y027953D02*
D03*
X011811Y027165D02*
D03*
X011417Y018504D02*
D03*
X011811Y016142D02*
D03*
X01063Y038976D02*
D03*
X011024Y038189D02*
D03*
X01063Y037402D02*
D03*
X011024Y036614D02*
D03*
X01063Y035827D02*
D03*
X011024Y035039D02*
D03*
X01063Y034252D02*
D03*
X011024Y033465D02*
D03*
X01063Y032677D02*
D03*
X011024Y03189D02*
D03*
X01063Y031102D02*
D03*
X011024Y030315D02*
D03*
X01063Y029528D02*
D03*
X011024Y02874D02*
D03*
X01063Y027953D02*
D03*
X011024Y027165D02*
D03*
X01063Y026378D02*
D03*
Y024803D02*
D03*
D132*
X03135Y0223D02*
D03*
X03085Y02175D02*
D03*
X03375Y0226D02*
D03*
X0338Y03825D02*
D03*
X03435Y03435D02*
D03*
X0261Y02925D02*
D03*
X0265Y02985D02*
D03*
Y03325D02*
D03*
X0316Y02815D02*
D03*
X0312Y02855D02*
D03*
X0313Y02905D02*
D03*
X03095Y02935D02*
D03*
X0325Y03D02*
D03*
X03215Y02955D02*
D03*
X0275Y0374D02*
D03*
X0286Y03735D02*
D03*
X02625Y02295D02*
D03*
Y02515D02*
D03*
X02715Y0256D02*
D03*
X02705Y0245D02*
D03*
X0272Y02255D02*
D03*
X0258Y02655D02*
D03*
X02575Y026D02*
D03*
Y02705D02*
D03*
X03255Y02005D02*
D03*
X02865Y02235D02*
D03*
X03145Y0229D02*
D03*
X0293Y0201D02*
D03*
X0309Y0299D02*
D03*
X03125Y03055D02*
D03*
X0296Y02975D02*
D03*
X029525Y037375D02*
D03*
X0342Y0388D02*
D03*
X033565Y037035D02*
D03*
X03175Y03685D02*
D03*
X03015Y0362D02*
D03*
X0291Y03135D02*
D03*
X031Y02065D02*
D03*
X0308Y01685D02*
D03*
X02995Y01865D02*
D03*
X0303Y0151D02*
D03*
X0288Y02595D02*
D03*
X0293Y02555D02*
D03*
X0241Y02365D02*
D03*
X02555Y01845D02*
D03*
X0236Y01675D02*
D03*
X0243Y01195D02*
D03*
X02272Y01187D02*
D03*
X023875Y013975D02*
D03*
X02625Y01705D02*
D03*
X023317Y012117D02*
D03*
X023907Y012157D02*
D03*
X02385Y01525D02*
D03*
X0257Y0173D02*
D03*
X02235Y01855D02*
D03*
X02415Y01835D02*
D03*
X027235Y013285D02*
D03*
X0267Y0133D02*
D03*
X02335Y01525D02*
D03*
Y014D02*
D03*
X02385Y02445D02*
D03*
X0125Y01415D02*
D03*
Y01805D02*
D03*
X01265Y02385D02*
D03*
Y0199D02*
D03*
X02914Y0139D02*
D03*
D133*
X0235Y02585D02*
D03*
X02045Y0235D02*
D03*
X02335Y0228D02*
D03*
X02045Y02035D02*
D03*
D134*
X01345Y0188D02*
D03*
M02*
