G04*
G04 #@! TF.GenerationSoftware,Altium Limited,Altium Designer,18.0.7 (293)*
G04*
G04 Layer_Color=8388736*
%FSTAX24Y24*%
%MOIN*%
G70*
G01*
G75*
%ADD38R,0.0374X0.0354*%
%ADD39R,0.0354X0.0374*%
%ADD53R,0.0380X0.0100*%
%ADD54R,0.0100X0.0380*%
%ADD61R,0.0513X0.0630*%
%ADD62R,0.2442X0.0867*%
%ADD63R,0.0789X0.0564*%
%ADD64R,0.0434X0.0474*%
%ADD65R,0.1025X0.0474*%
%ADD66R,0.1025X0.1379*%
%ADD67R,0.0434X0.0316*%
%ADD68R,0.0564X0.0789*%
G04:AMPARAMS|DCode=69|XSize=48mil|YSize=48mil|CornerRadius=14mil|HoleSize=0mil|Usage=FLASHONLY|Rotation=270.000|XOffset=0mil|YOffset=0mil|HoleType=Round|Shape=RoundedRectangle|*
%AMROUNDEDRECTD69*
21,1,0.0480,0.0200,0,0,270.0*
21,1,0.0200,0.0480,0,0,270.0*
1,1,0.0280,-0.0100,-0.0100*
1,1,0.0280,-0.0100,0.0100*
1,1,0.0280,0.0100,0.0100*
1,1,0.0280,0.0100,-0.0100*
%
%ADD69ROUNDEDRECTD69*%
%ADD70R,0.0316X0.0434*%
%ADD71R,0.1143X0.1104*%
%ADD72R,0.0218X0.0415*%
%ADD73R,0.0395X0.0218*%
%ADD74R,0.0474X0.0434*%
%ADD75R,0.0454X0.0434*%
%ADD76R,0.0434X0.0454*%
%ADD77R,0.0257X0.0661*%
%ADD78R,0.0336X0.0552*%
%ADD79R,0.0336X0.0680*%
%ADD80R,0.0580X0.0630*%
%ADD81R,0.0336X0.0730*%
%ADD82R,0.0178X0.0257*%
%ADD83R,0.0218X0.0533*%
%ADD84R,0.0159X0.0651*%
%ADD85R,0.0671X0.0434*%
%ADD86R,0.0395X0.0434*%
%ADD87R,0.0434X0.0552*%
%ADD88R,0.0434X0.0552*%
%ADD89R,0.1320X0.1320*%
G04:AMPARAMS|DCode=90|XSize=48mil|YSize=48mil|CornerRadius=14mil|HoleSize=0mil|Usage=FLASHONLY|Rotation=0.000|XOffset=0mil|YOffset=0mil|HoleType=Round|Shape=RoundedRectangle|*
%AMROUNDEDRECTD90*
21,1,0.0480,0.0200,0,0,0.0*
21,1,0.0200,0.0480,0,0,0.0*
1,1,0.0280,0.0100,-0.0100*
1,1,0.0280,-0.0100,-0.0100*
1,1,0.0280,-0.0100,0.0100*
1,1,0.0280,0.0100,0.0100*
%
%ADD90ROUNDEDRECTD90*%
%ADD91R,0.1419X0.1069*%
%ADD92R,0.0356X0.0680*%
%ADD93R,0.0198X0.0533*%
%ADD94R,0.0316X0.0533*%
%ADD95R,0.0316X0.0316*%
%ADD96C,0.0592*%
%ADD97C,0.0710*%
%ADD98C,0.1716*%
%ADD99C,0.0336*%
%ADD100C,0.0671*%
%ADD101C,0.0686*%
%ADD102C,0.0848*%
%ADD103O,0.0474X0.0907*%
G04:AMPARAMS|DCode=104|XSize=78.9mil|YSize=47.4mil|CornerRadius=13.8mil|HoleSize=0mil|Usage=FLASHONLY|Rotation=90.000|XOffset=0mil|YOffset=0mil|HoleType=Round|Shape=RoundedRectangle|*
%AMROUNDEDRECTD104*
21,1,0.0789,0.0197,0,0,90.0*
21,1,0.0512,0.0474,0,0,90.0*
1,1,0.0277,0.0098,0.0256*
1,1,0.0277,0.0098,-0.0256*
1,1,0.0277,-0.0098,-0.0256*
1,1,0.0277,-0.0098,0.0256*
%
%ADD104ROUNDEDRECTD104*%
%ADD105O,0.0710X0.0946*%
%ADD106O,0.0474X0.0867*%
%ADD107C,0.1058*%
%ADD108P,0.2217X8X292.5*%
%ADD109P,0.2217X8X202.5*%
D38*
X033592Y019524D02*
D03*
X028708Y017376D02*
D03*
X028758Y015976D02*
D03*
D39*
X011126Y015092D02*
D03*
Y017542D02*
D03*
D53*
X027165Y016141D02*
D03*
Y015944D02*
D03*
Y015747D02*
D03*
Y01555D02*
D03*
Y015353D02*
D03*
Y015156D02*
D03*
Y014959D02*
D03*
X025335D02*
D03*
Y015156D02*
D03*
Y015353D02*
D03*
Y01555D02*
D03*
Y015747D02*
D03*
Y015944D02*
D03*
Y016141D02*
D03*
D54*
X026841Y014635D02*
D03*
X026644D02*
D03*
X026447D02*
D03*
X02625D02*
D03*
X026053D02*
D03*
X025856D02*
D03*
X025659D02*
D03*
Y016465D02*
D03*
X025856D02*
D03*
X026053D02*
D03*
X02625D02*
D03*
X026447D02*
D03*
X026644D02*
D03*
X026841D02*
D03*
D61*
X024056Y0228D02*
D03*
X024844D02*
D03*
X022844Y026031D02*
D03*
X022056D02*
D03*
X022844Y025291D02*
D03*
X022056D02*
D03*
X022844Y02455D02*
D03*
X022056D02*
D03*
X0266Y0178D02*
D03*
X027387D02*
D03*
D62*
X025Y02135D02*
D03*
Y019657D02*
D03*
D63*
X022384Y03235D02*
D03*
X023416D02*
D03*
X023216Y02685D02*
D03*
X022184D02*
D03*
D64*
X023215Y0333D02*
D03*
X022585D02*
D03*
X030815Y0398D02*
D03*
X030185D02*
D03*
X031065Y03805D02*
D03*
X030435D02*
D03*
X031065Y03685D02*
D03*
X030435D02*
D03*
Y03745D02*
D03*
X031065D02*
D03*
X034235D02*
D03*
X034865D02*
D03*
X034435Y03365D02*
D03*
X035065D02*
D03*
X03275D02*
D03*
X03212D02*
D03*
X011765Y02525D02*
D03*
X011135D02*
D03*
X026815Y03975D02*
D03*
X026185D02*
D03*
X02688Y03245D02*
D03*
X02625D02*
D03*
X02688Y0318D02*
D03*
X02625D02*
D03*
X022235Y02835D02*
D03*
X022865D02*
D03*
X021935Y01915D02*
D03*
X022565D02*
D03*
X025335Y01785D02*
D03*
X025965D02*
D03*
X025985Y0185D02*
D03*
X026615D02*
D03*
X028065D02*
D03*
X027435D02*
D03*
X028065Y01905D02*
D03*
X027435D02*
D03*
D65*
X022558Y031156D02*
D03*
Y03025D02*
D03*
Y029344D02*
D03*
D66*
X024842Y03025D02*
D03*
D67*
X03045Y038535D02*
D03*
X03045Y03925D02*
D03*
X03095Y03855D02*
D03*
X03095Y039265D02*
D03*
X0306Y036215D02*
D03*
X0306Y0355D02*
D03*
X0306Y034285D02*
D03*
X0306Y035D02*
D03*
X03425Y018785D02*
D03*
X03425Y0195D02*
D03*
X0262Y038535D02*
D03*
X0262Y03925D02*
D03*
X0268Y038535D02*
D03*
X0268Y03925D02*
D03*
X0244Y014915D02*
D03*
X0244Y0142D02*
D03*
X023875Y014185D02*
D03*
X023875Y0149D02*
D03*
X02335Y014185D02*
D03*
X02335Y0149D02*
D03*
X0281Y016985D02*
D03*
X0281Y0177D02*
D03*
X0281Y015785D02*
D03*
X0281Y0165D02*
D03*
D68*
X03145Y034934D02*
D03*
Y035966D02*
D03*
D69*
X0332Y03825D02*
D03*
X0325D02*
D03*
X0318D02*
D03*
X03055Y0335D02*
D03*
Y0323D02*
D03*
Y0317D02*
D03*
Y0329D02*
D03*
X0284Y03895D02*
D03*
X02495Y03225D02*
D03*
X0222Y0277D02*
D03*
X0233Y01955D02*
D03*
X0295Y0139D02*
D03*
X022Y01505D02*
D03*
Y0142D02*
D03*
X02745Y01975D02*
D03*
D70*
X032365Y03745D02*
D03*
X03165Y03745D02*
D03*
X03285D02*
D03*
X033565Y03745D02*
D03*
X033965Y03365D02*
D03*
X03325Y03365D02*
D03*
X011135Y0156D02*
D03*
X01185Y0156D02*
D03*
X011135Y018D02*
D03*
X01185Y018D02*
D03*
X011135Y0191D02*
D03*
X01185Y0191D02*
D03*
X011815Y02585D02*
D03*
X0111Y02585D02*
D03*
X023315Y0406D02*
D03*
X0226Y0406D02*
D03*
X024535Y02655D02*
D03*
X02525Y02655D02*
D03*
X024535Y02605D02*
D03*
X02525Y02605D02*
D03*
X024535Y02705D02*
D03*
X02525Y02705D02*
D03*
X021985Y0235D02*
D03*
X0227Y0235D02*
D03*
X021985Y023D02*
D03*
X0227Y023D02*
D03*
X021885Y019716D02*
D03*
X0226Y019716D02*
D03*
X021885Y01855D02*
D03*
X0226Y01855D02*
D03*
X028085Y01465D02*
D03*
X0288Y01465D02*
D03*
X028085Y0152D02*
D03*
X0288Y0152D02*
D03*
X027235Y0128D02*
D03*
X02795Y0128D02*
D03*
X0267D02*
D03*
X025985Y0128D02*
D03*
D71*
X033563Y035558D02*
D03*
D72*
X03307Y036335D02*
D03*
X033267D02*
D03*
X033464D02*
D03*
X033661D02*
D03*
X033858D02*
D03*
X034055D02*
D03*
Y03478D02*
D03*
X033858D02*
D03*
X033661D02*
D03*
X033464D02*
D03*
X033267D02*
D03*
X03307D02*
D03*
D73*
X03435Y03605D02*
D03*
Y035853D02*
D03*
Y035656D02*
D03*
Y035459D02*
D03*
Y035263D02*
D03*
Y035066D02*
D03*
X032775D02*
D03*
Y035263D02*
D03*
Y035459D02*
D03*
Y035656D02*
D03*
Y035853D02*
D03*
Y03605D02*
D03*
D74*
X03145Y034215D02*
D03*
Y033585D02*
D03*
X02205Y01775D02*
D03*
Y01712D02*
D03*
D75*
X032608Y01915D02*
D03*
X033592Y018776D02*
D03*
X029692Y01775D02*
D03*
X028708Y018124D02*
D03*
X029742Y01635D02*
D03*
X028758Y016724D02*
D03*
D76*
X0115Y014108D02*
D03*
X011874Y015092D02*
D03*
Y017542D02*
D03*
X0115Y016558D02*
D03*
D77*
X011884Y022207D02*
D03*
X011628D02*
D03*
X011372D02*
D03*
X011116D02*
D03*
Y019893D02*
D03*
X011372D02*
D03*
X011628D02*
D03*
X011884D02*
D03*
D78*
X011126Y024342D02*
D03*
X0115D02*
D03*
X011874D02*
D03*
Y023358D02*
D03*
X0115D02*
D03*
X011126D02*
D03*
D79*
X028025Y038118D02*
D03*
X028525D02*
D03*
X029025D02*
D03*
X029525D02*
D03*
Y035982D02*
D03*
X029025D02*
D03*
X028525D02*
D03*
X028025D02*
D03*
D80*
X0225Y04125D02*
D03*
X0234D02*
D03*
D81*
X0281Y034817D02*
D03*
X0286D02*
D03*
X0291D02*
D03*
X0296D02*
D03*
Y031983D02*
D03*
X0291D02*
D03*
X0286D02*
D03*
X0281D02*
D03*
D82*
X024695Y024179D02*
D03*
X024498D02*
D03*
X024302D02*
D03*
X024105D02*
D03*
D83*
X024183Y024809D02*
D03*
X024617D02*
D03*
D84*
X0244Y02475D02*
D03*
D85*
X0251Y02775D02*
D03*
Y028307D02*
D03*
X02388Y02775D02*
D03*
Y028308D02*
D03*
D86*
X0226Y02225D02*
D03*
X022974Y021463D02*
D03*
X022226D02*
D03*
D87*
X02315Y02045D02*
D03*
X0308Y01915D02*
D03*
D88*
X02195Y02045D02*
D03*
X032Y01915D02*
D03*
D89*
X02625Y01555D02*
D03*
D90*
X0295Y0151D02*
D03*
Y0145D02*
D03*
X022Y0162D02*
D03*
X03495Y0191D02*
D03*
D91*
X0236Y01675D02*
D03*
D92*
X02435Y015682D02*
D03*
X02385D02*
D03*
X02335D02*
D03*
X02285D02*
D03*
Y017818D02*
D03*
X02335D02*
D03*
X02385D02*
D03*
X02435D02*
D03*
D93*
X022923Y012873D02*
D03*
X02312D02*
D03*
X023317D02*
D03*
X024301D02*
D03*
X024104D02*
D03*
X023907D02*
D03*
X023514D02*
D03*
X023711D02*
D03*
D94*
X024557D02*
D03*
X022667D02*
D03*
X024872D02*
D03*
X022352D02*
D03*
D95*
X032268Y025317D02*
D03*
X031835D02*
D03*
X032701D02*
D03*
X033567D02*
D03*
X032268Y02575D02*
D03*
X030102Y023802D02*
D03*
X030535D02*
D03*
X030968D02*
D03*
X031402D02*
D03*
X031835D02*
D03*
X032268D02*
D03*
X032701D02*
D03*
X033134D02*
D03*
X033567D02*
D03*
X034D02*
D03*
X034591D02*
D03*
X035181D02*
D03*
X030102Y024235D02*
D03*
X030535D02*
D03*
X030968D02*
D03*
X031402D02*
D03*
X031835D02*
D03*
X032268D02*
D03*
X032701D02*
D03*
X033134D02*
D03*
X033567D02*
D03*
X034D02*
D03*
X035181D02*
D03*
X030102Y024668D02*
D03*
X030535D02*
D03*
X031402D02*
D03*
X031835D02*
D03*
X032268D02*
D03*
X032701D02*
D03*
X033134D02*
D03*
X033567D02*
D03*
X034D02*
D03*
X030102Y025101D02*
D03*
X030535D02*
D03*
X030968D02*
D03*
X030102Y025534D02*
D03*
X030535D02*
D03*
X030968D02*
D03*
X031835Y02575D02*
D03*
X032701D02*
D03*
X034Y025534D02*
D03*
X030102Y025967D02*
D03*
X030535D02*
D03*
X030968D02*
D03*
X030102Y0264D02*
D03*
X030535D02*
D03*
X031402D02*
D03*
X031835D02*
D03*
X032268D02*
D03*
X032701D02*
D03*
X033134D02*
D03*
X033567D02*
D03*
X034D02*
D03*
X030102Y026833D02*
D03*
X030535D02*
D03*
X030968D02*
D03*
X031402D02*
D03*
X031835D02*
D03*
X032268D02*
D03*
X032701D02*
D03*
X033134D02*
D03*
X033567D02*
D03*
X034D02*
D03*
X035181D02*
D03*
X030102Y027266D02*
D03*
X030535D02*
D03*
X030968D02*
D03*
X031402D02*
D03*
X031835D02*
D03*
X032268D02*
D03*
X032701D02*
D03*
X033134D02*
D03*
X033567D02*
D03*
X034D02*
D03*
X034591D02*
D03*
X035181D02*
D03*
X033567Y02575D02*
D03*
D96*
X0328Y01465D02*
D03*
Y017209D02*
D03*
X0314Y01195D02*
D03*
X030613D02*
D03*
X029825D02*
D03*
D97*
X01705Y037244D02*
D03*
Y01535D02*
D03*
D98*
Y040647D02*
D03*
Y011946D02*
D03*
D99*
X022363Y034367D02*
D03*
X025166Y033467D02*
D03*
X022474Y01245D02*
D03*
X02475D02*
D03*
D100*
X02315Y038934D02*
D03*
Y03795D02*
D03*
Y036966D02*
D03*
Y035982D02*
D03*
Y034997D02*
D03*
X02615Y03705D02*
D03*
Y036066D02*
D03*
Y035082D02*
D03*
Y034097D02*
D03*
D101*
X031356Y04075D02*
D03*
X029584D02*
D03*
X0274D02*
D03*
X025628D02*
D03*
D102*
X03185Y03977D02*
D03*
X02909D02*
D03*
X027894D02*
D03*
X025134D02*
D03*
D103*
X025313Y012647D02*
D03*
X021911D02*
D03*
D104*
X025313Y011001D02*
D03*
X021911D02*
D03*
D105*
X026Y0117D02*
D03*
X028D02*
D03*
D106*
X027D02*
D03*
D107*
X032227Y01195D02*
D03*
X028998D02*
D03*
D108*
X034157Y04085D02*
D03*
X011433Y011433D02*
D03*
D109*
X034157D02*
D03*
X011433Y04085D02*
D03*
M02*
