G04*
G04 #@! TF.GenerationSoftware,Altium Limited,Altium Designer,18.0.7 (293)*
G04*
G04 Layer_Color=32768*
%FSTAX24Y24*%
%MOIN*%
G70*
G01*
G75*
%ADD12C,0.0039*%
%ADD137R,0.0098X0.0236*%
%ADD138R,0.0098X0.0236*%
%ADD139R,0.0236X0.0098*%
%ADD140R,0.0236X0.0098*%
G36*
X032859Y019663D02*
X032864D01*
X032868Y019662D01*
X032873Y019662D01*
X032885Y019661D01*
X032897Y019659D01*
X032909Y019657D01*
X032914Y019655D01*
X03292Y019653D01*
X03292D01*
X032921Y019653D01*
X032922Y019652D01*
X032924Y019652D01*
X032927Y019651D01*
X032929Y019649D01*
X032935Y019647D01*
X032942Y019643D01*
X032949Y019638D01*
X032956Y019633D01*
X032962Y019626D01*
Y019626D01*
X032963Y019625D01*
X032963Y019624D01*
X032964Y019623D01*
X032965Y019621D01*
X032967Y019619D01*
X032969Y019614D01*
X032972Y019607D01*
X032974Y0196D01*
X032976Y01959D01*
X032976Y019581D01*
Y019577D01*
X032976Y019574D01*
X032976Y019572D01*
X032975Y019568D01*
X032974Y019564D01*
X032973Y01956D01*
X032972Y019555D01*
X03297Y01955D01*
X032968Y019546D01*
X032966Y019541D01*
X032963Y019536D01*
X032959Y019532D01*
X032955Y019527D01*
X032951Y019523D01*
X03295Y019523D01*
X032949Y019522D01*
X032947Y019521D01*
X032944Y019519D01*
X032941Y019517D01*
X032937Y019515D01*
X032932Y019513D01*
X032926Y019511D01*
X032919Y019509D01*
X032912Y019506D01*
X032903Y019504D01*
X032894Y019502D01*
X032884Y019501D01*
X032873Y019499D01*
X032861Y019499D01*
X032848Y019498D01*
X032848D01*
X032846D01*
X032844D01*
X032841D01*
X032837Y019499D01*
X032832D01*
X032828Y019499D01*
X032822Y019499D01*
X032811Y019501D01*
X032799Y019502D01*
X032787Y019505D01*
X032781Y019506D01*
X032776Y019507D01*
X032775D01*
X032775Y019508D01*
X032773Y019509D01*
X032771Y019509D01*
X032769Y01951D01*
X032766Y019511D01*
X03276Y019514D01*
X032754Y019518D01*
X032747Y019523D01*
X03274Y019528D01*
X032734Y019535D01*
Y019535D01*
X032733Y019536D01*
X032733Y019537D01*
X032732Y019538D01*
X03273Y01954D01*
X032729Y019542D01*
X032726Y019548D01*
X032724Y019554D01*
X032721Y019562D01*
X03272Y019571D01*
X032719Y019581D01*
Y019584D01*
X032719Y019588D01*
X03272Y019593D01*
X032721Y019598D01*
X032723Y019604D01*
X032725Y01961D01*
X032727Y019616D01*
Y019616D01*
X032728Y019617D01*
X032729Y019619D01*
X032731Y019621D01*
X032733Y019625D01*
X032737Y019629D01*
X032741Y019633D01*
X032746Y019637D01*
X032751Y019641D01*
X032752Y019642D01*
X032754Y019643D01*
X032757Y019645D01*
X032762Y019647D01*
X032767Y019649D01*
X032773Y019652D01*
X032781Y019655D01*
X032789Y019657D01*
X032789D01*
X03279Y019657D01*
X032791Y019658D01*
X032793Y019658D01*
X032795Y019659D01*
X032797Y019659D01*
X032801Y01966D01*
X032804Y01966D01*
X032808Y019661D01*
X032813Y019661D01*
X032818Y019661D01*
X032823Y019662D01*
X032829Y019663D01*
X032834D01*
X032841Y019663D01*
X032848D01*
X032848D01*
X03285D01*
X032852D01*
X032855D01*
X032859Y019663D01*
D02*
G37*
G36*
X032893Y019469D02*
X032896Y019469D01*
X032899Y019469D01*
X032903Y019468D01*
X032907Y019467D01*
X032916Y019465D01*
X032926Y019461D01*
X032931Y019459D01*
X032936Y019456D01*
X032941Y019453D01*
X032946Y01945D01*
X032946Y019449D01*
X032947Y019449D01*
X032949Y019447D01*
X032951Y019445D01*
X032953Y019443D01*
X032956Y01944D01*
X032958Y019436D01*
X032961Y019432D01*
X032964Y019428D01*
X032967Y019423D01*
X032969Y019417D01*
X032972Y019411D01*
X032973Y019405D01*
X032975Y019398D01*
X032976Y019391D01*
X032976Y019383D01*
Y01938D01*
X032976Y019378D01*
X032976Y019375D01*
X032975Y019371D01*
X032975Y019367D01*
X032974Y019363D01*
X032972Y019354D01*
X032968Y019345D01*
X032966Y01934D01*
X032964Y019336D01*
X032961Y019331D01*
X032957Y019327D01*
X032957Y019327D01*
X032957Y019326D01*
X032955Y019325D01*
X032954Y019324D01*
X032952Y019322D01*
X03295Y01932D01*
X032947Y019318D01*
X032944Y019316D01*
X03294Y019314D01*
X032936Y019312D01*
X032928Y019308D01*
X032917Y019304D01*
X032912Y019303D01*
X032906Y019303D01*
X032904Y019335D01*
X032904D01*
X032905D01*
X032906Y019335D01*
X032908Y019336D01*
X032912Y019337D01*
X032917Y019338D01*
X032923Y01934D01*
X032929Y019343D01*
X032934Y019347D01*
X032939Y019351D01*
X03294Y019352D01*
X032941Y019354D01*
X032943Y019356D01*
X032945Y01936D01*
X032947Y019365D01*
X032949Y01937D01*
X032951Y019376D01*
X032951Y019383D01*
Y019386D01*
X032951Y019387D01*
X03295Y019391D01*
X032949Y019396D01*
X032947Y019403D01*
X032944Y019409D01*
X03294Y019415D01*
X032937Y019418D01*
X032934Y019421D01*
X032934Y019422D01*
X032933Y019422D01*
X032932Y019423D01*
X032931Y019424D01*
X032927Y019426D01*
X032922Y019429D01*
X032916Y019432D01*
X032908Y019434D01*
X032899Y019436D01*
X032895Y019437D01*
X032889D01*
X032889D01*
X032888D01*
X032887D01*
X032885Y019437D01*
X032883D01*
X03288Y019436D01*
X032875Y019435D01*
X032868Y019433D01*
X032861Y019431D01*
X032854Y019427D01*
X032848Y019422D01*
X032848D01*
X032847Y019421D01*
X032845Y019419D01*
X032843Y019416D01*
X03284Y019412D01*
X032837Y019406D01*
X032835Y019399D01*
X032833Y019392D01*
X032832Y019387D01*
Y01938D01*
X032833Y019378D01*
X032833Y019374D01*
X032834Y01937D01*
X032835Y019365D01*
X032837Y01936D01*
X032839Y019356D01*
X03284Y019355D01*
X03284Y019354D01*
X032842Y019352D01*
X032844Y019349D01*
X032846Y019346D01*
X03285Y019343D01*
X032853Y01934D01*
X032857Y019337D01*
X032853Y019308D01*
X032723Y019332D01*
Y019458D01*
X032753D01*
Y019357D01*
X032821Y019343D01*
X032821Y019344D01*
X03282Y019344D01*
X03282Y019346D01*
X032818Y019347D01*
X032817Y019349D01*
X032816Y019352D01*
X032813Y019358D01*
X03281Y019365D01*
X032808Y019373D01*
X032806Y019382D01*
X032805Y019386D01*
Y019394D01*
X032805Y019396D01*
X032806Y019399D01*
X032806Y019403D01*
X032807Y019406D01*
X032808Y01941D01*
X03281Y019419D01*
X032812Y019424D01*
X032815Y019428D01*
X032817Y019433D01*
X03282Y019438D01*
X032824Y019442D01*
X032828Y019447D01*
X032828Y019447D01*
X032829Y019448D01*
X03283Y019449D01*
X032832Y01945D01*
X032834Y019452D01*
X032837Y019454D01*
X03284Y019456D01*
X032844Y019458D01*
X032848Y01946D01*
X032852Y019462D01*
X032857Y019464D01*
X032862Y019466D01*
X032868Y019467D01*
X032874Y019469D01*
X03288Y019469D01*
X032887Y01947D01*
X032887D01*
X032888D01*
X03289D01*
X032893Y019469D01*
D02*
G37*
G36*
X032859Y019271D02*
X032864D01*
X032868Y019271D01*
X032873Y01927D01*
X032885Y019269D01*
X032897Y019267D01*
X032909Y019265D01*
X032914Y019264D01*
X03292Y019262D01*
X03292D01*
X032921Y019261D01*
X032922Y019261D01*
X032924Y01926D01*
X032927Y019259D01*
X032929Y019258D01*
X032935Y019255D01*
X032942Y019251D01*
X032949Y019246D01*
X032956Y019241D01*
X032962Y019234D01*
Y019234D01*
X032963Y019234D01*
X032963Y019233D01*
X032964Y019231D01*
X032965Y019229D01*
X032967Y019228D01*
X032969Y019222D01*
X032972Y019216D01*
X032974Y019208D01*
X032976Y019199D01*
X032976Y019189D01*
Y019185D01*
X032976Y019183D01*
X032976Y01918D01*
X032975Y019176D01*
X032974Y019172D01*
X032973Y019168D01*
X032972Y019164D01*
X03297Y019159D01*
X032968Y019154D01*
X032966Y019149D01*
X032963Y019145D01*
X032959Y01914D01*
X032955Y019135D01*
X032951Y019131D01*
X03295Y019131D01*
X032949Y01913D01*
X032947Y019129D01*
X032944Y019127D01*
X032941Y019126D01*
X032937Y019124D01*
X032932Y019121D01*
X032926Y019119D01*
X032919Y019117D01*
X032912Y019115D01*
X032903Y019113D01*
X032894Y019111D01*
X032884Y019109D01*
X032873Y019108D01*
X032861Y019107D01*
X032848Y019107D01*
X032848D01*
X032846D01*
X032844D01*
X032841D01*
X032837Y019107D01*
X032832D01*
X032828Y019107D01*
X032822Y019108D01*
X032811Y019109D01*
X032799Y019111D01*
X032787Y019113D01*
X032781Y019114D01*
X032776Y019116D01*
X032775D01*
X032775Y019116D01*
X032773Y019117D01*
X032771Y019118D01*
X032769Y019118D01*
X032766Y01912D01*
X03276Y019123D01*
X032754Y019126D01*
X032747Y019131D01*
X03274Y019137D01*
X032734Y019143D01*
Y019143D01*
X032733Y019144D01*
X032733Y019145D01*
X032732Y019146D01*
X03273Y019148D01*
X032729Y01915D01*
X032726Y019156D01*
X032724Y019162D01*
X032721Y01917D01*
X03272Y019179D01*
X032719Y019189D01*
Y019192D01*
X032719Y019196D01*
X03272Y019201D01*
X032721Y019206D01*
X032723Y019212D01*
X032725Y019218D01*
X032727Y019224D01*
Y019225D01*
X032728Y019225D01*
X032729Y019227D01*
X032731Y01923D01*
X032733Y019233D01*
X032737Y019237D01*
X032741Y019242D01*
X032746Y019246D01*
X032751Y01925D01*
X032752Y01925D01*
X032754Y019252D01*
X032757Y019253D01*
X032762Y019256D01*
X032767Y019258D01*
X032773Y019261D01*
X032781Y019263D01*
X032789Y019265D01*
X032789D01*
X03279Y019266D01*
X032791Y019266D01*
X032793Y019267D01*
X032795Y019267D01*
X032797Y019267D01*
X032801Y019268D01*
X032804Y019268D01*
X032808Y019269D01*
X032813Y019269D01*
X032818Y01927D01*
X032823Y019271D01*
X032829Y019271D01*
X032834D01*
X032841Y019271D01*
X032848D01*
X032848D01*
X03285D01*
X032852D01*
X032855D01*
X032859Y019271D01*
D02*
G37*
G36*
X032906Y019076D02*
X032908Y019076D01*
X032912Y019075D01*
X032915Y019075D01*
X032919Y019074D01*
X032928Y019071D01*
X032932Y019069D01*
X032937Y019067D01*
X032941Y019064D01*
X032946Y019061D01*
X03295Y019058D01*
X032955Y019054D01*
X032955Y019053D01*
X032956Y019052D01*
X032957Y019051D01*
X032958Y01905D01*
X03296Y019047D01*
X032961Y019044D01*
X032963Y019041D01*
X032966Y019038D01*
X032968Y019034D01*
X03297Y019029D01*
X032971Y019024D01*
X032973Y019019D01*
X032974Y019013D01*
X032975Y019007D01*
X032976Y019D01*
X032976Y018994D01*
Y01899D01*
X032976Y018987D01*
X032976Y018984D01*
X032975Y01898D01*
X032975Y018976D01*
X032973Y018972D01*
X032971Y018962D01*
X032969Y018957D01*
X032967Y018952D01*
X032965Y018947D01*
X032962Y018942D01*
X032959Y018937D01*
X032955Y018933D01*
X032954Y018933D01*
X032953Y018932D01*
X032952Y018931D01*
X032951Y018929D01*
X032948Y018928D01*
X032946Y018926D01*
X032943Y018924D01*
X032939Y018922D01*
X032936Y01892D01*
X032931Y018918D01*
X032922Y018914D01*
X032917Y018913D01*
X032911Y018912D01*
X032905Y018911D01*
X0329Y018911D01*
X032899D01*
X032899D01*
X032897D01*
X032896Y018911D01*
X032893D01*
X032891Y018911D01*
X032885Y018912D01*
X032878Y018913D01*
X032872Y018916D01*
X032865Y018919D01*
X032858Y018923D01*
X032858D01*
X032858Y018924D01*
X032856Y018925D01*
X032853Y018928D01*
X032849Y018932D01*
X032846Y018937D01*
X032842Y018943D01*
X032838Y01895D01*
X032836Y018959D01*
Y018958D01*
X032836Y018958D01*
X032835Y018957D01*
X032834Y018955D01*
X032833Y018952D01*
X032831Y018948D01*
X032828Y018943D01*
X032824Y018938D01*
X03282Y018934D01*
X032816Y01893D01*
X032815Y018929D01*
X032814Y018928D01*
X032811Y018927D01*
X032807Y018925D01*
X032802Y018924D01*
X032797Y018922D01*
X032791Y018921D01*
X032784Y018921D01*
X032784D01*
X032783D01*
X032782D01*
X032779Y018921D01*
X032777Y018921D01*
X032774Y018922D01*
X032768Y018923D01*
X032761Y018925D01*
X032753Y018929D01*
X032749Y018931D01*
X032745Y018934D01*
X032742Y018937D01*
X032738Y01894D01*
X032738Y018941D01*
X032737Y018941D01*
X032736Y018943D01*
X032735Y018944D01*
X032734Y018946D01*
X032732Y018948D01*
X03273Y018951D01*
X032729Y018954D01*
X032727Y018958D01*
X032725Y018962D01*
X032723Y018966D01*
X032722Y018971D01*
X03272Y018981D01*
X032719Y018987D01*
X032719Y018993D01*
Y018996D01*
X032719Y018998D01*
X03272Y019001D01*
X03272Y019004D01*
X032721Y019008D01*
X032722Y019012D01*
X032724Y01902D01*
X032727Y019029D01*
X032729Y019034D01*
X032731Y019036D01*
X032608D01*
X032608Y019036D01*
X03261Y019034D01*
X032612Y019032D01*
X032614Y019028D01*
X032618Y019024D01*
X032621Y019019D01*
X032625Y019013D01*
X032629Y019007D01*
Y019006D01*
X03263Y019006D01*
X032631Y019004D01*
X032633Y019D01*
X032635Y018996D01*
X032638Y018991D01*
X03264Y018985D01*
X032643Y01898D01*
X032645Y018974D01*
X032615D01*
Y018975D01*
X032614Y018975D01*
X032614Y018977D01*
X032613Y018979D01*
X032612Y018981D01*
X03261Y018983D01*
X032607Y01899D01*
X032603Y018997D01*
X032598Y019004D01*
X032592Y019012D01*
X032586Y019019D01*
X032585Y01902D01*
X032585Y01902D01*
X032584Y019021D01*
X032583Y019023D01*
X032579Y019026D01*
X032575Y01903D01*
X03257Y019035D01*
X032564Y019039D01*
X032558Y019043D01*
X032552Y019047D01*
Y019067D01*
X032805D01*
Y019063D01*
X032806Y019062D01*
X032811Y01906D01*
X032816Y019057D01*
X032817Y019056D01*
X032818Y019055D01*
X03282Y019053D01*
X032823Y01905D01*
X032826Y019046D01*
X03283Y019041D01*
X032833Y019036D01*
X032836Y019029D01*
Y01903D01*
X032836Y01903D01*
X032837Y019031D01*
X032837Y019033D01*
X032839Y019037D01*
X032842Y019042D01*
X032845Y019048D01*
X032849Y019054D01*
X032854Y019059D01*
X03286Y019064D01*
X032861D01*
X032861Y019064D01*
X032863Y019066D01*
X032867Y019068D01*
X032872Y01907D01*
X032877Y019073D01*
X032884Y019075D01*
X032892Y019076D01*
X0329Y019076D01*
X032901D01*
X032902D01*
X032904D01*
X032906Y019076D01*
D02*
G37*
G36*
X032824Y018913D02*
Y018913D01*
X032824Y018912D01*
X032823Y018911D01*
X032823Y018909D01*
X032821Y018906D01*
X03282Y018903D01*
X032819Y0189D01*
X032817Y018896D01*
X032812Y018888D01*
X032807Y018879D01*
X032801Y018869D01*
X032793Y018859D01*
Y018859D01*
X032794Y018858D01*
X032795Y018856D01*
X032796Y018854D01*
X032797Y018852D01*
X032799Y018849D01*
X0328Y018845D01*
X032801Y018841D01*
X032803Y018837D01*
X032804Y018832D01*
X032807Y018821D01*
X032808Y01881D01*
X032809Y018803D01*
X032809Y018797D01*
Y018794D01*
X032809Y018791D01*
Y018789D01*
X032808Y018785D01*
X032808Y018781D01*
X032807Y018777D01*
X032805Y018767D01*
X032802Y018757D01*
X032798Y018746D01*
X032796Y018741D01*
X032793Y018735D01*
X032792Y018735D01*
X032792Y018734D01*
X032791Y018733D01*
X03279Y018731D01*
X032788Y018728D01*
X032786Y018726D01*
X032781Y018719D01*
X032781Y018719D01*
X032783Y018719D01*
X032784D01*
X032786D01*
X032788Y018719D01*
X032791Y01872D01*
X032795Y018721D01*
X032798Y018723D01*
X032802Y018725D01*
X032806Y018729D01*
X032806Y018729D01*
X032807Y018731D01*
X032808Y018732D01*
X032809Y018734D01*
X03281Y018736D01*
X032812Y018738D01*
X032813Y018742D01*
X032814Y018745D01*
X032816Y018749D01*
X032817Y018754D01*
X032819Y018759D01*
X032821Y018765D01*
X032822Y018771D01*
X032824Y018779D01*
Y018779D01*
X032824Y018781D01*
X032825Y018783D01*
X032825Y018785D01*
X032826Y018789D01*
X032827Y018793D01*
X032828Y018797D01*
X032829Y018801D01*
X032832Y01881D01*
X032834Y01882D01*
X032836Y018824D01*
X032837Y018828D01*
X032838Y018832D01*
X03284Y018834D01*
Y018835D01*
X03284Y018836D01*
X032841Y018837D01*
X032842Y018838D01*
X032844Y018842D01*
X032847Y018847D01*
X032851Y018852D01*
X032855Y018858D01*
X03286Y018863D01*
X032866Y018867D01*
X032866Y018868D01*
X032868Y018869D01*
X032872Y01887D01*
X032876Y018873D01*
X032881Y018874D01*
X032887Y018876D01*
X032894Y018877D01*
X032901Y018878D01*
X032902D01*
X032902D01*
X032903D01*
X032905D01*
X032909Y018877D01*
X032914Y018876D01*
X03292Y018875D01*
X032926Y018873D01*
X032932Y01887D01*
X032939Y018866D01*
X03294D01*
X03294Y018866D01*
X032942Y018864D01*
X032945Y018861D01*
X032949Y018858D01*
X032953Y018853D01*
X032958Y018847D01*
X032963Y018841D01*
X032967Y018833D01*
Y018833D01*
X032967Y018832D01*
X032967Y018831D01*
X032968Y018829D01*
X032969Y018827D01*
X03297Y018825D01*
X032971Y018819D01*
X032973Y018812D01*
X032975Y018803D01*
X032976Y018794D01*
X032976Y018785D01*
Y018779D01*
X032976Y018776D01*
Y018773D01*
X032976Y018769D01*
X032975Y018765D01*
X032974Y018755D01*
X032972Y018746D01*
X03297Y018737D01*
X032967Y018727D01*
Y018727D01*
X032966Y018726D01*
X032966Y018725D01*
X032965Y018724D01*
X032963Y018719D01*
X032959Y018714D01*
X032955Y018708D01*
X03295Y018702D01*
X032944Y018696D01*
X032937Y018691D01*
X032936D01*
X032936Y01869D01*
X032935Y01869D01*
X032933Y018689D01*
X032931Y018688D01*
X032929Y018687D01*
X032924Y018684D01*
X032917Y018682D01*
X032909Y01868D01*
X0329Y018678D01*
X032891Y018678D01*
X032888Y018709D01*
X032889D01*
X032889D01*
X03289Y018709D01*
X032892D01*
X032895Y01871D01*
X0329Y018711D01*
X032904Y018713D01*
X03291Y018714D01*
X032915Y018717D01*
X03292Y018719D01*
X03292Y018719D01*
X032921Y018721D01*
X032924Y018722D01*
X032927Y018725D01*
X03293Y018729D01*
X032933Y018733D01*
X032936Y018738D01*
X032939Y018744D01*
Y018745D01*
X03294Y018745D01*
X03294Y018746D01*
X03294Y018747D01*
X032941Y018751D01*
X032943Y018755D01*
X032944Y018761D01*
X032945Y018768D01*
X032946Y018775D01*
X032947Y018783D01*
Y018786D01*
X032946Y01879D01*
X032946Y018794D01*
X032945Y0188D01*
X032944Y018805D01*
X032943Y018811D01*
X032941Y018817D01*
X032941Y018817D01*
X03294Y018819D01*
X032939Y018822D01*
X032937Y018825D01*
X032935Y018828D01*
X032932Y018832D01*
X032929Y018836D01*
X032925Y018838D01*
X032925Y018839D01*
X032924Y01884D01*
X032922Y018841D01*
X032919Y018842D01*
X032916Y018844D01*
X032912Y018845D01*
X032908Y018845D01*
X032904Y018846D01*
X032904D01*
X032902D01*
X0329Y018845D01*
X032897Y018845D01*
X032894Y018844D01*
X03289Y018843D01*
X032887Y018841D01*
X032883Y018838D01*
X032883Y018838D01*
X032882Y018837D01*
X03288Y018836D01*
X032878Y018833D01*
X032876Y01883D01*
X032873Y018826D01*
X032871Y018821D01*
X032869Y018816D01*
X032868Y018816D01*
X032868Y018814D01*
X032867Y018811D01*
X032866Y018809D01*
X032866Y018806D01*
X032865Y018804D01*
X032864Y018801D01*
X032863Y018797D01*
X032862Y018793D01*
X032861Y018788D01*
X032859Y018783D01*
X032858Y018777D01*
X032856Y018771D01*
Y018771D01*
X032856Y01877D01*
X032856Y018768D01*
X032855Y018766D01*
X032854Y018763D01*
X032853Y018759D01*
X032851Y018752D01*
X032849Y018744D01*
X032846Y018736D01*
X032844Y018729D01*
X032842Y018725D01*
X032841Y018722D01*
Y018722D01*
X03284Y018722D01*
X032839Y018719D01*
X032837Y018716D01*
X032834Y018713D01*
X032831Y018708D01*
X032827Y018704D01*
X032822Y018699D01*
X032817Y018696D01*
X032816Y018695D01*
X032814Y018694D01*
X032812Y018693D01*
X032808Y018691D01*
X032803Y01869D01*
X032798Y018688D01*
X032792Y018687D01*
X032786Y018687D01*
X032785D01*
X032785D01*
X032784D01*
X032782D01*
X032779Y018688D01*
X032774Y018688D01*
X032769Y01869D01*
X032762Y018691D01*
X032756Y018694D01*
X032753Y018696D01*
X032746Y018692D01*
X032746D01*
X032745Y018692D01*
X032744Y018691D01*
X032741Y01869D01*
X032738Y018689D01*
X032735Y018688D01*
X032731Y018686D01*
X032727Y018685D01*
X032722Y018684D01*
X032717Y018682D01*
X032712Y018681D01*
X032705Y01868D01*
X032693Y018678D01*
X032679Y018678D01*
X032679D01*
X032677D01*
X032675D01*
X032673Y018678D01*
X03267D01*
X032666Y018678D01*
X032661Y018679D01*
X032657Y018679D01*
X032646Y018681D01*
X032635Y018684D01*
X032623Y018687D01*
X032611Y018692D01*
X032611Y018693D01*
X03261Y018693D01*
X032608Y018694D01*
X032606Y018695D01*
X032603Y018697D01*
X032601Y018699D01*
X032594Y018704D01*
X032586Y01871D01*
X032579Y018717D01*
X032571Y018726D01*
X032564Y018735D01*
X032564Y018736D01*
X032564Y018737D01*
X032563Y018738D01*
X032562Y018741D01*
X032561Y018743D01*
X032559Y018746D01*
X032558Y01875D01*
X032556Y018754D01*
X032555Y018758D01*
X032554Y018763D01*
X032551Y018774D01*
X032549Y018785D01*
X032548Y018791D01*
Y018801D01*
X032549Y018804D01*
Y018807D01*
X032549Y01881D01*
X03255Y018815D01*
X032551Y018819D01*
X032552Y018829D01*
X032555Y01884D01*
X03256Y01885D01*
X032562Y018856D01*
X032565Y018861D01*
X032566Y018861D01*
X032566Y018862D01*
X032567Y018864D01*
X032568Y018866D01*
X03257Y018868D01*
X032572Y018871D01*
X032577Y018877D01*
X032584Y018884D01*
X032592Y018891D01*
X032601Y018898D01*
X032612Y018904D01*
X032612D01*
X032613Y018904D01*
X032615Y018905D01*
X032617Y018906D01*
X03262Y018907D01*
X032623Y018908D01*
X032627Y01891D01*
X032631Y018911D01*
X032636Y018912D01*
X032641Y018914D01*
X032647Y018915D01*
X032653Y018916D01*
X032665Y018918D01*
X032679Y018919D01*
X032679D01*
X03268D01*
X032682D01*
X032684D01*
X032687Y018918D01*
X03269D01*
X032694Y018918D01*
X032697Y018917D01*
X032706Y018916D01*
X032716Y018915D01*
X032725Y018912D01*
X032735Y018909D01*
X032735D01*
X032736Y018909D01*
X032737Y018908D01*
X032739Y018907D01*
X032741Y018906D01*
X032744Y018905D01*
X032749Y018902D01*
X032756Y018898D01*
X032764Y018893D01*
X032771Y018887D01*
X032778Y018881D01*
Y018881D01*
X032779Y018882D01*
X03278Y018883D01*
X032781Y018885D01*
X032782Y018886D01*
X032784Y018889D01*
X032787Y018894D01*
X032791Y018901D01*
X032795Y018908D01*
X032798Y018916D01*
X032801Y018923D01*
X032824Y018913D01*
D02*
G37*
G36*
X010681Y014476D02*
X010684D01*
X010686Y014476D01*
X010693Y014474D01*
X010701Y014472D01*
X010709Y014469D01*
X010717Y014466D01*
X010721Y014463D01*
X010725Y01446D01*
X010725Y01446D01*
X010725Y014459D01*
X010726Y014458D01*
X010728Y014457D01*
X010729Y014455D01*
X010731Y014453D01*
X010734Y014448D01*
X010738Y014441D01*
X010742Y014433D01*
X010745Y014424D01*
X010747Y014414D01*
X010717Y014411D01*
Y014412D01*
X010717Y014412D01*
Y014413D01*
X010716Y014415D01*
X010715Y014419D01*
X010714Y014423D01*
X010712Y014428D01*
X010709Y014433D01*
X010706Y014438D01*
X010703Y014442D01*
X010702Y014442D01*
X010701Y014443D01*
X010698Y014445D01*
X010696Y014446D01*
X010692Y014448D01*
X010687Y014449D01*
X010681Y014451D01*
X010676Y014451D01*
X010673D01*
X01067Y014451D01*
X010667Y01445D01*
X010663Y014449D01*
X010659Y014448D01*
X010655Y014447D01*
X010651Y014445D01*
X01065Y014444D01*
X010649Y014444D01*
X010647Y014442D01*
X010645Y01444D01*
X010642Y014437D01*
X010639Y014435D01*
X010636Y014431D01*
X010633Y014427D01*
X010633Y014427D01*
X010632Y014425D01*
X01063Y014423D01*
X010629Y014419D01*
X010627Y014415D01*
X010625Y01441D01*
X010623Y014404D01*
X010622Y014397D01*
Y014397D01*
X010621Y014397D01*
Y014396D01*
X010621Y014394D01*
X01062Y014391D01*
X010619Y014386D01*
X010618Y01438D01*
X010618Y014374D01*
X010617Y014367D01*
X010617Y01436D01*
Y014359D01*
Y014358D01*
Y014356D01*
Y014353D01*
X010617Y014354D01*
X010619Y014356D01*
X010621Y014358D01*
X010623Y014362D01*
X010627Y014366D01*
X010631Y01437D01*
X010637Y014374D01*
X010642Y014377D01*
X010643Y014378D01*
X010645Y014379D01*
X010649Y01438D01*
X010653Y014382D01*
X010658Y014384D01*
X010664Y014385D01*
X01067Y014386D01*
X010677Y014387D01*
X01068D01*
X010682Y014386D01*
X010685Y014386D01*
X010688Y014385D01*
X010692Y014385D01*
X010696Y014384D01*
X010704Y014381D01*
X010708Y014379D01*
X010713Y014377D01*
X010717Y014374D01*
X010722Y014371D01*
X010726Y014368D01*
X01073Y014364D01*
X01073Y014364D01*
X010731Y014363D01*
X010732Y014362D01*
X010733Y01436D01*
X010735Y014357D01*
X010737Y014355D01*
X010739Y014352D01*
X010741Y014348D01*
X010743Y014344D01*
X010745Y01434D01*
X010746Y014334D01*
X010748Y014329D01*
X01075Y014324D01*
X01075Y014317D01*
X010751Y014311D01*
X010752Y014304D01*
Y014304D01*
Y014302D01*
Y014301D01*
X010751Y014298D01*
X010751Y014295D01*
X01075Y014291D01*
X01075Y014287D01*
X010749Y014282D01*
X010746Y014273D01*
X010744Y014267D01*
X010742Y014262D01*
X01074Y014257D01*
X010736Y014252D01*
X010733Y014247D01*
X010729Y014243D01*
X010729Y014242D01*
X010728Y014242D01*
X010727Y014241D01*
X010725Y014239D01*
X010723Y014237D01*
X01072Y014235D01*
X010717Y014233D01*
X010713Y014231D01*
X01071Y014229D01*
X010705Y014227D01*
X010696Y014223D01*
X01069Y014221D01*
X010685Y01422D01*
X010679Y014219D01*
X010673Y014219D01*
X01067D01*
X010668Y014219D01*
X010666D01*
X010664Y01422D01*
X010658Y014221D01*
X010651Y014222D01*
X010643Y014225D01*
X010635Y014228D01*
X010628Y014233D01*
X010627D01*
X010627Y014233D01*
X010626Y014234D01*
X010625Y014235D01*
X010621Y014238D01*
X010616Y014242D01*
X010611Y014247D01*
X010606Y014254D01*
X010601Y014262D01*
X010597Y01427D01*
Y014271D01*
X010597Y014271D01*
X010596Y014273D01*
X010595Y014275D01*
X010594Y014277D01*
X010593Y014281D01*
X010593Y014284D01*
X010591Y014288D01*
X01059Y014293D01*
X010589Y014298D01*
X010589Y014304D01*
X010588Y01431D01*
X010587Y014317D01*
X010586Y014325D01*
X010586Y014333D01*
Y014341D01*
Y014341D01*
Y014343D01*
Y014346D01*
Y014349D01*
X010586Y014353D01*
Y014358D01*
X010587Y014363D01*
X010587Y014369D01*
X010589Y014381D01*
X01059Y014394D01*
X010593Y014407D01*
X010595Y014413D01*
X010597Y014418D01*
Y014419D01*
X010597Y014419D01*
X010598Y014421D01*
X010598Y014423D01*
X010599Y014425D01*
X010601Y014428D01*
X010605Y014434D01*
X010609Y014441D01*
X010614Y014448D01*
X010621Y014455D01*
X010628Y014461D01*
X010628D01*
X010629Y014462D01*
X01063Y014463D01*
X010631Y014464D01*
X010634Y014465D01*
X010636Y014466D01*
X010639Y014468D01*
X010642Y014469D01*
X010649Y014472D01*
X010657Y014474D01*
X010666Y014476D01*
X010676Y014476D01*
X010679D01*
X010681Y014476D01*
D02*
G37*
G36*
X010083Y01422D02*
X010047D01*
X009944Y014472D01*
X009981D01*
X010011Y014396D01*
X010116D01*
X010144Y014472D01*
X010179D01*
X010083Y01422D01*
D02*
G37*
G36*
X011679Y014277D02*
X01168Y014275D01*
X011682Y014272D01*
X011684Y014268D01*
X011686Y014264D01*
X011689Y014259D01*
X011691Y014252D01*
X011693Y014245D01*
X011695Y014238D01*
X011697Y014229D01*
X011699Y01422D01*
X0117Y01421D01*
X011701Y014199D01*
X011701Y014187D01*
Y014187D01*
Y014186D01*
Y014185D01*
Y014184D01*
X011701Y01418D01*
Y014175D01*
X0117Y014169D01*
X011699Y014162D01*
X011699Y014155D01*
X011698Y014146D01*
X011696Y014138D01*
X011694Y014129D01*
X011692Y01412D01*
X01169Y014111D01*
X011686Y014103D01*
X011683Y014095D01*
X011679Y014087D01*
X011674Y014081D01*
X011674Y01408D01*
X011673Y01408D01*
X011671Y014078D01*
X01167Y014076D01*
X011667Y014074D01*
X011665Y014072D01*
X011661Y014069D01*
X011657Y014066D01*
X011653Y014064D01*
X011648Y014061D01*
X011643Y014059D01*
X011637Y014056D01*
X011631Y014054D01*
X011624Y014053D01*
X011618Y014052D01*
X01161Y014052D01*
X011607D01*
X011605Y014052D01*
X011603D01*
X0116Y014052D01*
X011593Y014054D01*
X011585Y014056D01*
X011577Y014059D01*
X011569Y014063D01*
X011565Y014066D01*
X011561Y014068D01*
X011561Y014069D01*
X011561Y014069D01*
X01156Y01407D01*
X011559Y014071D01*
X011557Y014073D01*
X011555Y014075D01*
X011551Y01408D01*
X011547Y014087D01*
X011544Y014095D01*
X01154Y014104D01*
X011538Y014114D01*
X011569Y014117D01*
Y014117D01*
X011569Y014116D01*
X01157Y014114D01*
X011571Y014111D01*
X011572Y014107D01*
X011574Y014102D01*
X011576Y014098D01*
X011579Y014094D01*
X011581Y014091D01*
X011582Y01409D01*
X011583Y014089D01*
X011586Y014086D01*
X01159Y014084D01*
X011594Y014082D01*
X011599Y014079D01*
X011606Y014078D01*
X011612Y014077D01*
X011615D01*
X011618Y014078D01*
X011621Y014078D01*
X011625Y014079D01*
X01163Y014081D01*
X011634Y014083D01*
X011638Y014086D01*
X011639Y014086D01*
X011641Y014087D01*
X011643Y01409D01*
X011647Y014094D01*
X01165Y014098D01*
X011654Y014103D01*
X011658Y01411D01*
X011662Y014117D01*
Y014117D01*
X011662Y014118D01*
X011662Y014119D01*
X011663Y014121D01*
X011663Y014123D01*
X011664Y014125D01*
X011665Y014128D01*
X011666Y014132D01*
X011667Y014136D01*
X011667Y01414D01*
X011668Y014145D01*
X011668Y01415D01*
X011669Y014156D01*
X01167Y014162D01*
X01167Y014168D01*
Y014175D01*
X01167Y014174D01*
X011668Y014172D01*
X011666Y014169D01*
X011662Y014166D01*
X011659Y014161D01*
X011654Y014157D01*
X011649Y014153D01*
X011643Y01415D01*
X011643D01*
X011642Y014149D01*
X01164Y014148D01*
X011637Y014147D01*
X011632Y014145D01*
X011627Y014144D01*
X011622Y014143D01*
X011615Y014142D01*
X011609Y014141D01*
X011606D01*
X011604Y014142D01*
X011601Y014142D01*
X011598Y014142D01*
X011594Y014143D01*
X011591Y014144D01*
X011582Y014147D01*
X011578Y014149D01*
X011573Y014151D01*
X011569Y014154D01*
X011564Y014157D01*
X01156Y01416D01*
X011556Y014164D01*
X011556Y014165D01*
X011555Y014165D01*
X011554Y014166D01*
X011553Y014168D01*
X011551Y014171D01*
X011549Y014173D01*
X011547Y014177D01*
X011545Y01418D01*
X011543Y014184D01*
X011541Y014189D01*
X011539Y014194D01*
X011537Y014199D01*
X011536Y014204D01*
X011535Y01421D01*
X011535Y014217D01*
X011534Y014223D01*
Y014224D01*
Y014224D01*
Y014225D01*
Y014227D01*
X011535Y014229D01*
Y014232D01*
X011536Y014237D01*
X011537Y014244D01*
X011539Y014252D01*
X011541Y01426D01*
X011545Y014267D01*
Y014268D01*
X011545Y014268D01*
X011546Y014269D01*
X011547Y014271D01*
X011549Y014274D01*
X011552Y014279D01*
X011556Y014284D01*
X011561Y014289D01*
X011567Y014294D01*
X011573Y014299D01*
X011573D01*
X011573Y014299D01*
X011575Y0143D01*
X011576Y0143D01*
X01158Y014302D01*
X011584Y014304D01*
X011591Y014306D01*
X011598Y014307D01*
X0116Y014308D01*
X011569Y014399D01*
Y014399D01*
X011569Y0144D01*
X011569Y014401D01*
X011568Y014403D01*
X011567Y014407D01*
X011565Y014413D01*
X011563Y014419D01*
X011561Y014425D01*
X011559Y014431D01*
X011557Y014436D01*
X011557Y014435D01*
X011557Y014433D01*
X011556Y01443D01*
X011554Y014426D01*
X011552Y01442D01*
X01155Y014413D01*
X011547Y014405D01*
X011544Y014396D01*
X011484Y01422D01*
X011439D01*
Y014472D01*
X011471D01*
Y014261D01*
X011544Y014472D01*
X011574D01*
X01163Y014307D01*
X011631Y014307D01*
X011636Y014305D01*
X011641Y014304D01*
X011646Y014302D01*
X011647Y014302D01*
Y014472D01*
X011679D01*
Y014277D01*
D02*
G37*
G36*
X011972Y01422D02*
X011967D01*
X011968Y014217D01*
X011969Y014212D01*
X01197Y014205D01*
X011972Y014193D01*
X011972Y014179D01*
Y014179D01*
Y014177D01*
Y014175D01*
X011972Y014173D01*
Y01417D01*
X011972Y014166D01*
X011971Y014161D01*
X011971Y014157D01*
X011969Y014146D01*
X011966Y014135D01*
X011963Y014123D01*
X011958Y014111D01*
X011957Y014111D01*
X011957Y01411D01*
X011956Y014108D01*
X011955Y014106D01*
X011953Y014103D01*
X011951Y014101D01*
X011946Y014094D01*
X01194Y014086D01*
X011933Y014079D01*
X011924Y014071D01*
X011915Y014064D01*
X011914Y014064D01*
X011913Y014064D01*
X011912Y014063D01*
X011909Y014062D01*
X011907Y014061D01*
X011904Y014059D01*
X0119Y014058D01*
X011896Y014056D01*
X011892Y014055D01*
X011887Y014054D01*
X011876Y014051D01*
X011865Y014049D01*
X011859Y014048D01*
X011849D01*
X011846Y014049D01*
X011843D01*
X01184Y014049D01*
X011835Y01405D01*
X011831Y014051D01*
X011821Y014052D01*
X01181Y014055D01*
X0118Y01406D01*
X011794Y014062D01*
X011789Y014065D01*
X011789Y014066D01*
X011788Y014066D01*
X011786Y014067D01*
X011784Y014068D01*
X011782Y01407D01*
X011779Y014072D01*
X011773Y014077D01*
X011766Y014084D01*
X011759Y014092D01*
X011752Y014101D01*
X011746Y014112D01*
Y014112D01*
X011746Y014113D01*
X011745Y014115D01*
X011744Y014117D01*
X011743Y01412D01*
X011742Y014123D01*
X01174Y014127D01*
X011739Y014131D01*
X011738Y014136D01*
X011736Y014141D01*
X011735Y014147D01*
X011734Y014153D01*
X011732Y014165D01*
X011731Y014179D01*
Y014179D01*
Y01418D01*
Y014182D01*
Y014184D01*
X011732Y014187D01*
Y01419D01*
X011732Y014194D01*
X011733Y014197D01*
X011734Y014206D01*
X011735Y014216D01*
X011737Y01422D01*
X011732D01*
Y014299D01*
X011727Y014301D01*
X011732Y014314D01*
Y014472D01*
X011764D01*
Y014311D01*
X011771Y014307D01*
X011778Y014302D01*
X011838Y014472D01*
X011868D01*
X011934Y014278D01*
X011938Y014274D01*
X01194Y014271D01*
Y014472D01*
X011972D01*
Y01422D01*
D02*
G37*
G36*
X010322Y014472D02*
Y014471D01*
Y014469D01*
X010322Y014467D01*
Y014464D01*
X010322Y01446D01*
X010321Y014456D01*
X010321Y014452D01*
X01032Y014447D01*
X01032Y014442D01*
X010318Y014436D01*
X010317Y014429D01*
X010316Y014423D01*
X010315Y014416D01*
X010311Y014401D01*
Y0144D01*
X010311Y014399D01*
X01031Y014397D01*
X010309Y014393D01*
X010308Y01439D01*
X010306Y014385D01*
X010305Y01438D01*
X010303Y014375D01*
X010301Y014369D01*
X010298Y014362D01*
X010293Y014349D01*
X010286Y014334D01*
X010279Y01432D01*
X010279Y014319D01*
X010278Y014318D01*
X010277Y014316D01*
X010275Y014313D01*
X010274Y01431D01*
X010271Y014306D01*
X010269Y014301D01*
X010266Y014297D01*
X010259Y014286D01*
X010251Y014275D01*
X010243Y014264D01*
X010234Y014253D01*
X010358D01*
Y014223D01*
X010195D01*
Y014248D01*
X010195Y014248D01*
X010196Y014249D01*
X010197Y01425D01*
X010199Y014253D01*
X010201Y014255D01*
X010204Y014258D01*
X010207Y014262D01*
X01021Y014266D01*
X010213Y01427D01*
X010217Y014275D01*
X010221Y014281D01*
X010225Y014287D01*
X01023Y014294D01*
X010234Y014301D01*
X010238Y014308D01*
X010243Y014316D01*
X010243Y014316D01*
X010244Y014318D01*
X010245Y01432D01*
X010247Y014323D01*
X010249Y014327D01*
X010251Y014332D01*
X010253Y014337D01*
X010256Y014342D01*
X010259Y014349D01*
X010262Y014356D01*
X010265Y014363D01*
X010268Y01437D01*
X010274Y014386D01*
X010279Y014403D01*
Y014403D01*
X010279Y014404D01*
X01028Y014406D01*
X010281Y014408D01*
X010281Y014411D01*
X010282Y014415D01*
X010283Y014419D01*
X010284Y014423D01*
X010285Y014428D01*
X010286Y014434D01*
X010288Y014445D01*
X01029Y014458D01*
X010291Y014472D01*
X010322D01*
Y014472D01*
D02*
G37*
G36*
X011386Y01422D02*
X011287D01*
X011284Y014221D01*
X011282D01*
X011275Y014221D01*
X011268Y014222D01*
X01126Y014223D01*
X011252Y014225D01*
X011246Y014228D01*
X011245D01*
X011245Y014228D01*
X011243Y014229D01*
X011239Y014231D01*
X011236Y014234D01*
X011231Y014237D01*
X011227Y014241D01*
X011222Y014246D01*
X011218Y014251D01*
X011218Y014252D01*
X011217Y014254D01*
X011215Y014257D01*
X011213Y014262D01*
X011211Y014267D01*
X011209Y014272D01*
X011208Y014278D01*
X011208Y014285D01*
Y014285D01*
Y014287D01*
X011208Y01429D01*
X011209Y014294D01*
X01121Y014299D01*
X011212Y014304D01*
X011214Y014309D01*
X011217Y014315D01*
X011218Y014316D01*
X011219Y014317D01*
X011221Y01432D01*
X011224Y014323D01*
X011227Y014326D01*
X011232Y01433D01*
X011237Y014334D01*
X011243Y014338D01*
X011243D01*
X011242Y014338D01*
X011241Y014338D01*
X01124Y014339D01*
X011235Y014341D01*
X01123Y014343D01*
X011225Y014346D01*
X011219Y01435D01*
X011213Y014355D01*
X011208Y014361D01*
X011208Y014362D01*
X011206Y014364D01*
X011204Y014367D01*
X011202Y014372D01*
X0112Y014377D01*
X011197Y014384D01*
X011196Y014391D01*
X011196Y014399D01*
Y014399D01*
Y0144D01*
Y014402D01*
X011196Y014405D01*
X011197Y01441D01*
X011197Y014415D01*
X011199Y01442D01*
X011201Y014426D01*
X011203Y014432D01*
X011204Y014433D01*
X011205Y014435D01*
X011206Y014437D01*
X011208Y014441D01*
X011211Y014444D01*
X011214Y014448D01*
X011218Y014452D01*
X011222Y014456D01*
X011222Y014456D01*
X011224Y014457D01*
X011226Y014459D01*
X01123Y01446D01*
X011234Y014462D01*
X011238Y014464D01*
X011243Y014466D01*
X01125Y014468D01*
X01125D01*
X011252Y014469D01*
X011256Y014469D01*
X011261Y01447D01*
X011267Y014471D01*
X011274Y014471D01*
X011281Y014472D01*
X01129Y014472D01*
X011386D01*
Y01422D01*
D02*
G37*
G36*
X011086Y01425D02*
X011169D01*
Y01422D01*
X010969D01*
Y01425D01*
X011052D01*
Y014472D01*
X011086D01*
Y01425D01*
D02*
G37*
G36*
X010952Y014472D02*
Y01447D01*
Y014468D01*
X010951Y014465D01*
X010951Y014462D01*
X01095Y014458D01*
X01095Y014455D01*
X010948Y014451D01*
Y01445D01*
X010948Y01445D01*
X010947Y014448D01*
X010946Y014444D01*
X010943Y01444D01*
X010941Y014435D01*
X010937Y014429D01*
X010933Y014423D01*
X010928Y014417D01*
Y014417D01*
X010927Y014416D01*
X010925Y014414D01*
X010922Y014411D01*
X010917Y014406D01*
X010912Y014401D01*
X010905Y014394D01*
X010896Y014387D01*
X010887Y014379D01*
X010887Y014379D01*
X010886Y014378D01*
X010883Y014376D01*
X010881Y014374D01*
X010878Y014371D01*
X010874Y014368D01*
X01087Y014364D01*
X010865Y01436D01*
X010856Y014351D01*
X010847Y014342D01*
X010842Y014338D01*
X010838Y014334D01*
X010835Y01433D01*
X010832Y014326D01*
Y014325D01*
X010831Y014325D01*
X01083Y014324D01*
X010829Y014322D01*
X010827Y014318D01*
X010824Y014314D01*
X010821Y014308D01*
X010819Y014302D01*
X010817Y014295D01*
X010817Y014288D01*
Y014288D01*
Y014288D01*
X010817Y014285D01*
X010817Y014282D01*
X010819Y014278D01*
X01082Y014273D01*
X010823Y014267D01*
X010826Y014262D01*
X01083Y014257D01*
X010831Y014257D01*
X010833Y014255D01*
X010835Y014253D01*
X010839Y014251D01*
X010844Y014249D01*
X01085Y014246D01*
X010857Y014245D01*
X010865Y014245D01*
X010867D01*
X010868Y014245D01*
X010873Y014245D01*
X010878Y014246D01*
X010883Y014248D01*
X01089Y01425D01*
X010895Y014254D01*
X010901Y014258D01*
X010902Y014259D01*
X010903Y014261D01*
X010905Y014263D01*
X010907Y014268D01*
X01091Y014273D01*
X010912Y014279D01*
X010914Y014287D01*
X010914Y014295D01*
X010946Y014292D01*
Y014291D01*
X010946Y01429D01*
Y014289D01*
X010945Y014286D01*
X010944Y014283D01*
X010944Y01428D01*
X010943Y014276D01*
X010942Y014272D01*
X010939Y014263D01*
X010934Y014254D01*
X010932Y01425D01*
X010928Y014246D01*
X010925Y014242D01*
X010922Y014238D01*
X010921Y014238D01*
X01092Y014237D01*
X010919Y014236D01*
X010918Y014235D01*
X010915Y014234D01*
X010913Y014232D01*
X01091Y01423D01*
X010906Y014229D01*
X010902Y014227D01*
X010898Y014225D01*
X010893Y014223D01*
X010888Y014222D01*
X010883Y014221D01*
X010877Y01422D01*
X010871Y014219D01*
X010864Y014219D01*
X01086D01*
X010858Y014219D01*
X010855Y01422D01*
X010851Y01422D01*
X010847Y014221D01*
X010843Y014222D01*
X010834Y014224D01*
X010824Y014228D01*
X01082Y01423D01*
X010815Y014233D01*
X010811Y014236D01*
X010807Y014239D01*
X010806Y01424D01*
X010805Y01424D01*
X010805Y014242D01*
X010803Y014243D01*
X010801Y014245D01*
X0108Y014247D01*
X010798Y01425D01*
X010796Y014253D01*
X010792Y01426D01*
X010788Y014269D01*
X010787Y014273D01*
X010786Y014278D01*
X010785Y014283D01*
X010785Y014289D01*
Y01429D01*
Y014291D01*
X010785Y014294D01*
X010786Y014298D01*
X010787Y014303D01*
X010788Y014308D01*
X010789Y014313D01*
X010792Y014319D01*
X010792Y01432D01*
X010793Y014321D01*
X010794Y014324D01*
X010796Y014328D01*
X010799Y014333D01*
X010803Y014338D01*
X010807Y014344D01*
X010812Y01435D01*
X010813Y01435D01*
X010815Y014353D01*
X010817Y014354D01*
X010819Y014356D01*
X010821Y014358D01*
X010824Y014361D01*
X010827Y014364D01*
X01083Y014368D01*
X010834Y014371D01*
X010838Y014375D01*
X010843Y014379D01*
X010848Y014384D01*
X010854Y014389D01*
X01086Y014394D01*
X01086Y014394D01*
X010861Y014395D01*
X010862Y014396D01*
X010864Y014397D01*
X010866Y0144D01*
X010869Y014402D01*
X010875Y014407D01*
X010881Y014412D01*
X010887Y014417D01*
X010892Y014422D01*
X010894Y014424D01*
X010896Y014426D01*
X010896Y014426D01*
X010897Y014427D01*
X010899Y014429D01*
X0109Y014431D01*
X010902Y014433D01*
X010904Y014436D01*
X010909Y014442D01*
X010785D01*
Y014472D01*
X010952D01*
Y014472D01*
D02*
G37*
G36*
X01048Y014476D02*
X010483Y014476D01*
X010486Y014475D01*
X01049Y014474D01*
X010495Y014473D01*
X010499Y014472D01*
X010504Y01447D01*
X010508Y014468D01*
X010513Y014466D01*
X010518Y014463D01*
X010523Y014459D01*
X010527Y014455D01*
X010531Y014451D01*
X010531Y01445D01*
X010532Y014449D01*
X010533Y014447D01*
X010535Y014444D01*
X010537Y014441D01*
X010539Y014437D01*
X010541Y014432D01*
X010543Y014426D01*
X010546Y014419D01*
X010548Y014412D01*
X01055Y014403D01*
X010552Y014394D01*
X010554Y014384D01*
X010555Y014373D01*
X010555Y014361D01*
X010556Y014348D01*
Y014348D01*
Y014346D01*
Y014344D01*
Y014341D01*
X010555Y014337D01*
Y014332D01*
X010555Y014328D01*
X010555Y014322D01*
X010554Y014311D01*
X010552Y014299D01*
X01055Y014287D01*
X010548Y014281D01*
X010547Y014276D01*
Y014275D01*
X010546Y014275D01*
X010546Y014273D01*
X010545Y014271D01*
X010544Y014269D01*
X010543Y014266D01*
X01054Y01426D01*
X010536Y014254D01*
X010531Y014247D01*
X010526Y01424D01*
X010519Y014234D01*
X010519D01*
X010519Y014233D01*
X010518Y014233D01*
X010516Y014232D01*
X010514Y01423D01*
X010512Y014229D01*
X010507Y014226D01*
X0105Y014224D01*
X010492Y014221D01*
X010483Y01422D01*
X010473Y014219D01*
X01047D01*
X010466Y014219D01*
X010461Y01422D01*
X010456Y014221D01*
X01045Y014223D01*
X010444Y014225D01*
X010438Y014227D01*
X010438D01*
X010437Y014228D01*
X010436Y014229D01*
X010433Y014231D01*
X010429Y014233D01*
X010425Y014237D01*
X010421Y014241D01*
X010417Y014246D01*
X010413Y014251D01*
X010412Y014252D01*
X010411Y014254D01*
X010409Y014257D01*
X010407Y014262D01*
X010405Y014267D01*
X010402Y014273D01*
X010399Y014281D01*
X010397Y014289D01*
Y014289D01*
X010397Y01429D01*
X010396Y014291D01*
X010396Y014293D01*
X010396Y014295D01*
X010395Y014297D01*
X010395Y014301D01*
X010394Y014304D01*
X010393Y014308D01*
X010393Y014313D01*
X010393Y014318D01*
X010392Y014323D01*
X010392Y014329D01*
Y014334D01*
X010391Y014341D01*
Y014348D01*
Y014348D01*
Y01435D01*
Y014352D01*
Y014355D01*
X010392Y014359D01*
Y014364D01*
X010392Y014368D01*
X010392Y014373D01*
X010393Y014385D01*
X010395Y014397D01*
X010397Y014409D01*
X010399Y014414D01*
X010401Y01442D01*
Y01442D01*
X010401Y014421D01*
X010402Y014422D01*
X010403Y014424D01*
X010403Y014427D01*
X010405Y014429D01*
X010408Y014435D01*
X010411Y014442D01*
X010416Y014449D01*
X010421Y014456D01*
X010428Y014462D01*
X010428D01*
X010429Y014463D01*
X01043Y014463D01*
X010431Y014464D01*
X010433Y014465D01*
X010435Y014467D01*
X01044Y014469D01*
X010447Y014472D01*
X010455Y014474D01*
X010464Y014476D01*
X010473Y014476D01*
X010477D01*
X01048Y014476D01*
D02*
G37*
G36*
X011567Y016926D02*
X011569Y016926D01*
X011573Y016925D01*
X011576Y016925D01*
X01158Y016924D01*
X011589Y016922D01*
X011598Y016918D01*
X011603Y016916D01*
X011607Y016913D01*
X011612Y01691D01*
X011616Y016907D01*
X011616Y016906D01*
X011617Y016906D01*
X011618Y016905D01*
X011619Y016903D01*
X011621Y016901D01*
X011623Y016899D01*
X011625Y016896D01*
X011627Y016893D01*
X01163Y016889D01*
X011632Y016886D01*
X011636Y016877D01*
X011639Y016867D01*
X01164Y016861D01*
X011641Y016855D01*
X01161Y016851D01*
Y016852D01*
X01161Y016853D01*
X011609Y016854D01*
X011609Y016856D01*
X011608Y016858D01*
X011608Y016861D01*
X011606Y016866D01*
X011603Y016873D01*
X0116Y016879D01*
X011596Y016885D01*
X011592Y01689D01*
X011591Y01689D01*
X01159Y016891D01*
X011587Y016893D01*
X011583Y016895D01*
X011579Y016897D01*
X011573Y016899D01*
X011567Y016901D01*
X011561Y016901D01*
X011559D01*
X011557Y016901D01*
X011553Y0169D01*
X011548Y016899D01*
X011542Y016897D01*
X011536Y016895D01*
X01153Y016891D01*
X011524Y016886D01*
X011523Y016885D01*
X011521Y016883D01*
X011519Y01688D01*
X011516Y016875D01*
X011513Y01687D01*
X011511Y016864D01*
X011509Y016857D01*
X011509Y016849D01*
Y016848D01*
Y016847D01*
Y016846D01*
X011509Y016845D01*
X011509Y016841D01*
X011511Y016836D01*
X011512Y01683D01*
X011515Y016824D01*
X011518Y016819D01*
X011523Y016813D01*
X011524Y016812D01*
X011525Y016811D01*
X011528Y016809D01*
X011532Y016806D01*
X011537Y016804D01*
X011544Y016802D01*
X011551Y0168D01*
X011558Y016799D01*
X011561D01*
X011564Y0168D01*
X011567Y0168D01*
X011571Y016801D01*
X011575Y016802D01*
X01158Y016803D01*
X011576Y016775D01*
X011575D01*
X011573Y016776D01*
X011568D01*
X011564Y016775D01*
X01156Y016774D01*
X011554Y016773D01*
X011548Y016771D01*
X011542Y016769D01*
X011536Y016766D01*
X011536D01*
X011535Y016765D01*
X011533Y016764D01*
X011531Y016761D01*
X011528Y016758D01*
X011525Y016753D01*
X011523Y016748D01*
X011521Y016741D01*
X01152Y016738D01*
Y016734D01*
Y016733D01*
Y016733D01*
Y016731D01*
X011521Y016728D01*
X011521Y016724D01*
X011523Y01672D01*
X011525Y016715D01*
X011528Y01671D01*
X011532Y016706D01*
X011532Y016705D01*
X011534Y016704D01*
X011536Y016702D01*
X01154Y0167D01*
X011544Y016698D01*
X011549Y016696D01*
X011555Y016695D01*
X011561Y016695D01*
X011564D01*
X011568Y016695D01*
X011572Y016696D01*
X011577Y016697D01*
X011581Y016699D01*
X011587Y016702D01*
X011591Y016706D01*
X011592Y016706D01*
X011593Y016708D01*
X011595Y016711D01*
X011598Y016714D01*
X0116Y016719D01*
X011603Y016725D01*
X011605Y016732D01*
X011607Y01674D01*
X011628Y016736D01*
X011629Y016741D01*
X01163Y016755D01*
X011662D01*
Y016754D01*
Y016753D01*
Y016752D01*
X011662Y01675D01*
Y016747D01*
X011661Y016743D01*
X011661Y016739D01*
X01166Y016735D01*
X01166Y01673D01*
X011659Y016725D01*
X011658Y016718D01*
X011657Y016712D01*
X011656Y016706D01*
X011654Y016698D01*
X011651Y016683D01*
Y016683D01*
X01165Y016682D01*
X01165Y016679D01*
X011648Y016676D01*
X011647Y016672D01*
X011646Y016668D01*
X011644Y016663D01*
X011642Y016658D01*
X01164Y016651D01*
X011638Y016645D01*
X011632Y016631D01*
X011626Y016617D01*
X011619Y016602D01*
X011618Y016602D01*
X011618Y0166D01*
X011616Y016599D01*
X011615Y016596D01*
X011613Y016592D01*
X011611Y016588D01*
X011608Y016584D01*
X011605Y016579D01*
X011598Y016569D01*
X011591Y016558D01*
X011583Y016547D01*
X011574Y016536D01*
X011697D01*
Y016506D01*
X011534D01*
Y01653D01*
X011535Y016531D01*
X011535Y016532D01*
X011537Y016533D01*
X011538Y016535D01*
X01154Y016538D01*
X011543Y016541D01*
X011546Y016544D01*
X011549Y016549D01*
X011553Y016553D01*
X011557Y016558D01*
X011561Y016564D01*
X011565Y01657D01*
X011569Y016576D01*
X011573Y016583D01*
X011578Y016591D01*
X011582Y016599D01*
X011583Y016599D01*
X011583Y0166D01*
X011584Y016603D01*
X011586Y016606D01*
X011588Y01661D01*
X01159Y016614D01*
X011593Y016619D01*
X011595Y016625D01*
X011598Y016632D01*
X011602Y016638D01*
X011604Y016646D01*
X011607Y016653D01*
X011613Y016669D01*
X011619Y016686D01*
Y016686D01*
X011619Y016687D01*
X011619Y016689D01*
X01162Y016691D01*
X011621Y016694D01*
X011621Y016696D01*
X011619Y016693D01*
X011612Y016686D01*
X011612Y016686D01*
X011611Y016685D01*
X01161Y016685D01*
X011608Y016684D01*
X011607Y016682D01*
X011604Y016681D01*
X011602Y016679D01*
X011598Y016677D01*
X011591Y016675D01*
X011583Y016672D01*
X011573Y01667D01*
X011568Y016669D01*
X011559D01*
X011555Y016669D01*
X01155Y01667D01*
X011544Y016671D01*
X011537Y016673D01*
X011531Y016675D01*
X011524Y016678D01*
X011524D01*
X011524Y016679D01*
X011521Y01668D01*
X011518Y016682D01*
X011515Y016684D01*
X01151Y016688D01*
X011506Y016692D01*
X011501Y016697D01*
X011498Y016702D01*
X011497Y016703D01*
X011496Y016705D01*
X011495Y016708D01*
X011493Y016712D01*
X011491Y016717D01*
X01149Y016722D01*
X011489Y016728D01*
X011488Y016735D01*
Y016735D01*
Y016738D01*
X011489Y01674D01*
X011489Y016744D01*
X011491Y016749D01*
X011492Y016754D01*
X011495Y016759D01*
X011497Y016764D01*
X011498Y016765D01*
X011499Y016767D01*
X011501Y016769D01*
X011504Y016772D01*
X011508Y016775D01*
X011512Y016779D01*
X011517Y016782D01*
X011523Y016786D01*
X011523D01*
X011522Y016786D01*
X011521Y016786D01*
X01152Y016787D01*
X011516Y016788D01*
X011511Y01679D01*
X011505Y016793D01*
X011499Y016797D01*
X011493Y016802D01*
X011488Y016807D01*
X011488Y016808D01*
X011487Y01681D01*
X011484Y016814D01*
X011482Y016818D01*
X01148Y016824D01*
X011478Y016831D01*
X011476Y016839D01*
X011476Y016848D01*
Y016848D01*
Y016849D01*
Y016851D01*
X011476Y016853D01*
X011477Y016856D01*
X011477Y016859D01*
X011478Y016863D01*
X011479Y016867D01*
X011482Y016876D01*
X011484Y016881D01*
X011486Y016885D01*
X011489Y01689D01*
X011492Y016894D01*
X011496Y016899D01*
X0115Y016903D01*
X011501Y016904D01*
X011501Y016905D01*
X011503Y016906D01*
X011505Y016907D01*
X011507Y016909D01*
X01151Y016911D01*
X011513Y016913D01*
X011517Y016915D01*
X011521Y016917D01*
X011526Y016919D01*
X011531Y016921D01*
X011536Y016923D01*
X011542Y016924D01*
X011548Y016925D01*
X011554Y016926D01*
X011561Y016926D01*
X011564D01*
X011567Y016926D01*
D02*
G37*
G36*
X010777Y01667D02*
X01074D01*
X010637Y016922D01*
X010675D01*
X010705Y016846D01*
X01081D01*
X010837Y016922D01*
X010873D01*
X010777Y01667D01*
D02*
G37*
G36*
X011874Y016926D02*
X011877D01*
X011881Y016926D01*
X011885Y016925D01*
X011895Y016924D01*
X011904Y016922D01*
X011913Y01692D01*
X011923Y016917D01*
X011923D01*
X011924Y016916D01*
X011925Y016916D01*
X011926Y016915D01*
X011931Y016913D01*
X011936Y016909D01*
X011941Y016905D01*
X011948Y0169D01*
X011954Y016894D01*
X011959Y016887D01*
Y016886D01*
X01196Y016886D01*
X01196Y016885D01*
X011961Y016883D01*
X011962Y016881D01*
X011963Y016879D01*
X011966Y016874D01*
X011968Y016867D01*
X01197Y016859D01*
X011972Y01685D01*
X011972Y016841D01*
X011941Y016838D01*
Y016839D01*
Y016839D01*
X011941Y01684D01*
Y016842D01*
X01194Y016845D01*
X011939Y01685D01*
X011938Y016854D01*
X011936Y01686D01*
X011933Y016865D01*
X011931Y01687D01*
X011931Y01687D01*
X011929Y016871D01*
X011928Y016874D01*
X011925Y016877D01*
X011921Y01688D01*
X011917Y016883D01*
X011912Y016886D01*
X011906Y016889D01*
X011905D01*
X011905Y01689D01*
X011904Y01689D01*
X011903Y01689D01*
X011899Y016891D01*
X011895Y016893D01*
X011889Y016894D01*
X011882Y016895D01*
X011875Y016896D01*
X011867Y016897D01*
X011864D01*
X01186Y016896D01*
X011856Y016896D01*
X011851Y016895D01*
X011845Y016894D01*
X011839Y016893D01*
X011833Y016891D01*
X011833Y016891D01*
X011831Y01689D01*
X011828Y016889D01*
X011825Y016887D01*
X011822Y016885D01*
X011818Y016882D01*
X011814Y016879D01*
X011812Y016875D01*
X011811Y016875D01*
X01181Y016874D01*
X011809Y016872D01*
X011808Y016869D01*
X011806Y016866D01*
X011805Y016862D01*
X011805Y016858D01*
X011804Y016854D01*
Y016854D01*
Y016852D01*
X011805Y01685D01*
X011805Y016847D01*
X011806Y016844D01*
X011807Y01684D01*
X011809Y016837D01*
X011812Y016833D01*
X011812Y016833D01*
X011813Y016832D01*
X011814Y01683D01*
X011817Y016828D01*
X01182Y016826D01*
X011824Y016823D01*
X011829Y016821D01*
X011834Y016819D01*
X011834Y016818D01*
X011836Y016818D01*
X011839Y016817D01*
X011841Y016816D01*
X011844Y016816D01*
X011846Y016815D01*
X011849Y016814D01*
X011853Y016813D01*
X011857Y016812D01*
X011862Y016811D01*
X011867Y016809D01*
X011873Y016808D01*
X011879Y016806D01*
X011879D01*
X01188Y016806D01*
X011882Y016806D01*
X011884Y016805D01*
X011887Y016804D01*
X011891Y016803D01*
X011898Y016801D01*
X011906Y016799D01*
X011914Y016796D01*
X011921Y016794D01*
X011925Y016792D01*
X011928Y016791D01*
X011928D01*
X011928Y01679D01*
X011931Y016789D01*
X011934Y016787D01*
X011938Y016784D01*
X011942Y016781D01*
X011946Y016777D01*
X011951Y016772D01*
X011954Y016767D01*
X011955Y016766D01*
X011956Y016764D01*
X011957Y016762D01*
X011959Y016758D01*
X01196Y016753D01*
X011962Y016748D01*
X011963Y016742D01*
X011963Y016736D01*
Y016735D01*
Y016735D01*
Y016734D01*
Y016732D01*
X011962Y016729D01*
X011962Y016724D01*
X01196Y016719D01*
X011959Y016712D01*
X011956Y016706D01*
X011954Y016703D01*
X011958Y016696D01*
Y016696D01*
X011958Y016695D01*
X011959Y016694D01*
X01196Y016691D01*
X011961Y016688D01*
X011962Y016685D01*
X011964Y016681D01*
X011965Y016677D01*
X011966Y016672D01*
X011968Y016667D01*
X011969Y016662D01*
X01197Y016655D01*
X011972Y016643D01*
X011972Y016629D01*
Y016629D01*
Y016627D01*
Y016625D01*
X011972Y016623D01*
Y01662D01*
X011972Y016616D01*
X011971Y016611D01*
X011971Y016607D01*
X011969Y016596D01*
X011966Y016585D01*
X011963Y016573D01*
X011958Y016561D01*
X011957Y016561D01*
X011957Y01656D01*
X011956Y016558D01*
X011955Y016556D01*
X011953Y016553D01*
X011951Y016551D01*
X011946Y016544D01*
X01194Y016536D01*
X011933Y016529D01*
X011924Y016521D01*
X011915Y016514D01*
X011914Y016514D01*
X011913Y016514D01*
X011912Y016513D01*
X011909Y016512D01*
X011907Y016511D01*
X011904Y016509D01*
X0119Y016508D01*
X011896Y016506D01*
X011892Y016505D01*
X011887Y016504D01*
X011876Y016501D01*
X011865Y016499D01*
X011859Y016498D01*
X011849D01*
X011846Y016499D01*
X011843D01*
X01184Y016499D01*
X011835Y0165D01*
X011831Y016501D01*
X011821Y016502D01*
X01181Y016505D01*
X0118Y01651D01*
X011794Y016512D01*
X011789Y016515D01*
X011789Y016516D01*
X011788Y016516D01*
X011786Y016517D01*
X011784Y016518D01*
X011782Y01652D01*
X011779Y016522D01*
X011773Y016527D01*
X011766Y016534D01*
X011759Y016542D01*
X011752Y016551D01*
X011746Y016562D01*
Y016562D01*
X011746Y016563D01*
X011745Y016565D01*
X011744Y016567D01*
X011743Y01657D01*
X011742Y016573D01*
X01174Y016577D01*
X011739Y016581D01*
X011738Y016586D01*
X011736Y016591D01*
X011735Y016597D01*
X011734Y016603D01*
X011732Y016615D01*
X011731Y016629D01*
Y016629D01*
Y01663D01*
Y016632D01*
Y016634D01*
X011732Y016637D01*
Y01664D01*
X011732Y016644D01*
X011733Y016647D01*
X011734Y016656D01*
X011735Y016666D01*
X011738Y016675D01*
X011741Y016685D01*
Y016685D01*
X011741Y016686D01*
X011742Y016687D01*
X011743Y016689D01*
X011744Y016691D01*
X011745Y016694D01*
X011748Y016699D01*
X011752Y016706D01*
X011757Y016714D01*
X011763Y016721D01*
X011769Y016728D01*
X011769D01*
X011768Y016729D01*
X011767Y01673D01*
X011765Y016731D01*
X011764Y016732D01*
X011761Y016734D01*
X011755Y016737D01*
X011749Y016741D01*
X011742Y016745D01*
X011734Y016748D01*
X011727Y016751D01*
X011737Y016774D01*
X011737D01*
X011738Y016774D01*
X011739Y016773D01*
X011741Y016773D01*
X011744Y016771D01*
X011747Y01677D01*
X01175Y016769D01*
X011754Y016767D01*
X011762Y016762D01*
X011771Y016757D01*
X011781Y016751D01*
X011791Y016743D01*
X011791D01*
X011792Y016744D01*
X011794Y016745D01*
X011796Y016746D01*
X011798Y016747D01*
X011801Y016749D01*
X011805Y01675D01*
X011809Y016751D01*
X011813Y016753D01*
X011818Y016754D01*
X011829Y016757D01*
X01184Y016758D01*
X011846Y016759D01*
X011853Y016759D01*
X011856D01*
X011859Y016759D01*
X011861D01*
X011865Y016758D01*
X011869Y016758D01*
X011873Y016757D01*
X011883Y016755D01*
X011893Y016752D01*
X011904Y016748D01*
X011909Y016746D01*
X011915Y016743D01*
X011915Y016742D01*
X011916Y016742D01*
X011917Y016741D01*
X011919Y01674D01*
X011922Y016738D01*
X011924Y016736D01*
X011931Y016731D01*
X011931Y016731D01*
X011931Y016733D01*
Y016734D01*
Y016736D01*
X011931Y016738D01*
X01193Y016741D01*
X011929Y016745D01*
X011927Y016748D01*
X011925Y016752D01*
X011921Y016756D01*
X011921Y016756D01*
X011919Y016757D01*
X011918Y016758D01*
X011916Y016759D01*
X011914Y01676D01*
X011912Y016762D01*
X011908Y016763D01*
X011905Y016764D01*
X011901Y016766D01*
X011896Y016767D01*
X011891Y016769D01*
X011885Y016771D01*
X011879Y016772D01*
X011871Y016774D01*
X011871D01*
X011869Y016774D01*
X011867Y016775D01*
X011865Y016775D01*
X011861Y016776D01*
X011857Y016777D01*
X011853Y016778D01*
X011849Y016779D01*
X01184Y016782D01*
X01183Y016784D01*
X011826Y016786D01*
X011822Y016787D01*
X011818Y016788D01*
X011816Y01679D01*
X011815D01*
X011814Y01679D01*
X011813Y016791D01*
X011812Y016792D01*
X011808Y016794D01*
X011803Y016797D01*
X011798Y016801D01*
X011792Y016805D01*
X011787Y01681D01*
X011783Y016816D01*
X011782Y016816D01*
X011781Y016818D01*
X01178Y016822D01*
X011777Y016826D01*
X011776Y016831D01*
X011774Y016837D01*
X011773Y016844D01*
X011772Y016851D01*
Y016852D01*
Y016852D01*
Y016853D01*
Y016855D01*
X011773Y016859D01*
X011774Y016864D01*
X011775Y01687D01*
X011777Y016876D01*
X01178Y016882D01*
X011784Y016889D01*
Y01689D01*
X011784Y01689D01*
X011786Y016892D01*
X011789Y016895D01*
X011792Y016899D01*
X011797Y016903D01*
X011803Y016908D01*
X011809Y016913D01*
X011817Y016917D01*
X011817D01*
X011818Y016917D01*
X011819Y016917D01*
X011821Y016918D01*
X011823Y016919D01*
X011825Y01692D01*
X011831Y016921D01*
X011838Y016923D01*
X011846Y016925D01*
X011856Y016926D01*
X011865Y016926D01*
X011871D01*
X011874Y016926D01*
D02*
G37*
G36*
X011721Y01667D02*
X011687D01*
Y016922D01*
X011721D01*
Y01667D01*
D02*
G37*
G36*
X011346Y016862D02*
X011456D01*
Y016833D01*
X011341Y01667D01*
X011315D01*
Y016833D01*
X011281D01*
Y016862D01*
X011315D01*
Y016922D01*
X011346D01*
Y016862D01*
D02*
G37*
G36*
X011254Y016922D02*
Y01692D01*
Y016918D01*
X011254Y016915D01*
X011253Y016912D01*
X011252Y016908D01*
X011252Y016905D01*
X01125Y016901D01*
Y0169D01*
X01125Y0169D01*
X011249Y016898D01*
X011248Y016894D01*
X011246Y01689D01*
X011243Y016885D01*
X011239Y016879D01*
X011235Y016873D01*
X01123Y016867D01*
Y016867D01*
X011229Y016866D01*
X011227Y016864D01*
X011224Y016861D01*
X011219Y016856D01*
X011214Y016851D01*
X011207Y016844D01*
X011199Y016837D01*
X011189Y016829D01*
X011189Y016829D01*
X011188Y016828D01*
X011185Y016826D01*
X011183Y016824D01*
X01118Y016821D01*
X011176Y016818D01*
X011172Y016814D01*
X011167Y01681D01*
X011158Y016801D01*
X011149Y016792D01*
X011144Y016788D01*
X01114Y016784D01*
X011137Y01678D01*
X011134Y016776D01*
Y016775D01*
X011133Y016775D01*
X011132Y016774D01*
X011132Y016772D01*
X011129Y016768D01*
X011126Y016764D01*
X011124Y016758D01*
X011121Y016752D01*
X01112Y016745D01*
X011119Y016738D01*
Y016738D01*
Y016738D01*
X011119Y016735D01*
X01112Y016732D01*
X011121Y016728D01*
X011122Y016723D01*
X011125Y016717D01*
X011128Y016712D01*
X011132Y016707D01*
X011133Y016707D01*
X011135Y016705D01*
X011137Y016703D01*
X011141Y016701D01*
X011147Y016699D01*
X011152Y016696D01*
X011159Y016695D01*
X011167Y016695D01*
X011169D01*
X011171Y016695D01*
X011175Y016695D01*
X01118Y016696D01*
X011185Y016698D01*
X011192Y0167D01*
X011197Y016704D01*
X011203Y016708D01*
X011204Y016709D01*
X011205Y016711D01*
X011207Y016713D01*
X011209Y016718D01*
X011212Y016723D01*
X011214Y016729D01*
X011216Y016737D01*
X011216Y016745D01*
X011248Y016742D01*
Y016741D01*
X011248Y01674D01*
Y016739D01*
X011247Y016736D01*
X011247Y016733D01*
X011246Y01673D01*
X011245Y016726D01*
X011244Y016722D01*
X011241Y016713D01*
X011236Y016704D01*
X011234Y0167D01*
X011231Y016696D01*
X011227Y016692D01*
X011224Y016688D01*
X011223Y016688D01*
X011223Y016687D01*
X011222Y016686D01*
X01122Y016685D01*
X011218Y016684D01*
X011215Y016682D01*
X011212Y01668D01*
X011208Y016679D01*
X011204Y016677D01*
X0112Y016675D01*
X011195Y016673D01*
X01119Y016672D01*
X011185Y016671D01*
X011179Y01667D01*
X011173Y016669D01*
X011166Y016669D01*
X011163D01*
X01116Y016669D01*
X011157Y01667D01*
X011153Y01667D01*
X011149Y016671D01*
X011145Y016672D01*
X011136Y016674D01*
X011127Y016678D01*
X011122Y01668D01*
X011117Y016683D01*
X011113Y016686D01*
X011109Y016689D01*
X011108Y01669D01*
X011108Y01669D01*
X011107Y016692D01*
X011105Y016693D01*
X011104Y016695D01*
X011102Y016697D01*
X0111Y0167D01*
X011098Y016703D01*
X011094Y01671D01*
X01109Y016719D01*
X011089Y016723D01*
X011088Y016728D01*
X011088Y016733D01*
X011087Y016739D01*
Y01674D01*
Y016741D01*
X011088Y016744D01*
X011088Y016748D01*
X011089Y016753D01*
X01109Y016758D01*
X011092Y016763D01*
X011094Y016769D01*
X011094Y01677D01*
X011095Y016771D01*
X011096Y016774D01*
X011098Y016778D01*
X011101Y016783D01*
X011105Y016788D01*
X011109Y016794D01*
X011114Y0168D01*
X011115Y0168D01*
X011117Y016803D01*
X011119Y016804D01*
X011121Y016806D01*
X011123Y016808D01*
X011126Y016811D01*
X011129Y016814D01*
X011132Y016818D01*
X011136Y016821D01*
X01114Y016825D01*
X011145Y016829D01*
X01115Y016834D01*
X011156Y016839D01*
X011162Y016844D01*
X011162Y016844D01*
X011163Y016845D01*
X011164Y016846D01*
X011166Y016847D01*
X011168Y01685D01*
X011171Y016852D01*
X011177Y016857D01*
X011183Y016862D01*
X011189Y016867D01*
X011194Y016872D01*
X011196Y016874D01*
X011198Y016876D01*
X011198Y016876D01*
X011199Y016877D01*
X011201Y016879D01*
X011203Y016881D01*
X011204Y016883D01*
X011207Y016886D01*
X011211Y016892D01*
X011087D01*
Y016922D01*
X011254D01*
Y016922D01*
D02*
G37*
G36*
X010978Y016926D02*
X010981Y016926D01*
X010984Y016925D01*
X010988Y016924D01*
X010993Y016923D01*
X010997Y016922D01*
X011002Y01692D01*
X011006Y016918D01*
X011011Y016916D01*
X011016Y016913D01*
X011021Y016909D01*
X011025Y016905D01*
X011029Y016901D01*
X011029Y0169D01*
X01103Y016899D01*
X011031Y016897D01*
X011033Y016894D01*
X011035Y016891D01*
X011037Y016887D01*
X011039Y016882D01*
X011041Y016876D01*
X011044Y016869D01*
X011046Y016862D01*
X011048Y016853D01*
X01105Y016844D01*
X011052Y016834D01*
X011053Y016823D01*
X011053Y016811D01*
X011054Y016798D01*
Y016798D01*
Y016796D01*
Y016794D01*
Y016791D01*
X011053Y016787D01*
Y016782D01*
X011053Y016778D01*
X011053Y016772D01*
X011052Y016761D01*
X01105Y016749D01*
X011048Y016737D01*
X011046Y016731D01*
X011045Y016726D01*
Y016725D01*
X011044Y016725D01*
X011044Y016723D01*
X011043Y016721D01*
X011042Y016719D01*
X011041Y016716D01*
X011038Y01671D01*
X011034Y016704D01*
X011029Y016697D01*
X011024Y01669D01*
X011017Y016684D01*
X011017D01*
X011017Y016683D01*
X011015Y016683D01*
X011014Y016682D01*
X011012Y01668D01*
X01101Y016679D01*
X011005Y016676D01*
X010998Y016674D01*
X01099Y016671D01*
X010981Y01667D01*
X010971Y016669D01*
X010968D01*
X010964Y016669D01*
X010959Y01667D01*
X010954Y016671D01*
X010948Y016673D01*
X010942Y016675D01*
X010936Y016677D01*
X010936D01*
X010935Y016678D01*
X010934Y016679D01*
X010931Y016681D01*
X010927Y016683D01*
X010923Y016687D01*
X010919Y016691D01*
X010915Y016696D01*
X010911Y016701D01*
X01091Y016702D01*
X010909Y016704D01*
X010907Y016707D01*
X010905Y016712D01*
X010903Y016717D01*
X0109Y016723D01*
X010897Y016731D01*
X010895Y016739D01*
Y016739D01*
X010895Y01674D01*
X010894Y016741D01*
X010894Y016743D01*
X010894Y016745D01*
X010893Y016747D01*
X010892Y016751D01*
X010892Y016754D01*
X010891Y016758D01*
X010891Y016763D01*
X010891Y016768D01*
X01089Y016773D01*
X01089Y016779D01*
Y016784D01*
X010889Y016791D01*
Y016798D01*
Y016798D01*
Y0168D01*
Y016802D01*
Y016805D01*
X01089Y016809D01*
Y016814D01*
X01089Y016818D01*
X01089Y016823D01*
X010891Y016835D01*
X010893Y016847D01*
X010895Y016859D01*
X010897Y016864D01*
X010899Y01687D01*
Y01687D01*
X010899Y016871D01*
X0109Y016872D01*
X0109Y016874D01*
X010901Y016877D01*
X010903Y016879D01*
X010906Y016885D01*
X010909Y016892D01*
X010914Y016899D01*
X010919Y016906D01*
X010926Y016912D01*
X010926D01*
X010927Y016913D01*
X010928Y016913D01*
X010929Y016914D01*
X010931Y016915D01*
X010933Y016917D01*
X010938Y016919D01*
X010945Y016922D01*
X010953Y016924D01*
X010962Y016926D01*
X010971Y016926D01*
X010975D01*
X010978Y016926D01*
D02*
G37*
G36*
X029627Y018222D02*
X02963D01*
X029634Y018222D01*
X029639Y018221D01*
X029643Y018221D01*
X029654Y018219D01*
X029665Y018216D01*
X029677Y018213D01*
X029689Y018208D01*
X029689Y018207D01*
X02969Y018207D01*
X029692Y018206D01*
X029694Y018205D01*
X029697Y018203D01*
X029699Y018201D01*
X029706Y018196D01*
X029714Y01819D01*
X029721Y018183D01*
X029729Y018174D01*
X029736Y018165D01*
X029736Y018164D01*
X029736Y018163D01*
X029737Y018162D01*
X029738Y018159D01*
X029739Y018157D01*
X029741Y018154D01*
X029742Y01815D01*
X029744Y018146D01*
X029745Y018142D01*
X029746Y018137D01*
X029749Y018126D01*
X029751Y018115D01*
X029752Y018109D01*
Y018099D01*
X029751Y018096D01*
Y018093D01*
X029751Y01809D01*
X02975Y018085D01*
X029749Y018081D01*
X029748Y018071D01*
X029745Y01806D01*
X02974Y01805D01*
X029738Y018044D01*
X029735Y018039D01*
X029734Y018039D01*
X029734Y018038D01*
X029733Y018036D01*
X029732Y018034D01*
X02973Y018032D01*
X029728Y018029D01*
X029723Y018023D01*
X029716Y018016D01*
X029708Y018009D01*
X029699Y018002D01*
X029688Y017996D01*
X029688D01*
X029687Y017996D01*
X029685Y017995D01*
X029683Y017994D01*
X02968Y017993D01*
X029677Y017992D01*
X029673Y01799D01*
X029669Y017989D01*
X029664Y017988D01*
X029659Y017986D01*
X029653Y017985D01*
X029647Y017984D01*
X029635Y017982D01*
X029621Y017981D01*
X029621D01*
X02962D01*
X029618D01*
X029616D01*
X029613Y017982D01*
X02961D01*
X029606Y017982D01*
X029603Y017983D01*
X029594Y017984D01*
X029584Y017985D01*
X029575Y017988D01*
X029565Y017991D01*
X029565D01*
X029564Y017991D01*
X029563Y017992D01*
X029561Y017993D01*
X029559Y017994D01*
X029556Y017995D01*
X029551Y017998D01*
X029544Y018002D01*
X029536Y018007D01*
X029529Y018013D01*
X029522Y018019D01*
Y018019D01*
X029521Y018018D01*
X02952Y018017D01*
X029519Y018015D01*
X029518Y018014D01*
X029516Y018011D01*
X029513Y018005D01*
X029509Y017999D01*
X029505Y017992D01*
X029502Y017984D01*
X029499Y017977D01*
X029476Y017987D01*
Y017987D01*
X029476Y017988D01*
X029477Y017989D01*
X029477Y017991D01*
X029479Y017994D01*
X02948Y017997D01*
X029481Y018D01*
X029483Y018004D01*
X029488Y018012D01*
X029493Y018021D01*
X029499Y018031D01*
X029507Y018041D01*
Y018041D01*
X029506Y018042D01*
X029505Y018044D01*
X029504Y018046D01*
X029503Y018048D01*
X029501Y018051D01*
X0295Y018055D01*
X029499Y018059D01*
X029497Y018063D01*
X029496Y018068D01*
X029493Y018079D01*
X029492Y01809D01*
X029491Y018096D01*
X029491Y018103D01*
Y018106D01*
X029491Y018109D01*
Y018111D01*
X029492Y018115D01*
X029492Y018119D01*
X029493Y018123D01*
X029495Y018133D01*
X029498Y018143D01*
X029502Y018154D01*
X029504Y018159D01*
X029507Y018165D01*
X029508Y018165D01*
X029508Y018166D01*
X029509Y018167D01*
X02951Y018169D01*
X029512Y018172D01*
X029514Y018174D01*
X029519Y018181D01*
X029519Y018181D01*
X029517Y018181D01*
X029516D01*
X029514D01*
X029512Y018181D01*
X029509Y01818D01*
X029505Y018179D01*
X029502Y018177D01*
X029498Y018175D01*
X029494Y018171D01*
X029494Y018171D01*
X029493Y018169D01*
X029492Y018168D01*
X029491Y018166D01*
X02949Y018164D01*
X029488Y018162D01*
X029487Y018158D01*
X029486Y018155D01*
X029484Y018151D01*
X029483Y018146D01*
X029481Y018141D01*
X029479Y018135D01*
X029478Y018129D01*
X029476Y018121D01*
Y018121D01*
X029476Y018119D01*
X029475Y018117D01*
X029475Y018115D01*
X029474Y018111D01*
X029473Y018107D01*
X029472Y018103D01*
X029471Y018099D01*
X029468Y01809D01*
X029466Y01808D01*
X029464Y018076D01*
X029463Y018072D01*
X029462Y018068D01*
X02946Y018066D01*
Y018065D01*
X02946Y018064D01*
X029459Y018063D01*
X029458Y018062D01*
X029456Y018058D01*
X029453Y018053D01*
X029449Y018048D01*
X029445Y018042D01*
X02944Y018037D01*
X029434Y018033D01*
X029434Y018032D01*
X029432Y018031D01*
X029428Y01803D01*
X029424Y018027D01*
X029419Y018026D01*
X029413Y018024D01*
X029406Y018023D01*
X029399Y018022D01*
X029398D01*
X029398D01*
X029397D01*
X029395D01*
X029391Y018023D01*
X029386Y018024D01*
X02938Y018025D01*
X029374Y018027D01*
X029368Y01803D01*
X029361Y018034D01*
X02936D01*
X02936Y018034D01*
X029358Y018036D01*
X029355Y018039D01*
X029351Y018042D01*
X029347Y018047D01*
X029342Y018053D01*
X029337Y018059D01*
X029333Y018067D01*
Y018067D01*
X029333Y018068D01*
X029333Y018069D01*
X029332Y018071D01*
X029331Y018073D01*
X02933Y018075D01*
X029329Y018081D01*
X029327Y018088D01*
X029325Y018096D01*
X029324Y018106D01*
X029324Y018115D01*
Y018121D01*
X029324Y018124D01*
Y018127D01*
X029324Y018131D01*
X029325Y018135D01*
X029326Y018145D01*
X029328Y018154D01*
X02933Y018163D01*
X029333Y018173D01*
Y018173D01*
X029334Y018174D01*
X029334Y018175D01*
X029335Y018176D01*
X029337Y018181D01*
X029341Y018186D01*
X029345Y018191D01*
X02935Y018198D01*
X029356Y018204D01*
X029363Y018209D01*
X029364D01*
X029364Y01821D01*
X029365Y01821D01*
X029367Y018211D01*
X029369Y018212D01*
X029371Y018213D01*
X029376Y018216D01*
X029383Y018218D01*
X029391Y01822D01*
X0294Y018222D01*
X029409Y018222D01*
X029412Y018191D01*
X029411D01*
X029411D01*
X02941Y018191D01*
X029408D01*
X029405Y01819D01*
X0294Y018189D01*
X029396Y018188D01*
X02939Y018186D01*
X029385Y018183D01*
X02938Y018181D01*
X02938Y018181D01*
X029379Y018179D01*
X029376Y018178D01*
X029373Y018175D01*
X02937Y018171D01*
X029367Y018167D01*
X029364Y018162D01*
X029361Y018156D01*
Y018155D01*
X02936Y018155D01*
X02936Y018154D01*
X02936Y018153D01*
X029359Y018149D01*
X029357Y018145D01*
X029356Y018139D01*
X029355Y018132D01*
X029354Y018125D01*
X029353Y018117D01*
Y018114D01*
X029354Y01811D01*
X029354Y018106D01*
X029355Y018101D01*
X029356Y018095D01*
X029357Y018089D01*
X029359Y018083D01*
X029359Y018083D01*
X02936Y018081D01*
X029361Y018078D01*
X029363Y018075D01*
X029365Y018072D01*
X029368Y018068D01*
X029371Y018064D01*
X029375Y018062D01*
X029375Y018061D01*
X029376Y01806D01*
X029378Y018059D01*
X029381Y018058D01*
X029384Y018056D01*
X029388Y018055D01*
X029392Y018055D01*
X029396Y018054D01*
X029396D01*
X029398D01*
X0294Y018055D01*
X029403Y018055D01*
X029406Y018056D01*
X02941Y018057D01*
X029413Y018059D01*
X029417Y018062D01*
X029417Y018062D01*
X029418Y018063D01*
X02942Y018064D01*
X029422Y018067D01*
X029424Y01807D01*
X029427Y018074D01*
X029429Y018079D01*
X029431Y018084D01*
X029432Y018084D01*
X029432Y018086D01*
X029433Y018089D01*
X029434Y018091D01*
X029434Y018094D01*
X029435Y018096D01*
X029436Y018099D01*
X029437Y018103D01*
X029438Y018107D01*
X029439Y018112D01*
X029441Y018117D01*
X029442Y018123D01*
X029444Y018129D01*
Y018129D01*
X029444Y01813D01*
X029444Y018132D01*
X029445Y018134D01*
X029446Y018137D01*
X029447Y018141D01*
X029449Y018148D01*
X029451Y018156D01*
X029454Y018164D01*
X029456Y018171D01*
X029458Y018175D01*
X029459Y018178D01*
Y018178D01*
X02946Y018178D01*
X029461Y018181D01*
X029463Y018184D01*
X029466Y018188D01*
X029469Y018192D01*
X029473Y018196D01*
X029478Y018201D01*
X029483Y018204D01*
X029484Y018205D01*
X029486Y018206D01*
X029488Y018207D01*
X029492Y018209D01*
X029497Y01821D01*
X029502Y018212D01*
X029508Y018213D01*
X029514Y018213D01*
X029515D01*
X029515D01*
X029516D01*
X029518D01*
X029521Y018212D01*
X029526Y018212D01*
X029531Y01821D01*
X029538Y018209D01*
X029544Y018206D01*
X029547Y018204D01*
X029554Y018208D01*
X029554D01*
X029555Y018208D01*
X029556Y018209D01*
X029559Y01821D01*
X029562Y018211D01*
X029565Y018212D01*
X029569Y018214D01*
X029573Y018215D01*
X029578Y018216D01*
X029583Y018218D01*
X029588Y018219D01*
X029595Y01822D01*
X029607Y018222D01*
X029621Y018222D01*
X029621D01*
X029623D01*
X029625D01*
X029627Y018222D01*
D02*
G37*
G36*
X029404Y017989D02*
X029407D01*
X029409Y017989D01*
X029415Y017988D01*
X029422Y017987D01*
X029428Y017984D01*
X029435Y017981D01*
X029442Y017977D01*
X029442D01*
X029442Y017976D01*
X029444Y017975D01*
X029447Y017972D01*
X029451Y017968D01*
X029454Y017963D01*
X029458Y017957D01*
X029462Y01795D01*
X029464Y017941D01*
Y017942D01*
X029464Y017942D01*
X029465Y017943D01*
X029466Y017945D01*
X029467Y017948D01*
X029469Y017952D01*
X029472Y017957D01*
X029476Y017962D01*
X02948Y017966D01*
X029484Y01797D01*
X029485Y017971D01*
X029486Y017972D01*
X029489Y017973D01*
X029493Y017975D01*
X029498Y017976D01*
X029503Y017978D01*
X029509Y017979D01*
X029516Y017979D01*
X029516D01*
X029517D01*
X029518D01*
X029521Y017979D01*
X029523Y017979D01*
X029526Y017978D01*
X029532Y017977D01*
X029539Y017975D01*
X029547Y017971D01*
X029551Y017969D01*
X029555Y017966D01*
X029558Y017963D01*
X029562Y01796D01*
X029562Y017959D01*
X029563Y017959D01*
X029564Y017957D01*
X029565Y017956D01*
X029566Y017954D01*
X029568Y017952D01*
X02957Y017949D01*
X029571Y017946D01*
X029573Y017942D01*
X029575Y017938D01*
X029577Y017934D01*
X029578Y017929D01*
X02958Y017919D01*
X029581Y017913D01*
X029581Y017907D01*
Y017904D01*
X029581Y017902D01*
X02958Y017899D01*
X02958Y017896D01*
X029579Y017892D01*
X029578Y017888D01*
X029576Y01788D01*
X029573Y017871D01*
X029571Y017866D01*
X029568Y017862D01*
X029565Y017858D01*
X029562Y017854D01*
X029561Y017854D01*
X029561Y017853D01*
X02956Y017852D01*
X029558Y017851D01*
X029556Y017849D01*
X029554Y017848D01*
X029549Y017844D01*
X029542Y01784D01*
X029534Y017837D01*
X029528Y017836D01*
X029531Y017832D01*
X029532Y017831D01*
X029534Y01783D01*
X029537Y017828D01*
X029542Y017825D01*
X029547Y017822D01*
X029554Y017819D01*
X029561Y017818D01*
X029569Y017817D01*
X029569D01*
X02957D01*
X029571D01*
X029572Y017817D01*
X029576Y017818D01*
X029581Y017819D01*
X029587Y01782D01*
X029593Y017823D01*
X029599Y017826D01*
X029604Y017831D01*
X029605Y017832D01*
X029606Y017834D01*
X029608Y017837D01*
X029611Y017841D01*
X029614Y017846D01*
X029616Y017852D01*
X029617Y017859D01*
X029618Y017866D01*
Y01787D01*
X029618Y017872D01*
X029617Y017876D01*
X029616Y017879D01*
X029616Y017884D01*
X029615Y017888D01*
X029642Y017885D01*
Y017883D01*
X029642Y017881D01*
Y017877D01*
X029642Y017873D01*
X029643Y017868D01*
X029644Y017862D01*
X029646Y017856D01*
X029649Y01785D01*
X029652Y017844D01*
Y017844D01*
X029652Y017844D01*
X029654Y017842D01*
X029656Y017839D01*
X029659Y017836D01*
X029664Y017833D01*
X02967Y017831D01*
X029676Y017829D01*
X029679Y017828D01*
X029683D01*
X029684D01*
X029684D01*
X029686D01*
X029689Y017829D01*
X029693Y01783D01*
X029698Y017831D01*
X029702Y017833D01*
X029707Y017836D01*
X029711Y01784D01*
X029712Y01784D01*
X029713Y017842D01*
X029715Y017845D01*
X029717Y017848D01*
X029719Y017852D01*
X029721Y017857D01*
X029722Y017863D01*
X029723Y01787D01*
Y017873D01*
X029722Y017876D01*
X029721Y01788D01*
X02972Y017885D01*
X029718Y01789D01*
X029715Y017895D01*
X029711Y0179D01*
X029711Y0179D01*
X029709Y017901D01*
X029707Y017904D01*
X029703Y017906D01*
X029698Y017909D01*
X029693Y017911D01*
X029686Y017913D01*
X029678Y017915D01*
X029683Y017946D01*
X029683D01*
X029685Y017945D01*
X029686Y017945D01*
X029688Y017945D01*
X029691Y017944D01*
X029694Y017943D01*
X029701Y017941D01*
X029709Y017937D01*
X029717Y017933D01*
X029724Y017927D01*
X029731Y01792D01*
X029732Y01792D01*
X029732Y017919D01*
X029733Y017918D01*
X029734Y017917D01*
X029735Y017915D01*
X029737Y017912D01*
X029738Y01791D01*
X02974Y017906D01*
X029743Y017899D01*
X029746Y017891D01*
X029748Y017881D01*
X029748Y017876D01*
Y017867D01*
X029748Y017863D01*
X029747Y017858D01*
X029746Y017852D01*
X029744Y017846D01*
X029742Y017839D01*
X029739Y017833D01*
Y017832D01*
X029739Y017832D01*
X029738Y01783D01*
X029736Y017826D01*
X029733Y017823D01*
X029729Y017818D01*
X029725Y017814D01*
X029721Y01781D01*
X029715Y017806D01*
X029714Y017806D01*
X029713Y017805D01*
X029709Y017803D01*
X029705Y017801D01*
X029701Y017799D01*
X029695Y017798D01*
X029689Y017797D01*
X029683Y017797D01*
X029682D01*
X02968D01*
X029677Y017797D01*
X029673Y017798D01*
X029668Y017799D01*
X029663Y017801D01*
X029658Y017803D01*
X029653Y017806D01*
X029652Y017806D01*
X029651Y017807D01*
X029648Y017809D01*
X029645Y017812D01*
X029642Y017816D01*
X029638Y01782D01*
X029635Y017825D01*
X029632Y017831D01*
Y017831D01*
X029631Y01783D01*
X029631Y017829D01*
X029631Y017828D01*
X029629Y017824D01*
X029627Y017819D01*
X029624Y017813D01*
X02962Y017807D01*
X029616Y017802D01*
X02961Y017797D01*
X02961Y017796D01*
X029607Y017795D01*
X029604Y017793D01*
X029599Y01779D01*
X029593Y017788D01*
X029586Y017786D01*
X029578Y017785D01*
X02957Y017784D01*
X029569D01*
X029568D01*
X029566D01*
X029564Y017785D01*
X029561Y017785D01*
X029558Y017786D01*
X029554Y017786D01*
X02955Y017787D01*
X029541Y01779D01*
X029537Y017792D01*
X029532Y017794D01*
X029528Y017797D01*
X029523Y017801D01*
X029518Y017804D01*
X029514Y017809D01*
X029513Y017809D01*
X029513Y01781D01*
X029512Y017811D01*
X02951Y017813D01*
X029508Y017815D01*
X029507Y017818D01*
X029504Y017821D01*
X029503Y017825D01*
X0295Y017829D01*
X029498Y017834D01*
X029497Y017837D01*
X029494Y017838D01*
X029489Y01784D01*
X029484Y017843D01*
X029483Y017844D01*
X029482Y017845D01*
X02948Y017847D01*
X029477Y01785D01*
X029474Y017854D01*
X02947Y017859D01*
X029467Y017864D01*
X029464Y017871D01*
Y01787D01*
X029464Y01787D01*
X029463Y017869D01*
X029463Y017867D01*
X029461Y017863D01*
X029458Y017858D01*
X029455Y017852D01*
X029451Y017846D01*
X029446Y017841D01*
X02944Y017836D01*
X029439D01*
X029439Y017836D01*
X029437Y017834D01*
X029433Y017832D01*
X029428Y01783D01*
X029423Y017828D01*
X029416Y017825D01*
X029408Y017824D01*
X0294Y017823D01*
X029399D01*
X029398D01*
X029396D01*
X029394Y017824D01*
X029392Y017824D01*
X029388Y017825D01*
X029385Y017825D01*
X029381Y017826D01*
X029372Y017829D01*
X029368Y017831D01*
X029363Y017833D01*
X029359Y017836D01*
X029354Y017839D01*
X02935Y017842D01*
X029345Y017846D01*
X029345Y017847D01*
X029344Y017848D01*
X029343Y017849D01*
X029342Y01785D01*
X02934Y017853D01*
X029339Y017856D01*
X029337Y017859D01*
X029334Y017862D01*
X029332Y017866D01*
X02933Y017871D01*
X029329Y017876D01*
X029327Y017881D01*
X029326Y017887D01*
X029325Y017893D01*
X029324Y0179D01*
X029324Y017906D01*
Y01791D01*
X029324Y017913D01*
X029324Y017916D01*
X029325Y01792D01*
X029325Y017924D01*
X029327Y017928D01*
X029329Y017938D01*
X029331Y017943D01*
X029333Y017948D01*
X029335Y017953D01*
X029338Y017958D01*
X029341Y017963D01*
X029345Y017967D01*
X029346Y017967D01*
X029347Y017968D01*
X029348Y017969D01*
X029349Y017971D01*
X029352Y017972D01*
X029354Y017974D01*
X029357Y017976D01*
X029361Y017978D01*
X029364Y01798D01*
X029369Y017982D01*
X029378Y017986D01*
X029383Y017987D01*
X029389Y017988D01*
X029395Y017989D01*
X0294Y017989D01*
X029401D01*
X029401D01*
X029403D01*
X029404Y017989D01*
D02*
G37*
G36*
X029463Y017793D02*
X029468D01*
X029472Y017793D01*
X029478Y017792D01*
X029489Y017791D01*
X029501Y017789D01*
X029513Y017787D01*
X029519Y017786D01*
X029524Y017784D01*
X029525D01*
X029525Y017784D01*
X029527Y017783D01*
X029529Y017782D01*
X029531Y017782D01*
X029534Y01778D01*
X02954Y017777D01*
X029546Y017774D01*
X029553Y017769D01*
X02956Y017763D01*
X029566Y017757D01*
Y017757D01*
X029567Y017756D01*
X029567Y017755D01*
X029568Y017754D01*
X02957Y017752D01*
X029571Y01775D01*
X029574Y017744D01*
X029576Y017738D01*
X029579Y01773D01*
X02958Y017721D01*
X029581Y017711D01*
Y017708D01*
X029581Y017704D01*
X02958Y017699D01*
X029579Y017694D01*
X029577Y017688D01*
X029575Y017682D01*
X029573Y017676D01*
Y017675D01*
X029572Y017675D01*
X029571Y017673D01*
X029569Y01767D01*
X029567Y017667D01*
X029563Y017663D01*
X029559Y017658D01*
X029554Y017654D01*
X029549Y01765D01*
X029548Y01765D01*
X029546Y017648D01*
X029543Y017647D01*
X029538Y017644D01*
X029533Y017642D01*
X029527Y017639D01*
X029519Y017637D01*
X029511Y017635D01*
X029511D01*
X02951Y017634D01*
X029509Y017634D01*
X029507Y017633D01*
X029505Y017633D01*
X029503Y017633D01*
X029499Y017632D01*
X029496Y017632D01*
X029492Y017631D01*
X029487Y017631D01*
X029482Y01763D01*
X029477Y017629D01*
X029471Y017629D01*
X029466D01*
X029459Y017629D01*
X029452D01*
X029452D01*
X02945D01*
X029448D01*
X029445D01*
X029441Y017629D01*
X029436D01*
X029432Y017629D01*
X029427Y01763D01*
X029415Y017631D01*
X029403Y017633D01*
X029391Y017635D01*
X029386Y017636D01*
X02938Y017638D01*
X02938D01*
X029379Y017639D01*
X029378Y017639D01*
X029376Y01764D01*
X029373Y017641D01*
X029371Y017642D01*
X029365Y017645D01*
X029358Y017649D01*
X029351Y017654D01*
X029344Y017659D01*
X029338Y017666D01*
Y017666D01*
X029337Y017666D01*
X029337Y017667D01*
X029336Y017669D01*
X029335Y017671D01*
X029333Y017672D01*
X029331Y017678D01*
X029328Y017684D01*
X029326Y017692D01*
X029324Y017701D01*
X029324Y017711D01*
Y017715D01*
X029324Y017717D01*
X029324Y01772D01*
X029325Y017724D01*
X029326Y017728D01*
X029327Y017732D01*
X029328Y017737D01*
X02933Y017741D01*
X029332Y017746D01*
X029334Y017751D01*
X029337Y017755D01*
X029341Y01776D01*
X029345Y017765D01*
X029349Y017769D01*
X02935Y017769D01*
X029351Y01777D01*
X029353Y017771D01*
X029356Y017773D01*
X029359Y017774D01*
X029363Y017776D01*
X029368Y017779D01*
X029374Y017781D01*
X029381Y017783D01*
X029388Y017785D01*
X029397Y017787D01*
X029406Y017789D01*
X029416Y017791D01*
X029427Y017792D01*
X029439Y017793D01*
X029452Y017793D01*
X029452D01*
X029454D01*
X029456D01*
X029459D01*
X029463Y017793D01*
D02*
G37*
G36*
X029396Y017565D02*
X029396D01*
X029395D01*
X029394Y017565D01*
X029392Y017564D01*
X029388Y017563D01*
X029383Y017562D01*
X029377Y01756D01*
X029371Y017557D01*
X029366Y017553D01*
X029361Y017549D01*
X02936Y017548D01*
X029359Y017546D01*
X029357Y017544D01*
X029355Y01754D01*
X029353Y017535D01*
X029351Y01753D01*
X029349Y017524D01*
X029349Y017517D01*
Y017514D01*
X029349Y017513D01*
X02935Y017509D01*
X029351Y017504D01*
X029353Y017497D01*
X029356Y017491D01*
X02936Y017485D01*
X029363Y017482D01*
X029366Y017479D01*
X029366Y017478D01*
X029367Y017478D01*
X029368Y017477D01*
X029369Y017476D01*
X029373Y017474D01*
X029378Y017471D01*
X029384Y017468D01*
X029392Y017466D01*
X029401Y017464D01*
X029405Y017463D01*
X029411D01*
X029411D01*
X029412D01*
X029413D01*
X029415Y017464D01*
X029417D01*
X02942Y017464D01*
X029425Y017465D01*
X029432Y017467D01*
X029439Y017469D01*
X029446Y017473D01*
X029452Y017478D01*
X029452D01*
X029453Y017479D01*
X029455Y017481D01*
X029457Y017484D01*
X02946Y017488D01*
X029463Y017494D01*
X029465Y017501D01*
X029467Y017508D01*
X029468Y017513D01*
Y01752D01*
X029467Y017522D01*
X029467Y017526D01*
X029466Y01753D01*
X029465Y017535D01*
X029463Y01754D01*
X029461Y017544D01*
X02946Y017545D01*
X02946Y017546D01*
X029458Y017548D01*
X029456Y017551D01*
X029454Y017554D01*
X02945Y017557D01*
X029447Y01756D01*
X029443Y017563D01*
X029447Y017592D01*
X029577Y017568D01*
Y017442D01*
X029547D01*
Y017543D01*
X029479Y017557D01*
X029479Y017556D01*
X02948Y017556D01*
X02948Y017555D01*
X029482Y017553D01*
X029483Y01755D01*
X029484Y017548D01*
X029487Y017542D01*
X02949Y017535D01*
X029492Y017527D01*
X029494Y017518D01*
X029495Y017514D01*
Y017506D01*
X029495Y017504D01*
X029494Y017501D01*
X029494Y017497D01*
X029493Y017494D01*
X029492Y01749D01*
X02949Y017481D01*
X029488Y017476D01*
X029485Y017472D01*
X029483Y017467D01*
X02948Y017462D01*
X029476Y017458D01*
X029472Y017453D01*
X029472Y017453D01*
X029471Y017452D01*
X02947Y017451D01*
X029468Y01745D01*
X029466Y017448D01*
X029463Y017446D01*
X02946Y017444D01*
X029456Y017442D01*
X029452Y01744D01*
X029448Y017438D01*
X029443Y017436D01*
X029438Y017434D01*
X029432Y017433D01*
X029426Y017431D01*
X02942Y017431D01*
X029413Y01743D01*
X029413D01*
X029412D01*
X02941D01*
X029407Y017431D01*
X029404Y017431D01*
X029401Y017431D01*
X029397Y017432D01*
X029393Y017433D01*
X029384Y017435D01*
X029374Y017439D01*
X029369Y017441D01*
X029364Y017444D01*
X029359Y017447D01*
X029354Y01745D01*
X029354Y017451D01*
X029353Y017451D01*
X029351Y017453D01*
X029349Y017455D01*
X029347Y017457D01*
X029344Y01746D01*
X029342Y017464D01*
X029339Y017468D01*
X029336Y017472D01*
X029333Y017477D01*
X029331Y017483D01*
X029328Y017489D01*
X029327Y017495D01*
X029325Y017502D01*
X029324Y017509D01*
X029324Y017517D01*
Y01752D01*
X029324Y017522D01*
X029324Y017525D01*
X029325Y017529D01*
X029325Y017533D01*
X029326Y017537D01*
X029328Y017546D01*
X029332Y017555D01*
X029334Y01756D01*
X029336Y017564D01*
X029339Y017569D01*
X029343Y017573D01*
X029343Y017573D01*
X029343Y017574D01*
X029345Y017575D01*
X029346Y017576D01*
X029348Y017578D01*
X02935Y01758D01*
X029353Y017582D01*
X029356Y017584D01*
X02936Y017586D01*
X029364Y017588D01*
X029372Y017592D01*
X029383Y017596D01*
X029388Y017597D01*
X029394Y017597D01*
X029396Y017565D01*
D02*
G37*
G36*
X029463Y017401D02*
X029468D01*
X029472Y017401D01*
X029478Y017401D01*
X029489Y017399D01*
X029501Y017398D01*
X029513Y017395D01*
X029519Y017394D01*
X029524Y017393D01*
X029525D01*
X029525Y017392D01*
X029527Y017391D01*
X029529Y017391D01*
X029531Y01739D01*
X029534Y017389D01*
X02954Y017386D01*
X029546Y017382D01*
X029553Y017377D01*
X02956Y017372D01*
X029566Y017365D01*
Y017365D01*
X029567Y017364D01*
X029567Y017363D01*
X029568Y017362D01*
X02957Y01736D01*
X029571Y017358D01*
X029574Y017352D01*
X029576Y017346D01*
X029579Y017338D01*
X02958Y017329D01*
X029581Y017319D01*
Y017316D01*
X029581Y017312D01*
X02958Y017307D01*
X029579Y017302D01*
X029577Y017296D01*
X029575Y01729D01*
X029573Y017284D01*
Y017284D01*
X029572Y017283D01*
X029571Y017282D01*
X029569Y017279D01*
X029567Y017275D01*
X029563Y017271D01*
X029559Y017267D01*
X029554Y017263D01*
X029549Y017259D01*
X029548Y017258D01*
X029546Y017257D01*
X029543Y017255D01*
X029538Y017253D01*
X029533Y017251D01*
X029527Y017248D01*
X029519Y017245D01*
X029511Y017243D01*
X029511D01*
X02951Y017243D01*
X029509Y017242D01*
X029507Y017242D01*
X029505Y017241D01*
X029503Y017241D01*
X029499Y01724D01*
X029496Y01724D01*
X029492Y017239D01*
X029487Y017239D01*
X029482Y017239D01*
X029477Y017238D01*
X029471Y017237D01*
X029466D01*
X029459Y017237D01*
X029452D01*
X029452D01*
X02945D01*
X029448D01*
X029445D01*
X029441Y017237D01*
X029436D01*
X029432Y017238D01*
X029427Y017238D01*
X029415Y017239D01*
X029403Y017241D01*
X029391Y017243D01*
X029386Y017245D01*
X02938Y017247D01*
X02938D01*
X029379Y017247D01*
X029378Y017248D01*
X029376Y017248D01*
X029373Y017249D01*
X029371Y017251D01*
X029365Y017253D01*
X029358Y017257D01*
X029351Y017262D01*
X029344Y017267D01*
X029338Y017274D01*
Y017274D01*
X029337Y017275D01*
X029337Y017276D01*
X029336Y017277D01*
X029335Y017279D01*
X029333Y017281D01*
X029331Y017286D01*
X029328Y017293D01*
X029326Y0173D01*
X029324Y01731D01*
X029324Y017319D01*
Y017323D01*
X029324Y017326D01*
X029324Y017328D01*
X029325Y017332D01*
X029326Y017336D01*
X029327Y01734D01*
X029328Y017345D01*
X02933Y01735D01*
X029332Y017354D01*
X029334Y017359D01*
X029337Y017364D01*
X029341Y017369D01*
X029345Y017373D01*
X029349Y017377D01*
X02935Y017377D01*
X029351Y017378D01*
X029353Y017379D01*
X029356Y017381D01*
X029359Y017383D01*
X029363Y017385D01*
X029368Y017387D01*
X029374Y017389D01*
X029381Y017391D01*
X029388Y017394D01*
X029397Y017396D01*
X029406Y017398D01*
X029416Y017399D01*
X029427Y017401D01*
X029439Y017401D01*
X029452Y017402D01*
X029452D01*
X029454D01*
X029456D01*
X029459D01*
X029463Y017401D01*
D02*
G37*
G36*
X029677Y016822D02*
X02968D01*
X029684Y016822D01*
X029689Y016821D01*
X029693Y016821D01*
X029704Y016819D01*
X029715Y016816D01*
X029727Y016813D01*
X029739Y016808D01*
X029739Y016807D01*
X02974Y016807D01*
X029742Y016806D01*
X029744Y016805D01*
X029747Y016803D01*
X029749Y016801D01*
X029756Y016796D01*
X029764Y01679D01*
X029771Y016783D01*
X029779Y016774D01*
X029786Y016765D01*
X029786Y016764D01*
X029786Y016763D01*
X029787Y016762D01*
X029788Y016759D01*
X029789Y016757D01*
X029791Y016754D01*
X029792Y01675D01*
X029794Y016746D01*
X029795Y016742D01*
X029796Y016737D01*
X029799Y016726D01*
X029801Y016715D01*
X029802Y016709D01*
Y016699D01*
X029801Y016696D01*
Y016693D01*
X029801Y01669D01*
X0298Y016685D01*
X029799Y016681D01*
X029798Y016671D01*
X029795Y01666D01*
X02979Y01665D01*
X029788Y016644D01*
X029785Y016639D01*
X029784Y016639D01*
X029784Y016638D01*
X029783Y016636D01*
X029782Y016634D01*
X02978Y016632D01*
X029778Y016629D01*
X029773Y016623D01*
X029766Y016616D01*
X029758Y016609D01*
X029749Y016602D01*
X029738Y016596D01*
X029738D01*
X029737Y016596D01*
X029735Y016595D01*
X029733Y016594D01*
X02973Y016593D01*
X029727Y016592D01*
X029723Y01659D01*
X029719Y016589D01*
X029714Y016588D01*
X029709Y016586D01*
X029703Y016585D01*
X029697Y016584D01*
X029685Y016582D01*
X029671Y016581D01*
X029671D01*
X02967D01*
X029668D01*
X029666D01*
X029663Y016582D01*
X02966D01*
X029656Y016582D01*
X029653Y016583D01*
X029644Y016584D01*
X029634Y016585D01*
X029625Y016588D01*
X029615Y016591D01*
X029615D01*
X029614Y016591D01*
X029613Y016592D01*
X029611Y016593D01*
X029609Y016594D01*
X029606Y016595D01*
X029601Y016598D01*
X029594Y016602D01*
X029586Y016607D01*
X029579Y016613D01*
X029572Y016619D01*
Y016619D01*
X029571Y016618D01*
X02957Y016617D01*
X029569Y016615D01*
X029568Y016614D01*
X029566Y016611D01*
X029563Y016605D01*
X029559Y016599D01*
X029555Y016592D01*
X029552Y016584D01*
X029549Y016577D01*
X029526Y016587D01*
Y016587D01*
X029526Y016588D01*
X029527Y016589D01*
X029527Y016591D01*
X029529Y016594D01*
X02953Y016597D01*
X029531Y0166D01*
X029533Y016604D01*
X029538Y016612D01*
X029543Y016621D01*
X029549Y016631D01*
X029557Y016641D01*
Y016641D01*
X029556Y016642D01*
X029555Y016644D01*
X029554Y016646D01*
X029553Y016648D01*
X029551Y016651D01*
X02955Y016655D01*
X029549Y016659D01*
X029547Y016663D01*
X029546Y016668D01*
X029543Y016679D01*
X029542Y01669D01*
X029541Y016696D01*
X029541Y016703D01*
Y016706D01*
X029541Y016709D01*
Y016711D01*
X029542Y016715D01*
X029542Y016719D01*
X029543Y016723D01*
X029545Y016733D01*
X029548Y016743D01*
X029552Y016754D01*
X029554Y016759D01*
X029557Y016765D01*
X029558Y016765D01*
X029558Y016766D01*
X029559Y016767D01*
X02956Y016769D01*
X029562Y016772D01*
X029564Y016774D01*
X029569Y016781D01*
X029569Y016781D01*
X029567Y016781D01*
X029566D01*
X029564D01*
X029562Y016781D01*
X029559Y01678D01*
X029555Y016779D01*
X029552Y016777D01*
X029548Y016775D01*
X029544Y016771D01*
X029544Y016771D01*
X029543Y016769D01*
X029542Y016768D01*
X029541Y016766D01*
X02954Y016764D01*
X029538Y016762D01*
X029537Y016758D01*
X029536Y016755D01*
X029534Y016751D01*
X029533Y016746D01*
X029531Y016741D01*
X029529Y016735D01*
X029528Y016729D01*
X029526Y016721D01*
Y016721D01*
X029526Y016719D01*
X029525Y016717D01*
X029525Y016715D01*
X029524Y016711D01*
X029523Y016707D01*
X029522Y016703D01*
X029521Y016699D01*
X029518Y01669D01*
X029516Y01668D01*
X029514Y016676D01*
X029513Y016672D01*
X029512Y016668D01*
X02951Y016666D01*
Y016665D01*
X02951Y016664D01*
X029509Y016663D01*
X029508Y016662D01*
X029506Y016658D01*
X029503Y016653D01*
X029499Y016648D01*
X029495Y016642D01*
X02949Y016637D01*
X029484Y016633D01*
X029484Y016632D01*
X029482Y016631D01*
X029478Y01663D01*
X029474Y016627D01*
X029469Y016626D01*
X029463Y016624D01*
X029456Y016623D01*
X029449Y016622D01*
X029448D01*
X029448D01*
X029447D01*
X029445D01*
X029441Y016623D01*
X029436Y016624D01*
X02943Y016625D01*
X029424Y016627D01*
X029418Y01663D01*
X029411Y016634D01*
X02941D01*
X02941Y016634D01*
X029408Y016636D01*
X029405Y016639D01*
X029401Y016642D01*
X029397Y016647D01*
X029392Y016653D01*
X029387Y016659D01*
X029383Y016667D01*
Y016667D01*
X029383Y016668D01*
X029383Y016669D01*
X029382Y016671D01*
X029381Y016673D01*
X02938Y016675D01*
X029379Y016681D01*
X029377Y016688D01*
X029375Y016696D01*
X029374Y016706D01*
X029374Y016715D01*
Y016721D01*
X029374Y016724D01*
Y016727D01*
X029374Y016731D01*
X029375Y016735D01*
X029376Y016745D01*
X029378Y016754D01*
X02938Y016763D01*
X029383Y016773D01*
Y016773D01*
X029384Y016774D01*
X029385Y016775D01*
X029385Y016776D01*
X029387Y016781D01*
X029391Y016786D01*
X029395Y016791D01*
X0294Y016798D01*
X029406Y016804D01*
X029413Y016809D01*
X029414D01*
X029414Y01681D01*
X029415Y01681D01*
X029417Y016811D01*
X029419Y016812D01*
X029421Y016813D01*
X029426Y016816D01*
X029433Y016818D01*
X029441Y01682D01*
X02945Y016822D01*
X029459Y016822D01*
X029462Y016791D01*
X029461D01*
X029461D01*
X02946Y016791D01*
X029458D01*
X029455Y01679D01*
X02945Y016789D01*
X029446Y016788D01*
X02944Y016786D01*
X029435Y016783D01*
X02943Y016781D01*
X02943Y016781D01*
X029429Y016779D01*
X029426Y016778D01*
X029423Y016775D01*
X02942Y016771D01*
X029417Y016767D01*
X029414Y016762D01*
X029411Y016756D01*
Y016755D01*
X02941Y016755D01*
X02941Y016754D01*
X02941Y016753D01*
X029409Y016749D01*
X029407Y016745D01*
X029406Y016739D01*
X029405Y016732D01*
X029404Y016725D01*
X029403Y016717D01*
Y016714D01*
X029404Y01671D01*
X029404Y016706D01*
X029405Y016701D01*
X029406Y016695D01*
X029407Y016689D01*
X029409Y016683D01*
X029409Y016683D01*
X02941Y016681D01*
X029411Y016678D01*
X029413Y016675D01*
X029415Y016672D01*
X029418Y016668D01*
X029421Y016664D01*
X029425Y016662D01*
X029425Y016661D01*
X029426Y01666D01*
X029428Y016659D01*
X029431Y016658D01*
X029434Y016656D01*
X029438Y016655D01*
X029442Y016655D01*
X029446Y016654D01*
X029446D01*
X029448D01*
X02945Y016655D01*
X029453Y016655D01*
X029456Y016656D01*
X02946Y016657D01*
X029463Y016659D01*
X029467Y016662D01*
X029467Y016662D01*
X029468Y016663D01*
X02947Y016664D01*
X029472Y016667D01*
X029474Y01667D01*
X029477Y016674D01*
X029479Y016679D01*
X029481Y016684D01*
X029482Y016684D01*
X029482Y016686D01*
X029483Y016689D01*
X029484Y016691D01*
X029484Y016694D01*
X029485Y016696D01*
X029486Y016699D01*
X029487Y016703D01*
X029488Y016707D01*
X029489Y016712D01*
X029491Y016717D01*
X029492Y016723D01*
X029494Y016729D01*
Y016729D01*
X029494Y01673D01*
X029494Y016732D01*
X029495Y016734D01*
X029496Y016737D01*
X029497Y016741D01*
X029499Y016748D01*
X029501Y016756D01*
X029504Y016764D01*
X029506Y016771D01*
X029508Y016775D01*
X029509Y016778D01*
Y016778D01*
X02951Y016778D01*
X029511Y016781D01*
X029513Y016784D01*
X029516Y016788D01*
X029519Y016792D01*
X029523Y016796D01*
X029528Y016801D01*
X029533Y016804D01*
X029534Y016805D01*
X029536Y016806D01*
X029538Y016807D01*
X029542Y016809D01*
X029547Y01681D01*
X029552Y016812D01*
X029558Y016813D01*
X029564Y016813D01*
X029565D01*
X029565D01*
X029566D01*
X029568D01*
X029571Y016812D01*
X029576Y016812D01*
X029581Y01681D01*
X029588Y016809D01*
X029594Y016806D01*
X029597Y016804D01*
X029604Y016808D01*
X029604D01*
X029605Y016808D01*
X029606Y016809D01*
X029609Y01681D01*
X029612Y016811D01*
X029615Y016812D01*
X029619Y016814D01*
X029623Y016815D01*
X029628Y016816D01*
X029633Y016818D01*
X029638Y016819D01*
X029645Y01682D01*
X029657Y016822D01*
X029671Y016822D01*
X029671D01*
X029673D01*
X029674D01*
X029677Y016822D01*
D02*
G37*
G36*
X029454Y016589D02*
X029457D01*
X029459Y016589D01*
X029465Y016588D01*
X029471Y016587D01*
X029478Y016584D01*
X029485Y016581D01*
X029492Y016577D01*
X029492D01*
X029492Y016576D01*
X029494Y016575D01*
X029497Y016572D01*
X029501Y016568D01*
X029504Y016563D01*
X029508Y016557D01*
X029512Y01655D01*
X029514Y016541D01*
Y016542D01*
X029514Y016542D01*
X029515Y016543D01*
X029516Y016545D01*
X029517Y016548D01*
X029519Y016552D01*
X029522Y016557D01*
X029526Y016562D01*
X02953Y016566D01*
X029534Y01657D01*
X029535Y016571D01*
X029536Y016572D01*
X029539Y016573D01*
X029543Y016575D01*
X029548Y016576D01*
X029553Y016578D01*
X029559Y016579D01*
X029566Y016579D01*
X029566D01*
X029567D01*
X029568D01*
X029571Y016579D01*
X029573Y016579D01*
X029576Y016578D01*
X029582Y016577D01*
X029589Y016575D01*
X029597Y016571D01*
X029601Y016569D01*
X029605Y016566D01*
X029608Y016563D01*
X029612Y01656D01*
X029612Y016559D01*
X029613Y016559D01*
X029614Y016557D01*
X029615Y016556D01*
X029616Y016554D01*
X029618Y016552D01*
X02962Y016549D01*
X029621Y016546D01*
X029623Y016542D01*
X029625Y016538D01*
X029627Y016534D01*
X029628Y016529D01*
X02963Y016519D01*
X029631Y016513D01*
X029631Y016507D01*
Y016504D01*
X029631Y016502D01*
X02963Y016499D01*
X02963Y016499D01*
X02963Y016498D01*
X029638Y016489D01*
X029638Y016489D01*
X02964Y016488D01*
X029641Y016485D01*
X029644Y016483D01*
X029646Y01648D01*
X02965Y016476D01*
X029653Y016472D01*
X029657Y016467D01*
X029666Y016458D01*
X029675Y016449D01*
X029679Y016444D01*
X029684Y01644D01*
X029688Y016437D01*
X029692Y016434D01*
X029692D01*
X029692Y016433D01*
X029693Y016432D01*
X029695Y016431D01*
X029699Y016429D01*
X029704Y016426D01*
X029709Y016423D01*
X029716Y016421D01*
X029723Y016419D01*
X029729Y016419D01*
X029729D01*
X02973D01*
X029732Y016419D01*
X029736Y016419D01*
X02974Y016421D01*
X029745Y016422D01*
X02975Y016425D01*
X029755Y016428D01*
X02976Y016432D01*
X029761Y016433D01*
X029762Y016435D01*
X029764Y016437D01*
X029767Y016441D01*
X029769Y016446D01*
X029771Y016452D01*
X029772Y016459D01*
X029773Y016467D01*
Y016469D01*
X029772Y01647D01*
X029772Y016475D01*
X029771Y01648D01*
X029769Y016485D01*
X029767Y016492D01*
X029764Y016497D01*
X029759Y016503D01*
X029759Y016504D01*
X029757Y016505D01*
X029754Y016507D01*
X029749Y016509D01*
X029744Y016512D01*
X029738Y016514D01*
X029731Y016516D01*
X029722Y016516D01*
X029725Y016548D01*
X029726D01*
X029727Y016548D01*
X029729D01*
X029731Y016547D01*
X029734Y016547D01*
X029737Y016546D01*
X029741Y016545D01*
X029745Y016544D01*
X029754Y016541D01*
X029763Y016536D01*
X029767Y016534D01*
X029772Y016531D01*
X029776Y016527D01*
X029779Y016524D01*
X02978Y016523D01*
X02978Y016523D01*
X029781Y016521D01*
X029782Y01652D01*
X029784Y016517D01*
X029785Y016515D01*
X029787Y016512D01*
X029789Y016508D01*
X029791Y016504D01*
X029792Y0165D01*
X029794Y016495D01*
X029795Y01649D01*
X029796Y016485D01*
X029798Y016479D01*
X029798Y016473D01*
X029798Y016466D01*
Y016462D01*
X029798Y01646D01*
X029798Y016457D01*
X029797Y016453D01*
X029796Y016449D01*
X029796Y016445D01*
X029793Y016436D01*
X02979Y016426D01*
X029787Y016422D01*
X029785Y016417D01*
X029782Y016413D01*
X029778Y016409D01*
X029778Y016408D01*
X029777Y016407D01*
X029776Y016407D01*
X029774Y016405D01*
X029772Y016403D01*
X02977Y016402D01*
X029767Y0164D01*
X029764Y016398D01*
X029757Y016394D01*
X029748Y01639D01*
X029744Y016389D01*
X029739Y016388D01*
X029734Y016387D01*
X029728Y016387D01*
X029728D01*
X029726D01*
X029723Y016387D01*
X029719Y016388D01*
X029715Y016389D01*
X029709Y01639D01*
X029704Y016391D01*
X029699Y016394D01*
X029698Y016394D01*
X029696Y016395D01*
X029693Y016396D01*
X029689Y016398D01*
X029685Y016401D01*
X029679Y016405D01*
X029674Y016409D01*
X029668Y016414D01*
X029667Y016415D01*
X029665Y016417D01*
X029663Y016419D01*
X029661Y016421D01*
X029659Y016423D01*
X029656Y016426D01*
X029653Y016429D01*
X02965Y016432D01*
X029646Y016436D01*
X029642Y01644D01*
X029638Y016445D01*
X029633Y01645D01*
X029629Y016456D01*
X029624Y016462D01*
X029623Y016462D01*
X029622Y016463D01*
X029621Y016464D01*
X02962Y016466D01*
X029618Y016462D01*
X029615Y016458D01*
X029612Y016454D01*
X029611Y016454D01*
X029611Y016453D01*
X02961Y016452D01*
X029608Y016451D01*
X029606Y016449D01*
X029604Y016448D01*
X029599Y016444D01*
X029592Y01644D01*
X029584Y016437D01*
X029575Y016435D01*
Y016387D01*
X029565D01*
X029569Y016386D01*
X029574Y016384D01*
X029575D01*
X029575Y016384D01*
X029577Y016383D01*
X029579Y016382D01*
X029581Y016382D01*
X029584Y01638D01*
X02959Y016377D01*
X029596Y016374D01*
X029603Y016369D01*
X02961Y016363D01*
X029616Y016357D01*
Y016357D01*
X029617Y016356D01*
X029617Y016355D01*
X029618Y016354D01*
X02962Y016352D01*
X029621Y01635D01*
X029624Y016344D01*
X029626Y016338D01*
X029629Y01633D01*
X02963Y016321D01*
X029631Y016311D01*
Y016308D01*
X029631Y016304D01*
X02963Y016299D01*
X029629Y016294D01*
X029627Y016288D01*
X029625Y016282D01*
X029623Y016276D01*
Y016275D01*
X029622Y016275D01*
X029621Y016273D01*
X029619Y01627D01*
X029617Y016267D01*
X029613Y016263D01*
X029609Y016258D01*
X029604Y016254D01*
X029599Y01625D01*
X029598Y01625D01*
X029596Y016248D01*
X029593Y016247D01*
X029588Y016244D01*
X029583Y016242D01*
X029577Y016239D01*
X029569Y016237D01*
X029561Y016235D01*
X029561D01*
X02956Y016234D01*
X029559Y016234D01*
X029557Y016233D01*
X029555Y016233D01*
X029553Y016233D01*
X029549Y016232D01*
X029546Y016232D01*
X029542Y016231D01*
X029537Y016231D01*
X029532Y01623D01*
X029527Y016229D01*
X029521Y016229D01*
X029516D01*
X029509Y016229D01*
X029502D01*
X029502D01*
X0295D01*
X029498D01*
X029495D01*
X029491Y016229D01*
X029486D01*
X029482Y016229D01*
X029477Y01623D01*
X029465Y016231D01*
X029453Y016233D01*
X029441Y016235D01*
X029436Y016236D01*
X02943Y016238D01*
X02943D01*
X029429Y016239D01*
X029428Y016239D01*
X029426Y01624D01*
X029423Y016241D01*
X029421Y016242D01*
X029415Y016245D01*
X029408Y016249D01*
X029401Y016254D01*
X029394Y016259D01*
X029388Y016266D01*
Y016266D01*
X029387Y016266D01*
X029387Y016267D01*
X029386Y016269D01*
X029385Y016271D01*
X029383Y016272D01*
X029381Y016278D01*
X029378Y016284D01*
X029376Y016292D01*
X029374Y016301D01*
X029374Y016311D01*
Y016315D01*
X029374Y016317D01*
X029374Y01632D01*
X029375Y016324D01*
X029376Y016328D01*
X029377Y016332D01*
X029378Y016336D01*
X02938Y016341D01*
X029382Y016346D01*
X029385Y016351D01*
X029387Y016355D01*
X029391Y01636D01*
X029395Y016365D01*
X029399Y016369D01*
X0294Y016369D01*
X029401Y01637D01*
X029403Y016371D01*
X029406Y016373D01*
X029409Y016374D01*
X029413Y016376D01*
X029418Y016379D01*
X029424Y016381D01*
X029431Y016383D01*
X029438Y016385D01*
X029447Y016387D01*
X029456Y016389D01*
X029466Y016391D01*
X029477Y016392D01*
X029489Y016393D01*
X029502Y016393D01*
X029502D01*
X029504D01*
X029506D01*
X029509D01*
X029513Y016393D01*
X029518D01*
X029522Y016393D01*
X029528Y016392D01*
X029539Y016391D01*
X029545Y01639D01*
Y016437D01*
X029544Y016438D01*
X029539Y01644D01*
X029534Y016443D01*
X029533Y016444D01*
X029532Y016445D01*
X02953Y016447D01*
X029527Y01645D01*
X029524Y016454D01*
X02952Y016459D01*
X029517Y016464D01*
X029514Y016471D01*
Y01647D01*
X029514Y01647D01*
X029513Y016469D01*
X029513Y016467D01*
X029511Y016463D01*
X029508Y016458D01*
X029505Y016452D01*
X029501Y016446D01*
X029496Y016441D01*
X02949Y016436D01*
X029489D01*
X029489Y016436D01*
X029487Y016434D01*
X029483Y016432D01*
X029478Y01643D01*
X029473Y016428D01*
X029466Y016425D01*
X029458Y016424D01*
X02945Y016423D01*
X029449D01*
X029448D01*
X029446D01*
X029444Y016424D01*
X029442Y016424D01*
X029438Y016425D01*
X029435Y016425D01*
X029431Y016426D01*
X029422Y016429D01*
X029418Y016431D01*
X029413Y016433D01*
X029409Y016436D01*
X029404Y016439D01*
X0294Y016442D01*
X029395Y016446D01*
X029395Y016447D01*
X029394Y016448D01*
X029393Y016449D01*
X029392Y01645D01*
X02939Y016453D01*
X029389Y016456D01*
X029387Y016459D01*
X029385Y016462D01*
X029382Y016466D01*
X029381Y016471D01*
X029379Y016476D01*
X029377Y016481D01*
X029376Y016487D01*
X029375Y016493D01*
X029374Y0165D01*
X029374Y016506D01*
Y01651D01*
X029374Y016513D01*
X029374Y016516D01*
X029375Y01652D01*
X029375Y016524D01*
X029376Y016528D01*
X029379Y016538D01*
X029381Y016543D01*
X029383Y016548D01*
X029385Y016553D01*
X029388Y016558D01*
X029391Y016563D01*
X029395Y016567D01*
X029396Y016567D01*
X029397Y016568D01*
X029398Y016569D01*
X029399Y016571D01*
X029402Y016572D01*
X029404Y016574D01*
X029407Y016576D01*
X029411Y016578D01*
X029414Y01658D01*
X029419Y016582D01*
X029428Y016586D01*
X029433Y016587D01*
X029439Y016588D01*
X029445Y016589D01*
X02945Y016589D01*
X029451D01*
X029451D01*
X029453D01*
X029454Y016589D01*
D02*
G37*
G36*
X029446Y016165D02*
X029446D01*
X029445D01*
X029444Y016165D01*
X029442Y016164D01*
X029438Y016163D01*
X029433Y016162D01*
X029427Y01616D01*
X029421Y016157D01*
X029416Y016153D01*
X029411Y016149D01*
X02941Y016148D01*
X029409Y016146D01*
X029407Y016144D01*
X029405Y01614D01*
X029403Y016135D01*
X029401Y01613D01*
X029399Y016124D01*
X029399Y016117D01*
Y016114D01*
X029399Y016113D01*
X0294Y016109D01*
X029401Y016104D01*
X029403Y016097D01*
X029406Y016091D01*
X02941Y016085D01*
X029413Y016082D01*
X029416Y016079D01*
X029416Y016078D01*
X029417Y016078D01*
X029418Y016077D01*
X029419Y016076D01*
X029423Y016074D01*
X029428Y016071D01*
X029434Y016068D01*
X029442Y016066D01*
X029451Y016064D01*
X029455Y016063D01*
X029461D01*
X029461D01*
X029462D01*
X029463D01*
X029465Y016063D01*
X029467D01*
X02947Y016064D01*
X029476Y016065D01*
X029482Y016067D01*
X029489Y016069D01*
X029496Y016073D01*
X029502Y016078D01*
X029502D01*
X029503Y016079D01*
X029505Y016081D01*
X029507Y016084D01*
X02951Y016088D01*
X029513Y016094D01*
X029515Y016101D01*
X029517Y016108D01*
X029518Y016113D01*
Y01612D01*
X029517Y016122D01*
X029517Y016126D01*
X029516Y01613D01*
X029515Y016135D01*
X029513Y01614D01*
X029511Y016144D01*
X02951Y016145D01*
X02951Y016146D01*
X029508Y016148D01*
X029506Y016151D01*
X029504Y016154D01*
X0295Y016157D01*
X029497Y01616D01*
X029493Y016163D01*
X029497Y016192D01*
X029627Y016168D01*
Y016042D01*
X029597D01*
Y016143D01*
X029529Y016157D01*
X029529Y016156D01*
X02953Y016156D01*
X02953Y016155D01*
X029532Y016153D01*
X029533Y01615D01*
X029534Y016148D01*
X029537Y016142D01*
X02954Y016135D01*
X029542Y016127D01*
X029544Y016118D01*
X029545Y016114D01*
Y016106D01*
X029545Y016104D01*
X029544Y016101D01*
X029544Y016097D01*
X029543Y016094D01*
X029542Y01609D01*
X02954Y016081D01*
X029538Y016076D01*
X029535Y016072D01*
X029533Y016067D01*
X02953Y016062D01*
X029526Y016058D01*
X029522Y016053D01*
X029522Y016053D01*
X029521Y016052D01*
X02952Y016051D01*
X029518Y01605D01*
X029516Y016048D01*
X029513Y016046D01*
X02951Y016044D01*
X029506Y016042D01*
X029502Y01604D01*
X029498Y016038D01*
X029493Y016036D01*
X029488Y016034D01*
X029482Y016033D01*
X029476Y016031D01*
X02947Y016031D01*
X029463Y01603D01*
X029463D01*
X029462D01*
X02946D01*
X029457Y016031D01*
X029454Y016031D01*
X029451Y016031D01*
X029447Y016032D01*
X029443Y016033D01*
X029434Y016035D01*
X029424Y016039D01*
X029419Y016041D01*
X029414Y016044D01*
X029409Y016047D01*
X029404Y01605D01*
X029404Y016051D01*
X029403Y016051D01*
X029401Y016053D01*
X029399Y016055D01*
X029397Y016057D01*
X029394Y01606D01*
X029392Y016064D01*
X029389Y016068D01*
X029386Y016072D01*
X029383Y016077D01*
X029381Y016083D01*
X029378Y016089D01*
X029376Y016095D01*
X029375Y016102D01*
X029374Y016109D01*
X029374Y016117D01*
Y01612D01*
X029374Y016122D01*
X029374Y016125D01*
X029375Y016129D01*
X029375Y016133D01*
X029376Y016137D01*
X029378Y016146D01*
X029382Y016155D01*
X029384Y01616D01*
X029386Y016164D01*
X029389Y016169D01*
X029393Y016173D01*
X029393Y016173D01*
X029393Y016174D01*
X029395Y016175D01*
X029396Y016176D01*
X029398Y016178D01*
X0294Y01618D01*
X029403Y016182D01*
X029406Y016184D01*
X02941Y016186D01*
X029414Y016188D01*
X029422Y016192D01*
X029433Y016196D01*
X029438Y016197D01*
X029444Y016197D01*
X029446Y016165D01*
D02*
G37*
G36*
X029513Y016001D02*
X029518D01*
X029522Y016001D01*
X029528Y016001D01*
X029539Y015999D01*
X029551Y015998D01*
X029563Y015995D01*
X029569Y015994D01*
X029574Y015993D01*
X029575D01*
X029575Y015992D01*
X029577Y015991D01*
X029579Y015991D01*
X029581Y01599D01*
X029584Y015989D01*
X02959Y015986D01*
X029596Y015982D01*
X029603Y015977D01*
X02961Y015972D01*
X029616Y015965D01*
Y015965D01*
X029617Y015964D01*
X029617Y015963D01*
X029618Y015962D01*
X02962Y01596D01*
X029621Y015958D01*
X029624Y015952D01*
X029626Y015946D01*
X029629Y015938D01*
X02963Y015929D01*
X029631Y015919D01*
Y015916D01*
X029631Y015912D01*
X02963Y015907D01*
X029629Y015902D01*
X029627Y015896D01*
X029625Y01589D01*
X029623Y015884D01*
Y015884D01*
X029622Y015883D01*
X029621Y015882D01*
X029619Y015879D01*
X029617Y015875D01*
X029613Y015871D01*
X029609Y015867D01*
X029604Y015863D01*
X029599Y015859D01*
X029598Y015858D01*
X029596Y015857D01*
X029593Y015855D01*
X029588Y015853D01*
X029583Y015851D01*
X029577Y015848D01*
X029569Y015845D01*
X029561Y015843D01*
X029561D01*
X02956Y015843D01*
X029559Y015842D01*
X029557Y015842D01*
X029555Y015841D01*
X029553Y015841D01*
X029549Y01584D01*
X029546Y01584D01*
X029542Y015839D01*
X029537Y015839D01*
X029532Y015839D01*
X029527Y015838D01*
X029521Y015837D01*
X029516D01*
X029509Y015837D01*
X029502D01*
X029502D01*
X0295D01*
X029498D01*
X029495D01*
X029491Y015837D01*
X029486D01*
X029482Y015838D01*
X029477Y015838D01*
X029465Y015839D01*
X029453Y015841D01*
X029441Y015843D01*
X029436Y015845D01*
X02943Y015847D01*
X02943D01*
X029429Y015847D01*
X029428Y015848D01*
X029426Y015848D01*
X029423Y015849D01*
X029421Y015851D01*
X029415Y015853D01*
X029408Y015857D01*
X029401Y015862D01*
X029394Y015867D01*
X029388Y015874D01*
Y015874D01*
X029387Y015875D01*
X029387Y015876D01*
X029386Y015877D01*
X029385Y015879D01*
X029383Y015881D01*
X029381Y015886D01*
X029378Y015893D01*
X029376Y0159D01*
X029374Y01591D01*
X029374Y015919D01*
Y015923D01*
X029374Y015926D01*
X029374Y015928D01*
X029375Y015932D01*
X029376Y015936D01*
X029377Y01594D01*
X029378Y015945D01*
X02938Y01595D01*
X029382Y015954D01*
X029385Y015959D01*
X029387Y015964D01*
X029391Y015969D01*
X029395Y015973D01*
X029399Y015977D01*
X0294Y015977D01*
X029401Y015978D01*
X029403Y015979D01*
X029406Y015981D01*
X029409Y015983D01*
X029413Y015985D01*
X029418Y015987D01*
X029424Y015989D01*
X029431Y015991D01*
X029438Y015994D01*
X029447Y015996D01*
X029456Y015998D01*
X029466Y015999D01*
X029477Y016001D01*
X029489Y016001D01*
X029502Y016002D01*
X029502D01*
X029504D01*
X029506D01*
X029509D01*
X029513Y016001D01*
D02*
G37*
%LPC*%
G36*
X032859Y019631D02*
X032848D01*
X032848D01*
X032847D01*
X032845D01*
X032842D01*
X032838Y019631D01*
X032833D01*
X032827Y019631D01*
X032821Y01963D01*
X032814Y019629D01*
X0328Y019628D01*
X032793Y019627D01*
X032787Y019625D01*
X032781Y019624D01*
X032775Y019621D01*
X03277Y019619D01*
X032765Y019617D01*
X032765D01*
X032765Y019616D01*
X032763Y019615D01*
X032762Y019614D01*
X032759Y019611D01*
X032755Y019607D01*
X032751Y019601D01*
X032748Y019595D01*
X032746Y019592D01*
X032745Y019588D01*
X032745Y019584D01*
X032745Y01958D01*
Y019578D01*
X032745Y019577D01*
X032746Y019573D01*
X032747Y019568D01*
X032749Y019562D01*
X032752Y019557D01*
X032754Y019554D01*
X032757Y019551D01*
X032759Y019548D01*
X032763Y019546D01*
X032763D01*
X032764Y019545D01*
X032765Y019544D01*
X032767Y019543D01*
X03277Y019542D01*
X032773Y019541D01*
X032777Y01954D01*
X032782Y019538D01*
X032787Y019537D01*
X032794Y019535D01*
X032801Y019534D01*
X032808Y019533D01*
X032817Y019532D01*
X032826Y019531D01*
X032837Y01953D01*
X032848Y01953D01*
X032849D01*
X03285D01*
X032854D01*
X032858Y01953D01*
X032863D01*
X032869Y019531D01*
X032875Y019531D01*
X032881Y019532D01*
X032896Y019534D01*
X032903Y019535D01*
X032909Y019536D01*
X032915Y019538D01*
X032921Y01954D01*
X032926Y019542D01*
X032931Y019545D01*
X032931D01*
X032931Y019545D01*
X032934Y019547D01*
X032937Y01955D01*
X032941Y019554D01*
X032944Y01956D01*
X032948Y019566D01*
X03295Y019573D01*
X032951Y019577D01*
X032951Y019581D01*
Y019583D01*
X032951Y019584D01*
X03295Y019588D01*
X032948Y019593D01*
X032946Y019598D01*
X032942Y019605D01*
X03294Y019608D01*
X032937Y01961D01*
X032934Y019613D01*
X032931Y019616D01*
X03293D01*
X032929Y019617D01*
X032928Y019618D01*
X032927Y019619D01*
X032924Y01962D01*
X032921Y019621D01*
X032917Y019622D01*
X032913Y019624D01*
X032907Y019625D01*
X032901Y019627D01*
X032895Y019628D01*
X032887Y019629D01*
X032878Y01963D01*
X032869Y019631D01*
X032859Y019631D01*
D02*
G37*
G36*
Y01924D02*
X032848D01*
X032848D01*
X032847D01*
X032845D01*
X032842D01*
X032838Y019239D01*
X032833D01*
X032827Y019239D01*
X032821Y019238D01*
X032814Y019238D01*
X0328Y019236D01*
X032793Y019235D01*
X032787Y019233D01*
X032781Y019232D01*
X032775Y01923D01*
X03277Y019228D01*
X032765Y019225D01*
X032765D01*
X032765Y019224D01*
X032763Y019224D01*
X032762Y019222D01*
X032759Y019219D01*
X032755Y019215D01*
X032751Y01921D01*
X032748Y019204D01*
X032746Y0192D01*
X032745Y019197D01*
X032745Y019193D01*
X032745Y019189D01*
Y019186D01*
X032745Y019185D01*
X032746Y019181D01*
X032747Y019176D01*
X032749Y019171D01*
X032752Y019165D01*
X032754Y019162D01*
X032757Y019159D01*
X032759Y019157D01*
X032763Y019154D01*
X032763D01*
X032764Y019153D01*
X032765Y019153D01*
X032767Y019151D01*
X03277Y01915D01*
X032773Y019149D01*
X032777Y019148D01*
X032782Y019146D01*
X032787Y019145D01*
X032794Y019143D01*
X032801Y019142D01*
X032808Y019141D01*
X032817Y01914D01*
X032826Y019139D01*
X032837Y019139D01*
X032848Y019138D01*
X032849D01*
X03285D01*
X032854D01*
X032858Y019139D01*
X032863D01*
X032869Y019139D01*
X032875Y019139D01*
X032881Y01914D01*
X032896Y019142D01*
X032903Y019143D01*
X032909Y019145D01*
X032915Y019146D01*
X032921Y019148D01*
X032926Y01915D01*
X032931Y019153D01*
X032931D01*
X032931Y019154D01*
X032934Y019155D01*
X032937Y019159D01*
X032941Y019163D01*
X032944Y019168D01*
X032948Y019174D01*
X03295Y019181D01*
X032951Y019185D01*
X032951Y019189D01*
Y019191D01*
X032951Y019193D01*
X03295Y019196D01*
X032948Y019201D01*
X032946Y019207D01*
X032942Y019213D01*
X03294Y019216D01*
X032937Y019219D01*
X032934Y019222D01*
X032931Y019225D01*
X03293D01*
X032929Y019225D01*
X032928Y019226D01*
X032927Y019227D01*
X032924Y019228D01*
X032921Y019229D01*
X032917Y019231D01*
X032913Y019232D01*
X032907Y019233D01*
X032901Y019235D01*
X032895Y019236D01*
X032887Y019237D01*
X032878Y019238D01*
X032869Y019239D01*
X032859Y01924D01*
D02*
G37*
G36*
X032785Y019035D02*
X032785D01*
X032784D01*
X032782D01*
X032779Y019034D01*
X032775Y019033D01*
X03277Y019032D01*
X032766Y01903D01*
X032761Y019027D01*
X032756Y019023D01*
X032756Y019022D01*
X032754Y01902D01*
X032753Y019018D01*
X03275Y019015D01*
X032748Y01901D01*
X032746Y019006D01*
X032745Y019D01*
X032745Y018994D01*
Y018991D01*
X032745Y018987D01*
X032746Y018983D01*
X032747Y018978D01*
X032749Y018973D01*
X032752Y018968D01*
X032756Y018964D01*
X032757Y018963D01*
X032758Y018962D01*
X032761Y01896D01*
X032764Y018958D01*
X032768Y018956D01*
X032773Y018954D01*
X032778Y018953D01*
X032783Y018952D01*
X032784D01*
X032784D01*
X032786Y018953D01*
X03279Y018953D01*
X032794Y018954D01*
X032798Y018955D01*
X032803Y018957D01*
X032808Y01896D01*
X032813Y018964D01*
X032813Y018964D01*
X032814Y018966D01*
X032816Y018968D01*
X032818Y018972D01*
X03282Y018976D01*
X032822Y018981D01*
X032824Y018987D01*
X032824Y018994D01*
Y018994D01*
X032824Y018996D01*
X032823Y019D01*
X032822Y019004D01*
X032821Y019009D01*
X032819Y019014D01*
X032816Y019019D01*
X032813Y019023D01*
X032812Y019023D01*
X03281Y019025D01*
X032808Y019027D01*
X032805Y019029D01*
X032801Y019031D01*
X032796Y019033D01*
X032791Y019034D01*
X032785Y019035D01*
D02*
G37*
G36*
X032901Y019045D02*
X0329D01*
X0329D01*
X032899D01*
X032897Y019044D01*
X032893Y019044D01*
X032888Y019043D01*
X032882Y019041D01*
X032876Y019039D01*
X03287Y019035D01*
X032864Y01903D01*
X032863Y019029D01*
X032862Y019027D01*
X032859Y019024D01*
X032856Y01902D01*
X032854Y019014D01*
X032851Y019008D01*
X03285Y019D01*
X032849Y018992D01*
Y01899D01*
X032849Y018989D01*
X03285Y018985D01*
X032851Y01898D01*
X032853Y018974D01*
X032855Y018968D01*
X032859Y018962D01*
X032864Y018956D01*
X032864Y018956D01*
X032866Y018954D01*
X032869Y018952D01*
X032873Y018949D01*
X032879Y018947D01*
X032885Y018944D01*
X032892Y018943D01*
X0329Y018942D01*
X0329D01*
X032902D01*
X032904Y018943D01*
X032908Y018943D01*
X032912Y018944D01*
X032916Y018945D01*
X03292Y018946D01*
X032925Y018948D01*
X032925Y018948D01*
X032927Y018949D01*
X032929Y018951D01*
X032932Y018953D01*
X032935Y018955D01*
X032939Y018959D01*
X032941Y018962D01*
X032944Y018967D01*
X032945Y018967D01*
X032945Y018969D01*
X032947Y018971D01*
X032948Y018975D01*
X032949Y018979D01*
X03295Y018983D01*
X032951Y018988D01*
X032951Y018994D01*
Y018996D01*
X032951Y018997D01*
X03295Y019002D01*
X032949Y019007D01*
X032947Y019012D01*
X032945Y019019D01*
X032941Y019024D01*
X032937Y01903D01*
X032936Y019031D01*
X032934Y019032D01*
X032931Y019035D01*
X032927Y019038D01*
X032922Y01904D01*
X032916Y019043D01*
X032908Y019044D01*
X032901Y019045D01*
D02*
G37*
G36*
X032774Y018832D02*
X032774Y018831D01*
X032772Y018829D01*
X032771Y018826D01*
X032768Y018822D01*
X032766Y018817D01*
X032764Y018812D01*
X032761Y018805D01*
X03276Y018799D01*
X032749Y018802D01*
X032747Y018796D01*
X032746Y018787D01*
X032746Y018777D01*
Y018771D01*
X032746Y018769D01*
X032746Y018766D01*
X032747Y01876D01*
X032749Y018753D01*
X03275Y018745D01*
X032753Y018738D01*
X032755Y018736D01*
X032755Y018736D01*
X032756Y018737D01*
X032757Y018738D01*
X032759Y01874D01*
X032761Y018743D01*
X032763Y018746D01*
X032765Y018749D01*
X032768Y018753D01*
X03277Y018757D01*
X032772Y018762D01*
X032775Y018767D01*
X032777Y018772D01*
X032778Y018778D01*
X03278Y018785D01*
X03278Y018791D01*
X032781Y018798D01*
Y018801D01*
X03278Y018805D01*
X03278Y018809D01*
X032779Y018814D01*
X032778Y01882D01*
X032776Y018826D01*
X032774Y018832D01*
D02*
G37*
G36*
X032679Y018884D02*
X032679D01*
X032678D01*
X032676D01*
X032674D01*
X032671Y018884D01*
X032668D01*
X032665Y018884D01*
X032661Y018883D01*
X032653Y018882D01*
X032643Y01888D01*
X032634Y018877D01*
X032626Y018874D01*
X032625D01*
X032625Y018873D01*
X032623Y018873D01*
X032622Y018872D01*
X032618Y018869D01*
X032613Y018866D01*
X032607Y018862D01*
X032601Y018856D01*
X032595Y01885D01*
X03259Y018843D01*
Y018843D01*
X032589Y018842D01*
X032589Y018841D01*
X032588Y01884D01*
X032587Y018838D01*
X032586Y018836D01*
X032583Y01883D01*
X032581Y018824D01*
X032579Y018816D01*
X032578Y018807D01*
X032577Y018798D01*
Y018794D01*
X032578Y018792D01*
X032578Y018789D01*
X032579Y018785D01*
X032579Y018781D01*
X03258Y018777D01*
X032582Y018771D01*
X032583Y018767D01*
X032586Y018762D01*
X032588Y018756D01*
X032591Y018751D01*
X032595Y018746D01*
X032598Y018741D01*
X032603Y018736D01*
X032603Y018736D01*
X032604Y018735D01*
X032606Y018734D01*
X032608Y018733D01*
X03261Y01873D01*
X032614Y018729D01*
X032618Y018726D01*
X032622Y018724D01*
X032627Y018722D01*
X032633Y018719D01*
X032639Y018718D01*
X032646Y018716D01*
X032653Y018714D01*
X032661Y018713D01*
X03267Y018712D01*
X032679Y018712D01*
X03268D01*
X032681D01*
X032684D01*
X032687Y018712D01*
X032691Y018713D01*
X032696Y018713D01*
X032701Y018714D01*
X032707Y018715D01*
X032719Y018718D01*
X032725Y018719D01*
X032729Y018721D01*
X032728Y018722D01*
X032725Y018729D01*
Y01873D01*
X032724Y01873D01*
X032724Y018731D01*
X032723Y018733D01*
X032722Y018735D01*
X032722Y018737D01*
X03272Y018743D01*
X032719Y01875D01*
X032717Y018758D01*
X032716Y018766D01*
X032716Y018775D01*
Y01878D01*
X032716Y018783D01*
Y018785D01*
X032717Y018792D01*
X032718Y0188D01*
X03272Y018808D01*
X032722Y018817D01*
X032725Y018825D01*
Y018825D01*
X032725Y018826D01*
X032726Y018827D01*
X032727Y018828D01*
X032729Y018832D01*
X032732Y018837D01*
X032735Y018842D01*
X03274Y018848D01*
X032746Y018853D01*
X032752Y018857D01*
X032752D01*
X032753Y018858D01*
X032754Y018858D01*
X032755Y018859D01*
X032755Y018859D01*
X032754Y01886D01*
X032752Y018862D01*
X032748Y018864D01*
X032744Y018867D01*
X03274Y01887D01*
X032734Y018872D01*
X032728Y018875D01*
X032721Y018877D01*
X032714Y01888D01*
X032706Y018882D01*
X032698Y018883D01*
X032689Y018884D01*
X032679Y018884D01*
D02*
G37*
G36*
X01067Y014359D02*
X010668D01*
X010666Y014359D01*
X010662Y014358D01*
X010657Y014357D01*
X010651Y014356D01*
X010646Y014353D01*
X01064Y014349D01*
X010634Y014344D01*
X010634Y014344D01*
X010632Y014341D01*
X01063Y014338D01*
X010627Y014333D01*
X010625Y014328D01*
X010622Y014321D01*
X010621Y014312D01*
X01062Y014303D01*
Y014302D01*
Y014302D01*
Y0143D01*
X010621Y014298D01*
Y014296D01*
X010621Y014293D01*
X010622Y014288D01*
X010623Y014281D01*
X010626Y014273D01*
X01063Y014266D01*
X010634Y01426D01*
Y01426D01*
X010635Y014259D01*
X010637Y014258D01*
X01064Y014255D01*
X010644Y014252D01*
X010649Y01425D01*
X010655Y014247D01*
X010661Y014245D01*
X010665Y014245D01*
X010671D01*
X010672Y014245D01*
X010676Y014245D01*
X010681Y014247D01*
X010687Y014249D01*
X010693Y014252D01*
X010699Y014256D01*
X010702Y014259D01*
X010705Y014262D01*
Y014262D01*
X010706Y014262D01*
X010706Y014263D01*
X010707Y014265D01*
X01071Y014268D01*
X010712Y014273D01*
X010715Y014279D01*
X010718Y014287D01*
X010719Y014296D01*
X01072Y014305D01*
Y014306D01*
Y014306D01*
Y014308D01*
X01072Y014309D01*
Y014312D01*
X010719Y014314D01*
X010718Y014319D01*
X010716Y014325D01*
X010714Y014332D01*
X01071Y014338D01*
X010706Y014344D01*
X010705Y014345D01*
X010703Y014346D01*
X0107Y014349D01*
X010696Y014352D01*
X01069Y014354D01*
X010684Y014357D01*
X010677Y014358D01*
X01067Y014359D01*
D02*
G37*
G36*
X010107Y014368D02*
X010021D01*
X010048Y014299D01*
Y014299D01*
X010048Y014298D01*
X010049Y014296D01*
X010049Y014294D01*
X010051Y014291D01*
X010052Y014288D01*
X010053Y014284D01*
X010054Y014281D01*
X010057Y014272D01*
X01006Y014263D01*
X010063Y014255D01*
X010065Y014246D01*
Y014247D01*
X010066Y014247D01*
Y014249D01*
X010067Y01425D01*
X010067Y014253D01*
X010068Y014255D01*
X010069Y014262D01*
X010071Y014269D01*
X010073Y014277D01*
X010076Y014286D01*
X010079Y014295D01*
X010107Y014368D01*
D02*
G37*
G36*
X011641Y014275D02*
X011647Y014258D01*
Y01427D01*
X011644Y014273D01*
X011641Y014275D01*
D02*
G37*
G36*
X011608Y014283D02*
X011607Y014283D01*
X011602Y014282D01*
X011597Y01428D01*
X011591Y014277D01*
X011586Y014273D01*
X011583Y014271D01*
X01158Y014268D01*
Y014268D01*
X011579Y014267D01*
X011578Y014265D01*
X011576Y014261D01*
X011573Y014257D01*
X01157Y01425D01*
X011568Y014243D01*
X011567Y014235D01*
X011566Y014225D01*
Y014225D01*
Y014224D01*
Y014222D01*
X011566Y014221D01*
Y014218D01*
X011567Y014216D01*
X011568Y01421D01*
X011569Y014204D01*
X011572Y014197D01*
X011575Y01419D01*
X01158Y014184D01*
X011581Y014183D01*
X011583Y014181D01*
X011586Y014179D01*
X01159Y014176D01*
X011595Y014173D01*
X0116Y014171D01*
X011607Y014169D01*
X011615Y014169D01*
X011617D01*
X011619Y014169D01*
X011622Y014169D01*
X011627Y01417D01*
X011633Y014172D01*
X011639Y014175D01*
X011645Y014179D01*
X011651Y014184D01*
X011651Y014185D01*
X011653Y014186D01*
X011655Y01419D01*
X011658Y014194D01*
X01166Y0142D01*
X011663Y014207D01*
X011665Y014214D01*
X011665Y01422D01*
X011629D01*
X011608Y014283D01*
D02*
G37*
G36*
X011851Y014436D02*
X011851Y014435D01*
X01185Y014433D01*
X011849Y01443D01*
X011848Y014426D01*
X011846Y01442D01*
X011843Y014413D01*
X011841Y014405D01*
X011837Y014396D01*
X011804Y014299D01*
X011805Y0143D01*
X011809Y014301D01*
X011813Y014303D01*
X011818Y014304D01*
X011829Y014307D01*
X01184Y014308D01*
X011846Y014309D01*
X011853Y014309D01*
X011856D01*
X011859Y014309D01*
X011861D01*
X011865Y014308D01*
X011869Y014308D01*
X011873Y014307D01*
X011883Y014305D01*
X011893Y014302D01*
X011895Y014301D01*
X011863Y014399D01*
Y014399D01*
X011863Y0144D01*
X011862Y014401D01*
X011861Y014403D01*
X01186Y014407D01*
X011858Y014413D01*
X011856Y014419D01*
X011854Y014425D01*
X011852Y014431D01*
X011851Y014436D01*
D02*
G37*
G36*
X011764Y014282D02*
Y014272D01*
X011769Y014278D01*
X011769D01*
X011768Y014279D01*
X011767Y01428D01*
X011765Y014281D01*
X011764Y014282D01*
D02*
G37*
G36*
X011852Y014281D02*
X011849D01*
X011845Y01428D01*
X011841Y01428D01*
X011836Y014279D01*
X01183Y014278D01*
X011824Y014276D01*
X011818Y014274D01*
X011819Y014274D01*
X011821Y014272D01*
X011824Y014271D01*
X011828Y014268D01*
X011833Y014266D01*
X011838Y014264D01*
X011845Y014261D01*
X011851Y01426D01*
X011843Y014236D01*
X011842D01*
X011841Y014236D01*
X01184Y014236D01*
X011838Y014237D01*
X011836Y014238D01*
X011833Y014239D01*
X011826Y014241D01*
X011818Y014245D01*
X01181Y014249D01*
X011803Y014254D01*
X011795Y01426D01*
X011795Y014259D01*
X011794Y014259D01*
X011792Y014257D01*
X01179Y014254D01*
X011788Y014252D01*
X011787Y014251D01*
X011777Y01422D01*
X011772D01*
X01177Y014214D01*
X011768Y014206D01*
X011767Y014198D01*
X011766Y014189D01*
X011766Y014179D01*
Y014179D01*
Y014178D01*
Y014176D01*
Y014174D01*
X011766Y014171D01*
Y014168D01*
X011766Y014165D01*
X011767Y014161D01*
X011768Y014153D01*
X01177Y014143D01*
X011773Y014134D01*
X011776Y014126D01*
Y014125D01*
X011777Y014125D01*
X011777Y014123D01*
X011778Y014122D01*
X011781Y014118D01*
X011784Y014113D01*
X011788Y014107D01*
X011794Y014101D01*
X0118Y014095D01*
X011807Y01409D01*
X011807D01*
X011808Y014089D01*
X011809Y014089D01*
X01181Y014088D01*
X011812Y014087D01*
X011814Y014086D01*
X01182Y014083D01*
X011826Y014081D01*
X011834Y014079D01*
X011843Y014078D01*
X011852Y014077D01*
X011856D01*
X011858Y014078D01*
X011861Y014078D01*
X011865Y014079D01*
X011869Y014079D01*
X011873Y01408D01*
X011879Y014082D01*
X011883Y014083D01*
X011888Y014086D01*
X011894Y014088D01*
X011899Y014091D01*
X011904Y014095D01*
X011909Y014098D01*
X011914Y014103D01*
X011914Y014103D01*
X011915Y014104D01*
X011916Y014106D01*
X011917Y014108D01*
X01192Y01411D01*
X011921Y014114D01*
X011924Y014118D01*
X011926Y014122D01*
X011928Y014127D01*
X011931Y014133D01*
X011932Y014139D01*
X011934Y014146D01*
X011936Y014153D01*
X011937Y014161D01*
X011938Y01417D01*
X011938Y014179D01*
Y01418D01*
Y014181D01*
Y014184D01*
X011938Y014187D01*
X011938Y014191D01*
X011937Y014196D01*
X011936Y014201D01*
X011935Y014207D01*
X011932Y014219D01*
X011932Y01422D01*
X011923D01*
X01191Y014259D01*
X011907Y014261D01*
X011904Y014263D01*
X011901Y014265D01*
X011897Y014268D01*
X011893Y01427D01*
X011888Y014272D01*
X011883Y014275D01*
X011878Y014277D01*
X011872Y014278D01*
X011865Y01428D01*
X011859Y01428D01*
X011852Y014281D01*
D02*
G37*
G36*
X011353Y014442D02*
X011281D01*
X011273Y014442D01*
X01127Y014441D01*
X011267Y014441D01*
X011267D01*
X011265Y014441D01*
X011263Y01444D01*
X01126Y01444D01*
X011254Y014437D01*
X011248Y014435D01*
X011248Y014434D01*
X011247Y014433D01*
X011245Y014432D01*
X011243Y014431D01*
X011242Y014429D01*
X011239Y014427D01*
X011237Y014424D01*
X011235Y01442D01*
X011235Y01442D01*
X011234Y014419D01*
X011234Y014417D01*
X011232Y014414D01*
X011231Y014411D01*
X011231Y014408D01*
X01123Y014403D01*
X01123Y014399D01*
Y014398D01*
Y014397D01*
X01123Y014394D01*
X011231Y014391D01*
X011232Y014387D01*
X011233Y014383D01*
X011235Y014379D01*
X011238Y014375D01*
X011238Y014374D01*
X011239Y014373D01*
X01124Y014371D01*
X011243Y014369D01*
X011246Y014366D01*
X011249Y014364D01*
X011253Y014362D01*
X011258Y01436D01*
X011259Y01436D01*
X01126Y014359D01*
X011263Y014358D01*
X011267Y014358D01*
X011272Y014357D01*
X011279Y014356D01*
X011286Y014356D01*
X011353D01*
Y014442D01*
D02*
G37*
G36*
Y014326D02*
X011291D01*
X011286Y014325D01*
X011281Y014325D01*
X011276Y014325D01*
X011271Y014324D01*
X011267Y014323D01*
X011266Y014323D01*
X011264Y014322D01*
X011262Y014321D01*
X011259Y01432D01*
X011256Y014318D01*
X011253Y014316D01*
X01125Y014313D01*
X011247Y01431D01*
X011247Y01431D01*
X011246Y014309D01*
X011245Y014307D01*
X011244Y014304D01*
X011243Y014301D01*
X011242Y014298D01*
X011241Y014293D01*
X011241Y014289D01*
Y014288D01*
Y014286D01*
X011241Y014284D01*
X011242Y014281D01*
X011242Y014278D01*
X011243Y014274D01*
X011245Y01427D01*
X011247Y014267D01*
X011247Y014266D01*
X011248Y014265D01*
X01125Y014263D01*
X011251Y014262D01*
X011254Y014259D01*
X011257Y014257D01*
X01126Y014255D01*
X011264Y014254D01*
X011265D01*
X011267Y014253D01*
X011269Y014253D01*
X011273Y014252D01*
X011279Y014251D01*
X011285Y014251D01*
X011293Y01425D01*
X011353D01*
Y014326D01*
D02*
G37*
G36*
X010473Y014451D02*
X010471D01*
X01047Y014451D01*
X010466Y01445D01*
X010461Y014448D01*
X010456Y014446D01*
X010449Y014442D01*
X010447Y01444D01*
X010444Y014437D01*
X010441Y014434D01*
X010438Y014431D01*
Y01443D01*
X010437Y014429D01*
X010436Y014428D01*
X010436Y014427D01*
X010434Y014424D01*
X010433Y014421D01*
X010432Y014417D01*
X01043Y014413D01*
X010429Y014407D01*
X010428Y014401D01*
X010426Y014395D01*
X010425Y014387D01*
X010424Y014378D01*
X010424Y014369D01*
X010423Y014359D01*
Y014348D01*
Y014348D01*
Y014347D01*
Y014345D01*
Y014342D01*
X010423Y014338D01*
Y014333D01*
X010424Y014327D01*
X010424Y014321D01*
X010425Y014314D01*
X010427Y0143D01*
X010428Y014293D01*
X010429Y014287D01*
X010431Y014281D01*
X010433Y014275D01*
X010435Y01427D01*
X010437Y014265D01*
Y014265D01*
X010438Y014265D01*
X010439Y014263D01*
X01044Y014262D01*
X010443Y014259D01*
X010447Y014255D01*
X010453Y014251D01*
X010459Y014248D01*
X010462Y014246D01*
X010466Y014245D01*
X01047Y014245D01*
X010474Y014245D01*
X010476D01*
X010477Y014245D01*
X010481Y014246D01*
X010486Y014247D01*
X010492Y014249D01*
X010498Y014252D01*
X0105Y014254D01*
X010503Y014257D01*
X010506Y014259D01*
X010508Y014263D01*
Y014263D01*
X010509Y014264D01*
X01051Y014265D01*
X010511Y014267D01*
X010512Y01427D01*
X010514Y014273D01*
X010515Y014277D01*
X010516Y014282D01*
X010518Y014288D01*
X010519Y014294D01*
X01052Y014301D01*
X010522Y014308D01*
X010523Y014317D01*
X010523Y014326D01*
X010524Y014337D01*
X010524Y014348D01*
Y014349D01*
Y01435D01*
Y014354D01*
X010524Y014358D01*
Y014363D01*
X010523Y014369D01*
X010523Y014375D01*
X010522Y014381D01*
X01052Y014396D01*
X010519Y014403D01*
X010518Y014409D01*
X010516Y014415D01*
X010514Y014421D01*
X010512Y014426D01*
X01051Y014431D01*
Y014431D01*
X010509Y014431D01*
X010507Y014434D01*
X010504Y014437D01*
X0105Y014441D01*
X010494Y014444D01*
X010488Y014448D01*
X010481Y01445D01*
X010477Y014451D01*
X010473Y014451D01*
D02*
G37*
G36*
X0108Y016818D02*
X010715D01*
X010741Y016749D01*
Y016749D01*
X010742Y016748D01*
X010742Y016746D01*
X010743Y016744D01*
X010744Y016741D01*
X010745Y016738D01*
X010746Y016734D01*
X010748Y016731D01*
X010751Y016722D01*
X010754Y016713D01*
X010757Y016705D01*
X010759Y016696D01*
Y016697D01*
X01076Y016697D01*
Y016699D01*
X01076Y0167D01*
X010761Y016703D01*
X010761Y016705D01*
X010763Y016712D01*
X010765Y016719D01*
X010767Y016727D01*
X01077Y016736D01*
X010773Y016745D01*
X0108Y016818D01*
D02*
G37*
G36*
X011852Y016731D02*
X011849D01*
X011845Y01673D01*
X011841Y01673D01*
X011836Y016729D01*
X01183Y016728D01*
X011824Y016726D01*
X011818Y016724D01*
X011819Y016724D01*
X011821Y016722D01*
X011824Y016721D01*
X011828Y016718D01*
X011833Y016716D01*
X011838Y016714D01*
X011845Y016711D01*
X011851Y01671D01*
X011848Y016699D01*
X011854Y016697D01*
X011863Y016696D01*
X011873Y016696D01*
X011879D01*
X011881Y016696D01*
X011884Y016696D01*
X01189Y016697D01*
X011897Y016699D01*
X011905Y0167D01*
X011912Y016703D01*
X011914Y016705D01*
X011914Y016705D01*
X011913Y016706D01*
X011912Y016707D01*
X01191Y016709D01*
X011907Y016711D01*
X011904Y016713D01*
X011901Y016715D01*
X011897Y016718D01*
X011893Y01672D01*
X011888Y016722D01*
X011883Y016725D01*
X011878Y016727D01*
X011872Y016728D01*
X011865Y01673D01*
X011859Y01673D01*
X011852Y016731D01*
D02*
G37*
G36*
X011791Y016705D02*
X01179Y016704D01*
X011788Y016702D01*
X011786Y016698D01*
X011783Y016694D01*
X01178Y01669D01*
X011778Y016684D01*
X011775Y016678D01*
X011773Y016671D01*
X01177Y016664D01*
X011768Y016656D01*
X011767Y016648D01*
X011766Y016639D01*
X011766Y016629D01*
Y016629D01*
Y016628D01*
Y016626D01*
Y016624D01*
X011766Y016621D01*
Y016618D01*
X011766Y016615D01*
X011767Y016611D01*
X011768Y016603D01*
X01177Y016593D01*
X011773Y016584D01*
X011776Y016576D01*
Y016575D01*
X011777Y016575D01*
X011777Y016573D01*
X011778Y016572D01*
X011781Y016568D01*
X011784Y016563D01*
X011788Y016557D01*
X011794Y016551D01*
X0118Y016545D01*
X011807Y01654D01*
X011807D01*
X011808Y016539D01*
X011809Y016539D01*
X01181Y016538D01*
X011812Y016537D01*
X011814Y016536D01*
X01182Y016533D01*
X011826Y016531D01*
X011834Y016529D01*
X011843Y016528D01*
X011852Y016527D01*
X011856D01*
X011858Y016528D01*
X011861Y016528D01*
X011865Y016529D01*
X011869Y016529D01*
X011873Y01653D01*
X011879Y016532D01*
X011883Y016533D01*
X011888Y016536D01*
X011894Y016538D01*
X011899Y016541D01*
X011904Y016545D01*
X011909Y016548D01*
X011914Y016553D01*
X011914Y016553D01*
X011915Y016554D01*
X011916Y016556D01*
X011917Y016558D01*
X01192Y01656D01*
X011921Y016564D01*
X011924Y016568D01*
X011926Y016572D01*
X011928Y016577D01*
X011931Y016583D01*
X011932Y016589D01*
X011934Y016596D01*
X011936Y016603D01*
X011937Y016611D01*
X011938Y01662D01*
X011938Y016629D01*
Y01663D01*
Y016631D01*
Y016634D01*
X011938Y016637D01*
X011938Y016641D01*
X011937Y016646D01*
X011936Y016651D01*
X011935Y016657D01*
X011932Y016669D01*
X011931Y016675D01*
X011929Y016679D01*
X011928Y016678D01*
X011921Y016675D01*
X01192D01*
X01192Y016674D01*
X011919Y016674D01*
X011917Y016673D01*
X011915Y016672D01*
X011913Y016672D01*
X011907Y01667D01*
X0119Y016669D01*
X011892Y016667D01*
X011884Y016666D01*
X011875Y016666D01*
X01187D01*
X011867Y016666D01*
X011865D01*
X011858Y016667D01*
X01185Y016668D01*
X011842Y01667D01*
X011833Y016672D01*
X011825Y016675D01*
X011825D01*
X011824Y016675D01*
X011823Y016676D01*
X011822Y016677D01*
X011818Y016679D01*
X011813Y016682D01*
X011808Y016685D01*
X011802Y01669D01*
X011797Y016696D01*
X011793Y016702D01*
Y016702D01*
X011792Y016703D01*
X011792Y016704D01*
X011791Y016705D01*
X011791Y016705D01*
D02*
G37*
G36*
X011426Y016833D02*
X011346D01*
Y01672D01*
X011426Y016833D01*
D02*
G37*
G36*
X010971Y016901D02*
X010969D01*
X010968Y016901D01*
X010964Y0169D01*
X010959Y016898D01*
X010954Y016896D01*
X010947Y016892D01*
X010944Y01689D01*
X010942Y016887D01*
X010939Y016884D01*
X010936Y016881D01*
Y01688D01*
X010935Y016879D01*
X010934Y016878D01*
X010934Y016877D01*
X010932Y016874D01*
X010931Y016871D01*
X01093Y016867D01*
X010928Y016863D01*
X010927Y016857D01*
X010926Y016851D01*
X010924Y016845D01*
X010923Y016837D01*
X010922Y016829D01*
X010922Y016819D01*
X010921Y016809D01*
Y016798D01*
Y016798D01*
Y016797D01*
Y016795D01*
Y016792D01*
X010921Y016788D01*
Y016783D01*
X010922Y016777D01*
X010922Y016771D01*
X010923Y016764D01*
X010924Y01675D01*
X010926Y016743D01*
X010927Y016737D01*
X010928Y016731D01*
X010931Y016725D01*
X010933Y01672D01*
X010935Y016715D01*
Y016715D01*
X010936Y016715D01*
X010937Y016713D01*
X010938Y016712D01*
X010941Y016709D01*
X010945Y016705D01*
X010951Y016701D01*
X010957Y016698D01*
X01096Y016696D01*
X010964Y016695D01*
X010968Y016695D01*
X010972Y016695D01*
X010974D01*
X010975Y016695D01*
X010979Y016696D01*
X010984Y016697D01*
X01099Y016699D01*
X010995Y016702D01*
X010998Y016704D01*
X011001Y016707D01*
X011004Y016709D01*
X011006Y016713D01*
Y016713D01*
X011007Y016714D01*
X011008Y016715D01*
X011009Y016717D01*
X01101Y01672D01*
X011011Y016723D01*
X011013Y016727D01*
X011014Y016732D01*
X011015Y016738D01*
X011017Y016744D01*
X011018Y016751D01*
X011019Y016758D01*
X011021Y016767D01*
X011021Y016776D01*
X011022Y016787D01*
X011022Y016798D01*
Y016799D01*
Y0168D01*
Y016804D01*
X011022Y016808D01*
Y016813D01*
X011021Y016819D01*
X011021Y016825D01*
X01102Y016831D01*
X011018Y016846D01*
X011017Y016853D01*
X011016Y016859D01*
X011014Y016865D01*
X011012Y016871D01*
X01101Y016876D01*
X011007Y016881D01*
Y016881D01*
X011007Y016881D01*
X011005Y016884D01*
X011002Y016887D01*
X010998Y016891D01*
X010992Y016894D01*
X010986Y016898D01*
X010979Y0169D01*
X010975Y016901D01*
X010971Y016901D01*
D02*
G37*
G36*
X029545Y018164D02*
X029545Y018164D01*
X029544Y018163D01*
X029543Y018162D01*
X029541Y01816D01*
X029539Y018157D01*
X029537Y018154D01*
X029535Y018151D01*
X029532Y018147D01*
X02953Y018143D01*
X029528Y018138D01*
X029525Y018133D01*
X029523Y018128D01*
X029522Y018122D01*
X02952Y018115D01*
X02952Y018109D01*
X029519Y018102D01*
Y018099D01*
X02952Y018095D01*
X02952Y018091D01*
X029521Y018086D01*
X029522Y01808D01*
X029524Y018074D01*
X029526Y018068D01*
X029526Y018069D01*
X029528Y018071D01*
X029529Y018074D01*
X029532Y018078D01*
X029534Y018083D01*
X029536Y018088D01*
X029539Y018095D01*
X02954Y018101D01*
X029551Y018098D01*
X029553Y018104D01*
X029554Y018113D01*
X029554Y018123D01*
Y018129D01*
X029554Y018131D01*
X029554Y018134D01*
X029553Y01814D01*
X029551Y018147D01*
X02955Y018155D01*
X029547Y018162D01*
X029545Y018164D01*
D02*
G37*
G36*
X029621Y018188D02*
X02962D01*
X029619D01*
X029616D01*
X029613Y018188D01*
X029609Y018188D01*
X029604Y018187D01*
X029599Y018186D01*
X029593Y018185D01*
X029581Y018182D01*
X029575Y018181D01*
X029571Y018179D01*
X029572Y018178D01*
X029575Y018171D01*
Y01817D01*
X029576Y01817D01*
X029576Y018169D01*
X029577Y018167D01*
X029578Y018165D01*
X029578Y018163D01*
X02958Y018157D01*
X029581Y01815D01*
X029583Y018142D01*
X029584Y018134D01*
X029584Y018125D01*
Y01812D01*
X029584Y018117D01*
Y018115D01*
X029583Y018108D01*
X029582Y0181D01*
X02958Y018092D01*
X029578Y018083D01*
X029575Y018075D01*
Y018075D01*
X029575Y018074D01*
X029574Y018073D01*
X029573Y018072D01*
X029571Y018068D01*
X029568Y018063D01*
X029565Y018058D01*
X02956Y018052D01*
X029554Y018047D01*
X029548Y018043D01*
X029548D01*
X029547Y018042D01*
X029546Y018042D01*
X029545Y018041D01*
X029545Y018041D01*
X029546Y01804D01*
X029548Y018038D01*
X029552Y018036D01*
X029556Y018033D01*
X02956Y01803D01*
X029566Y018028D01*
X029572Y018025D01*
X029579Y018023D01*
X029586Y01802D01*
X029594Y018018D01*
X029602Y018017D01*
X029611Y018016D01*
X029621Y018016D01*
X029621D01*
X029622D01*
X029624D01*
X029626D01*
X029629Y018016D01*
X029632D01*
X029635Y018016D01*
X029639Y018017D01*
X029647Y018018D01*
X029657Y01802D01*
X029666Y018023D01*
X029674Y018026D01*
X029675D01*
X029675Y018027D01*
X029677Y018027D01*
X029678Y018028D01*
X029682Y018031D01*
X029687Y018034D01*
X029693Y018038D01*
X029699Y018044D01*
X029705Y01805D01*
X02971Y018057D01*
Y018057D01*
X029711Y018058D01*
X029711Y018059D01*
X029712Y01806D01*
X029713Y018062D01*
X029714Y018064D01*
X029717Y01807D01*
X029719Y018076D01*
X029721Y018084D01*
X029722Y018093D01*
X029723Y018102D01*
Y018106D01*
X029722Y018108D01*
X029722Y018111D01*
X029721Y018115D01*
X029721Y018119D01*
X02972Y018123D01*
X029718Y018129D01*
X029717Y018133D01*
X029714Y018138D01*
X029712Y018144D01*
X029709Y018149D01*
X029705Y018154D01*
X029702Y018159D01*
X029697Y018164D01*
X029697Y018164D01*
X029696Y018165D01*
X029694Y018166D01*
X029692Y018167D01*
X02969Y01817D01*
X029686Y018171D01*
X029682Y018174D01*
X029678Y018176D01*
X029673Y018178D01*
X029667Y018181D01*
X029661Y018182D01*
X029654Y018184D01*
X029647Y018186D01*
X029639Y018187D01*
X02963Y018188D01*
X029621Y018188D01*
D02*
G37*
G36*
X029517Y017948D02*
X029516D01*
X029516D01*
X029514Y017947D01*
X02951Y017947D01*
X029506Y017946D01*
X029502Y017945D01*
X029497Y017943D01*
X029492Y01794D01*
X029487Y017936D01*
X029487Y017936D01*
X029486Y017934D01*
X029484Y017932D01*
X029482Y017928D01*
X02948Y017924D01*
X029478Y017919D01*
X029476Y017913D01*
X029476Y017906D01*
Y017906D01*
X029476Y017904D01*
X029477Y0179D01*
X029478Y017896D01*
X029479Y017891D01*
X029481Y017886D01*
X029484Y017881D01*
X029487Y017877D01*
X029488Y017877D01*
X02949Y017875D01*
X029491Y017874D01*
X029491Y017875D01*
X029492Y017878D01*
X029492Y017881D01*
X029493Y017885D01*
X029493Y017889D01*
X029496Y017897D01*
X029499Y017906D01*
X029501Y017911D01*
X029504Y017916D01*
X029507Y01792D01*
X029511Y017924D01*
X029511Y017925D01*
X029512Y017925D01*
X029513Y017927D01*
X029514Y017928D01*
X029516Y017929D01*
X029519Y017931D01*
X029521Y017933D01*
X029524Y017936D01*
X029528Y017938D01*
X029532Y01794D01*
X029536Y017942D01*
X029532Y017944D01*
X029527Y017946D01*
X029522Y017947D01*
X029517Y017948D01*
D02*
G37*
G36*
X029554Y017915D02*
X029551Y017914D01*
X029545Y017912D01*
X029539Y017908D01*
X029533Y017905D01*
X029528Y0179D01*
X029527Y0179D01*
X029526Y017898D01*
X029524Y017895D01*
X029522Y017892D01*
X02952Y017887D01*
X029518Y017882D01*
X029517Y017876D01*
X029516Y017869D01*
Y017867D01*
X029517Y017865D01*
X029518D01*
X029521Y017866D01*
X029525Y017867D01*
X02953Y017868D01*
X029534Y01787D01*
X029539Y017873D01*
X029544Y017877D01*
X029544Y017878D01*
X029546Y01788D01*
X029547Y017882D01*
X02955Y017885D01*
X029552Y01789D01*
X029554Y017894D01*
X029555Y0179D01*
X029555Y017906D01*
Y017909D01*
X029555Y017913D01*
X029554Y017915D01*
D02*
G37*
G36*
X0294Y017958D02*
X0294D01*
X029398D01*
X029396Y017957D01*
X029392Y017957D01*
X029388Y017956D01*
X029384Y017955D01*
X02938Y017954D01*
X029375Y017952D01*
X029375Y017952D01*
X029373Y017951D01*
X029371Y017949D01*
X029368Y017947D01*
X029365Y017945D01*
X029361Y017941D01*
X029359Y017938D01*
X029356Y017933D01*
X029355Y017933D01*
X029355Y017931D01*
X029353Y017929D01*
X029352Y017925D01*
X029351Y017921D01*
X02935Y017917D01*
X029349Y017912D01*
X029349Y017906D01*
Y017904D01*
X029349Y017903D01*
X02935Y017898D01*
X029351Y017893D01*
X029353Y017888D01*
X029355Y017881D01*
X029359Y017876D01*
X029363Y01787D01*
X029364Y017869D01*
X029366Y017868D01*
X029369Y017865D01*
X029373Y017862D01*
X029378Y01786D01*
X029384Y017857D01*
X029392Y017856D01*
X029399Y017855D01*
X0294D01*
X0294D01*
X029401D01*
X029403Y017856D01*
X029407Y017856D01*
X029412Y017857D01*
X029418Y017859D01*
X029424Y017861D01*
X02943Y017865D01*
X029436Y01787D01*
X029437Y017871D01*
X029438Y017873D01*
X029441Y017876D01*
X029444Y01788D01*
X029446Y017886D01*
X029449Y017892D01*
X02945Y0179D01*
X029451Y017908D01*
Y01791D01*
X029451Y017911D01*
X02945Y017915D01*
X029449Y01792D01*
X029447Y017926D01*
X029445Y017932D01*
X029441Y017938D01*
X029436Y017944D01*
X029436Y017944D01*
X029434Y017946D01*
X029431Y017948D01*
X029427Y017951D01*
X029421Y017953D01*
X029415Y017956D01*
X029408Y017957D01*
X0294Y017958D01*
D02*
G37*
G36*
X029452Y017762D02*
X029451D01*
X02945D01*
X029446D01*
X029442Y017761D01*
X029437D01*
X029431Y017761D01*
X029425Y017761D01*
X029419Y01776D01*
X029404Y017758D01*
X029397Y017757D01*
X029391Y017755D01*
X029385Y017754D01*
X029379Y017752D01*
X029374Y01775D01*
X029369Y017747D01*
X029369D01*
X029369Y017746D01*
X029366Y017745D01*
X029363Y017741D01*
X029359Y017737D01*
X029356Y017732D01*
X029352Y017726D01*
X02935Y017719D01*
X029349Y017715D01*
X029349Y017711D01*
Y017709D01*
X029349Y017707D01*
X02935Y017704D01*
X029352Y017699D01*
X029354Y017693D01*
X029358Y017687D01*
X02936Y017684D01*
X029363Y017681D01*
X029366Y017678D01*
X029369Y017675D01*
X02937D01*
X029371Y017675D01*
X029372Y017674D01*
X029373Y017673D01*
X029376Y017672D01*
X029379Y017671D01*
X029383Y017669D01*
X029387Y017668D01*
X029393Y017667D01*
X029399Y017665D01*
X029405Y017664D01*
X029413Y017663D01*
X029422Y017662D01*
X029431Y017661D01*
X029441Y01766D01*
X029452D01*
X029452D01*
X029453D01*
X029455D01*
X029458D01*
X029462Y017661D01*
X029467D01*
X029473Y017661D01*
X029479Y017662D01*
X029486Y017662D01*
X0295Y017664D01*
X029507Y017665D01*
X029513Y017667D01*
X029519Y017668D01*
X029525Y01767D01*
X02953Y017672D01*
X029535Y017675D01*
X029535D01*
X029535Y017676D01*
X029537Y017676D01*
X029538Y017678D01*
X029541Y017681D01*
X029545Y017685D01*
X029549Y01769D01*
X029552Y017696D01*
X029554Y0177D01*
X029555Y017703D01*
X029555Y017707D01*
X029555Y017711D01*
Y017714D01*
X029555Y017715D01*
X029554Y017719D01*
X029553Y017724D01*
X029551Y017729D01*
X029548Y017735D01*
X029546Y017738D01*
X029543Y017741D01*
X029541Y017743D01*
X029537Y017746D01*
X029537D01*
X029536Y017747D01*
X029535Y017747D01*
X029533Y017749D01*
X02953Y01775D01*
X029527Y017751D01*
X029523Y017752D01*
X029518Y017754D01*
X029513Y017755D01*
X029506Y017757D01*
X029499Y017758D01*
X029492Y017759D01*
X029483Y01776D01*
X029474Y017761D01*
X029463Y017761D01*
X029452Y017762D01*
D02*
G37*
G36*
Y01737D02*
X029451D01*
X02945D01*
X029446D01*
X029442Y01737D01*
X029437D01*
X029431Y017369D01*
X029425Y017369D01*
X029419Y017368D01*
X029404Y017366D01*
X029397Y017365D01*
X029391Y017364D01*
X029385Y017362D01*
X029379Y01736D01*
X029374Y017358D01*
X029369Y017355D01*
X029369D01*
X029369Y017355D01*
X029366Y017353D01*
X029363Y01735D01*
X029359Y017346D01*
X029356Y01734D01*
X029352Y017334D01*
X02935Y017327D01*
X029349Y017323D01*
X029349Y017319D01*
Y017317D01*
X029349Y017316D01*
X02935Y017312D01*
X029352Y017307D01*
X029354Y017302D01*
X029358Y017295D01*
X02936Y017292D01*
X029363Y01729D01*
X029366Y017287D01*
X029369Y017284D01*
X02937D01*
X029371Y017283D01*
X029372Y017282D01*
X029373Y017282D01*
X029376Y01728D01*
X029379Y017279D01*
X029383Y017277D01*
X029387Y017276D01*
X029393Y017275D01*
X029399Y017273D01*
X029405Y017272D01*
X029413Y017271D01*
X029422Y01727D01*
X029431Y017269D01*
X029441Y017269D01*
X029452D01*
X029452D01*
X029453D01*
X029455D01*
X029458D01*
X029462Y017269D01*
X029467D01*
X029473Y017269D01*
X029479Y01727D01*
X029486Y017271D01*
X0295Y017272D01*
X029507Y017273D01*
X029513Y017275D01*
X029519Y017276D01*
X029525Y017279D01*
X02953Y017281D01*
X029535Y017283D01*
X029535D01*
X029535Y017284D01*
X029537Y017285D01*
X029538Y017286D01*
X029541Y017289D01*
X029545Y017293D01*
X029549Y017299D01*
X029552Y017305D01*
X029554Y017308D01*
X029555Y017312D01*
X029555Y017316D01*
X029555Y01732D01*
Y017322D01*
X029555Y017323D01*
X029554Y017327D01*
X029553Y017332D01*
X029551Y017338D01*
X029548Y017343D01*
X029546Y017346D01*
X029543Y017349D01*
X029541Y017352D01*
X029537Y017354D01*
X029537D01*
X029536Y017355D01*
X029535Y017356D01*
X029533Y017357D01*
X02953Y017358D01*
X029527Y017359D01*
X029523Y01736D01*
X029518Y017362D01*
X029513Y017363D01*
X029506Y017365D01*
X029499Y017366D01*
X029492Y017367D01*
X029483Y017369D01*
X029474Y017369D01*
X029463Y01737D01*
X029452Y01737D01*
D02*
G37*
G36*
X029595Y016764D02*
X029595Y016764D01*
X029594Y016763D01*
X029593Y016762D01*
X029592Y01676D01*
X029589Y016757D01*
X029587Y016754D01*
X029585Y016751D01*
X029582Y016747D01*
X02958Y016743D01*
X029578Y016738D01*
X029575Y016733D01*
X029573Y016728D01*
X029572Y016722D01*
X02957Y016715D01*
X02957Y016709D01*
X029569Y016702D01*
Y016699D01*
X02957Y016695D01*
X02957Y016691D01*
X029571Y016686D01*
X029572Y01668D01*
X029574Y016674D01*
X029576Y016668D01*
X029576Y016669D01*
X029578Y016671D01*
X029579Y016674D01*
X029582Y016678D01*
X029584Y016683D01*
X029586Y016688D01*
X029589Y016695D01*
X02959Y016701D01*
X029601Y016698D01*
X029603Y016704D01*
X029604Y016713D01*
X029604Y016723D01*
Y016729D01*
X029604Y016731D01*
X029604Y016734D01*
X029603Y01674D01*
X029601Y016747D01*
X0296Y016755D01*
X029597Y016762D01*
X029595Y016764D01*
D02*
G37*
G36*
X029671Y016788D02*
X02967D01*
X029669D01*
X029666D01*
X029663Y016788D01*
X029659Y016788D01*
X029654Y016787D01*
X029649Y016786D01*
X029643Y016785D01*
X029631Y016782D01*
X029625Y016781D01*
X029621Y016779D01*
X029622Y016778D01*
X029625Y016771D01*
Y01677D01*
X029626Y01677D01*
X029626Y016769D01*
X029627Y016767D01*
X029628Y016765D01*
X029628Y016763D01*
X02963Y016757D01*
X029631Y01675D01*
X029633Y016742D01*
X029634Y016734D01*
X029634Y016725D01*
Y01672D01*
X029634Y016717D01*
Y016715D01*
X029633Y016708D01*
X029632Y0167D01*
X02963Y016692D01*
X029628Y016683D01*
X029625Y016675D01*
Y016675D01*
X029625Y016674D01*
X029624Y016673D01*
X029623Y016672D01*
X029621Y016668D01*
X029618Y016663D01*
X029615Y016658D01*
X02961Y016652D01*
X029604Y016647D01*
X029598Y016643D01*
X029598D01*
X029597Y016642D01*
X029596Y016642D01*
X029595Y016641D01*
X029595Y016641D01*
X029596Y01664D01*
X029598Y016638D01*
X029602Y016636D01*
X029606Y016633D01*
X02961Y01663D01*
X029616Y016628D01*
X029622Y016625D01*
X029629Y016623D01*
X029636Y01662D01*
X029644Y016618D01*
X029652Y016617D01*
X029661Y016616D01*
X029671Y016616D01*
X029671D01*
X029672D01*
X029674D01*
X029676D01*
X029679Y016616D01*
X029682D01*
X029685Y016616D01*
X029689Y016617D01*
X029697Y016618D01*
X029707Y01662D01*
X029716Y016623D01*
X029724Y016626D01*
X029725D01*
X029725Y016627D01*
X029727Y016627D01*
X029728Y016628D01*
X029732Y016631D01*
X029737Y016634D01*
X029743Y016638D01*
X029749Y016644D01*
X029755Y01665D01*
X02976Y016657D01*
Y016657D01*
X029761Y016658D01*
X029761Y016659D01*
X029762Y01666D01*
X029763Y016662D01*
X029764Y016664D01*
X029767Y01667D01*
X029769Y016676D01*
X029771Y016684D01*
X029772Y016693D01*
X029773Y016702D01*
Y016706D01*
X029772Y016708D01*
X029772Y016711D01*
X029771Y016715D01*
X029771Y016719D01*
X029769Y016723D01*
X029768Y016729D01*
X029767Y016733D01*
X029764Y016738D01*
X029762Y016744D01*
X029759Y016749D01*
X029755Y016754D01*
X029752Y016759D01*
X029747Y016764D01*
X029747Y016764D01*
X029746Y016765D01*
X029744Y016766D01*
X029742Y016767D01*
X02974Y01677D01*
X029736Y016771D01*
X029732Y016774D01*
X029728Y016776D01*
X029723Y016778D01*
X029717Y016781D01*
X029711Y016782D01*
X029704Y016784D01*
X029697Y016786D01*
X029689Y016787D01*
X02968Y016788D01*
X029671Y016788D01*
D02*
G37*
G36*
X029575Y016546D02*
X029577Y016545D01*
X029582Y016543D01*
X029588Y016539D01*
X029594Y016535D01*
X029597Y016532D01*
X029594Y016536D01*
X029593Y016537D01*
X029592Y016538D01*
X029589Y01654D01*
X029586Y016542D01*
X029582Y016544D01*
X029577Y016546D01*
X029575Y016546D01*
D02*
G37*
G36*
X029545Y016542D02*
X029542Y01654D01*
X029537Y016536D01*
X029537Y016536D01*
X029536Y016534D01*
X029534Y016532D01*
X029532Y016528D01*
X02953Y016524D01*
X029528Y016519D01*
X029526Y016513D01*
X029526Y016506D01*
Y016506D01*
X029526Y016504D01*
X029527Y0165D01*
X029528Y016496D01*
X029529Y016491D01*
X029531Y016486D01*
X029534Y016481D01*
X029537Y016477D01*
X029538Y016477D01*
X02954Y016475D01*
X029542Y016473D01*
X029545Y016471D01*
X029545Y016471D01*
Y016542D01*
D02*
G37*
G36*
X029575Y016511D02*
Y016467D01*
X029575Y016467D01*
X02958Y016468D01*
X029584Y01647D01*
X029589Y016473D01*
X029594Y016477D01*
X029594Y016478D01*
X029596Y01648D01*
X029597Y016482D01*
X0296Y016485D01*
X029601Y016488D01*
X0296Y016489D01*
X029595Y016494D01*
X029593Y016496D01*
X029592Y016498D01*
X029591Y016498D01*
X02959Y016499D01*
X029589Y016501D01*
X029586Y016502D01*
X029584Y016504D01*
X029581Y016506D01*
X029575Y016511D01*
D02*
G37*
G36*
X02945Y016558D02*
X02945D01*
X029448D01*
X029446Y016557D01*
X029442Y016557D01*
X029438Y016556D01*
X029434Y016555D01*
X02943Y016554D01*
X029425Y016552D01*
X029425Y016552D01*
X029423Y016551D01*
X029421Y016549D01*
X029418Y016547D01*
X029415Y016545D01*
X029411Y016541D01*
X029409Y016538D01*
X029406Y016533D01*
X029405Y016533D01*
X029405Y016531D01*
X029403Y016529D01*
X029402Y016525D01*
X029401Y016521D01*
X0294Y016517D01*
X029399Y016512D01*
X029399Y016506D01*
Y016504D01*
X029399Y016503D01*
X0294Y016498D01*
X029401Y016493D01*
X029403Y016488D01*
X029405Y016481D01*
X029409Y016476D01*
X029413Y01647D01*
X029414Y016469D01*
X029416Y016468D01*
X029419Y016465D01*
X029423Y016462D01*
X029428Y01646D01*
X029434Y016457D01*
X029442Y016456D01*
X029449Y016455D01*
X02945D01*
X02945D01*
X029451D01*
X029453Y016456D01*
X029457Y016456D01*
X029462Y016457D01*
X029468Y016459D01*
X029474Y016461D01*
X02948Y016465D01*
X029486Y01647D01*
X029487Y016471D01*
X029488Y016473D01*
X029491Y016476D01*
X029494Y01648D01*
X029496Y016486D01*
X029499Y016492D01*
X0295Y0165D01*
X029501Y016508D01*
Y01651D01*
X029501Y016511D01*
X0295Y016515D01*
X029499Y01652D01*
X029497Y016526D01*
X029495Y016532D01*
X029491Y016538D01*
X029486Y016544D01*
X029486Y016544D01*
X029484Y016546D01*
X029481Y016548D01*
X029477Y016551D01*
X029471Y016553D01*
X029465Y016556D01*
X029458Y016557D01*
X02945Y016558D01*
D02*
G37*
G36*
X029502Y016362D02*
X029501D01*
X0295D01*
X029496D01*
X029492Y016361D01*
X029487D01*
X029481Y016361D01*
X029475Y016361D01*
X029469Y01636D01*
X029454Y016358D01*
X029447Y016357D01*
X029441Y016355D01*
X029435Y016354D01*
X029429Y016352D01*
X029424Y01635D01*
X029419Y016347D01*
X029419D01*
X029419Y016346D01*
X029416Y016345D01*
X029413Y016341D01*
X029409Y016337D01*
X029406Y016332D01*
X029402Y016326D01*
X0294Y016319D01*
X029399Y016315D01*
X029399Y016311D01*
Y016309D01*
X029399Y016307D01*
X0294Y016304D01*
X029402Y016299D01*
X029404Y016293D01*
X029408Y016287D01*
X02941Y016284D01*
X029413Y016281D01*
X029416Y016278D01*
X029419Y016275D01*
X02942D01*
X029421Y016275D01*
X029422Y016274D01*
X029423Y016273D01*
X029426Y016272D01*
X029429Y016271D01*
X029433Y016269D01*
X029437Y016268D01*
X029443Y016267D01*
X029449Y016265D01*
X029455Y016264D01*
X029463Y016263D01*
X029471Y016262D01*
X029481Y016261D01*
X029491Y01626D01*
X029502D01*
X029502D01*
X029503D01*
X029505D01*
X029508D01*
X029512Y016261D01*
X029517D01*
X029523Y016261D01*
X029529Y016262D01*
X029536Y016262D01*
X02955Y016264D01*
X029557Y016265D01*
X029563Y016267D01*
X029569Y016268D01*
X029575Y01627D01*
X02958Y016272D01*
X029585Y016275D01*
X029585D01*
X029585Y016276D01*
X029587Y016276D01*
X029588Y016278D01*
X029591Y016281D01*
X029595Y016285D01*
X029599Y01629D01*
X029602Y016296D01*
X029604Y0163D01*
X029605Y016303D01*
X029605Y016307D01*
X029605Y016311D01*
Y016314D01*
X029605Y016315D01*
X029604Y016319D01*
X029603Y016324D01*
X029601Y016329D01*
X029598Y016335D01*
X029596Y016338D01*
X029593Y016341D01*
X029591Y016343D01*
X029587Y016346D01*
X029587D01*
X029586Y016347D01*
X029585Y016347D01*
X029583Y016349D01*
X02958Y01635D01*
X029577Y016351D01*
X029573Y016352D01*
X029568Y016354D01*
X029562Y016355D01*
X029556Y016357D01*
X029549Y016358D01*
X029542Y016359D01*
X029533Y01636D01*
X029524Y016361D01*
X029513Y016361D01*
X029502Y016362D01*
D02*
G37*
G36*
Y01597D02*
X029501D01*
X0295D01*
X029496D01*
X029492Y01597D01*
X029487D01*
X029481Y015969D01*
X029475Y015969D01*
X029469Y015968D01*
X029454Y015966D01*
X029447Y015965D01*
X029441Y015964D01*
X029435Y015962D01*
X029429Y01596D01*
X029424Y015958D01*
X029419Y015955D01*
X029419D01*
X029419Y015955D01*
X029416Y015953D01*
X029413Y01595D01*
X029409Y015946D01*
X029406Y01594D01*
X029402Y015934D01*
X0294Y015927D01*
X029399Y015923D01*
X029399Y015919D01*
Y015917D01*
X029399Y015916D01*
X0294Y015912D01*
X029402Y015907D01*
X029404Y015902D01*
X029408Y015895D01*
X02941Y015892D01*
X029413Y01589D01*
X029416Y015887D01*
X029419Y015884D01*
X02942D01*
X029421Y015883D01*
X029422Y015882D01*
X029423Y015882D01*
X029426Y01588D01*
X029429Y015879D01*
X029433Y015877D01*
X029437Y015876D01*
X029443Y015875D01*
X029449Y015873D01*
X029455Y015872D01*
X029463Y015871D01*
X029471Y01587D01*
X029481Y015869D01*
X029491Y015869D01*
X029502D01*
X029502D01*
X029503D01*
X029505D01*
X029508D01*
X029512Y015869D01*
X029517D01*
X029523Y015869D01*
X029529Y01587D01*
X029536Y015871D01*
X02955Y015872D01*
X029557Y015873D01*
X029563Y015875D01*
X029569Y015876D01*
X029575Y015879D01*
X02958Y015881D01*
X029585Y015883D01*
X029585D01*
X029585Y015884D01*
X029587Y015885D01*
X029588Y015886D01*
X029591Y015889D01*
X029595Y015893D01*
X029599Y015899D01*
X029602Y015905D01*
X029604Y015908D01*
X029605Y015912D01*
X029605Y015916D01*
X029605Y01592D01*
Y015922D01*
X029605Y015923D01*
X029604Y015927D01*
X029603Y015932D01*
X029601Y015938D01*
X029598Y015943D01*
X029596Y015946D01*
X029593Y015949D01*
X029591Y015952D01*
X029587Y015954D01*
X029587D01*
X029586Y015955D01*
X029585Y015956D01*
X029583Y015957D01*
X02958Y015958D01*
X029577Y015959D01*
X029573Y01596D01*
X029568Y015962D01*
X029562Y015963D01*
X029556Y015965D01*
X029549Y015966D01*
X029542Y015967D01*
X029533Y015969D01*
X029524Y015969D01*
X029513Y01597D01*
X029502Y01597D01*
D02*
G37*
%LPD*%
D12*
X032608Y019662D02*
X033612D01*
X032608Y018638D02*
X033612D01*
X032608D02*
Y019662D01*
X033612Y018638D02*
Y019662D01*
X010988Y014108D02*
Y015112D01*
X012012Y014108D02*
Y015112D01*
X010988Y014108D02*
X012012D01*
X010988Y015112D02*
X012012D01*
X010988Y017562D02*
X012012D01*
X010988Y016558D02*
X012012D01*
Y017562D01*
X010988Y016558D02*
Y017562D01*
X028688Y017238D02*
X029692D01*
X028688Y018262D02*
X029692D01*
Y017238D02*
Y018262D01*
X028688Y017238D02*
Y018262D01*
X028738Y015838D02*
X029742D01*
X028738Y016862D02*
X029742D01*
Y015838D02*
Y016862D01*
X028738Y015838D02*
Y016862D01*
D137*
X032559Y01915D02*
D03*
X029741Y01775D02*
D03*
X029791Y01635D02*
D03*
D138*
X033651Y018786D02*
D03*
Y019514D02*
D03*
X028649Y018114D02*
D03*
Y017386D02*
D03*
X028699Y016714D02*
D03*
Y015986D02*
D03*
D139*
X0115Y014059D02*
D03*
Y016509D02*
D03*
D140*
X011864Y015151D02*
D03*
X011136D02*
D03*
Y017601D02*
D03*
X011864D02*
D03*
M02*
