G04*
G04 #@! TF.GenerationSoftware,Altium Limited,Altium Designer,18.0.7 (293)*
G04*
G04 Layer_Color=16711935*
%FSTAX24Y24*%
%MOIN*%
G70*
G01*
G75*
%ADD96C,0.0592*%
%ADD97C,0.0710*%
%ADD98C,0.1716*%
%ADD99C,0.0336*%
%ADD100C,0.0671*%
%ADD101C,0.0686*%
%ADD102C,0.0848*%
%ADD103O,0.0474X0.0907*%
G04:AMPARAMS|DCode=104|XSize=78.9mil|YSize=47.4mil|CornerRadius=13.8mil|HoleSize=0mil|Usage=FLASHONLY|Rotation=90.000|XOffset=0mil|YOffset=0mil|HoleType=Round|Shape=RoundedRectangle|*
%AMROUNDEDRECTD104*
21,1,0.0789,0.0197,0,0,90.0*
21,1,0.0512,0.0474,0,0,90.0*
1,1,0.0277,0.0098,0.0256*
1,1,0.0277,0.0098,-0.0256*
1,1,0.0277,-0.0098,-0.0256*
1,1,0.0277,-0.0098,0.0256*
%
%ADD104ROUNDEDRECTD104*%
%ADD105O,0.0710X0.0946*%
%ADD107C,0.1058*%
%ADD108P,0.2217X8X292.5*%
%ADD109P,0.2217X8X202.5*%
%ADD136O,0.0710X0.0867*%
D96*
X0328Y01465D02*
D03*
Y017209D02*
D03*
X0314Y01195D02*
D03*
X030613D02*
D03*
X029825D02*
D03*
D97*
X01705Y037244D02*
D03*
Y01535D02*
D03*
D98*
Y040647D02*
D03*
Y011946D02*
D03*
D99*
X022363Y034367D02*
D03*
X025166Y033467D02*
D03*
X022474Y01245D02*
D03*
X02475D02*
D03*
D100*
X02315Y038934D02*
D03*
Y03795D02*
D03*
Y036966D02*
D03*
Y035982D02*
D03*
Y034997D02*
D03*
X02615Y03705D02*
D03*
Y036066D02*
D03*
Y035082D02*
D03*
Y034097D02*
D03*
D101*
X031356Y04075D02*
D03*
X029584D02*
D03*
X0274D02*
D03*
X025628D02*
D03*
D102*
X03185Y03977D02*
D03*
X02909D02*
D03*
X027894D02*
D03*
X025134D02*
D03*
D103*
X025313Y012647D02*
D03*
X021911D02*
D03*
D104*
X025313Y011001D02*
D03*
X021911D02*
D03*
D105*
X026Y0117D02*
D03*
X028D02*
D03*
D107*
X032227Y01195D02*
D03*
X028998D02*
D03*
D108*
X034157Y04085D02*
D03*
X011433Y011433D02*
D03*
D109*
X034157D02*
D03*
X011433Y04085D02*
D03*
D136*
X027Y0117D02*
D03*
M02*
