G04*
G04 #@! TF.GenerationSoftware,Altium Limited,Altium Designer,18.0.7 (293)*
G04*
G04 Layer_Color=16711935*
%FSTAX24Y24*%
%MOIN*%
G70*
G01*
G75*
%ADD11C,0.0079*%
%ADD12C,0.0039*%
%ADD13C,0.0100*%
%ADD141C,0.0010*%
%ADD142C,0.0020*%
%ADD143R,0.0331X0.0669*%
%ADD144R,0.0669X0.0331*%
%ADD145R,0.0331X0.0669*%
G36*
X026919Y016392D02*
Y016392D01*
X026919Y016391D01*
X026918Y01639D01*
X026918Y016388D01*
X026916Y016386D01*
X026915Y016383D01*
X026913Y016377D01*
X026911Y016371D01*
X026908Y016364D01*
X026905Y016358D01*
X026902Y016353D01*
X026903D01*
X026904D01*
X026905Y016353D01*
X026907D01*
X02691Y016353D01*
X026913Y016354D01*
X026919Y016354D01*
X026926Y016355D01*
X026934Y016356D01*
X02694Y016356D01*
X026943D01*
X026945D01*
Y016331D01*
X026945D01*
X026944D01*
X026943D01*
X026942D01*
X026938Y016332D01*
X026934Y016332D01*
X026927Y016333D01*
X02692Y016333D01*
X026911Y016334D01*
X026902Y016335D01*
Y016335D01*
X026903Y016334D01*
X026903Y016333D01*
X026904Y016332D01*
X026906Y016328D01*
X026908Y016324D01*
X02691Y016318D01*
X026913Y016311D01*
X026916Y016303D01*
X026919Y016295D01*
X026895Y016287D01*
Y016287D01*
X026894Y016288D01*
X026894Y016289D01*
X026894Y01629D01*
X026893Y016293D01*
X026892Y016295D01*
X026891Y0163D01*
X026889Y016307D01*
X026887Y016314D01*
X026886Y016322D01*
X026885Y01633D01*
X026884Y016329D01*
X026883Y016328D01*
X026881Y016325D01*
X026878Y016322D01*
X026873Y016318D01*
X026867Y016313D01*
X02686Y016307D01*
X026852Y0163D01*
X026838Y016321D01*
X026839Y016321D01*
X026841Y016322D01*
X026844Y016325D01*
X026848Y016328D01*
X026853Y016331D01*
X026859Y016335D01*
X026867Y01634D01*
X026875Y016344D01*
X026874D01*
X026874Y016345D01*
X026872Y016345D01*
X026871Y016346D01*
X026866Y016349D01*
X026861Y016352D01*
X026855Y016355D01*
X026849Y016359D01*
X026843Y016363D01*
X026838Y016367D01*
X026852Y016387D01*
X026853Y016386D01*
X026853Y016386D01*
X026855Y016385D01*
X026856Y016383D01*
X026861Y01638D01*
X026866Y016376D01*
X026871Y016371D01*
X026876Y016366D01*
X026881Y016362D01*
X026883Y01636D01*
X026885Y016358D01*
Y016358D01*
X026885Y016359D01*
Y01636D01*
X026886Y016362D01*
X026886Y016364D01*
X026887Y016366D01*
X026888Y016372D01*
X026889Y016378D01*
X026891Y016385D01*
X026895Y0164D01*
X026919Y016392D01*
D02*
G37*
G36*
X026088Y010273D02*
X026091Y010272D01*
X026095Y010272D01*
X026099Y010272D01*
X026104Y010271D01*
X026114Y010268D01*
X026125Y010265D01*
X02613Y010263D01*
X026135Y01026D01*
X02614Y010257D01*
X026146Y010254D01*
X026146Y010254D01*
X026147Y010253D01*
X026148Y010252D01*
X02615Y01025D01*
X026152Y010248D01*
X026154Y010246D01*
X026157Y010243D01*
X02616Y01024D01*
X026163Y010236D01*
X026166Y010232D01*
X026169Y010228D01*
X026172Y010223D01*
X026174Y010217D01*
X026177Y010212D01*
X026179Y010206D01*
X026182Y0102D01*
X026149Y010192D01*
Y010192D01*
X026148Y010193D01*
X026148Y010195D01*
X026147Y010196D01*
X026146Y010199D01*
X026145Y010201D01*
X026142Y010207D01*
X026139Y010214D01*
X026134Y01022D01*
X026129Y010227D01*
X026123Y010232D01*
X026122Y010233D01*
X02612Y010234D01*
X026116Y010236D01*
X026112Y010239D01*
X026105Y010241D01*
X026099Y010243D01*
X02609Y010244D01*
X026081Y010245D01*
X026078D01*
X026076Y010244D01*
X026074D01*
X026071Y010244D01*
X026064Y010243D01*
X026056Y010242D01*
X026048Y010239D01*
X02604Y010235D01*
X026032Y010231D01*
X026032D01*
X026032Y01023D01*
X026029Y010228D01*
X026026Y010225D01*
X026022Y010221D01*
X026017Y010215D01*
X026013Y010209D01*
X026009Y010201D01*
X026005Y010193D01*
Y010193D01*
X026005Y010192D01*
X026004Y010191D01*
X026004Y010189D01*
X026003Y010187D01*
X026002Y010184D01*
X026001Y010178D01*
X026Y010171D01*
X025998Y010163D01*
X025998Y010154D01*
X025997Y010145D01*
Y010144D01*
Y010143D01*
Y010141D01*
Y010139D01*
X025998Y010137D01*
Y010133D01*
X025998Y01013D01*
X025998Y010126D01*
X026Y010117D01*
X026001Y010108D01*
X026004Y010098D01*
X026006Y010089D01*
Y010088D01*
X026007Y010088D01*
X026008Y010086D01*
X026008Y010085D01*
X02601Y01008D01*
X026014Y010075D01*
X026018Y010069D01*
X026023Y010063D01*
X026029Y010058D01*
X026036Y010053D01*
X026036D01*
X026037Y010052D01*
X026038Y010052D01*
X026039Y010051D01*
X026041Y01005D01*
X026043Y010049D01*
X026048Y010047D01*
X026055Y010045D01*
X026062Y010043D01*
X02607Y010041D01*
X026079Y010041D01*
X026081D01*
X026083Y010041D01*
X026086D01*
X026088Y010042D01*
X026095Y010043D01*
X026103Y010045D01*
X02611Y010048D01*
X026118Y010052D01*
X026122Y010054D01*
X026126Y010057D01*
X026126Y010057D01*
X026127Y010058D01*
X026128Y010059D01*
X026129Y01006D01*
X026131Y010062D01*
X026132Y010064D01*
X026135Y010066D01*
X026136Y010069D01*
X026139Y010072D01*
X026141Y010076D01*
X026143Y01008D01*
X026146Y010084D01*
X026147Y010089D01*
X026149Y010094D01*
X026151Y010099D01*
X026152Y010105D01*
X026186Y010097D01*
Y010096D01*
X026186Y010095D01*
X026185Y010093D01*
X026184Y01009D01*
X026183Y010086D01*
X026181Y010082D01*
X026179Y010078D01*
X026177Y010073D01*
X026172Y010063D01*
X026166Y010053D01*
X026162Y010048D01*
X026158Y010043D01*
X026153Y010038D01*
X026148Y010034D01*
X026148Y010034D01*
X026147Y010033D01*
X026145Y010032D01*
X026143Y010031D01*
X02614Y010029D01*
X026137Y010027D01*
X026133Y010025D01*
X026129Y010023D01*
X026125Y010021D01*
X02612Y010019D01*
X026114Y010018D01*
X026108Y010016D01*
X026102Y010014D01*
X026096Y010014D01*
X026089Y010013D01*
X026081Y010013D01*
X026077D01*
X026075Y010013D01*
X026071D01*
X026067Y010013D01*
X026063Y010014D01*
X026058Y010015D01*
X026047Y010017D01*
X026036Y010019D01*
X026025Y010023D01*
X02602Y010026D01*
X026015Y010029D01*
X026015Y010029D01*
X026014Y01003D01*
X026013Y010031D01*
X026011Y010032D01*
X026009Y010034D01*
X026006Y010036D01*
X026004Y010038D01*
X026001Y010041D01*
X025998Y010045D01*
X025994Y010048D01*
X025988Y010056D01*
X025982Y010066D01*
X025976Y010077D01*
Y010077D01*
X025976Y010078D01*
X025975Y01008D01*
X025974Y010082D01*
X025973Y010085D01*
X025972Y010089D01*
X025971Y010093D01*
X02597Y010097D01*
X025969Y010102D01*
X025967Y010108D01*
X025965Y010119D01*
X025964Y010132D01*
X025963Y010145D01*
Y010145D01*
Y010147D01*
Y010149D01*
X025964Y010151D01*
Y010155D01*
X025964Y010159D01*
X025964Y010163D01*
X025965Y010168D01*
X025967Y010179D01*
X025969Y01019D01*
X025973Y010202D01*
X025978Y010213D01*
X025978Y010213D01*
X025979Y010215D01*
X02598Y010216D01*
X025981Y010218D01*
X025982Y01022D01*
X025984Y010223D01*
X025989Y01023D01*
X025995Y010237D01*
X026002Y010244D01*
X026011Y010252D01*
X026021Y010258D01*
X026021Y010258D01*
X026022Y010259D01*
X026024Y010259D01*
X026025Y01026D01*
X026028Y010262D01*
X026031Y010263D01*
X026035Y010264D01*
X026039Y010266D01*
X026043Y010267D01*
X026048Y010268D01*
X026058Y010271D01*
X02607Y010272D01*
X026082Y010273D01*
X026085D01*
X026088Y010273D01*
D02*
G37*
G36*
X027173D02*
X027176D01*
X027183Y010272D01*
X02719Y010271D01*
X027198Y010269D01*
X027207Y010267D01*
X027215Y010264D01*
X027216D01*
X027216Y010264D01*
X027217Y010263D01*
X027219Y010263D01*
X027223Y01026D01*
X027228Y010258D01*
X027234Y010254D01*
X027239Y01025D01*
X027245Y010245D01*
X02725Y010239D01*
X027251Y010239D01*
X027252Y010236D01*
X027254Y010233D01*
X027257Y010228D01*
X02726Y010223D01*
X027263Y010215D01*
X027267Y010207D01*
X027269Y010198D01*
X027239Y01019D01*
Y010191D01*
X027239Y010191D01*
X027238Y010192D01*
X027238Y010193D01*
X027237Y010197D01*
X027235Y010201D01*
X027233Y010206D01*
X027231Y010211D01*
X027228Y010216D01*
X027225Y01022D01*
X027224Y010221D01*
X027223Y010222D01*
X027221Y010224D01*
X027219Y010227D01*
X027215Y01023D01*
X027211Y010232D01*
X027206Y010235D01*
X027201Y010238D01*
X0272Y010238D01*
X027198Y010239D01*
X027195Y01024D01*
X027191Y010242D01*
X027185Y010243D01*
X02718Y010244D01*
X027173Y010244D01*
X027166Y010245D01*
X027162D01*
X02716Y010244D01*
X027158D01*
X027153Y010244D01*
X027147Y010243D01*
X02714Y010242D01*
X027133Y01024D01*
X027126Y010238D01*
X027126Y010237D01*
X027124Y010236D01*
X027121Y010235D01*
X027117Y010233D01*
X027113Y01023D01*
X027108Y010227D01*
X027104Y010223D01*
X0271Y010219D01*
X027099Y010219D01*
X027098Y010217D01*
X027096Y010215D01*
X027094Y010212D01*
X027091Y010208D01*
X027089Y010204D01*
X027086Y010199D01*
X027084Y010194D01*
Y010194D01*
X027083Y010193D01*
X027083Y010192D01*
X027082Y01019D01*
X027081Y010188D01*
X027081Y010185D01*
X02708Y010183D01*
X027079Y010179D01*
X027077Y010172D01*
X027076Y010163D01*
X027074Y010154D01*
X027074Y010144D01*
Y010143D01*
Y010142D01*
Y01014D01*
X027074Y010138D01*
Y010135D01*
X027075Y010132D01*
X027075Y010128D01*
X027076Y010124D01*
X027077Y010115D01*
X027079Y010105D01*
X027082Y010096D01*
X027085Y010087D01*
Y010086D01*
X027086Y010086D01*
X027086Y010085D01*
X027088Y010083D01*
X02709Y010079D01*
X027094Y010074D01*
X027099Y010069D01*
X027105Y010063D01*
X027112Y010058D01*
X027119Y010053D01*
X02712D01*
X02712Y010053D01*
X027121Y010052D01*
X027123Y010052D01*
X027125Y010051D01*
X027128Y01005D01*
X027133Y010048D01*
X027141Y010046D01*
X027149Y010044D01*
X027157Y010043D01*
X027167Y010042D01*
X02717D01*
X027172Y010043D01*
X027175D01*
X02718Y010043D01*
X027187Y010044D01*
X027193Y010046D01*
X027201Y010048D01*
X027209Y01005D01*
X027209D01*
X02721Y010051D01*
X027211Y010051D01*
X027212Y010052D01*
X027216Y010054D01*
X02722Y010056D01*
X027225Y010058D01*
X027231Y010061D01*
X027236Y010065D01*
X02724Y010068D01*
Y010116D01*
X027166D01*
Y010145D01*
X027273D01*
Y010052D01*
X027273Y010052D01*
X027272Y010051D01*
X027271Y01005D01*
X027269Y010049D01*
X027267Y010047D01*
X027264Y010045D01*
X027261Y010043D01*
X027258Y010041D01*
X02725Y010036D01*
X027241Y010031D01*
X027232Y010026D01*
X027222Y010022D01*
X027222D01*
X027221Y010022D01*
X02722Y010022D01*
X027218Y010021D01*
X027215Y01002D01*
X027212Y010019D01*
X027209Y010018D01*
X027206Y010018D01*
X027198Y010016D01*
X027189Y010014D01*
X027179Y010013D01*
X027169Y010013D01*
X027165D01*
X027163Y010013D01*
X027159D01*
X027155Y010013D01*
X027151Y010014D01*
X027146Y010014D01*
X027136Y010017D01*
X027124Y010019D01*
X027113Y010023D01*
X027107Y010025D01*
X027101Y010028D01*
X027101Y010029D01*
X0271Y010029D01*
X027098Y01003D01*
X027096Y010031D01*
X027093Y010033D01*
X027091Y010035D01*
X027084Y01004D01*
X027077Y010046D01*
X027069Y010054D01*
X027062Y010064D01*
X027055Y010074D01*
Y010074D01*
X027054Y010076D01*
X027054Y010077D01*
X027053Y01008D01*
X027051Y010082D01*
X02705Y010086D01*
X027049Y010089D01*
X027048Y010094D01*
X027046Y010098D01*
X027045Y010104D01*
X027043Y010109D01*
X027042Y010115D01*
X027041Y010128D01*
X02704Y010141D01*
Y010142D01*
Y010143D01*
Y010145D01*
X02704Y010148D01*
Y010151D01*
X027041Y010155D01*
X027041Y010159D01*
X027042Y010164D01*
X027043Y010169D01*
X027043Y010174D01*
X027046Y010186D01*
X02705Y010198D01*
X027055Y01021D01*
X027055Y01021D01*
X027056Y010211D01*
X027057Y010213D01*
X027058Y010215D01*
X02706Y010218D01*
X027061Y010221D01*
X027066Y010228D01*
X027073Y010236D01*
X02708Y010243D01*
X027089Y010251D01*
X027094Y010254D01*
X027099Y010258D01*
X0271Y010258D01*
X027101Y010258D01*
X027102Y010259D01*
X027104Y01026D01*
X027107Y010261D01*
X02711Y010263D01*
X027114Y010264D01*
X027118Y010266D01*
X027123Y010267D01*
X027128Y010268D01*
X027134Y01027D01*
X02714Y010271D01*
X027152Y010272D01*
X027159Y010273D01*
X027171D01*
X027173Y010273D01*
D02*
G37*
G36*
X027505Y010239D02*
X027356D01*
Y010162D01*
X027496D01*
Y010132D01*
X027356D01*
Y010047D01*
X027511D01*
Y010017D01*
X027323D01*
Y010269D01*
X027505D01*
Y010239D01*
D02*
G37*
G36*
X026898Y010268D02*
X026905Y010268D01*
X026912Y010267D01*
X02692Y010266D01*
X026926Y010265D01*
X026926D01*
X026927Y010265D01*
X026928D01*
X02693Y010264D01*
X026934Y010263D01*
X026939Y010261D01*
X026944Y010259D01*
X026951Y010255D01*
X026957Y010252D01*
X026963Y010247D01*
X026963Y010247D01*
X026963Y010246D01*
X026964Y010245D01*
X026966Y010244D01*
X02697Y01024D01*
X026974Y010235D01*
X026979Y010229D01*
X026984Y010222D01*
X026989Y010213D01*
X026993Y010204D01*
Y010204D01*
X026993Y010203D01*
X026994Y010201D01*
X026994Y010199D01*
X026995Y010197D01*
X026996Y010194D01*
X026997Y010191D01*
X026998Y010187D01*
X026999Y010183D01*
X026999Y010178D01*
X027001Y010168D01*
X027002Y010156D01*
X027003Y010144D01*
Y010144D01*
Y010143D01*
Y010141D01*
Y010139D01*
X027002Y010137D01*
Y010134D01*
X027002Y010127D01*
X027001Y010119D01*
X027Y01011D01*
X026998Y010102D01*
X026996Y010093D01*
Y010093D01*
X026995Y010092D01*
X026995Y010091D01*
X026995Y010089D01*
X026993Y010085D01*
X026991Y01008D01*
X026989Y010074D01*
X026986Y010069D01*
X026982Y010062D01*
X026979Y010057D01*
X026978Y010056D01*
X026977Y010054D01*
X026975Y010052D01*
X026972Y010048D01*
X026969Y010045D01*
X026964Y010041D01*
X02696Y010037D01*
X026956Y010034D01*
X026955Y010033D01*
X026954Y010032D01*
X026951Y010031D01*
X026947Y010029D01*
X026943Y010027D01*
X026938Y010025D01*
X026932Y010023D01*
X026926Y010021D01*
X026925D01*
X026924Y010021D01*
X026923Y01002D01*
X026919Y01002D01*
X026914Y010019D01*
X026908Y010018D01*
X026901Y010018D01*
X026894Y010017D01*
X026885Y010017D01*
X026795D01*
Y010269D01*
X026891D01*
X026898Y010268D01*
D02*
G37*
G36*
X026742Y010239D02*
X026594D01*
Y010162D01*
X026733D01*
Y010132D01*
X026594D01*
Y010047D01*
X026748D01*
Y010017D01*
X02656D01*
Y010269D01*
X026742D01*
Y010239D01*
D02*
G37*
G36*
X026327Y010268D02*
X02633D01*
X026337Y010268D01*
X026344Y010267D01*
X026352Y010266D01*
X026359Y010264D01*
X026366Y010261D01*
X026366D01*
X026367Y010261D01*
X026369Y01026D01*
X026372Y010258D01*
X026376Y010255D01*
X02638Y010252D01*
X026385Y010248D01*
X026389Y010243D01*
X026393Y010238D01*
X026394Y010237D01*
X026395Y010235D01*
X026397Y010232D01*
X026398Y010227D01*
X0264Y010222D01*
X026402Y010217D01*
X026403Y010211D01*
X026404Y010204D01*
Y010204D01*
Y010202D01*
X026403Y010199D01*
X026402Y010195D01*
X026401Y01019D01*
X0264Y010185D01*
X026397Y01018D01*
X026394Y010174D01*
X026394Y010173D01*
X026393Y010172D01*
X026391Y010169D01*
X026388Y010166D01*
X026384Y010163D01*
X02638Y010159D01*
X026374Y010155D01*
X026368Y010151D01*
X026369D01*
X026369Y010151D01*
X02637Y010151D01*
X026372Y01015D01*
X026376Y010148D01*
X026381Y010146D01*
X026387Y010143D01*
X026393Y010139D01*
X026398Y010134D01*
X026404Y010128D01*
X026404Y010127D01*
X026405Y010125D01*
X026408Y010122D01*
X02641Y010117D01*
X026412Y010112D01*
X026414Y010105D01*
X026416Y010098D01*
X026416Y01009D01*
Y01009D01*
Y010089D01*
Y010087D01*
X026416Y010084D01*
X026415Y010079D01*
X026414Y010074D01*
X026413Y010069D01*
X026411Y010063D01*
X026408Y010057D01*
X026408Y010056D01*
X026407Y010054D01*
X026405Y010052D01*
X026403Y010048D01*
X0264Y010045D01*
X026397Y010041D01*
X026394Y010037D01*
X02639Y010033D01*
X026389Y010033D01*
X026388Y010032D01*
X026385Y01003D01*
X026382Y010029D01*
X026378Y010027D01*
X026373Y010025D01*
X026368Y010023D01*
X026362Y010021D01*
X026361D01*
X026359Y01002D01*
X026356Y01002D01*
X026351Y010019D01*
X026345Y010018D01*
X026338Y010018D01*
X02633Y010017D01*
X026322Y010017D01*
X026226D01*
Y010269D01*
X026325D01*
X026327Y010268D01*
D02*
G37*
G36*
X025847D02*
X025853Y010268D01*
X02586Y010268D01*
X025866Y010267D01*
X025871Y010266D01*
X025872D01*
X025875Y010266D01*
X025878Y010265D01*
X025882Y010264D01*
X025887Y010262D01*
X025892Y01026D01*
X025898Y010257D01*
X025902Y010254D01*
X025903Y010254D01*
X025905Y010253D01*
X025907Y010251D01*
X02591Y010248D01*
X025913Y010245D01*
X025916Y01024D01*
X02592Y010236D01*
X025923Y01023D01*
X025923Y01023D01*
X025924Y010228D01*
X025925Y010224D01*
X025927Y01022D01*
X025928Y010215D01*
X025929Y010209D01*
X02593Y010203D01*
X02593Y010196D01*
Y010195D01*
Y010194D01*
Y010193D01*
X02593Y01019D01*
X02593Y010188D01*
X025929Y010184D01*
X025929Y010181D01*
X025928Y010177D01*
X025925Y010168D01*
X025924Y010164D01*
X025922Y010159D01*
X025919Y010155D01*
X025917Y01015D01*
X025913Y010146D01*
X02591Y010141D01*
X025909Y010141D01*
X025909Y01014D01*
X025907Y010139D01*
X025906Y010138D01*
X025903Y010136D01*
X025901Y010135D01*
X025897Y010132D01*
X025893Y01013D01*
X025888Y010128D01*
X025883Y010126D01*
X025877Y010124D01*
X02587Y010123D01*
X025863Y010121D01*
X025855Y01012D01*
X025846Y01012D01*
X025836Y010119D01*
X025772D01*
Y010017D01*
X025738D01*
Y010269D01*
X025842D01*
X025847Y010268D01*
D02*
G37*
%LPC*%
G36*
X026886Y010239D02*
X026828D01*
Y010047D01*
X026888D01*
X02689Y010047D01*
X026896Y010048D01*
X026902Y010048D01*
X026908Y010049D01*
X026915Y01005D01*
X02692Y010051D01*
X026921Y010052D01*
X026923Y010052D01*
X026926Y010053D01*
X026929Y010054D01*
X026932Y010057D01*
X026936Y010059D01*
X02694Y010061D01*
X026943Y010064D01*
X026944Y010065D01*
X026945Y010066D01*
X026947Y010069D01*
X02695Y010073D01*
X026953Y010077D01*
X026956Y010083D01*
X026959Y010089D01*
X026962Y010096D01*
Y010096D01*
X026962Y010097D01*
X026962Y010098D01*
X026963Y0101D01*
X026963Y010101D01*
X026964Y010104D01*
X026964Y010106D01*
X026965Y010109D01*
X026966Y010117D01*
X026967Y010125D01*
X026968Y010135D01*
X026969Y010145D01*
Y010145D01*
Y010147D01*
Y010148D01*
X026968Y010151D01*
Y010155D01*
X026968Y010158D01*
X026967Y010163D01*
X026967Y010167D01*
X026965Y010177D01*
X026963Y010187D01*
X02696Y010196D01*
X026958Y010201D01*
X026955Y010205D01*
Y010205D01*
X026955Y010206D01*
X026954Y010207D01*
X026953Y010209D01*
X02695Y010212D01*
X026947Y010217D01*
X026942Y010222D01*
X026936Y010226D01*
X02693Y01023D01*
X026924Y010234D01*
X026923Y010234D01*
X026921Y010234D01*
X026918Y010235D01*
X026913Y010236D01*
X026907Y010237D01*
X0269Y010238D01*
X026896Y010239D01*
X026891D01*
X026886Y010239D01*
D02*
G37*
G36*
X026319D02*
X026259D01*
Y010163D01*
X026321D01*
X026326Y010164D01*
X026331Y010164D01*
X026336Y010164D01*
X026341Y010165D01*
X026345Y010166D01*
X026346Y010166D01*
X026347Y010167D01*
X026349Y010168D01*
X026352Y010169D01*
X026355Y010171D01*
X026358Y010173D01*
X026362Y010176D01*
X026364Y010179D01*
X026365Y010179D01*
X026365Y01018D01*
X026366Y010182D01*
X026368Y010185D01*
X026369Y010188D01*
X02637Y010191D01*
X02637Y010196D01*
X026371Y0102D01*
Y010201D01*
Y010203D01*
X02637Y010205D01*
X02637Y010208D01*
X026369Y010211D01*
X026368Y010215D01*
X026367Y010219D01*
X026365Y010222D01*
X026364Y010223D01*
X026364Y010224D01*
X026362Y010225D01*
X02636Y010227D01*
X026358Y01023D01*
X026355Y010232D01*
X026351Y010234D01*
X026347Y010235D01*
X026347D01*
X026345Y010236D01*
X026342Y010236D01*
X026338Y010237D01*
X026333Y010238D01*
X026327Y010238D01*
X026319Y010239D01*
D02*
G37*
G36*
X026325Y010133D02*
X026259D01*
Y010047D01*
X026331D01*
X026338Y010047D01*
X026342Y010048D01*
X026345Y010048D01*
X026345D01*
X026346Y010048D01*
X026349Y010049D01*
X026351Y010049D01*
X026357Y010052D01*
X026364Y010054D01*
X026364Y010055D01*
X026365Y010056D01*
X026366Y010057D01*
X026368Y010058D01*
X02637Y01006D01*
X026373Y010062D01*
X026374Y010065D01*
X026377Y010069D01*
X026377Y010069D01*
X026377Y01007D01*
X026378Y010072D01*
X026379Y010075D01*
X02638Y010078D01*
X026381Y010081D01*
X026381Y010086D01*
X026382Y01009D01*
Y010091D01*
Y010092D01*
X026381Y010095D01*
X026381Y010098D01*
X02638Y010102D01*
X026378Y010106D01*
X026377Y01011D01*
X026374Y010114D01*
X026374Y010114D01*
X026373Y010116D01*
X026371Y010118D01*
X026369Y01012D01*
X026366Y010122D01*
X026362Y010125D01*
X026358Y010127D01*
X026354Y010129D01*
X026353Y010129D01*
X026352Y01013D01*
X026348Y01013D01*
X026344Y010131D01*
X026339Y010132D01*
X026333Y010133D01*
X026325Y010133D01*
D02*
G37*
G36*
X025844Y010239D02*
X025772D01*
Y010149D01*
X025839D01*
X025842Y010149D01*
X025844D01*
X025847Y01015D01*
X025854Y010151D01*
X025862Y010152D01*
X02587Y010154D01*
X025877Y010157D01*
X02588Y010159D01*
X025882Y010161D01*
X025883Y010162D01*
X025885Y010163D01*
X025887Y010166D01*
X025889Y01017D01*
X025892Y010175D01*
X025894Y01018D01*
X025895Y010187D01*
X025896Y010195D01*
Y010195D01*
Y010195D01*
Y010197D01*
X025896Y0102D01*
X025895Y010204D01*
X025894Y010208D01*
X025893Y010213D01*
X025891Y010217D01*
X025888Y010222D01*
X025888Y010222D01*
X025887Y010223D01*
X025885Y010225D01*
X025883Y010228D01*
X025879Y01023D01*
X025876Y010232D01*
X025872Y010235D01*
X025867Y010236D01*
X025867D01*
X025865Y010237D01*
X025863Y010237D01*
X02586Y010238D01*
X025856Y010238D01*
X02585Y010239D01*
X025844Y010239D01*
D02*
G37*
%LPD*%
D11*
X030438Y01593D02*
G03*
X035162Y01593I002362J0D01*
G01*
D02*
G03*
X030438Y01593I-002362J0D01*
G01*
X022372Y013363D02*
G03*
X022372Y013363I-000039J0D01*
G01*
X012936Y011002D02*
X021164D01*
X012936D02*
Y041592D01*
X021164D01*
Y011002D02*
Y041592D01*
X021811Y034033D02*
X024075D01*
Y039899D01*
X021811D02*
X024075D01*
X021811Y034033D02*
Y039899D01*
X024811Y033133D02*
X027075D01*
Y038015D01*
X024811D02*
X027075D01*
X024811Y033133D02*
Y038015D01*
X024006Y024957D02*
X024794D01*
X024006Y024169D02*
Y024957D01*
Y024169D02*
X024794D01*
Y024957D01*
X02907Y039171D02*
X03187D01*
X02907D02*
Y04227D01*
X03187D01*
Y039171D02*
Y04227D01*
X029825Y009194D02*
Y011064D01*
Y009194D02*
X0314D01*
Y011064D01*
X029825D02*
X0314D01*
X02892D02*
Y012836D01*
Y011064D02*
X032317D01*
Y012836D01*
X02892D02*
X032317D01*
X025115Y039171D02*
X027914D01*
X025115D02*
Y04227D01*
X027914D01*
Y039171D02*
Y04227D01*
D12*
X025533Y027179D02*
G03*
X025533Y027179I-000197J0D01*
G01*
X022225Y032685D02*
X023569D01*
X022225Y032015D02*
X023569D01*
X022225D02*
Y032685D01*
X023569Y032015D02*
Y032685D01*
X022556Y033113D02*
X023244D01*
X022556Y033487D02*
X023244D01*
Y033113D02*
Y033487D01*
X022556Y033113D02*
Y033487D01*
X022972Y028931D02*
Y031569D01*
X024428Y028931D02*
Y031569D01*
X022972D02*
X024428D01*
X022972Y028931D02*
X024428D01*
X030156Y039613D02*
X030844D01*
X030156Y039987D02*
X030844D01*
Y039613D02*
Y039987D01*
X030156Y039613D02*
Y039987D01*
X030406Y037863D02*
X031094D01*
X030406Y038237D02*
X031094D01*
Y037863D02*
Y038237D01*
X030406Y037863D02*
Y038237D01*
Y036663D02*
X031094D01*
X030406Y037037D02*
X031094D01*
Y036663D02*
Y037037D01*
X030406Y036663D02*
Y037037D01*
Y037637D02*
X031094D01*
X030406Y037263D02*
X031094D01*
X030406D02*
Y037637D01*
X031094Y037263D02*
Y037637D01*
X031115Y034775D02*
Y036119D01*
X031785Y034775D02*
Y036119D01*
X031115Y034775D02*
X031785D01*
X031115Y036119D02*
X031785D01*
X034206Y037637D02*
X034894D01*
X034206Y037263D02*
X034894D01*
X034206D02*
Y037637D01*
X034894Y037263D02*
Y037637D01*
X032775Y03477D02*
Y036345D01*
Y03477D02*
X03435D01*
Y036345D01*
X032775D02*
X03435D01*
X034406Y033837D02*
X035094D01*
X034406Y033463D02*
X035094D01*
X034406D02*
Y033837D01*
X035094Y033463D02*
Y033837D01*
X032091Y033463D02*
X03278D01*
X032091Y033837D02*
X03278D01*
Y033463D02*
Y033837D01*
X032091Y033463D02*
Y033837D01*
X031637Y033556D02*
Y034244D01*
X031263Y033556D02*
Y034244D01*
X031637D01*
X031263Y033556D02*
X031637D01*
X011106Y025063D02*
X011794D01*
X011106Y025437D02*
X011794D01*
Y025063D02*
Y025437D01*
X011106Y025063D02*
Y025437D01*
X012077Y020184D02*
Y021916D01*
X010923Y020184D02*
X012077D01*
X010923D02*
Y021916D01*
X012077D01*
X011821D02*
X012077Y02166D01*
X010939Y023909D02*
X011313Y023535D01*
X010939D02*
X012061D01*
Y024165D01*
X010939D02*
X012061D01*
X010939Y023535D02*
Y024165D01*
X026156Y039563D02*
X026844D01*
X026156Y039937D02*
X026844D01*
Y039563D02*
Y039937D01*
X026156Y039563D02*
Y039937D01*
X027811Y036782D02*
X028311Y036282D01*
X027811D02*
X02974D01*
Y037818D01*
X027811D02*
X02974D01*
X027811Y036282D02*
Y037818D01*
Y032861D02*
X028311Y032361D01*
X027811D02*
X029889D01*
Y034439D01*
X027811D02*
X029889D01*
X027811Y032361D02*
Y034439D01*
X02622Y032263D02*
X026909D01*
X02622Y032637D02*
X026909D01*
Y032263D02*
Y032637D01*
X02622Y032263D02*
Y032637D01*
Y031613D02*
X026909D01*
X02622Y031987D02*
X026909D01*
Y031613D02*
Y031987D01*
X02622Y031613D02*
Y031987D01*
X02374Y027429D02*
Y028629D01*
X02524Y027429D02*
Y028629D01*
X02374Y027429D02*
X02524D01*
X02374Y028629D02*
X02524D01*
X022206Y028537D02*
X022894D01*
X022206Y028163D02*
X022894D01*
X022206D02*
Y028537D01*
X022894Y028163D02*
Y028537D01*
X022031Y026515D02*
X023375D01*
X022031Y027185D02*
X023375D01*
Y026515D02*
Y027185D01*
X022031Y026515D02*
Y027185D01*
X022025Y0216D02*
Y022112D01*
X023175D01*
Y0216D02*
Y022112D01*
X022025Y0216D02*
X023175D01*
X021906Y019337D02*
X022594D01*
X021906Y018963D02*
X022594D01*
X021906D02*
Y019337D01*
X022594Y018963D02*
Y019337D01*
X025306Y018037D02*
X025994D01*
X025306Y017663D02*
X025994D01*
X025306D02*
Y018037D01*
X025994Y017663D02*
Y018037D01*
X025956Y018687D02*
X026644D01*
X025956Y018313D02*
X026644D01*
X025956D02*
Y018687D01*
X026644Y018313D02*
Y018687D01*
X027406Y018313D02*
X028094D01*
X027406Y018687D02*
X028094D01*
Y018313D02*
Y018687D01*
X027406Y018313D02*
Y018687D01*
Y018863D02*
X028094D01*
X027406Y019237D02*
X028094D01*
Y018863D02*
Y019237D01*
X027406Y018863D02*
Y019237D01*
X024065Y017518D02*
X024565Y017018D01*
X022635Y017518D02*
X024565D01*
X022635Y015982D02*
Y017518D01*
Y015982D02*
X024565D01*
Y017518D01*
X022237Y017091D02*
Y01778D01*
X021863Y017091D02*
Y01778D01*
X022237D01*
X021863Y017091D02*
X022237D01*
X025372Y009978D02*
X026919D01*
X021852D02*
Y012871D01*
Y009978D02*
X025372D01*
Y012871D01*
X021852D02*
X025372D01*
D13*
X023819Y019322D02*
X026181D01*
Y021685D01*
X023819D02*
X026181D01*
X023819Y019322D02*
Y021685D01*
D141*
X025265Y016535D02*
X027235D01*
Y014565D02*
Y016535D01*
X025265Y014565D02*
X027235D01*
X025265D02*
Y016535D01*
X026781Y014565D02*
X026901D01*
X026781D02*
X026901D01*
X026584D02*
X026704D01*
X026584D02*
X026704D01*
X026387D02*
X026507D01*
X026387D02*
X026507D01*
X02619D02*
X02631D01*
X02619D02*
X02631D01*
X025993D02*
X026113D01*
X025993D02*
X026113D01*
X025796D02*
X025916D01*
X025796D02*
X025916D01*
X025599D02*
X025719D01*
X025599D02*
X025719D01*
X025265Y014899D02*
Y015019D01*
Y014899D02*
Y015019D01*
Y015096D02*
Y015216D01*
Y015096D02*
Y015216D01*
Y015293D02*
Y015413D01*
Y015293D02*
Y015413D01*
Y01549D02*
Y01561D01*
Y01549D02*
Y01561D01*
Y015687D02*
Y015807D01*
Y015687D02*
Y015807D01*
Y015884D02*
Y016004D01*
Y015884D02*
Y016004D01*
Y016081D02*
Y016201D01*
Y016081D02*
Y016201D01*
X025599Y016535D02*
X025719D01*
X025599D02*
X025719D01*
X025796D02*
X025916D01*
X025796D02*
X025916D01*
X025993D02*
X026113D01*
X025993D02*
X026113D01*
X02619D02*
X02631D01*
X02619D02*
X02631D01*
X026387D02*
X026507D01*
X026387D02*
X026507D01*
X026584D02*
X026704D01*
X026584D02*
X026704D01*
X026781D02*
X026901D01*
X026781D02*
X026901D01*
X027235Y016081D02*
Y016201D01*
Y016081D02*
Y016201D01*
Y015884D02*
Y016004D01*
Y015884D02*
Y016004D01*
Y015687D02*
Y015807D01*
Y015687D02*
Y015807D01*
Y01549D02*
Y01561D01*
Y01549D02*
Y01561D01*
Y015293D02*
Y015413D01*
Y015293D02*
Y015413D01*
Y015096D02*
Y015216D01*
Y015096D02*
Y015216D01*
Y014899D02*
Y015019D01*
Y014899D02*
Y015019D01*
X026735Y016535D02*
X027235Y016035D01*
D142*
X029807Y023487D02*
Y027581D01*
X035437D01*
Y023487D02*
Y027581D01*
X029807Y023487D02*
X035437D01*
X029807Y023762D02*
X030102Y023487D01*
D143*
X02341Y03235D02*
D03*
D144*
X03145Y03596D02*
D03*
D145*
X02219Y02685D02*
D03*
M02*
