M48
;Layer_Color=9474304
;FILE_FORMAT=2:4
INCH,LZ
;TYPE=PLATED
T1F00S00C0.0079
T2F00S00C0.0118
T3F00S00C0.0236
T5F00S00C0.0276
T6F00S00C0.0315
T7F00S00C0.0354
T8F00S00C0.0390
T9F00S00C0.0394
T10F00S00C0.0512
T11F00S00C0.0652
T12F00S00C0.1091
T13F00S00C0.1220
;TYPE=NON_PLATED
T14F00S00C0.0256
T15F00S00C0.0512
T16F00S00C0.1260
%
T01
X0125Y01415
X02335Y014
X023875Y013975
X02385Y01525
X02335
X023317Y012117
X023907Y012157
X0243Y01195
X02272Y01187
X0267Y0133
X027235Y013285
X02914Y0139
X0303Y0151
X03255Y02005
X03135Y0223
X03145Y0229
X03375Y0226
X034Y024235
Y024606
Y024977
Y025348
Y025719
Y026091
Y026462
Y026833
X0346Y027266
X034891
X035181
Y027058
Y02685
Y02425
Y024026
Y023802
X034891
X0346
X0316Y02815
X0313Y02905
X03215Y02955
X0325Y03
X03125Y03055
X0309Y0299
X03095Y02935
X0312Y02855
X0296Y02975
X0265Y02985
X0261Y02925
X02575Y02705
X0258Y02655
X02575Y026
X02625Y02515
X02715Y0256
X02705Y0245
X0272Y02255
X02625Y02295
X0241Y02365
X02385Y02445
X02415Y01835
X02555Y01845
X0257Y0173
X02625Y01705
X0236Y01675
X02235Y01855
X02995Y01865
X0293Y0201
X031Y02065
X03085Y02175
X02865Y02235
X0288Y02595
X0293Y02555
X0308Y01685
X0125Y01805
X01265Y0199
Y02385
X0265Y03325
X0291Y03135
X03015Y0362
X029525Y037375
X0286Y03735
X0275Y0374
X03175Y03685
X033565Y037035
X0338Y03825
X0342Y0388
X03435Y03435
T02
X012992Y01063
X01378
X014567
X015354
X014961Y011417
X014173
X013386
X01378Y012205
X014567
X015354
Y01378
X014567
X01378
X012992
X012205
X012992Y015354
X015354
X014961Y014567
X012992Y012205
X015748Y011417
X016142Y01063
X016929
X017717
X018504
X019291
X020079
X020866
X02126Y011417
X020472
X019685
X018898
X01811
X018504Y012205
X019291
X020079
X020866
X02126Y012992
X020472
X019685
X018898
X01811
X017323
X017717Y01378
X018504
X01811Y014567
X018504Y015354
X019291
X020079
X020866
X02126Y014567
X020472
X019685
X020079Y01378
X020866
X021654
X022835Y011417
X023228Y01063
X024016
X024409Y011417
X026378Y01063
X027953
X02874
X029528
X030315
X031102
X030709Y011417
X029921
X029134Y012992
X028346
X026378Y01378
X031102
X022441Y01063
X016929Y01378
X016142
X016535Y014567
X015748
X016142Y015354
X032677
X033465
X035039
X034646Y014567
X035039Y01378
X034646Y012992
X033858
X033071
X032283
X031496
X03189Y01378
X032677
X033465
X032283Y014567
X031496Y011417
X03189Y01063
X032677
X033071Y016142
X032283
X031496
X032283Y017717
X033858
X034646
X035039Y018504
Y020079
X033465
X033071Y019291
X033465Y016929
X035039
X034646Y016142
X03189Y023228
X034252Y027953
X035039
X034646Y02874
X035039Y029528
X034252
X034646Y030315
X035039Y031102
X034252
X029528Y024803
X027953
X027559Y024016
X026772
Y022441
X027559
X027953Y023228
Y021654
X02874
X026772Y020866
X025591Y024803
X023228Y023228
X020866
X020079
X020472Y024016
X02126
X020866Y024803
X020079
X020472Y025591
X02126
X020866Y026378
X020079
X020472Y027165
X02126
X021654Y027953
X020866
X020079
X020472Y02874
X02126
X019685
Y030315
X01811
X017323
X016535
X015748
X016142Y031102
X016929
X017717
X018504
Y029528
X017717
X016929
X016142
X016535Y02874
X017323
X01811
X018504Y027953
X017717
X016929
X016142
X016535Y027165
X017323
X01811
X019685
Y025591
Y024016
X01811
X017323
X016535
X015748
X016142Y024803
X016929
X017717
X018504
X01811Y025591
X017323
X016535
X015748
Y027165
Y02874
X016142Y023228
X016929
X017717
X018504
X01811Y022441
X017323
X016535
X015748
X016142Y021654
X016929
X017717
X018504
X01811Y020866
X017323
X016535
X015748
X016142Y020079
X016929
X017717
X018504
X01811Y019291
X017323
X016535
X015748
X016142Y018504
X016929
X017717
X018504
X01811Y017717
X017323
X016535
X015748
X016535Y016142
X01811
X018898
X019685
X020472
X02126
Y017717
X020472
X019685
X020079Y018504
X020866
X02126Y019291
X020472
X019685
X020079Y020079
X020866
X02126Y020866
X020472
X019685
X020079Y021654
X020866
X021654
X020866Y031102
X015354
X014567
X01378
X012992
X012205
X011417
X01063
X011024Y030315
X011811
X012598
X013386
X014173
X014961
X015354Y029528
X014567
X01378
X012992
X012205
X011417
X01063
X011024Y02874
X011811
X012598
X013386
X014173
X014961
X015354Y027953
X014567
X01378
X012992
X012205
X011417
X01063
X011024Y027165
X011811
X012598
X013386
X014173
X014961
Y025591
X014173
X013386
X012598
X012992Y024803
X01378
X014567
X015354
X014961Y024016
X014173
X013386
X01378Y023228
X014567
X015354
X014961Y022441
X014173
X013386
X012992Y023228
X012205Y024803
X01063
Y026378
X012205Y020079
X012992
X01378
X013386Y019291
X012992Y018504
X012205
X011417
X013386Y017717
X014961
X015354Y018504
X014961Y019291
X015354Y020079
X014961Y020866
X015354Y021654
X014567
X014173Y016142
X011811
Y03189
X012598
X013386
X014173
X014961
X015354Y032677
X014567
X01378
X012992
X012205
X011417
X01063
X011024Y033465
X011811
X012598
X013386
X014173
X014961
X015354Y034252
X014567
X01378
X012992
X012205
X011417
X01063
X011024Y035039
X011811
X012598
X013386
X014173
X014961
X015354Y035827
X014567
X01378
X012992
X012205
X011417
X01063
X011024Y036614
X011811
X012598
X013386
X014173
X014961
X015354Y037402
X014567
X01378
X012992
X012205
X011417
X01063
X011024Y038189
X011811
X012598
X013386
X014173
X014961
X015354Y038976
X014567
X01378
X012992
X012205
X011417
X01063
X012598Y039764
X013386
X014173
X014961
X015354Y040551
X014567
X01378
X012992
X013386Y041339
X014173
X014961
X011024Y03189
X015748
X016535
X017323
X01811
X018504Y032677
X017717
X016929
X016142
X016535Y033465
X017323
X01811
X018504Y034252
X017717
X016929
X016142
X016535Y035039
X017323
X01811
X018504Y035827
X017717
X016929
X016142
X015748Y036614
X016142Y037402
X016535Y038189
X017323
X01811
X018504Y038976
X017717
X016929
X016142
X015748Y039764
Y041339
X01811
X018898
X019685
X020472
X02126
X021654Y040551
X020866
X020079
X019291
X019685Y039764
X020472
X02126
X022047
X022441Y038976
X021654
X020866
X020079
X019685Y038189
Y036614
X02126
X022047
X022441Y037402
X021654
X020866
Y035827
X021654
X022441
X022047Y035039
X02126
X021654Y034252
X020866
Y032677
X022047Y033465
X019685
Y035039
Y03189
X015748Y033465
Y035039
Y038189
X018504Y037402
X01811Y036614
Y039764
X024409
X024803Y040551
X024016
X024409Y041339
X025197
X025984
X026772
X027953Y040551
X02874
X029921Y038189
Y036614
X028346
X027953Y037402
X027165Y035827
X024803
X025197Y035039
X025591Y034252
X024803
Y032677
X023622Y036614
X024016Y037402
X025591
X025197Y038189
X024016Y038976
X02874Y034252
X03189
X032283Y035039
X032677Y032677
X034252
X035039
X034646Y03189
X03189Y040551
T03
X02045Y02035
Y0235
X02335Y0228
X0235Y02585
T05
X01345Y0188
T06
X029825Y01195
X030613
X0314
X0328Y01465
Y017209
T07
X026Y0117
X027
X028
T08
X025628Y04075
X0274
X029584
X031356
T09
X01895Y0142
X02315Y034997
Y035982
Y036966
Y03795
Y038934
X02615Y03705
Y036066
Y035082
Y034097
T10
X025134Y03977
X027894
X02909
X03185
T11
X028998Y01195
X032227
T12
X01705Y011946
Y040647
T13
X011433Y011433
X034157
X011433Y04085
X034157
T14
X022474Y01245
X02475
T15
X022363Y034367
X025166Y033467
T16
X01705Y01535
Y037244
M30
